<?xml version="1.0" encoding="UTF-8" standalone="no"?><!DOCTYPE svg PUBLIC "-//W3C//DTD SVG 1.1//EN" "http://www.w3.org/Graphics/SVG/1.1/DTD/svg11.dtd"><svg width="100%" height="100%" viewBox="0 0 24 24" version="1.1" xmlns="http://www.w3.org/2000/svg" xmlns:xlink="http://www.w3.org/1999/xlink" xml:space="preserve" xmlns:serif="http://www.serif.com/" style="fill-rule:evenodd;clip-rule:evenodd;stroke-linejoin:round;stroke-miterlimit:2;"><path d="M2,9.5c0,-3.017 2.483,-5.5 5.5,-5.5c1.56,0 3.048,0.664 4.091,1.824c0.106,0.113 0.254,0.177 0.409,0.177c0.155,0 0.303,-0.064 0.409,-0.177c1.041,-1.17 2.535,-1.84 4.101,-1.84c3.012,-0 5.49,2.478 5.49,5.49c0,0.009 -0,0.017 -0,0.026c0,2.29 -1.5,4 -3,5.5l-5.492,5.313c-0.38,0.436 -0.93,0.687 -1.508,0.687c-0.569,0 -1.112,-0.243 -1.492,-0.668l-5.508,-5.332c-1.5,-1.5 -3,-3.2 -3,-5.5" style="fill:#fff;fill-rule:nonzero;"/></svg>