<?xml version="1.0" encoding="UTF-8" standalone="no"?><!DOCTYPE svg PUBLIC "-//W3C//DTD SVG 1.1//EN" "http://www.w3.org/Graphics/SVG/1.1/DTD/svg11.dtd"><svg width="100%" height="100%" viewBox="0 0 24 24" version="1.1" xmlns="http://www.w3.org/2000/svg" xmlns:xlink="http://www.w3.org/1999/xlink" xml:space="preserve" xmlns:serif="http://www.serif.com/" style="fill-rule:evenodd;clip-rule:evenodd;stroke-linecap:round;stroke-linejoin:round;"><path d="M11,4l0,16c0,0.552 -0.448,1 -1,1l-6,0c-0.552,0 -1,-0.448 -1,-1l0,-16c0,-0.552 0.448,-1 1,-1l6,0c0.552,0 1,0.448 1,1Z" style="fill:none;stroke:#fff;stroke-width:2px;"/><path d="M7,3l0,18" style="fill:none;fill-rule:nonzero;stroke:#fff;stroke-width:2px;"/><path d="M20.4,18.9c0.2,0.5 -0.1,1.1 -0.6,1.3l-1.9,0.7c-0.5,0.2 -1.1,-0.1 -1.3,-0.6l-5.5,-15.2c-0.2,-0.5 0.1,-1.1 0.6,-1.3l1.9,-0.7c0.5,-0.2 1.1,0.1 1.3,0.6l5.5,15.2Z" style="fill:none;fill-rule:nonzero;stroke:#fff;stroke-width:2px;"/></svg>