<?xml version="1.0" encoding="UTF-8" standalone="no"?><!DOCTYPE svg PUBLIC "-//W3C//DTD SVG 1.1//EN" "http://www.w3.org/Graphics/SVG/1.1/DTD/svg11.dtd"><svg width="100%" height="100%" viewBox="0 0 24 24" version="1.1" xmlns="http://www.w3.org/2000/svg" xmlns:xlink="http://www.w3.org/1999/xlink" xml:space="preserve" xmlns:serif="http://www.serif.com/" style="fill-rule:evenodd;clip-rule:evenodd;stroke-linejoin:round;stroke-miterlimit:2;"><path d="M6.5,11l5.5,-9l5.5,9l-11,0Zm11,11c-1.25,0 -2.312,-0.438 -3.188,-1.312c-0.875,-0.875 -1.312,-1.938 -1.312,-3.188c0,-1.25 0.438,-2.312 1.312,-3.188c0.875,-0.875 1.938,-1.312 3.188,-1.312c1.25,0 2.312,0.438 3.188,1.312c0.875,0.875 1.312,1.938 1.312,3.188c0,1.25 -0.438,2.312 -1.312,3.188c-0.875,0.875 -1.938,1.312 -3.188,1.312Zm-14.5,-0.5l0,-8l8,0l0,8l-8,0Zm14.5,-1.5c0.7,0 1.292,-0.242 1.775,-0.725c0.483,-0.483 0.725,-1.075 0.725,-1.775c0,-0.7 -0.242,-1.292 -0.725,-1.775c-0.483,-0.483 -1.075,-0.725 -1.775,-0.725c-0.7,0 -1.292,0.242 -1.775,0.725c-0.483,0.483 -0.725,1.075 -0.725,1.775c0,0.7 0.242,1.292 0.725,1.775c0.483,0.483 1.075,0.725 1.775,0.725Zm-12.5,-0.5l4,0l0,-4l-4,0l0,4Zm5.05,-10.5l3.9,0l-1.95,-3.15l-1.95,3.15Z" style="fill:#fff;fill-rule:nonzero;"/></svg>