<?xml version="1.0" encoding="UTF-8" standalone="no"?>
<!DOCTYPE svg PUBLIC "-//W3C//DTD SVG 1.1//EN" "http://www.w3.org/Graphics/SVG/1.1/DTD/svg11.dtd">
<svg width="100%" height="100%" viewBox="0 0 24 24" version="1.1" xmlns="http://www.w3.org/2000/svg" xmlns:xlink="http://www.w3.org/1999/xlink" xml:space="preserve" xmlns:serif="http://www.serif.com/" style="fill-rule:evenodd;clip-rule:evenodd;stroke-linecap:round;stroke-linejoin:round;">
    <g transform="matrix(1.086139,0,0,1.086139,-1.076823,-1.033666)">
        <path d="M9,9.003C9,9.002 9,9.001 9,9C9,8.451 9.451,8 10,8C10.182,8 10.361,8.05 10.517,8.144L15.514,11.141C15.816,11.321 16.002,11.648 16.002,12C16.002,12.352 15.816,12.679 15.514,12.859L10.517,15.856C10.361,15.95 10.182,16 10,16C9.451,16 9,15.549 9,15C9,14.999 9,14.997 9,14.996L9,9.003Z" style="fill:#fff;fill-rule:nonzero;"/>
    </g>
    <path d="M9.311,2.366C10.167,2.128 11.069,2 12,2C17.519,2 22,6.481 22,12C22,15.039 20.642,17.763 18.5,19.597" style="fill:none;stroke:#fff;stroke-width:2px;"/>
    <path d="M14.7,21.631C13.841,21.871 12.935,22 12,22C6.481,22 2,17.519 2,12C2,8.955 3.364,6.226 5.514,4.391" style="fill:none;stroke:#fff;stroke-width:2px;"/>
    <g transform="matrix(-0.707107,0.707107,-0.707107,-0.707107,36.744557,9.671692)">
        <path d="M17.849,3L20.849,6L17.849,9" style="fill:none;fill-rule:nonzero;stroke:#fff;stroke-width:2px;"/>
    </g>
    <g transform="matrix(0.707107,-0.707107,0.707107,0.707107,-12.740776,14.328308)">
        <path d="M17.849,3L20.849,6L17.849,9" style="fill:none;fill-rule:nonzero;stroke:#fff;stroke-width:2px;"/>
    </g>
</svg>
