<?xml version="1.0" encoding="UTF-8" standalone="no"?><!DOCTYPE svg PUBLIC "-//W3C//DTD SVG 1.1//EN" "http://www.w3.org/Graphics/SVG/1.1/DTD/svg11.dtd"><svg width="100%" height="100%" viewBox="0 0 24 24" version="1.1" xmlns="http://www.w3.org/2000/svg" xmlns:xlink="http://www.w3.org/1999/xlink" xml:space="preserve" xmlns:serif="http://www.serif.com/" style="fill-rule:evenodd;clip-rule:evenodd;stroke-linejoin:round;stroke-miterlimit:2;"><path d="M7.298,11.434c-0.809,-0.809 -1.218,-1.848 -1.218,-3.121c0,-1.273 0.409,-2.312 1.218,-3.121c0.809,-0.809 1.848,-1.218 3.121,-1.218c1.273,0 2.312,0.409 3.121,1.218c0.809,0.809 1.218,1.848 1.218,3.121c0,1.273 -0.409,2.312 -1.218,3.121c-0.809,0.809 -1.848,1.218 -3.121,1.218c-1.273,0 -2.312,-0.409 -3.121,-1.218Zm4.687,-1.555c0.412,-0.412 0.616,-0.936 0.616,-1.566c0,-0.631 -0.204,-1.154 -0.616,-1.566c-0.412,-0.412 -0.936,-0.616 -1.566,-0.616c-0.631,0 -1.154,0.204 -1.566,0.616c-0.412,0.412 -0.616,0.936 -0.616,1.566c0,0.631 0.204,1.154 0.616,1.566c0.412,0.412 0.936,0.616 1.566,0.616c0.631,0 1.154,-0.204 1.566,-0.616Z" style="fill:#fff;"/><path d="M1.461,21.111l0,-2.554c0,-0.625 0.164,-1.227 0.496,-1.803c0.336,-0.582 0.837,-1.022 1.507,-1.319c1.377,-0.605 2.601,-1.032 3.675,-1.279c1.078,-0.248 2.172,-0.373 3.279,-0.373c0.867,0 1.702,0.069 2.503,0.208c0.803,0.138 1.637,0.364 2.505,0.677c0.086,0.032 0.15,0.105 0.168,0.196c0.018,0.09 -0.013,0.183 -0.081,0.245c-0.206,0.188 -0.386,0.382 -0.541,0.579c-0.153,0.195 -0.288,0.411 -0.406,0.648c-0.058,0.116 -0.19,0.173 -0.313,0.134c-0.566,-0.177 -1.169,-0.309 -1.806,-0.398c-0.641,-0.088 -1.317,-0.134 -2.029,-0.134c-1.031,0 -2,0.098 -2.906,0.292c-0.907,0.196 -1.965,0.58 -3.174,1.148c-0.239,0.12 -0.418,0.286 -0.538,0.502c-0.122,0.221 -0.185,0.446 -0.185,0.674l0,0.661l10.335,0c0.124,0 0.231,0.087 0.258,0.208c0.067,0.321 0.164,0.608 0.29,0.86c0.122,0.245 0.273,0.458 0.453,0.638c0.075,0.075 0.098,0.188 0.057,0.286c-0.041,0.098 -0.137,0.162 -0.243,0.162l-13.043,0c-0.145,0 -0.263,-0.118 -0.263,-0.263l0.001,0.004Z" style="fill:#fff;"/><path d="M19.612,10.243c0,-0.145 0.117,-0.263 0.262,-0.264l3.587,0c0.145,0 0.263,0.118 0.263,0.263l0,1.63c0,0.145 -0.118,0.263 -0.263,0.263l-1.992,0l0,6.123c0,0.929 -0.292,1.678 -0.865,2.251c-0.572,0.572 -1.322,0.865 -2.251,0.865c-0.929,0 -1.678,-0.292 -2.251,-0.865c-0.572,-0.572 -0.865,-1.322 -0.865,-2.251c0,-0.929 0.292,-1.678 0.865,-2.251c0.572,-0.572 1.322,-0.865 2.251,-0.865c0.335,0 0.64,0.04 0.915,0.119c0.12,0.035 0.235,0.076 0.344,0.125l-0.001,-5.144l0.001,0Z" style="fill:#fff;"/></svg>