<?xml version="1.0" encoding="UTF-8" standalone="no"?><!DOCTYPE svg PUBLIC "-//W3C//DTD SVG 1.1//EN" "http://www.w3.org/Graphics/SVG/1.1/DTD/svg11.dtd"><svg width="100%" height="100%" viewBox="0 0 24 24" version="1.1" xmlns="http://www.w3.org/2000/svg" xmlns:xlink="http://www.w3.org/1999/xlink" xml:space="preserve" xmlns:serif="http://www.serif.com/" style="fill-rule:evenodd;clip-rule:evenodd;stroke-linejoin:round;stroke-miterlimit:2;"><path d="M7.559,11.495c-0.769,-0.769 -1.158,-1.757 -1.158,-2.967c0,-1.21 0.389,-2.198 1.158,-2.967c0.769,-0.769 1.757,-1.158 2.967,-1.158c1.21,0 2.198,0.389 2.967,1.158c0.769,0.769 1.158,1.757 1.158,2.967c0,1.21 -0.389,2.198 -1.158,2.967c-0.769,0.769 -1.757,1.158 -2.967,1.158c-1.21,0 -2.198,-0.389 -2.967,-1.158Zm4.456,-1.478c0.392,-0.392 0.586,-0.89 0.586,-1.489c0,-0.6 -0.194,-1.097 -0.586,-1.489c-0.392,-0.392 -0.89,-0.586 -1.489,-0.586c-0.6,0 -1.097,0.194 -1.489,0.586c-0.392,0.392 -0.586,0.89 -0.586,1.489c0,0.6 0.194,1.097 0.586,1.489c0.392,0.392 0.89,0.586 1.489,0.586c0.6,0 1.097,-0.194 1.489,-0.586Z" style="fill:#fff;"/><path d="M2.01,20.695l0,-2.428c0,-0.594 0.156,-1.166 0.472,-1.714c0.319,-0.553 0.796,-0.972 1.433,-1.254c1.309,-0.575 2.473,-0.981 3.494,-1.216c1.025,-0.236 2.065,-0.355 3.117,-0.355c0.824,0 1.618,0.066 2.38,0.198c0.763,0.131 1.556,0.346 2.381,0.644c0.082,0.03 0.143,0.1 0.16,0.186c0.017,0.086 -0.012,0.174 -0.077,0.233c-0.196,0.179 -0.367,0.363 -0.514,0.55c-0.145,0.185 -0.274,0.391 -0.386,0.616c-0.055,0.11 -0.181,0.164 -0.298,0.127c-0.538,-0.168 -1.111,-0.294 -1.717,-0.378c-0.609,-0.084 -1.252,-0.127 -1.929,-0.127c-0.98,0 -1.901,0.093 -2.763,0.278c-0.862,0.186 -1.868,0.551 -3.017,1.091c-0.227,0.114 -0.397,0.272 -0.511,0.477c-0.116,0.21 -0.176,0.424 -0.176,0.641l-0,0.628l9.825,0c0.118,-0 0.22,0.083 0.245,0.198c0.064,0.305 0.156,0.578 0.276,0.818c0.116,0.233 0.26,0.435 0.431,0.607c0.071,0.071 0.093,0.179 0.054,0.272c-0.039,0.093 -0.13,0.154 -0.231,0.154l-12.4,0c-0.138,0 -0.25,-0.112 -0.25,-0.25Z" style="fill:#fff;"/><path d="M19.266,10.363c-0,-0.138 0.111,-0.25 0.249,-0.251l3.41,0c0.138,-0 0.25,0.112 0.25,0.25l0,1.55c-0,0.138 -0.112,0.25 -0.25,0.25l-1.894,0l0,5.821c0,0.883 -0.278,1.595 -0.822,2.14c-0.544,0.544 -1.257,0.822 -2.14,0.822c-0.883,0 -1.595,-0.278 -2.14,-0.822c-0.544,-0.544 -0.822,-1.257 -0.822,-2.14c0,-0.883 0.278,-1.595 0.822,-2.14c0.544,-0.544 1.257,-0.822 2.14,-0.822c0.318,0 0.608,0.038 0.87,0.113c0.114,0.033 0.223,0.072 0.327,0.119l-0.001,-4.89Z" style="fill:#fff;"/></svg>