<?xml version="1.0" encoding="UTF-8" standalone="no"?><!DOCTYPE svg PUBLIC "-//W3C//DTD SVG 1.1//EN" "http://www.w3.org/Graphics/SVG/1.1/DTD/svg11.dtd"><svg width="100%" height="100%" viewBox="0 0 24 24" version="1.1" xmlns="http://www.w3.org/2000/svg" xmlns:xlink="http://www.w3.org/1999/xlink" xml:space="preserve" xmlns:serif="http://www.serif.com/" style="fill-rule:evenodd;clip-rule:evenodd;stroke-linecap:round;stroke-linejoin:round;"><g><path d="M17.808,8l4,4l-4,4" style="fill:none;fill-rule:nonzero;stroke:#fff;stroke-width:2px;"/></g><g><path d="M2.808,5l1.973,0c1.311,-0.009 2.373,0.773 3.3,1.7" style="fill:none;fill-rule:nonzero;stroke:#fff;stroke-width:2px;"/></g><g><path d="M8.081,6.7c0,0 1.969,2.067 3.454,3.6" style="fill:none;stroke:#fff;stroke-width:2px;stroke-miterlimit:1.5;"/></g><g><path d="M11.535,10.3c1.132,1.132 1.989,1.709 3.3,1.7l6.973,0" style="fill:none;fill-rule:nonzero;stroke:#fff;stroke-width:2px;"/></g><g><path d="M2.808,19l1.973,0c1.311,0.009 2.373,-0.773 3.3,-1.7" style="fill:none;fill-rule:nonzero;stroke:#fff;stroke-width:2px;"/></g><g><path d="M8.081,17.301c0,0 1.969,-2.067 3.454,-3.6" style="fill:none;stroke:#fff;stroke-width:2px;stroke-miterlimit:1.5;"/></g><g><path d="M11.535,13.7c1.132,-1.132 1.989,-1.709 3.3,-1.7l6.973,0" style="fill:none;fill-rule:nonzero;stroke:#fff;stroke-width:2px;"/></g></svg>