<?xml version="1.0" encoding="UTF-8" standalone="no"?>
<!DOCTYPE svg PUBLIC "-//W3C//DTD SVG 1.1//EN" "http://www.w3.org/Graphics/SVG/1.1/DTD/svg11.dtd">
<svg width="100%" height="100%" viewBox="0 0 24 24" version="1.1" xmlns="http://www.w3.org/2000/svg" xmlns:xlink="http://www.w3.org/1999/xlink" xml:space="preserve" xmlns:serif="http://www.serif.com/" style="fill-rule:evenodd;clip-rule:evenodd;stroke-linecap:round;stroke-linejoin:round;">
    <path d="M2.264,14.292C2.091,13.556 2,12.789 2,12C2,11.212 2.091,10.444 2.264,9.708C2.437,8.972 2.691,8.267 3.017,7.604C3.343,6.94 3.74,6.318 4.198,5.747C4.656,5.176 5.176,4.656 5.747,4.198C6.318,3.74 6.94,3.343 7.604,3.017C8.268,2.691 8.972,2.437 9.708,2.264C10.444,2.091 11.211,2 12,2C12.788,2 13.556,2.091 14.292,2.264C15.028,2.437 15.733,2.691 16.396,3.017C17.06,3.343 17.682,3.74 18.253,4.198C18.824,4.656 19.344,5.176 19.802,5.747C20.26,6.318 20.657,6.94 20.983,7.604C21.309,8.268 21.563,8.972 21.736,9.708C21.909,10.444 22,11.211 22,12C22,12.788 21.909,13.556 21.736,14.292C21.563,15.028 21.309,15.733 20.983,16.396C20.657,17.06 20.26,17.682 19.802,18.253C19.344,18.824 18.824,19.344 18.253,19.802C17.682,20.26 17.06,20.657 16.396,20.983C15.732,21.309 15.028,21.563 14.292,21.736C13.556,21.909 12.789,22 12,22" style="fill:none;stroke:#fff;stroke-width:2px;"/>
    <path d="M12,6L12,12L16,14" style="fill:none;fill-rule:nonzero;stroke:#fff;stroke-width:2px;"/>
    <g>
        <g transform="matrix(1,0,0,1,0.654,0.137)">
            <path d="M2.346,18.258L9.557,18.258" style="fill:none;fill-rule:nonzero;stroke:#fff;stroke-width:1.8px;"/>
            <path d="M5.952,14.652L5.952,21.863" style="fill:none;fill-rule:nonzero;stroke:#fff;stroke-width:1.8px;"/>
        </g>
    </g>
</svg>
