<?xml version="1.0" encoding="UTF-8" standalone="no"?><!DOCTYPE svg PUBLIC "-//W3C//DTD SVG 1.1//EN" "http://www.w3.org/Graphics/SVG/1.1/DTD/svg11.dtd"><svg width="100%" height="100%" viewBox="0 0 48 48" version="1.1" xmlns="http://www.w3.org/2000/svg" xmlns:xlink="http://www.w3.org/1999/xlink" xml:space="preserve" xmlns:serif="http://www.serif.com/" style="fill-rule:evenodd;clip-rule:evenodd;stroke-linejoin:round;stroke-miterlimit:2;"><path d="M38.901,8.715c0.407,-2.359 1.004,-3.843 1.666,-3.846l0.001,0c1.234,0.004 2.234,5.149 2.234,11.501c0,6.352 -1.002,11.501 -2.237,11.501c-0.506,0 -0.973,-0.874 -1.35,-2.339c-0.594,5.363 -1.828,9.05 -3.256,9.05c-1.105,0 -2.097,-2.215 -2.762,-5.707c-0.455,6.643 -1.599,11.355 -2.936,11.355c-0.839,0 -1.604,-1.867 -2.171,-4.908c-0.681,6.277 -2.255,10.675 -4.09,10.675c-1.835,0 -3.411,-4.397 -4.09,-10.675c-0.562,3.041 -1.327,4.908 -2.171,4.908c-1.337,0 -2.479,-4.713 -2.936,-11.355c-0.666,3.493 -1.655,5.707 -2.762,5.707c-1.427,0 -2.662,-3.685 -3.256,-9.05c-0.373,1.469 -0.843,2.339 -1.35,2.339c-1.235,0 -2.237,-5.149 -2.237,-11.501c0,-6.352 1.001,-11.501 2.237,-11.501c0.663,0 1.256,1.488 1.667,3.846c0.659,-4.068 1.729,-6.712 2.939,-6.712c1.437,-0 2.681,3.739 3.27,9.169c0.576,-3.952 1.45,-6.471 2.43,-6.471c1.372,0 2.539,4.955 2.971,11.867c0.813,-3.544 1.989,-5.767 3.291,-5.767c1.302,0 2.479,2.225 3.29,5.767c0.434,-6.912 1.599,-11.867 2.971,-11.867c0.978,0 1.851,2.519 2.43,6.471c0.587,-5.43 1.832,-9.169 3.269,-9.169c1.206,-0 2.28,2.645 2.939,6.712Zm-36.898,6.525c0,-2.84 0.568,-5.142 1.269,-5.142c0.701,0 1.269,2.303 1.269,5.142c0,2.839 -0.568,5.142 -1.269,5.142c-0.701,0 -1.269,-2.303 -1.269,-5.142Zm41.457,0c0,-2.84 0.568,-5.142 1.269,-5.142c0.701,0 1.269,2.303 1.269,5.142c0,2.839 -0.568,5.142 -1.269,5.142c-0.701,0 -1.269,-2.303 -1.269,-5.142Z" style="fill:#fff;"/></svg>