<?xml version="1.0" encoding="UTF-8" standalone="no"?><!DOCTYPE svg PUBLIC "-//W3C//DTD SVG 1.1//EN" "http://www.w3.org/Graphics/SVG/1.1/DTD/svg11.dtd"><svg width="100%" height="100%" viewBox="0 0 24 24" version="1.1" xmlns="http://www.w3.org/2000/svg" xmlns:xlink="http://www.w3.org/1999/xlink" xml:space="preserve" xmlns:serif="http://www.serif.com/" style="fill-rule:evenodd;clip-rule:evenodd;stroke-linejoin:round;stroke-miterlimit:2;"><path d="M10.166,21.902c-2.322,-0.364 -4.603,-1.482 -6.158,-3.017c-0.533,-0.526 -0.569,-0.578 -0.552,-0.788c0.032,-0.39 -0.026,-0.384 3.532,-0.384c3.543,0 3.709,0.015 4.44,0.387c0.305,0.155 0.566,0.374 1.082,0.908c0.941,0.972 1.479,1.219 2.511,1.149c0.616,-0.041 1.091,-0.224 1.577,-0.605c1.525,-1.197 1.525,-3.621 0,-4.818c-0.522,-0.41 -0.958,-0.568 -1.667,-0.605c-1.001,-0.053 -1.56,0.217 -2.475,1.195c-0.409,0.437 -0.659,0.646 -0.978,0.815c-0.778,0.414 -0.653,0.404 -4.828,0.404l-3.789,0l-0.336,-0.164c-0.42,-0.205 -0.637,-0.429 -0.862,-0.892c-0.453,-0.927 -0.665,-2.011 -0.665,-3.405c-0,-1.444 0.289,-2.903 0.732,-3.697c0.207,-0.37 0.603,-0.685 1.027,-0.817c0.422,-0.131 7.4,-0.123 7.943,0.009c0.687,0.167 1.085,0.427 1.787,1.167c0.504,0.531 0.728,0.718 1.045,0.874c1.174,0.577 2.431,0.35 3.351,-0.604c0.661,-0.686 0.901,-1.358 0.845,-2.371c-0.027,-0.495 -0.06,-0.622 -0.282,-1.085c-0.675,-1.408 -2.223,-2.064 -3.614,-1.532c-0.523,0.2 -0.778,0.393 -1.436,1.088c-0.639,0.675 -1.064,0.952 -1.682,1.1c-0.169,0.04 -1.551,0.066 -3.636,0.067c-3.733,0.002 -3.634,0.013 -3.635,-0.397c-0,-0.17 0.079,-0.28 0.509,-0.707c1.211,-1.202 2.92,-2.199 4.652,-2.713c1.045,-0.311 1.817,-0.424 3.121,-0.457c1.388,-0.036 2.203,0.051 3.395,0.361c3.42,0.889 6.174,3.24 7.361,6.283c0.247,0.635 0.52,1.651 0.52,1.939c0,0.325 -0.18,0.623 -0.454,0.751c-0.236,0.111 -0.508,0.117 -5.046,0.117c-5.28,0 -5.283,0 -6.05,-0.386c-0.304,-0.153 -0.548,-0.358 -1.041,-0.876c-0.669,-0.704 -1.025,-0.948 -1.617,-1.112c-0.41,-0.113 -1.084,-0.108 -1.53,0.012c-1.389,0.374 -2.356,1.923 -2.117,3.391c0.289,1.777 1.979,2.925 3.646,2.476c0.595,-0.16 0.939,-0.397 1.622,-1.115c0.508,-0.534 0.725,-0.715 1.044,-0.869c0.786,-0.38 0.778,-0.38 6.075,-0.381c5.436,-0.001 5.139,-0.027 5.373,0.468c0.105,0.223 0.11,0.292 0.047,0.676c-0.179,1.078 -0.818,2.595 -1.516,3.596c-1.688,2.422 -4.472,4.108 -7.548,4.57c-0.833,0.125 -2.906,0.122 -3.72,-0.006Z" style="fill:#fff;fill-rule:nonzero;"/></svg>