<?xml version="1.0" encoding="UTF-8" standalone="no"?><!DOCTYPE svg PUBLIC "-//W3C//DTD SVG 1.1//EN" "http://www.w3.org/Graphics/SVG/1.1/DTD/svg11.dtd"><svg width="100%" height="100%" viewBox="0 0 512 512" version="1.1" xmlns="http://www.w3.org/2000/svg" xmlns:xlink="http://www.w3.org/1999/xlink" xml:space="preserve" xmlns:serif="http://www.serif.com/" style="fill-rule:evenodd;clip-rule:evenodd;stroke-linejoin:round;stroke-miterlimit:2;"><g id="XMLID_632_"><g id="g2"><path id="XMLID_657_" d="M301.752,311.813c-0.71,-6.41 -2.84,-11.039 -7.101,-15.312c-7.989,-8.368 -22.013,-13.888 -38.523,-13.888c-16.51,0 -30.534,5.342 -38.523,13.888c-4.083,4.451 -6.391,8.903 -7.101,15.312c-1.42,12.464 -0.533,23.147 0.888,40.417c1.42,16.381 4.083,38.281 7.456,60.359c2.485,15.846 4.438,24.393 6.213,30.447c3.018,9.971 13.847,18.517 31.067,18.517c17.22,0 28.227,-8.724 31.067,-18.517c1.775,-6.054 3.728,-14.6 6.213,-30.447c3.373,-22.256 6.036,-43.978 7.456,-60.359c1.598,-17.271 2.308,-27.954 0.888,-40.417Z" style="fill:#fff;fill-rule:nonzero;"/><path id="XMLID_655_" d="M299.799,221.007c0,24.215 -19.528,43.8 -43.671,43.8c-24.143,0 -43.671,-19.586 -43.671,-43.8c0,-24.215 19.528,-43.8 43.671,-43.8c24.143,0 43.671,19.764 43.671,43.8Z" style="fill:#fff;fill-rule:nonzero;"/><path id="XMLID_653_" d="M255.595,48.477c-101.9,0.356 -185.337,83.327 -186.757,185.528c-1.065,82.793 51.66,153.657 125.333,179.653c1.775,0.712 3.551,-0.89 3.373,-2.671c-0.888,-6.41 -1.953,-12.82 -2.663,-19.229c-0.355,-2.315 -1.775,-4.095 -3.728,-5.163c-58.228,-25.461 -98.882,-84.04 -98.172,-151.877c0.888,-89.025 73.318,-161.491 161.903,-162.204c90.716,-0.712 164.744,73.001 164.744,163.806c0,67.125 -40.476,124.813 -98.172,150.274c-2.13,0.89 -3.551,2.849 -3.728,5.163c-0.888,6.41 -1.775,12.82 -2.663,19.229c-0.355,1.959 1.598,3.383 3.373,2.671c72.963,-25.639 125.333,-95.435 125.333,-177.338c-0.355,-103.625 -84.68,-188.021 -188.177,-187.843Z" style="fill:#fff;fill-rule:nonzero;"/><path id="XMLID_651_" d="M251.334,110.794c-66.395,2.493 -119.652,57.51 -120.54,124.101c-0.533,43.8 21.303,82.615 54.855,105.584c1.598,1.068 3.906,-0.178 3.906,-2.137c-0.533,-7.656 -0.533,-14.422 -0.178,-21.544c0.178,-2.315 -0.71,-4.451 -2.485,-6.054c-20.415,-19.229 -32.842,-46.649 -32.132,-76.918c1.42,-53.415 44.204,-96.859 97.462,-98.996c57.873,-2.315 105.45,44.334 105.45,101.667c0,29.2 -12.427,55.552 -32.132,74.247c-1.598,1.602 -2.485,3.739 -2.485,6.054c0.355,6.944 0.178,13.71 -0.178,21.366c-0.178,1.959 2.13,3.383 3.906,2.137c33.02,-22.612 54.855,-60.893 54.855,-103.981c0.178,-70.864 -58.939,-128.374 -130.304,-125.525Z" style="fill:#fff;fill-rule:nonzero;"/></g></g></svg>