<?xml version="1.0" encoding="UTF-8" standalone="no"?><!DOCTYPE svg PUBLIC "-//W3C//DTD SVG 1.1//EN" "http://www.w3.org/Graphics/SVG/1.1/DTD/svg11.dtd"><svg width="100%" height="100%" viewBox="0 0 27 21" version="1.1" xmlns="http://www.w3.org/2000/svg" xmlns:xlink="http://www.w3.org/1999/xlink" xml:space="preserve" xmlns:serif="http://www.serif.com/" style="fill-rule:evenodd;clip-rule:evenodd;stroke-linejoin:round;stroke-miterlimit:2;"><path id="path196" d="M15.774,20.742c-0.049,-0.003 -0.237,-0.012 -0.418,-0.022c-1.989,-0.104 -4.373,-0.476 -6.644,-1.036c-1.056,-0.26 -1.882,-0.498 -3.012,-0.867c-0.286,-0.093 -0.577,-0.181 -0.647,-0.195c-0.219,-0.044 -0.334,-0.011 -0.671,0.194c-0.445,0.271 -0.927,0.461 -1.434,0.565c-0.192,0.04 -0.245,0.044 -0.558,0.044c-0.306,0 -0.36,-0.004 -0.474,-0.035c-0.278,-0.076 -0.469,-0.21 -0.552,-0.386c-0.039,-0.082 -0.043,-0.11 -0.043,-0.276c0,-0.15 0.007,-0.206 0.037,-0.297c0.102,-0.308 0.299,-0.631 0.662,-1.085c0.117,-0.146 0.248,-0.315 0.291,-0.376c0.078,-0.111 0.078,-0.111 0.05,-0.155c-0.015,-0.024 -0.111,-0.14 -0.213,-0.256c-0.102,-0.117 -0.223,-0.264 -0.27,-0.327c-0.212,-0.283 -0.38,-0.658 -0.518,-1.152c-0.046,-0.163 -0.105,-0.338 -0.132,-0.39c-0.067,-0.127 -0.179,-0.222 -0.421,-0.356c-0.746,-0.414 -0.796,-0.447 -0.796,-0.531c0,-0.154 0.259,-0.315 0.806,-0.502c0.322,-0.11 0.416,-0.154 0.494,-0.23c0.073,-0.071 0.098,-0.131 0.203,-0.489c0.049,-0.167 0.211,-0.669 0.361,-1.115c0.149,-0.446 0.29,-0.884 0.312,-0.972c0.096,-0.385 0.122,-0.688 0.122,-1.427l0,-0.495l0.076,0.008c0.042,0.005 0.17,0.016 0.285,0.025c0.451,0.036 0.863,0.134 1.297,0.307c0.13,0.052 0.247,0.094 0.259,0.094c0.025,0 0.591,-0.268 1.326,-0.628l0.488,-0.239l-0.01,-0.213c-0.022,-0.478 -0.046,-1.596 -0.039,-1.79c0.011,-0.299 0.027,-0.329 0.307,-0.582l0.219,-0.197l-0.008,-0.204c-0.01,-0.249 -0.066,-2.698 -0.079,-3.442c-0.012,-0.683 0.01,-1.35 0.046,-1.405c0.037,-0.056 0.244,-0.18 0.376,-0.225c0.301,-0.102 0.625,-0.098 0.993,0.014c0.222,0.068 0.259,0.124 0.319,0.482c0.044,0.262 0.065,0.472 0.243,2.45c0.099,1.097 0.183,1.821 0.217,1.854c0.03,0.03 0.126,-0.035 0.315,-0.216c0.378,-0.361 0.597,-0.465 1.204,-0.569c0.491,-0.084 0.922,-0.119 1.631,-0.132c1.601,-0.028 3.123,0.187 3.591,0.507c0.135,0.092 0.308,0.256 0.281,0.266c-0.013,0.005 -0.142,0.038 -0.288,0.074c-0.478,0.117 -1.216,0.192 -2.691,0.273c-1.087,0.06 -1.94,0.119 -1.97,0.138c-0.028,0.017 -0.013,0.069 0.028,0.102c0.056,0.044 0.252,0.105 0.493,0.153c0.44,0.088 0.818,0.121 1.497,0.132c1.065,0.017 1.715,-0.05 3.093,-0.319c0.244,-0.048 0.29,-0.052 0.578,-0.051c0.369,0 0.514,0.022 1.251,0.191c0.57,0.13 1.768,0.418 1.777,0.427c0.005,0.006 0.047,0.847 0.06,1.211l0.003,0.095l-0.377,0.142c-1.355,0.512 -2.365,0.66 -6.033,0.881c-1.262,0.076 -2.223,0.161 -2.345,0.208c-0.26,0.099 0.633,0.134 3.398,0.134c2.869,0 2.929,-0.003 4.764,-0.286c1.752,-0.27 2.348,-0.348 2.864,-0.372c0.34,-0.016 0.53,0.025 0.577,0.123c0.01,0.022 0.033,0.072 0.051,0.112c0.07,0.157 0.185,0.249 0.654,0.523c0.862,0.504 1.813,1.253 2.4,1.893c0.538,0.585 0.815,0.961 1.031,1.401c0.206,0.417 0.362,0.922 0.505,1.629l0.011,0.054l-0.062,-0.009c-0.034,-0.005 -0.225,-0.025 -0.423,-0.043c-0.462,-0.044 -0.992,-0.037 -1.342,0.017c-0.551,0.085 -0.989,0.2 -1.88,0.497c-1.421,0.473 -2.53,0.738 -3.8,0.909c-0.98,0.132 -1.743,0.18 -3.207,0.202c-1.202,0.018 -1.492,0.037 -1.481,0.094c0.016,0.082 0.521,0.162 1.354,0.214c0.433,0.027 2.219,0.027 2.748,-0c1.85,-0.095 2.801,-0.255 4.756,-0.8c0.883,-0.246 1.395,-0.358 1.976,-0.432c0.193,-0.024 1.263,-0.092 1.275,-0.08c0.012,0.012 -0.08,0.647 -0.12,0.826c-0.09,0.401 -0.197,0.692 -0.424,1.151c-0.316,0.637 -0.7,1.19 -1.216,1.751c-0.686,0.746 -1.448,1.295 -2.399,1.728c-1.411,0.643 -3.052,1.004 -5.029,1.107c-0.274,0.014 -1.686,0.019 -1.928,0.006l0.001,-0Zm-4.339,-3.717c0.454,-0.153 0.766,-0.676 0.869,-1.454c0.031,-0.238 0.011,-0.759 -0.04,-0.998c-0.129,-0.609 -0.375,-0.992 -0.8,-1.243c-0.212,-0.125 -0.259,-0.14 -0.375,-0.114c-0.116,0.026 -0.313,0.126 -0.429,0.218c-0.329,0.261 -0.585,0.799 -0.656,1.379c-0.027,0.226 -0.011,0.715 0.031,0.907c0.096,0.444 0.312,0.88 0.557,1.12c0.106,0.105 0.259,0.193 0.378,0.217c0.115,0.024 0.347,0.008 0.466,-0.032l-0,0Zm-4.577,-0.92c0.223,-0.116 0.395,-0.438 0.491,-0.92c0.037,-0.189 0.042,-0.932 0.007,-1.109c-0.048,-0.24 -0.143,-0.453 -0.282,-0.634c-0.144,-0.187 -0.254,-0.258 -0.4,-0.257c-0.308,0.001 -0.598,0.43 -0.711,1.052c-0.04,0.222 -0.041,0.726 -0.001,0.932c0.101,0.521 0.224,0.758 0.466,0.899c0.18,0.105 0.281,0.114 0.43,0.037l-0,0Zm-3.299,-0.469c0.168,-0.152 0.26,-0.492 0.291,-1.081c0.034,-0.634 -0.06,-1.281 -0.209,-1.437c-0.054,-0.056 -0.065,-0.061 -0.145,-0.061c-0.149,0 -0.315,0.122 -0.386,0.281c-0.07,0.158 -0.085,0.331 -0.085,1.012c-0.001,0.711 0.009,0.821 0.087,0.982c0.065,0.133 0.292,0.352 0.373,0.359c0.007,0.001 0.04,-0.024 0.074,-0.055l-0,-0Z" style="fill:#fff;fill-rule:nonzero;"/></svg>