<?xml version="1.0" encoding="UTF-8" standalone="no"?><!DOCTYPE svg PUBLIC "-//W3C//DTD SVG 1.1//EN" "http://www.w3.org/Graphics/SVG/1.1/DTD/svg11.dtd"><svg width="100%" height="100%" viewBox="0 0 1044 1044" version="1.1" xmlns="http://www.w3.org/2000/svg" xmlns:xlink="http://www.w3.org/1999/xlink" xml:space="preserve" xmlns:serif="http://www.serif.com/" style="fill-rule:evenodd;clip-rule:evenodd;stroke-linejoin:round;stroke-miterlimit:2;"><g id="blender_frame.1"><g id="blender_object.Stroke.1.uuid_0x0"><g id="layer.GP_Layer.001.uuid_0x3"><path id="polyline1" d="M688.039,489.714l6.953,4.648l52.619,35.175l-53.065,35.473l-6.507,4.35l0,-79.645Zm-311.884,55.32l0,-255.46l3.121,-6.26l52.619,35.175l52.619,35.175l105.238,70.349l52.619,35.175l24.924,16.661l0,107.376l-25.816,17.257l-31.225,20.873l0,-85.091l1.647,-0.6l1.961,-0.864l1.901,-0.991l1.832,-1.113l1.756,-1.231l1.671,-1.343l1.579,-1.449l1.482,-1.55l1.377,-1.642l1.267,-1.73l1.15,-1.808l1.03,-1.881l0.904,-1.942l0.776,-2l0.643,-2.043l0.509,-2.083l0.371,-2.112l0.232,-2.13l0.092,-2.142l-0.048,-2.143l-0.188,-2.136l-0.327,-2.117l-0.526,-1.964l-0.899,-1.824l-1.238,-1.613l-0.6,-0.526l0.052,-0.795l-0.265,-2.016l-0.654,-1.925l-1.016,-1.761l-0.853,-1.191l-1.343,-1.672l-1.449,-1.579l-1.549,-1.481l-1.643,-1.377l-1.729,-1.267l-1.808,-1.151l-1.88,-1.03l-1.943,-0.905l-1.998,-0.776l-2.045,-0.643l-2.083,-0.508l-2.111,-0.371l-2.132,-0.232l-2.142,-0.092l-2.143,0.048l-2.136,0.188l-2.119,0.327l-2.092,0.465l-2.058,0.601l-2.014,0.734l-1.962,0.864l-1.901,0.991l-1.832,1.113l-1.755,1.23l-1.671,1.343l-1.58,1.449l-1.481,1.549l-1.377,1.643l-1.267,1.73l-1.151,1.808l-1.03,1.881l-0.905,1.942l-0.776,1.999l-0.644,2.045l-0.508,2.082l-0.371,2.112l-0.232,2.132l-0.092,2.141l0.048,2.143l0.188,2.135l0.327,2.117l0.466,2.095l0.601,2.057l0.734,2.014l0.864,1.962l0.991,1.901l1.112,1.831l1.231,1.756l1.342,1.67l1.449,1.58l1.55,1.482l1.642,1.376l1.73,1.267l1.808,1.151l1.88,1.03l1.943,0.905l1.998,0.776l0.684,0.215l0,98.826l-1.098,0.734l-53.065,35.473l-2.878,1.924l0,-66.616l1.317,-0.48l1.961,-0.864l1.901,-0.991l1.832,-1.113l1.756,-1.231l1.671,-1.343l1.579,-1.449l1.482,-1.55l1.377,-1.642l1.267,-1.73l1.151,-1.808l1.03,-1.881l0.904,-1.942l0.776,-2l0.643,-2.043l0.509,-2.083l0.371,-2.112l0.232,-2.13l0.092,-2.142l-0.048,-2.143l-0.188,-2.136l-0.327,-2.117l-0.526,-1.964l-0.202,-0.41l-0.03,-0.456l-0.526,-1.964l-0.516,-1.371l-0.865,-1.963l-1.017,-1.761l-0.3,-0.343l-0.147,-0.432l-1.016,-1.761l-0.853,-1.191l-1.343,-1.672l-1.449,-1.579l-1.549,-1.481l-1.643,-1.377l-1.73,-1.267l-1.809,-1.151l-1.88,-1.03l-1.943,-0.905l-1.998,-0.776l-2.045,-0.643l-2.083,-0.508l-2.111,-0.371l-2.132,-0.232l-2.142,-0.092l-2.143,0.048l-2.136,0.188l-2.119,0.327l-2.092,0.465l-2.058,0.601l-2.014,0.734l-1.962,0.864l-1.901,0.991l-1.832,1.113l-1.755,1.23l-1.671,1.343l-1.58,1.449l-1.481,1.549l-1.377,1.643l-1.267,1.73l-1.151,1.808l-1.03,1.881l-0.904,1.942l-0.776,1.999l-0.644,2.045l-0.508,2.082l-0.371,2.112l-0.232,2.132l-0.092,2.141l0.048,2.143l0.188,2.135l0.327,2.117l0.466,2.095l0.601,2.057l0.734,2.014l0.864,1.962l0.991,1.902l1.112,1.831l1.231,1.756l1.342,1.67l1.449,1.58l1.55,1.482l1.642,1.376l1.73,1.267l1.809,1.151l1.88,1.03l1.943,0.905l1.998,0.776l1.013,0.319l0,80.127l-57.041,38.131l0,-54.289l-0.056,-0.564l1.622,-0.592l1.961,-0.864l1.901,-0.991l1.832,-1.113l1.755,-1.231l1.671,-1.343l1.58,-1.449l1.482,-1.549l1.377,-1.643l1.267,-1.729l1.151,-1.808l1.03,-1.881l0.905,-1.942l0.776,-2l0.643,-2.043l0.509,-2.083l0.371,-2.112l0.232,-2.13l0.092,-2.142l-0.048,-2.143l-0.188,-2.135l-0.327,-2.118l-0.575,-2.091l-0.154,-0.298l-0.029,-0.441l-0.526,-1.964l-0.516,-1.371l-0.865,-1.962l-1.017,-1.761l-0.301,-0.343l-0.147,-0.432l-1.016,-1.761l-0.853,-1.191l-1.343,-1.671l-1.449,-1.58l-1.549,-1.481l-1.644,-1.378l-1.729,-1.266l-1.808,-1.151l-1.88,-1.03l-1.943,-0.905l-1.998,-0.776l-2.045,-0.643l-2.083,-0.508l-2.111,-0.371l-2.132,-0.232l-2.142,-0.092l-2.143,0.048l-2.136,0.188l-2.119,0.327l-2.092,0.465l-2.058,0.601l-2.014,0.734l-1.962,0.864l-1.901,0.991l-1.832,1.113l-1.755,1.23l-1.671,1.343l-1.579,1.449l-1.482,1.55l-1.377,1.642l-1.267,1.73l-1.151,1.808l-1.03,1.881l-0.904,1.942l-0.776,1.999l-0.643,2.044l-0.508,2.082l-0.371,2.112l-0.232,2.132l-0.092,2.141l0.048,2.143l0.188,2.135l0.327,2.117l0.466,2.095l0.601,2.056l0.734,2.015l0.864,1.961l0.991,1.901l1.113,1.832l1.231,1.756l1.342,1.67l1.449,1.579l1.55,1.482l1.642,1.376l1.73,1.267l1.809,1.151l1.879,1.03l1.944,0.905l1.998,0.776l0.802,0.252l-0.038,0.387l0,68.155l-57.792,38.633l0,-170.546l0.045,-0.013l2.014,-0.734l1.961,-0.864l1.901,-0.991l1.831,-1.113l1.756,-1.231l1.672,-1.343l1.579,-1.448l1.482,-1.55l1.376,-1.642l1.267,-1.73l1.15,-1.808l1.03,-1.881l0.904,-1.942l0.776,-2l0.643,-2.043l0.509,-2.083l0.371,-2.113l0.232,-2.129l0.092,-2.142l-0.048,-2.143l-0.188,-2.135l-0.327,-2.117l-0.526,-1.964l-0.203,-0.411l-0.03,-0.456l-0.526,-1.964l-0.516,-1.371l-0.865,-1.963l-1.097,-1.87l-0.226,-0.247l-0.142,-0.417l-1.016,-1.761l-0.853,-1.191l-1.343,-1.672l-1.448,-1.579l-1.55,-1.482l-1.643,-1.377l-1.73,-1.267l-1.808,-1.151l-1.88,-1.03l-1.944,-0.905l-1.999,-0.776l-0.688,-0.216Z" style="fill:#fff;fill-rule:nonzero;"/></g><g id="layer.GP_Layer.uuid_0x4"><path id="path2" d="M356.165,607.391l0,-8.127l0.199,-2.023l0.59,-1.946l0.958,-1.793l1.29,-1.572l1.572,-1.29l1.793,-0.958l1.946,-0.59l2.023,-0.199l2.023,0.199l1.946,0.59l1.793,0.958l1.572,1.29l1.29,1.572l0.958,1.793l0.038,0.125l0,11.88l-2.012,0.588l-2.093,0.465l-2.118,0.327l-2.136,0.188l-2.143,0.048l-2.142,-0.092l-2.131,-0.232l-2.111,-0.371l-2.083,-0.508l-1.022,-0.322Z" style="fill:#fefefe;fill-rule:nonzero;"/><path id="path3" d="M122.815,771.121l0.199,2.023l0.59,1.946l0.958,1.793l1.29,1.572l1.572,1.29l1.793,0.958l1.946,0.59l2.023,0.199l2.023,-0.199l1.946,-0.59l1.793,-0.958l1.572,-1.29l1.29,-1.572l0.958,-1.793l0.59,-1.946l0.199,-2.023l0,-209.302l-0.199,-2.023l-0.59,-1.946l-0.958,-1.793l-1.29,-1.572l-1.572,-1.29l-1.793,-0.958l-1.946,-0.59l-2.023,-0.199l-2.023,0.199l-1.946,0.59l-1.793,0.958l-1.572,1.29l-1.29,1.572l-0.958,1.793l-0.59,1.946l-0.199,2.023l0,209.302Z" style="fill:#fefefe;fill-rule:nonzero;"/><path id="path4" d="M200.598,860.02l0.199,2.023l0.59,1.946l0.958,1.793l1.29,1.572l1.572,1.29l1.793,0.958l1.946,0.59l2.023,0.199l2.023,-0.199l1.946,-0.59l1.793,-0.958l1.572,-1.29l1.29,-1.572l0.958,-1.793l0.59,-1.946l0.199,-2.023l0,-368.448l-0.199,-2.023l-0.59,-1.946l-0.958,-1.793l-1.29,-1.572l-1.572,-1.29l-1.793,-0.958l-1.946,-0.59l-2.023,-0.199l-2.023,0.199l-1.946,0.59l-1.793,0.958l-1.572,1.29l-1.29,1.572l-0.958,1.793l-0.59,1.946l-0.199,2.023l-0,368.448Z" style="fill:#fefefe;fill-rule:nonzero;"/><path id="path5" d="M278.382,917.035l0.199,2.023l0.59,1.946l0.958,1.793l1.29,1.572l1.572,1.29l1.793,0.958l1.945,0.59l2.023,0.199l2.023,-0.199l1.945,-0.59l1.793,-0.958l1.572,-1.29l1.29,-1.572l0.958,-1.793l0.59,-1.946l0.199,-2.023l0,-353.668l-0.199,-2.023l-0.59,-1.946l-0.958,-1.793l-1.29,-1.572l-1.572,-1.29l-1.793,-0.958l-1.945,-0.59l-2.023,-0.199l-2.023,0.199l-1.946,0.59l-1.793,0.958l-1.572,1.29l-1.29,1.572l-0.958,1.793l-0.59,1.946l-0.199,2.023l0,353.668Z" style="fill:#fefefe;fill-rule:nonzero;"/><path id="path6" d="M356.165,599.264l0.199,-2.023l0.59,-1.946l0.958,-1.793l1.29,-1.572l1.572,-1.29l1.793,-0.958l1.946,-0.59l2.023,-0.199l2.023,0.199l1.946,0.59l1.793,0.958l1.572,1.29l1.29,1.572l0.958,1.793l0.038,0.125l0,11.88l0.045,-0.013l0.706,-0.257l0,346.844l-0.199,2.023l-0.59,1.946l-0.958,1.793l-1.29,1.572l-1.572,1.29l-1.793,0.958l-1.946,0.59l-2.023,0.199l-2.023,-0.199l-1.946,-0.59l-1.793,-0.958l-1.572,-1.29l-1.29,-1.572l-0.958,-1.793l-0.59,-1.946l-0.199,-2.023l0,-354.61Z" style="fill:#fefefe;fill-rule:nonzero;"/><path id="path7" d="M433.948,739.214l20.742,-13.866l0,248.515l-0.199,2.023l-0.59,1.946l-0.958,1.793l-1.29,1.572l-1.572,1.29l-1.793,0.958l-1.946,0.59l-2.023,0.199l-2.023,-0.199l-1.946,-0.59l-1.793,-0.958l-1.572,-1.29l-1.29,-1.572l-0.958,-1.793l-0.59,-1.946l-0.199,-2.023l0,-234.649Z" style="fill:#fefefe;fill-rule:nonzero;"/><path id="path8" d="M511.731,687.217l20.742,-13.866l0,308.2l-0.199,2.023l-0.59,1.946l-0.958,1.793l-1.29,1.572l-1.572,1.29l-1.793,0.958l-1.946,0.59l-2.023,0.199l-2.023,-0.199l-1.946,-0.59l-1.793,-0.958l-1.572,-1.29l-1.29,-1.572l-0.958,-1.793l-0.59,-1.946l-0.199,-2.023l0,-294.334Z" style="fill:#fefefe;fill-rule:nonzero;"/><path id="path9" d="M610.256,621.356l0,355.394l-0.199,2.023l-0.59,1.946l-0.958,1.793l-1.29,1.572l-1.572,1.29l-1.793,0.958l-1.945,0.59l-2.023,0.199l-2.023,-0.199l-1.945,-0.59l-1.793,-0.958l-1.572,-1.29l-1.29,-1.572l-0.958,-1.793l-0.59,-1.946l-0.199,-2.023l0,-341.528l20.742,-13.866Z" style="fill:#fefefe;fill-rule:nonzero;"/><path id="path10" d="M667.297,583.225l20.742,-13.866l0,384.248l-0.199,2.023l-0.59,1.946l-0.958,1.793l-1.29,1.572l-1.572,1.29l-1.793,0.958l-1.946,0.59l-2.023,0.199l-2.023,-0.199l-1.946,-0.59l-1.793,-0.958l-1.572,-1.29l-1.29,-1.572l-0.958,-1.793l-0.59,-1.946l-0.199,-2.023l0,-370.382Zm20.742,-93.511l-20.742,-13.866l0,-20.173l0.199,-2.023l0.59,-1.945l0.958,-1.793l1.29,-1.572l1.572,-1.29l1.793,-0.958l1.946,-0.59l2.023,-0.199l2.023,0.199l1.946,0.59l1.793,0.958l1.572,1.29l1.29,1.572l0.958,1.793l0.59,1.945l0.199,2.023l0,34.039Z" style="fill:#fefefe;fill-rule:nonzero;"/><path id="path11" d="M745.08,917.645l0.199,2.023l0.59,1.945l0.958,1.793l1.29,1.572l1.572,1.29l1.793,0.958l1.946,0.59l2.023,0.199l2.023,-0.199l1.946,-0.59l1.793,-0.958l1.572,-1.29l1.29,-1.572l0.958,-1.793l0.59,-1.945l0.199,-2.023l0,-426.072l-0.199,-2.023l-0.59,-1.946l-0.958,-1.793l-1.29,-1.572l-1.572,-1.29l-1.793,-0.958l-1.946,-0.59l-2.023,-0.199l-2.023,0.199l-1.946,0.59l-1.793,0.958l-1.572,1.29l-1.29,1.572l-0.958,1.793l-0.59,1.946l-0.199,2.023l0,426.072Z" style="fill:#fefefe;fill-rule:nonzero;"/><path id="path12" d="M822.863,858.472l0.199,2.023l0.59,1.946l0.958,1.793l1.29,1.572l1.571,1.29l1.793,0.958l1.946,0.59l2.023,0.199l2.023,-0.199l1.946,-0.59l1.793,-0.958l1.572,-1.29l1.29,-1.572l0.958,-1.793l0.59,-1.946l0.199,-2.023l0,-295.106l-0.199,-2.023l-0.59,-1.946l-0.958,-1.793l-1.29,-1.572l-1.572,-1.29l-1.793,-0.958l-1.946,-0.59l-2.023,-0.199l-2.023,0.199l-1.946,0.59l-1.793,0.958l-1.571,1.29l-1.29,1.572l-0.958,1.793l-0.59,1.946l-0.199,2.023l0,295.106Z" style="fill:#fefefe;fill-rule:nonzero;"/><path id="path13" d="M900.646,769.71l0.199,2.023l0.59,1.946l0.958,1.793l1.29,1.572l1.572,1.29l1.793,0.958l1.946,0.59l2.023,0.199l2.023,-0.199l1.945,-0.59l1.793,-0.958l1.572,-1.29l1.29,-1.572l0.958,-1.793l0.59,-1.946l0.199,-2.023l0,-134.548l-0.199,-2.023l-0.59,-1.945l-0.958,-1.793l-1.29,-1.572l-1.572,-1.29l-1.793,-0.958l-1.945,-0.59l-2.023,-0.199l-2.023,0.199l-1.946,0.59l-1.793,0.958l-1.572,1.29l-1.29,1.572l-0.958,1.793l-0.59,1.945l-0.199,2.023l0,134.548Z" style="fill:#fefefe;fill-rule:nonzero;"/><path id="path14" d="M145.821,539.067l0.265,2.016l0.654,1.925l1.017,1.761l1.341,1.529l1.613,1.238l1.823,0.899l1.964,0.526l2.029,0.133l2.016,-0.265l1.925,-0.654l1.761,-1.017l1.528,-1.341l1.238,-1.613l0.899,-1.823l0.526,-1.964l0.133,-2.029l-0.048,-1.464l-0.188,-2.135l-0.327,-2.117l-0.465,-2.094l-0.601,-2.058l-0.734,-2.013l-0.865,-1.964l-0.99,-1.899l-1.114,-1.833l-1.23,-1.754l-1.344,-1.672l-1.448,-1.579l-1.55,-1.482l-1.643,-1.377l-1.73,-1.267l-1.809,-1.151l-1.88,-1.03l-1.944,-0.905l-1.998,-0.776l-2.045,-0.643l-2.083,-0.508l-2.111,-0.371l-2.132,-0.232l-2.142,-0.092l-2.143,0.048l-2.135,0.188l-2.119,0.327l-2.092,0.465l-2.058,0.601l-2.014,0.734l-1.962,0.864l-1.901,0.991l-1.832,1.113l-1.755,1.23l-1.671,1.342l-1.58,1.45l-1.481,1.549l-1.377,1.643l-1.267,1.73l-1.151,1.808l-1.03,1.881l-0.904,1.942l-0.776,1.999l-0.644,2.045l-0.508,2.082l-0.371,2.111l-0.232,2.132l-0.092,2.141l0.048,2.144l0.188,2.136l0.327,2.118l0.465,2.094l0.601,2.058l0.734,2.013l0.865,1.962l0.991,1.902l1.112,1.83l1.231,1.757l1.342,1.67l1.449,1.58l1.55,1.482l1.642,1.376l1.73,1.267l1.809,1.151l1.88,1.03l1.943,0.905l1.998,0.776l2.045,0.644l2.082,0.508l2.111,0.371l2.131,0.232l2.142,0.092l2.143,-0.048l2.136,-0.188l2.118,-0.327l2.093,-0.465l2.057,-0.601l2.014,-0.734l1.961,-0.864l1.901,-0.991l1.831,-1.113l1.756,-1.231l1.672,-1.343l1.579,-1.448l1.482,-1.55l1.376,-1.642l1.267,-1.731l1.15,-1.808l1.03,-1.881l0.904,-1.942l0.777,-2.001l0.643,-2.042l0.509,-2.084l0.371,-2.113l0.232,-2.129l0.092,-2.142l-0.133,-2.029l-0.526,-1.964l-0.899,-1.823l-1.238,-1.613l-1.528,-1.341l-1.761,-1.017l-1.925,-0.654l-2.016,-0.265l-2.029,0.133l-1.964,0.526l-1.823,0.899l-1.613,1.238l-1.34,1.529l-1.017,1.761l-0.654,1.925l-0.265,2.016l-0.031,1.125l-0.077,0.784l-0.128,0.776l-0.178,0.765l-0.229,0.753l-0.277,0.736l-0.325,0.716l-0.371,0.694l-0.415,0.668l-0.458,0.639l-0.499,0.608l-0.538,0.574l-0.574,0.538l-0.608,0.499l-0.639,0.458l-0.668,0.415l-0.694,0.371l-0.716,0.325l-0.736,0.277l-0.753,0.228l-0.766,0.179l-0.776,0.128l-0.783,0.077l-0.786,0.026l-0.786,-0.026l-0.783,-0.077l-0.776,-0.128l-0.766,-0.179l-0.753,-0.228l-0.736,-0.277l-0.717,-0.325l-0.694,-0.371l-0.668,-0.415l-0.639,-0.458l-0.608,-0.499l-0.574,-0.538l-0.537,-0.574l-0.499,-0.608l-0.458,-0.639l-0.415,-0.668l-0.371,-0.694l-0.324,-0.716l-0.277,-0.736l-0.229,-0.753l-0.179,-0.766l-0.128,-0.776l-0.077,-0.783l-0.026,-0.786l0.026,-0.786l0.077,-0.783l0.128,-0.776l0.179,-0.766l0.228,-0.752l0.277,-0.736l0.325,-0.717l0.371,-0.694l0.415,-0.668l0.458,-0.639l0.499,-0.608l0.538,-0.574l0.574,-0.538l0.608,-0.499l0.64,-0.458l0.668,-0.415l0.694,-0.371l0.717,-0.325l0.736,-0.277l0.753,-0.228l0.766,-0.179l0.776,-0.128l0.783,-0.077l0.786,-0.026l0.786,0.026l0.782,0.077l0.776,0.128l0.766,0.179l0.753,0.228l0.736,0.277l0.716,0.325l0.694,0.371l0.668,0.415l0.639,0.458l0.608,0.499l0.574,0.538l0.538,0.574l0.499,0.608l0.458,0.639l0.416,0.668l0.371,0.694l0.325,0.716l0.277,0.736l0.229,0.753l0.178,0.765l0.128,0.776l0.077,0.784l0.031,1.125Z" style="fill:#fefefe;fill-rule:nonzero;"/><path id="path15" d="M222.946,464.543l0.265,2.016l0.653,1.925l1.017,1.761l1.34,1.529l1.613,1.238l1.824,0.899l1.964,0.526l2.029,0.133l2.016,-0.265l1.925,-0.654l1.761,-1.017l1.528,-1.341l1.238,-1.613l0.899,-1.824l0.526,-1.964l0.133,-2.029l-0.048,-1.464l-0.188,-2.136l-0.327,-2.117l-0.465,-2.093l-0.601,-2.058l-0.734,-2.013l-0.865,-1.964l-0.99,-1.899l-1.114,-1.833l-1.23,-1.754l-1.344,-1.673l-1.448,-1.579l-1.55,-1.482l-1.643,-1.377l-1.73,-1.267l-1.809,-1.151l-1.88,-1.03l-1.944,-0.905l-1.998,-0.776l-2.045,-0.643l-2.083,-0.508l-2.111,-0.371l-2.131,-0.232l-2.142,-0.092l-2.143,0.048l-2.135,0.188l-2.119,0.327l-2.092,0.465l-2.058,0.601l-2.014,0.734l-1.962,0.864l-1.901,0.991l-1.832,1.113l-1.755,1.23l-1.671,1.342l-1.58,1.45l-1.481,1.549l-1.377,1.643l-1.267,1.73l-1.151,1.808l-1.03,1.881l-0.904,1.942l-0.776,1.999l-0.644,2.045l-0.508,2.082l-0.371,2.111l-0.232,2.132l-0.092,2.141l0.048,2.144l0.188,2.136l0.327,2.118l0.465,2.094l0.601,2.058l0.734,2.013l0.865,1.962l0.992,1.902l1.112,1.83l1.232,1.757l1.342,1.67l1.449,1.58l1.55,1.482l1.642,1.376l1.73,1.267l1.809,1.151l1.88,1.03l1.943,0.905l1.998,0.776l2.045,0.644l2.082,0.508l2.111,0.371l2.131,0.232l2.142,0.092l2.143,-0.048l2.136,-0.188l2.118,-0.327l2.093,-0.465l2.057,-0.601l2.014,-0.734l1.961,-0.864l1.901,-0.991l1.831,-1.113l1.756,-1.231l1.671,-1.343l1.579,-1.448l1.482,-1.55l1.376,-1.642l1.267,-1.731l1.15,-1.808l1.03,-1.881l0.904,-1.942l0.777,-2.001l0.643,-2.042l0.509,-2.084l0.371,-2.112l0.232,-2.13l0.092,-2.142l-0.133,-2.029l-0.526,-1.964l-0.899,-1.823l-1.238,-1.613l-1.528,-1.341l-1.761,-1.017l-1.925,-0.654l-2.016,-0.265l-2.029,0.133l-1.964,0.526l-1.823,0.899l-1.613,1.238l-1.34,1.529l-1.017,1.761l-0.653,1.925l-0.265,2.016l-0.031,1.125l-0.077,0.783l-0.128,0.776l-0.178,0.765l-0.229,0.754l-0.277,0.736l-0.325,0.716l-0.371,0.694l-0.415,0.668l-0.458,0.639l-0.499,0.608l-0.538,0.574l-0.574,0.538l-0.608,0.499l-0.639,0.458l-0.668,0.415l-0.694,0.371l-0.716,0.325l-0.736,0.277l-0.753,0.228l-0.766,0.179l-0.776,0.128l-0.783,0.077l-0.786,0.026l-0.786,-0.026l-0.783,-0.077l-0.776,-0.128l-0.766,-0.179l-0.753,-0.228l-0.736,-0.277l-0.717,-0.325l-0.694,-0.371l-0.668,-0.415l-0.639,-0.458l-0.608,-0.499l-0.574,-0.538l-0.537,-0.574l-0.499,-0.608l-0.458,-0.639l-0.415,-0.668l-0.371,-0.694l-0.324,-0.716l-0.277,-0.736l-0.229,-0.753l-0.179,-0.766l-0.128,-0.776l-0.077,-0.783l-0.026,-0.786l0.026,-0.786l0.077,-0.783l0.128,-0.776l0.179,-0.766l0.228,-0.753l0.277,-0.736l0.325,-0.717l0.371,-0.694l0.415,-0.668l0.458,-0.639l0.499,-0.608l0.538,-0.574l0.574,-0.538l0.608,-0.499l0.64,-0.458l0.668,-0.415l0.694,-0.371l0.716,-0.325l0.736,-0.277l0.753,-0.228l0.766,-0.179l0.776,-0.128l0.783,-0.077l0.786,-0.026l0.786,0.026l0.782,0.077l0.776,0.128l0.766,0.179l0.753,0.228l0.736,0.277l0.716,0.324l0.694,0.371l0.668,0.415l0.639,0.458l0.608,0.499l0.574,0.538l0.538,0.574l0.499,0.608l0.458,0.639l0.416,0.668l0.371,0.694l0.325,0.716l0.277,0.735l0.228,0.753l0.178,0.766l0.128,0.776l0.077,0.783l0.031,1.125Z" style="fill:#fefefe;fill-rule:nonzero;"/><circle cx="445.226" cy="639.464" r="12.011" style="fill:#fff;"/><circle cx="521.53" cy="576.146" r="12.011" style="fill:#fff;"/><circle cx="600.45" cy="505.499" r="12.011" style="fill:#fff;"/><path id="path16" d="M300.072,536.693l0.265,2.016l0.654,1.925l1.017,1.761l1.341,1.529l1.613,1.238l1.823,0.899l1.964,0.526l2.029,0.133l2.016,-0.265l1.925,-0.654l1.761,-1.017l1.529,-1.34l1.238,-1.613l0.899,-1.823l0.526,-1.964l0.133,-2.029l-0.048,-1.464l-0.188,-2.136l-0.327,-2.117l-0.465,-2.093l-0.601,-2.058l-0.734,-2.014l-0.865,-1.963l-0.99,-1.899l-1.114,-1.833l-1.23,-1.755l-1.343,-1.672l-1.449,-1.579l-1.549,-1.481l-1.643,-1.377l-1.73,-1.267l-1.809,-1.151l-1.88,-1.03l-1.943,-0.905l-1.998,-0.776l-2.045,-0.643l-2.082,-0.508l-2.111,-0.371l-2.132,-0.232l-2.142,-0.092l-2.143,0.048l-2.135,0.188l-2.119,0.327l-2.092,0.465l-2.058,0.601l-2.014,0.734l-1.962,0.864l-1.901,0.991l-1.832,1.113l-1.755,1.23l-1.671,1.343l-1.58,1.449l-1.481,1.549l-1.377,1.643l-1.267,1.73l-1.151,1.808l-1.03,1.881l-0.904,1.942l-0.776,1.999l-0.643,2.044l-0.508,2.083l-0.371,2.111l-0.232,2.132l-0.092,2.14l0.048,2.144l0.188,2.135l0.327,2.117l0.466,2.095l0.601,2.057l0.734,2.014l0.864,1.962l0.991,1.902l1.112,1.831l1.231,1.756l1.342,1.67l1.449,1.58l1.55,1.482l1.642,1.376l1.73,1.267l1.809,1.151l1.88,1.03l1.943,0.905l1.998,0.776l2.045,0.644l2.082,0.508l2.111,0.371l2.131,0.232l2.142,0.092l2.143,-0.048l2.136,-0.188l2.118,-0.327l2.093,-0.465l2.057,-0.601l2.014,-0.734l1.961,-0.864l1.901,-0.991l1.832,-1.113l1.756,-1.231l1.671,-1.343l1.579,-1.448l1.482,-1.55l1.377,-1.642l1.267,-1.73l1.151,-1.808l1.03,-1.881l0.904,-1.942l0.777,-2l0.643,-2.042l0.509,-2.084l0.371,-2.112l0.232,-2.13l0.092,-2.142l-0.133,-2.029l-0.526,-1.964l-0.899,-1.823l-1.238,-1.613l-1.529,-1.341l-1.761,-1.017l-1.925,-0.654l-2.016,-0.265l-2.029,0.133l-1.964,0.526l-1.823,0.899l-1.613,1.238l-1.34,1.529l-1.017,1.761l-0.654,1.925l-0.265,2.016l-0.031,1.126l-0.077,0.783l-0.128,0.776l-0.178,0.765l-0.229,0.753l-0.277,0.736l-0.325,0.716l-0.371,0.694l-0.415,0.668l-0.458,0.639l-0.499,0.608l-0.538,0.574l-0.574,0.538l-0.608,0.499l-0.639,0.458l-0.668,0.415l-0.694,0.371l-0.717,0.325l-0.736,0.277l-0.752,0.228l-0.766,0.179l-0.776,0.128l-0.783,0.077l-0.786,0.026l-0.786,-0.026l-0.783,-0.077l-0.776,-0.128l-0.766,-0.179l-0.753,-0.228l-0.736,-0.277l-0.716,-0.325l-0.694,-0.371l-0.668,-0.415l-0.639,-0.458l-0.608,-0.499l-0.574,-0.538l-0.537,-0.574l-0.499,-0.608l-0.458,-0.639l-0.415,-0.668l-0.371,-0.694l-0.324,-0.716l-0.277,-0.736l-0.229,-0.753l-0.179,-0.766l-0.128,-0.776l-0.077,-0.783l-0.026,-0.786l0.026,-0.787l0.077,-0.783l0.128,-0.776l0.179,-0.766l0.228,-0.753l0.277,-0.736l0.325,-0.717l0.371,-0.694l0.415,-0.668l0.458,-0.639l0.499,-0.608l0.538,-0.574l0.574,-0.538l0.608,-0.499l0.64,-0.458l0.668,-0.415l0.694,-0.371l0.716,-0.325l0.736,-0.277l0.753,-0.228l0.766,-0.179l0.776,-0.128l0.783,-0.077l0.786,-0.026l0.786,0.026l0.782,0.077l0.776,0.128l0.766,0.179l0.753,0.228l0.736,0.277l0.716,0.325l0.694,0.371l0.668,0.415l0.639,0.458l0.608,0.499l0.574,0.538l0.538,0.574l0.499,0.608l0.458,0.639l0.415,0.668l0.371,0.694l0.325,0.717l0.277,0.736l0.228,0.753l0.179,0.766l0.128,0.776l0.077,0.783l0.031,1.125Z" style="fill:#fefefe;fill-rule:nonzero;"/><path d="M356.165,607.391l-1.023,-0.322l-1.998,-0.776l-1.943,-0.905l-1.88,-1.03l-1.809,-1.151l-1.729,-1.267l-1.643,-1.377l-1.55,-1.482l-1.449,-1.58l-1.342,-1.67l-1.231,-1.756l-1.112,-1.831l-0.991,-1.902l-0.864,-1.962l-0.734,-2.014l-0.601,-2.057l-0.465,-2.094l-0.327,-2.118l-0.188,-2.135l-0.048,-2.143l0.092,-2.141l0.232,-2.132l0.371,-2.111l0.508,-2.082l0.644,-2.045l0.776,-1.999l0.905,-1.942l1.03,-1.881l1.151,-1.808l1.267,-1.73l1.377,-1.643l1.481,-1.549l1.58,-1.45l1.671,-1.342l1.755,-1.23l1.832,-1.113l1.901,-0.991l1.962,-0.864l2.014,-0.734l2.058,-0.601l2.092,-0.465l2.119,-0.327l2.136,-0.188l2.143,-0.048l2.142,0.092l2.132,0.232l2.111,0.371l2.083,0.508l1.357,0.427l0,24.691l-0.626,-0.883l-0.499,-0.608l-0.538,-0.574l-0.574,-0.538l-0.608,-0.499l-0.639,-0.458l-0.668,-0.416l-0.694,-0.371l-0.716,-0.325l-0.736,-0.277l-0.753,-0.228l-0.766,-0.179l-0.776,-0.128l-0.782,-0.077l-0.786,-0.026l-0.786,0.026l-0.783,0.077l-0.776,0.128l-0.766,0.179l-0.753,0.228l-0.736,0.277l-0.716,0.325l-0.694,0.371l-0.668,0.415l-0.64,0.458l-0.608,0.499l-0.574,0.538l-0.538,0.574l-0.499,0.608l-0.458,0.64l-0.415,0.668l-0.371,0.694l-0.325,0.717l-0.277,0.736l-0.228,0.753l-0.179,0.766l-0.128,0.776l-0.077,0.783l-0.026,0.786l0.026,0.786l0.077,0.783l0.128,0.776l0.179,0.766l0.228,0.753l0.277,0.736l0.324,0.716l0.371,0.694l0.415,0.668l0.458,0.639l0.499,0.608l0.538,0.574l0.574,0.538l0.608,0.499l0.639,0.458l0.668,0.415l0.694,0.371l0.717,0.325l0.736,0.277l0.753,0.228l0.766,0.179l0.776,0.128l0.783,0.077l0.786,0.026l0.786,-0.026l0.783,-0.077l0.776,-0.128l0.766,-0.179l0.753,-0.228l0.736,-0.277l0.716,-0.325l0.694,-0.371l0.668,-0.415l0.639,-0.458l0.608,-0.499l0.574,-0.538l0.538,-0.574l0.499,-0.608l0.458,-0.639l0.168,-0.27l0,12.853l-0.038,-0.125l-0.958,-1.793l-1.29,-1.572l-1.572,-1.29l-1.793,-0.958l-1.946,-0.59l-2.023,-0.199l-2.023,0.199l-1.946,0.59l-1.793,0.958l-1.572,1.29l-1.29,1.572l-0.958,1.793l-0.59,1.946l-0.199,2.023l0,8.127Z" style="fill:#fefefe;"/><path id="path18" d="M690.457,429.856l0.265,2.016l0.654,1.925l1.016,1.761l1.341,1.528l1.613,1.238l1.823,0.899l1.964,0.526l2.029,0.133l2.016,-0.265l1.925,-0.654l1.761,-1.017l1.529,-1.341l1.238,-1.613l0.899,-1.823l0.526,-1.964l0.133,-2.029l-0.048,-1.464l-0.188,-2.136l-0.327,-2.117l-0.465,-2.093l-0.601,-2.058l-0.734,-2.014l-0.865,-1.963l-0.99,-1.899l-1.114,-1.833l-1.23,-1.755l-1.344,-1.672l-1.449,-1.579l-1.549,-1.481l-1.643,-1.377l-1.73,-1.267l-1.809,-1.151l-1.88,-1.03l-1.943,-0.905l-1.998,-0.776l-2.045,-0.643l-2.083,-0.508l-2.111,-0.371l-2.132,-0.232l-2.142,-0.092l-2.143,0.048l-2.135,0.188l-2.119,0.327l-2.092,0.465l-2.058,0.601l-2.014,0.734l-1.962,0.864l-1.901,0.991l-1.832,1.113l-1.755,1.231l-1.671,1.343l-1.58,1.449l-1.481,1.549l-1.377,1.643l-1.267,1.73l-1.151,1.808l-1.03,1.881l-0.904,1.942l-0.776,1.999l-0.643,2.044l-0.508,2.083l-0.371,2.111l-0.232,2.132l-0.092,2.141l0.048,2.143l0.188,2.135l0.327,2.117l0.466,2.095l0.601,2.057l0.734,2.014l0.864,1.962l0.991,1.901l1.112,1.831l1.231,1.756l1.342,1.67l1.449,1.58l1.55,1.482l1.642,1.376l1.73,1.267l1.809,1.151l1.88,1.03l1.943,0.905l1.998,0.776l2.045,0.644l2.082,0.508l2.111,0.371l2.131,0.232l2.142,0.092l2.143,-0.048l2.136,-0.188l2.118,-0.327l2.093,-0.465l2.057,-0.601l2.014,-0.734l1.961,-0.864l1.901,-0.991l1.832,-1.113l1.756,-1.231l1.671,-1.343l1.579,-1.449l1.482,-1.55l1.376,-1.642l1.267,-1.73l1.151,-1.808l1.03,-1.881l0.904,-1.942l0.776,-2l0.643,-2.042l0.509,-2.084l0.371,-2.112l0.232,-2.13l0.092,-2.142l-0.133,-2.029l-0.526,-1.964l-0.899,-1.824l-1.238,-1.613l-1.529,-1.34l-1.761,-1.017l-1.925,-0.654l-2.016,-0.265l-2.029,0.133l-1.964,0.526l-1.823,0.899l-1.613,1.238l-1.341,1.529l-1.016,1.761l-0.654,1.925l-0.265,2.016l-0.031,1.125l-0.077,0.783l-0.128,0.776l-0.178,0.765l-0.229,0.753l-0.277,0.736l-0.325,0.716l-0.371,0.694l-0.415,0.668l-0.458,0.639l-0.499,0.608l-0.538,0.574l-0.574,0.538l-0.608,0.499l-0.639,0.458l-0.668,0.415l-0.694,0.371l-0.717,0.325l-0.736,0.277l-0.752,0.228l-0.766,0.179l-0.776,0.128l-0.783,0.077l-0.786,0.026l-0.786,-0.026l-0.783,-0.077l-0.776,-0.128l-0.766,-0.179l-0.753,-0.228l-0.736,-0.277l-0.716,-0.325l-0.694,-0.371l-0.668,-0.415l-0.639,-0.458l-0.608,-0.499l-0.574,-0.538l-0.537,-0.574l-0.499,-0.608l-0.458,-0.639l-0.415,-0.668l-0.371,-0.694l-0.324,-0.716l-0.277,-0.736l-0.229,-0.753l-0.179,-0.766l-0.128,-0.776l-0.077,-0.783l-0.026,-0.786l0.026,-0.787l0.077,-0.783l0.128,-0.776l0.179,-0.766l0.228,-0.753l0.277,-0.736l0.325,-0.717l0.371,-0.694l0.415,-0.668l0.458,-0.639l0.499,-0.608l0.538,-0.574l0.574,-0.538l0.608,-0.499l0.639,-0.458l0.668,-0.415l0.694,-0.371l0.716,-0.325l0.736,-0.277l0.753,-0.228l0.766,-0.179l0.776,-0.128l0.782,-0.077l0.786,-0.026l0.786,0.026l0.782,0.077l0.776,0.128l0.766,0.179l0.753,0.228l0.736,0.277l0.716,0.325l0.694,0.371l0.668,0.415l0.639,0.458l0.608,0.499l0.574,0.538l0.538,0.574l0.499,0.608l0.458,0.639l0.415,0.668l0.371,0.694l0.325,0.717l0.277,0.736l0.228,0.753l0.178,0.766l0.128,0.776l0.077,0.783l0.032,1.125Z" style="fill:#fefefe;fill-rule:nonzero;"/><path id="path19" d="M767.112,468.184l0.265,2.016l0.654,1.925l1.017,1.761l1.341,1.529l1.613,1.238l1.823,0.899l1.964,0.526l2.029,0.133l2.016,-0.265l1.925,-0.654l1.761,-1.017l1.529,-1.341l1.238,-1.613l0.899,-1.823l0.526,-1.964l0.133,-2.029l-0.048,-1.464l-0.188,-2.136l-0.327,-2.117l-0.465,-2.093l-0.601,-2.058l-0.734,-2.014l-0.865,-1.963l-0.99,-1.899l-1.114,-1.833l-1.23,-1.755l-1.343,-1.672l-1.449,-1.579l-1.549,-1.481l-1.643,-1.377l-1.729,-1.267l-1.809,-1.151l-1.88,-1.03l-1.943,-0.905l-1.998,-0.776l-2.045,-0.643l-2.083,-0.508l-2.111,-0.371l-2.132,-0.232l-2.142,-0.092l-2.143,0.048l-2.136,0.188l-2.119,0.327l-2.092,0.465l-2.058,0.601l-2.014,0.734l-1.962,0.864l-1.901,0.991l-1.832,1.113l-1.755,1.23l-1.671,1.343l-1.58,1.449l-1.481,1.549l-1.377,1.643l-1.267,1.73l-1.151,1.808l-1.03,1.881l-0.904,1.942l-0.776,1.999l-0.643,2.044l-0.508,2.083l-0.371,2.111l-0.232,2.132l-0.092,2.141l0.048,2.143l0.188,2.136l0.327,2.117l0.466,2.095l0.601,2.057l0.734,2.014l0.864,1.962l0.991,1.902l1.112,1.831l1.231,1.756l1.342,1.67l1.449,1.58l1.55,1.482l1.642,1.376l1.73,1.267l1.809,1.151l1.88,1.03l1.943,0.905l1.998,0.776l2.045,0.644l2.082,0.508l2.111,0.371l2.131,0.232l2.142,0.092l2.143,-0.048l2.136,-0.188l2.118,-0.327l2.093,-0.465l2.057,-0.601l2.014,-0.734l1.961,-0.864l1.901,-0.991l1.832,-1.113l1.756,-1.231l1.671,-1.343l1.579,-1.449l1.482,-1.55l1.376,-1.642l1.267,-1.73l1.151,-1.808l1.03,-1.881l0.904,-1.942l0.777,-2l0.643,-2.042l0.509,-2.084l0.371,-2.112l0.232,-2.13l0.092,-2.142l-0.133,-2.029l-0.526,-1.964l-0.899,-1.824l-1.238,-1.613l-1.529,-1.341l-1.761,-1.017l-1.925,-0.654l-2.016,-0.265l-2.029,0.133l-1.964,0.526l-1.823,0.899l-1.613,1.238l-1.341,1.529l-1.017,1.761l-0.654,1.925l-0.265,2.016l-0.031,1.125l-0.077,0.783l-0.128,0.776l-0.178,0.765l-0.229,0.753l-0.277,0.736l-0.325,0.716l-0.371,0.694l-0.415,0.668l-0.458,0.639l-0.499,0.608l-0.538,0.574l-0.574,0.538l-0.608,0.499l-0.639,0.458l-0.668,0.415l-0.694,0.371l-0.717,0.325l-0.736,0.277l-0.752,0.228l-0.766,0.179l-0.776,0.128l-0.783,0.077l-0.786,0.026l-0.786,-0.026l-0.783,-0.077l-0.776,-0.128l-0.766,-0.179l-0.753,-0.228l-0.736,-0.277l-0.717,-0.325l-0.694,-0.371l-0.668,-0.415l-0.639,-0.458l-0.608,-0.499l-0.574,-0.538l-0.537,-0.574l-0.499,-0.608l-0.458,-0.639l-0.415,-0.668l-0.371,-0.694l-0.324,-0.716l-0.277,-0.736l-0.229,-0.753l-0.179,-0.766l-0.128,-0.776l-0.077,-0.783l-0.026,-0.786l0.026,-0.787l0.077,-0.783l0.128,-0.776l0.179,-0.766l0.228,-0.753l0.277,-0.736l0.325,-0.717l0.371,-0.694l0.415,-0.668l0.458,-0.639l0.499,-0.608l0.538,-0.574l0.574,-0.538l0.608,-0.499l0.639,-0.458l0.668,-0.415l0.694,-0.371l0.716,-0.325l0.736,-0.277l0.753,-0.228l0.766,-0.179l0.776,-0.128l0.783,-0.077l0.786,-0.026l0.786,0.026l0.782,0.077l0.776,0.128l0.766,0.179l0.753,0.228l0.736,0.277l0.716,0.325l0.694,0.371l0.668,0.415l0.64,0.458l0.608,0.499l0.574,0.538l0.538,0.574l0.499,0.608l0.458,0.639l0.415,0.668l0.371,0.694l0.325,0.717l0.277,0.736l0.228,0.753l0.179,0.766l0.128,0.776l0.077,0.783l0.031,1.125Z" style="fill:#fefefe;fill-rule:nonzero;"/><path id="path20" d="M845.433,540.672l0.265,2.016l0.654,1.925l1.017,1.761l1.341,1.528l1.613,1.238l1.823,0.899l1.964,0.526l2.029,0.133l2.016,-0.265l1.925,-0.654l1.761,-1.017l1.529,-1.34l1.238,-1.613l0.899,-1.823l0.526,-1.964l0.133,-2.029l-0.048,-1.464l-0.188,-2.136l-0.327,-2.117l-0.465,-2.093l-0.601,-2.058l-0.734,-2.014l-0.865,-1.963l-0.99,-1.899l-1.114,-1.833l-1.23,-1.755l-1.343,-1.672l-1.449,-1.579l-1.549,-1.481l-1.643,-1.377l-1.73,-1.267l-1.809,-1.151l-1.88,-1.03l-1.943,-0.905l-1.998,-0.776l-2.045,-0.643l-2.083,-0.508l-2.111,-0.371l-2.132,-0.232l-2.142,-0.092l-2.143,0.048l-2.136,0.188l-2.119,0.327l-2.092,0.465l-2.058,0.601l-2.014,0.734l-1.962,0.864l-1.901,0.991l-1.832,1.113l-1.755,1.23l-1.671,1.343l-1.58,1.449l-1.481,1.549l-1.377,1.643l-1.267,1.73l-1.151,1.808l-1.03,1.881l-0.904,1.942l-0.776,1.999l-0.643,2.044l-0.508,2.083l-0.371,2.111l-0.232,2.132l-0.092,2.14l0.048,2.143l0.188,2.135l0.327,2.117l0.466,2.095l0.601,2.057l0.734,2.014l0.864,1.962l0.991,1.902l1.112,1.831l1.231,1.756l1.342,1.67l1.449,1.58l1.55,1.482l1.642,1.376l1.73,1.267l1.809,1.151l1.88,1.03l1.943,0.905l1.998,0.776l2.045,0.644l2.082,0.508l2.111,0.371l2.131,0.232l2.142,0.092l2.143,-0.048l2.136,-0.188l2.118,-0.327l2.093,-0.465l2.058,-0.601l2.014,-0.734l1.961,-0.864l1.901,-0.991l1.832,-1.113l1.756,-1.231l1.671,-1.343l1.579,-1.449l1.482,-1.55l1.377,-1.642l1.267,-1.73l1.151,-1.808l1.03,-1.881l0.904,-1.942l0.776,-2l0.643,-2.042l0.509,-2.084l0.371,-2.112l0.232,-2.13l0.092,-2.142l-0.133,-2.029l-0.526,-1.964l-0.899,-1.823l-1.238,-1.613l-1.529,-1.341l-1.761,-1.017l-1.925,-0.654l-2.016,-0.265l-2.029,0.133l-1.964,0.526l-1.823,0.899l-1.613,1.238l-1.341,1.529l-1.017,1.761l-0.654,1.925l-0.265,2.016l-0.031,1.125l-0.077,0.783l-0.128,0.776l-0.178,0.765l-0.229,0.753l-0.277,0.736l-0.325,0.716l-0.371,0.694l-0.415,0.668l-0.458,0.639l-0.499,0.608l-0.538,0.574l-0.574,0.538l-0.608,0.499l-0.639,0.458l-0.668,0.415l-0.694,0.371l-0.717,0.325l-0.736,0.277l-0.753,0.228l-0.766,0.179l-0.776,0.128l-0.783,0.077l-0.786,0.026l-0.786,-0.026l-0.783,-0.077l-0.776,-0.128l-0.766,-0.179l-0.753,-0.228l-0.736,-0.277l-0.717,-0.325l-0.694,-0.371l-0.668,-0.415l-0.639,-0.458l-0.608,-0.499l-0.574,-0.538l-0.537,-0.574l-0.499,-0.608l-0.458,-0.639l-0.415,-0.668l-0.371,-0.694l-0.324,-0.716l-0.277,-0.736l-0.229,-0.753l-0.179,-0.766l-0.128,-0.776l-0.077,-0.783l-0.026,-0.786l0.026,-0.787l0.077,-0.783l0.128,-0.776l0.179,-0.766l0.228,-0.753l0.277,-0.736l0.325,-0.717l0.371,-0.694l0.415,-0.668l0.458,-0.639l0.499,-0.608l0.538,-0.574l0.574,-0.538l0.608,-0.499l0.639,-0.458l0.668,-0.415l0.694,-0.371l0.716,-0.325l0.736,-0.277l0.753,-0.228l0.766,-0.179l0.776,-0.128l0.782,-0.077l0.786,-0.026l0.786,0.026l0.782,0.077l0.776,0.128l0.766,0.179l0.753,0.228l0.736,0.277l0.716,0.325l0.694,0.371l0.668,0.415l0.639,0.458l0.608,0.499l0.574,0.538l0.538,0.574l0.499,0.608l0.458,0.639l0.415,0.668l0.371,0.694l0.325,0.717l0.277,0.736l0.228,0.753l0.178,0.766l0.128,0.776l0.077,0.783l0.031,1.125Z" style="fill:#fefefe;fill-rule:nonzero;"/><path id="path21" d="M922.082,608.994l0.265,2.016l0.654,1.925l1.017,1.761l1.34,1.528l1.613,1.238l1.823,0.899l1.964,0.526l2.029,0.133l2.016,-0.265l1.925,-0.654l1.761,-1.017l1.529,-1.341l1.238,-1.613l0.899,-1.823l0.526,-1.964l0.133,-2.029l-0.048,-1.464l-0.188,-2.136l-0.327,-2.117l-0.465,-2.093l-0.601,-2.058l-0.734,-2.014l-0.865,-1.963l-0.99,-1.899l-1.114,-1.833l-1.23,-1.755l-1.343,-1.672l-1.449,-1.579l-1.549,-1.481l-1.643,-1.377l-1.73,-1.267l-1.808,-1.151l-1.88,-1.03l-1.943,-0.905l-1.998,-0.776l-2.045,-0.643l-2.082,-0.508l-2.111,-0.371l-2.132,-0.232l-2.142,-0.092l-2.143,0.048l-2.135,0.188l-2.119,0.327l-2.092,0.465l-2.058,0.601l-2.014,0.734l-1.962,0.864l-1.901,0.991l-1.832,1.113l-1.755,1.23l-1.671,1.343l-1.58,1.449l-1.481,1.549l-1.377,1.643l-1.267,1.73l-1.151,1.808l-1.03,1.881l-0.904,1.942l-0.776,1.999l-0.643,2.044l-0.508,2.083l-0.371,2.111l-0.232,2.132l-0.092,2.141l0.048,2.143l0.188,2.136l0.327,2.117l0.466,2.095l0.601,2.057l0.734,2.014l0.864,1.962l0.991,1.901l1.112,1.831l1.231,1.756l1.342,1.67l1.449,1.58l1.55,1.482l1.642,1.376l1.73,1.267l1.809,1.151l1.88,1.03l1.943,0.905l1.998,0.776l2.045,0.644l2.083,0.508l2.111,0.371l2.131,0.232l2.142,0.092l2.143,-0.048l2.136,-0.188l2.118,-0.327l2.093,-0.465l2.058,-0.601l2.014,-0.734l1.961,-0.864l1.901,-0.991l1.832,-1.113l1.756,-1.231l1.671,-1.343l1.579,-1.448l1.482,-1.55l1.377,-1.642l1.267,-1.73l1.15,-1.808l1.03,-1.881l0.904,-1.942l0.777,-2l0.643,-2.042l0.509,-2.084l0.371,-2.112l0.232,-2.13l0.092,-2.142l-0.133,-2.029l-0.526,-1.964l-0.899,-1.823l-1.238,-1.613l-1.529,-1.341l-1.761,-1.017l-1.925,-0.654l-2.016,-0.265l-2.029,0.133l-1.964,0.526l-1.824,0.899l-1.613,1.238l-1.34,1.529l-1.017,1.761l-0.654,1.925l-0.265,2.016l-0.031,1.125l-0.077,0.783l-0.128,0.776l-0.178,0.765l-0.229,0.753l-0.277,0.736l-0.325,0.716l-0.371,0.694l-0.415,0.668l-0.458,0.639l-0.499,0.608l-0.538,0.574l-0.574,0.538l-0.608,0.499l-0.639,0.458l-0.668,0.415l-0.694,0.371l-0.716,0.325l-0.736,0.277l-0.753,0.228l-0.766,0.179l-0.776,0.128l-0.783,0.077l-0.786,0.026l-0.786,-0.026l-0.783,-0.077l-0.776,-0.128l-0.766,-0.179l-0.753,-0.228l-0.736,-0.277l-0.716,-0.325l-0.694,-0.371l-0.668,-0.415l-0.639,-0.458l-0.608,-0.499l-0.574,-0.538l-0.537,-0.574l-0.499,-0.608l-0.458,-0.639l-0.415,-0.668l-0.371,-0.694l-0.324,-0.716l-0.277,-0.736l-0.229,-0.753l-0.179,-0.766l-0.128,-0.776l-0.077,-0.783l-0.026,-0.786l0.026,-0.787l0.077,-0.783l0.128,-0.776l0.179,-0.766l0.228,-0.753l0.277,-0.736l0.325,-0.717l0.371,-0.694l0.415,-0.668l0.458,-0.639l0.499,-0.608l0.538,-0.574l0.574,-0.538l0.608,-0.499l0.639,-0.458l0.668,-0.415l0.694,-0.371l0.716,-0.325l0.736,-0.277l0.753,-0.228l0.766,-0.179l0.776,-0.128l0.783,-0.077l0.786,-0.026l0.786,0.026l0.782,0.077l0.776,0.128l0.766,0.179l0.753,0.228l0.736,0.277l0.716,0.325l0.694,0.371l0.668,0.415l0.64,0.458l0.608,0.499l0.574,0.538l0.538,0.574l0.499,0.608l0.458,0.639l0.415,0.668l0.371,0.694l0.325,0.717l0.277,0.736l0.228,0.753l0.178,0.766l0.128,0.776l0.077,0.783l0.031,1.125Z" style="fill:#fefefe;fill-rule:nonzero;"/></g><g id="layer.GP_Layer.002.uuid_0x5"><path id="path27" d="M974.072,521.869l0.265,2.016l0.653,1.925l1.017,1.761l1.341,1.529l1.613,1.238l1.823,0.899l1.964,0.526l2.029,0.133l2.016,-0.265l1.925,-0.654l1.761,-1.017l1.529,-1.341l1.238,-1.613l0.899,-1.823l0.526,-1.964l0.133,-2.029l-0.991,-30.276l-3.014,-30.823l-5.023,-30.56l-7.011,-30.166l-8.969,-29.643l-10.888,-28.993l-12.761,-28.219l-14.58,-27.324l-16.335,-26.312l-18.021,-25.187l-19.63,-23.954l-21.155,-22.619l-22.589,-21.187l-23.926,-19.664l-25.161,-18.057l-26.288,-16.373l-27.303,-14.619l-28.2,-12.802l-28.977,-10.93l-29.63,-9.011l-30.156,-7.054l-30.553,-5.067l-30.819,-3.058l-30.953,-1.035l-30.954,0.991l-30.823,3.013l-30.56,5.023l-30.166,7.011l-29.643,8.969l-28.993,10.888l-28.219,12.761l-27.324,14.58l-26.312,16.335l-25.187,18.021l-23.954,19.63l-22.619,21.155l-21.187,22.589l-19.664,23.926l-18.057,25.161l-16.373,26.288l-14.619,27.303l-12.802,28.201l-10.93,28.977l-9.011,29.63l-7.054,30.156l-5.067,30.553l-3.058,30.819l-1.035,30.953l0.991,30.954l3.013,30.823l5.023,30.56l7.011,30.166l8.969,29.643l10.889,28.993l12.761,28.219l14.58,27.324l16.335,26.312l18.021,25.187l19.63,23.954l21.155,22.619l22.589,21.187l23.926,19.664l25.161,18.057l26.288,16.373l27.303,14.619l28.2,12.802l28.977,10.93l29.63,9.011l30.156,7.054l30.553,5.067l30.819,3.058l30.953,1.035l30.954,-0.991l30.823,-3.014l30.56,-5.023l30.166,-7.011l29.643,-8.969l28.993,-10.888l28.219,-12.761l27.324,-14.58l26.312,-16.335l25.187,-18.021l23.954,-19.63l22.619,-21.155l21.187,-22.589l19.664,-23.926l18.057,-25.161l16.373,-26.288l14.619,-27.303l12.802,-28.2l10.93,-28.977l9.011,-29.63l7.054,-30.156l5.067,-30.553l3.058,-30.819l1.036,-30.953l-0.133,-2.029l-0.526,-1.964l-0.899,-1.823l-1.238,-1.613l-1.529,-1.34l-1.761,-1.017l-1.925,-0.654l-2.016,-0.265l-2.029,0.133l-1.964,0.526l-1.823,0.899l-1.613,1.238l-1.341,1.529l-1.017,1.761l-0.653,1.925l-0.265,2.016l-0.98,29.937l-2.903,29.47l-4.824,29.217l-6.724,28.839l-8.596,28.338l-10.431,27.715l-12.221,26.973l-13.959,26.116l-15.638,25.147l-17.249,24.071l-18.786,22.891l-20.243,21.613l-21.613,20.243l-22.891,18.786l-24.071,17.249l-25.147,15.638l-26.116,13.959l-26.973,12.221l-27.715,10.431l-28.338,8.596l-28.839,6.724l-29.217,4.824l-29.47,2.903l-29.597,0.969l-29.597,-0.969l-29.47,-2.903l-29.217,-4.824l-28.839,-6.724l-28.338,-8.596l-27.715,-10.431l-26.973,-12.221l-26.116,-13.959l-25.147,-15.637l-24.071,-17.249l-22.891,-18.786l-21.614,-20.243l-20.243,-21.613l-18.786,-22.891l-17.249,-24.071l-15.638,-25.147l-13.96,-26.116l-12.222,-26.973l-10.431,-27.715l-8.596,-28.338l-6.724,-28.839l-4.824,-29.217l-2.903,-29.47l-0.969,-29.597l0.969,-29.597l2.903,-29.47l4.824,-29.217l6.725,-28.839l8.596,-28.338l10.431,-27.715l12.221,-26.973l13.959,-26.116l15.638,-25.147l17.249,-24.071l18.786,-22.891l20.243,-21.613l21.613,-20.243l22.891,-18.786l24.071,-17.249l25.147,-15.638l26.116,-13.959l26.973,-12.222l27.715,-10.431l28.338,-8.596l28.839,-6.725l29.217,-4.824l29.47,-2.903l29.597,-0.969l29.597,0.969l29.47,2.903l29.217,4.824l28.839,6.725l28.338,8.596l27.715,10.431l26.973,12.221l26.116,13.959l25.147,15.638l24.071,17.249l22.891,18.786l21.613,20.243l20.243,21.613l18.786,22.891l17.249,24.071l15.638,25.147l13.959,26.116l12.221,26.973l10.431,27.715l8.596,28.338l6.724,28.839l4.824,29.217l2.902,29.47l0.98,29.936Z" style="fill:#fff;fill-rule:nonzero;"/></g></g></g></svg>