<svg version="1.2" xmlns="http://www.w3.org/2000/svg" viewBox="0 0 500 500" width="500" height="500">
	<style>
		.s0 { fill: #ffffff } 
	</style>
	<path id="Shape 1" fill-rule="evenodd" class="s0" d="m250 477c-125.53 0-227-101.47-227-227 0-125.53 101.47-227 227-227 125.53 0 227 101.47 227 227 0 125.53-101.47 227-227 227zm-50.13-227.1c0-20.37-16.64-36.83-37.22-36.83-20.58 0-37.22 16.46-37.22 36.83 0 20.37 16.64 36.83 37.22 36.83 20.58 0 37.22-16.46 37.22-36.83zm-37.21 23.6c-13.05 0-23.6-10.55-23.6-23.59 0-13.05 10.55-23.6 23.6-23.6 13.05 0 23.6 10.55 23.6 23.6 0 13.04-10.55 23.59-23.6 23.59zm103.13-18.21l-44.86-41.38v70.17h13.29v-39.19l44.87 41.33v-70.35h-13.29v39.42q0 0-0.01 0zm-191.57-20.99c0-3.79 4.27-7.72 11.43-7.72 6.03 0 10.72 2.98 12.45 4.26l0.93 0.69 10.71-7.16-1.16-1.38c-0.35-0.4-8.59-9.91-22.93-9.91-6.89 0-13.23 2.18-17.84 6.14-4.6 3.95-7.24 9.45-7.24 15.08 0 6.05 2.67 11.13 7.94 15.1 3.53 2.66 8.17 4.82 15.1 6.99 13.48 4.24 13.48 7.6 13.48 9.22 0 3.79-4.28 7.71-11.44 7.71-6.04 0-10.71-2.97-12.44-4.25l-0.93-0.69-10.72 7.16 1.17 1.38c0.34 0.4 8.58 9.91 22.92 9.91 6.89 0 13.23-2.19 17.85-6.14 4.59-3.95 7.23-9.45 7.23-15.08 0-6.04-2.67-11.13-7.93-15.1-3.53-2.66-8.18-4.82-15.1-6.99-13.48-4.24-13.48-7.6-13.48-9.22zm300.36 15.87c0-20.36-16.64-36.82-37.22-36.82-20.58 0-37.22 16.46-37.22 36.82 0 20.37 16.64 36.83 37.22 36.83 20.58 0 37.22-16.46 37.22-36.83zm-37.22 23.6c-13.05 0-23.6-10.55-23.6-23.59 0-13.05 10.55-23.59 23.6-23.59 13.05 0 23.6 10.54 23.6 23.59 0 13.04-10.55 23.59-23.6 23.59zm88.44-8c0 3.8-4.28 7.72-11.44 7.72-6.02 0-10.71-2.98-12.44-4.26l-0.93-0.68-10.72 7.15 1.17 1.38c0.35 0.41 8.58 9.91 22.92 9.91 6.9 0 13.23-2.18 17.85-6.14 4.59-3.95 7.23-9.44 7.23-15.08 0-6.04-2.67-11.13-7.93-15.1-3.53-2.66-8.17-4.82-15.1-6.99-13.48-4.24-13.48-7.6-13.48-9.22 0-3.79 4.28-7.71 11.43-7.71 6.05 0 10.72 2.98 12.45 4.26l0.93 0.69 10.72-7.17-1.17-1.38c-0.34-0.4-8.59-9.9-22.93-9.9-6.89 0-13.22 2.18-17.84 6.14-4.6 3.95-7.23 9.44-7.23 15.07 0 6.05 2.66 11.13 7.92 15.1 3.54 2.67 8.18 4.82 15.11 7 13.48 4.23 13.48 7.6 13.48 9.21z"/>
	<g>
	</g>
</svg>