<?xml version="1.0" encoding="UTF-8" standalone="no"?><!DOCTYPE svg PUBLIC "-//W3C//DTD SVG 1.1//EN" "http://www.w3.org/Graphics/SVG/1.1/DTD/svg11.dtd"><svg width="100%" height="100%" viewBox="0 0 1334 1334" version="1.1" xmlns="http://www.w3.org/2000/svg" xmlns:xlink="http://www.w3.org/1999/xlink" xml:space="preserve" xmlns:serif="http://www.serif.com/" style="fill-rule:evenodd;clip-rule:evenodd;stroke-linejoin:round;stroke-miterlimit:2;"><path d="M666.661,91.564c-317.61,0 -575.094,257.475 -575.094,575.085c0,317.619 257.484,575.085 575.094,575.085c317.645,0 575.103,-257.458 575.103,-575.085c0,-317.593 -257.458,-575.06 -575.111,-575.06l0.009,-0.035l0,0.009Zm263.738,829.446c-10.3,16.891 -32.41,22.256 -49.309,11.879c-135.022,-82.478 -305.007,-101.154 -505.194,-55.417c-19.289,4.391 -38.517,-7.695 -42.917,-26.992c-4.417,-19.297 7.626,-38.526 26.966,-42.917c219.07,-50.051 406.981,-28.502 558.574,64.138c16.899,10.369 22.256,32.41 11.879,49.309Zm70.392,-156.588c-12.983,21.092 -40.588,27.751 -61.671,14.777c-154.587,-95.021 -390.22,-122.539 -573.067,-67.028c-23.714,7.16 -48.757,-6.202 -55.951,-29.874c-7.143,-23.714 6.228,-48.705 29.899,-55.917c208.856,-63.37 468.505,-32.677 646.03,76.414c21.083,12.983 27.743,40.588 14.769,61.645l0,-0.009l-0.009,-0.009Zm6.047,-163.058c-185.358,-110.091 -491.158,-120.21 -668.122,-66.502c-28.416,8.618 -58.47,-7.419 -67.08,-35.843c-8.609,-28.433 7.419,-58.462 35.852,-67.097c203.145,-61.671 540.847,-49.758 754.249,76.931c25.612,15.174 33.997,48.179 18.814,73.705c-15.114,25.56 -48.213,33.988 -73.688,18.806l-0.026,0Z" style="fill:#fff;fill-rule:nonzero;"/></svg>