<?xml version="1.0" encoding="UTF-8" standalone="no"?><!DOCTYPE svg PUBLIC "-//W3C//DTD SVG 1.1//EN" "http://www.w3.org/Graphics/SVG/1.1/DTD/svg11.dtd"><svg width="100%" height="100%" viewBox="0 0 24 24" version="1.1" xmlns="http://www.w3.org/2000/svg" xmlns:xlink="http://www.w3.org/1999/xlink" xml:space="preserve" xmlns:serif="http://www.serif.com/" style="fill-rule:evenodd;clip-rule:evenodd;stroke-linejoin:round;stroke-miterlimit:2;"><path d="M5.499,4.687c0,-0.379 0.295,-0.687 0.658,-0.687l7.681,0c0.364,0 0.658,0.308 0.658,0.687l0,11.966c0,0.058 -0.003,0.115 -0.009,0.172c-0.132,1.216 -1.64,2.176 -2.898,2.176c-1.426,0 -2.908,-0.707 -2.908,-2.347c0,-1.64 1.317,-2.462 2.688,-2.462c0.649,0 1.284,0.19 1.811,0.503l0,-6.457c0,-0.316 -0.246,-0.573 -0.549,-0.573l-5.267,0c-0.303,0 -0.549,0.256 -0.549,0.573l0,8.416c0,1.296 -1.591,2.347 -2.908,2.347c-1.426,0 -2.908,-0.707 -2.908,-2.347c0,-1.64 1.317,-2.462 2.688,-2.462c0.649,0 1.284,0.19 1.81,0.503l0,-10.006Z" style="fill:#fff;fill-rule:nonzero;"/><path d="M16.503,7.518c0.386,-0.355 0.976,-0.316 1.316,0.087c0.902,1.069 1.45,2.474 1.45,4.01c0,1.536 -0.548,2.941 -1.45,4.01c-0.34,0.403 -0.93,0.442 -1.316,0.087c-0.387,-0.355 -0.424,-0.97 -0.083,-1.374c0.614,-0.727 0.985,-1.679 0.985,-2.723c0,-1.045 -0.371,-1.996 -0.985,-2.723c-0.34,-0.403 -0.303,-1.018 0.083,-1.374Z" style="fill:#fff;"/><path d="M19.253,4.876c0.385,-0.357 0.974,-0.321 1.317,0.081c1.511,1.774 2.43,4.105 2.43,6.658c0,2.553 -0.919,4.885 -2.43,6.658c-0.342,0.402 -0.932,0.438 -1.317,0.081c-0.385,-0.357 -0.419,-0.972 -0.077,-1.374c1.221,-1.433 1.959,-3.309 1.959,-5.365c0,-2.056 -0.738,-3.932 -1.959,-5.365c-0.342,-0.402 -0.308,-1.017 0.077,-1.374Z" style="fill:#fff;"/></svg>