<?xml version="1.0" encoding="UTF-8" standalone="no"?><!DOCTYPE svg PUBLIC "-//W3C//DTD SVG 1.1//EN" "http://www.w3.org/Graphics/SVG/1.1/DTD/svg11.dtd"><svg width="100%" height="100%" viewBox="0 0 512 512" version="1.1" xmlns="http://www.w3.org/2000/svg" xmlns:xlink="http://www.w3.org/1999/xlink" xml:space="preserve" xmlns:serif="http://www.serif.com/" style="fill-rule:evenodd;clip-rule:evenodd;stroke-linejoin:round;stroke-miterlimit:2;"><g id="layer1"><path d="M511.999,188.5l0,137c-0.176,-0.032 -0.495,-0.527 -4.499,-0.527c-505.258,-0.001 -505.263,0.099 -505.998,-0c-0.52,-0.07 -0.982,-0.403 -1.502,-0.473l-0,-136c0.357,-0.062 0.71,-0.435 2.501,-0.436l3.999,-0c503.745,0 503.749,-0.046 504.009,0.006c0.507,0.102 0.983,0.327 1.49,0.429Zm-51.814,112l0.002,-84c-0.009,-23.119 0.126,-23.349 -0.685,-24.003c-0.355,-0.286 -0.397,-0.416 -12.002,-0.402l-392.001,0.018c-2.958,0.008 -4.126,-0.57 -4.228,2.377c-0.004,0.126 -0.004,123.701 -0,124.015c0.017,1.632 -0.209,1.986 1.327,2.572c0.816,0.311 370.67,0.089 402.903,0.07c3.312,-0.002 4.663,0.648 4.685,-2.65c0.001,-0.193 0.003,-13.029 0,-17.996Zm-140.685,-3.593c-7.356,0 -8.283,0.549 -9.178,-2.348c-2.84,-9.185 -2.383,-9.643 -3.746,-10.207c-0.714,-0.295 -0.745,-0.266 -20.075,-0.272c-1.554,-0.001 -5.334,-0.138 -6.002,0.417c-1.816,1.506 -2.981,11.311 -4.933,12.126c-1.61,0.672 -13.748,-0.004 -21.057,0.387c-3.298,0.176 -2.481,-1.543 -1.278,-4.615c0.199,-0.509 9.181,-24.567 10.13,-26.952c0.292,-0.735 9.37,-25.413 13.858,-37.054c3.135,-8.131 2.702,-8.586 4.126,-9.191c0.984,-0.418 1.026,-0.354 22.157,-0.358c3.293,-0.001 3.554,0.236 4.454,2.475c0.707,1.759 27.774,73.781 27.787,74.18c0.053,1.638 -0.592,1.417 -2.218,1.425c-1.122,0.005 -1.106,-0.015 -14.024,-0.015Zm-31.668,-38.302c-1.882,6.624 -2.807,6.904 -1.537,8.146c0.711,0.695 0.888,0.319 12.203,0.359c2.208,0.008 3.56,0.146 2.794,-2.551c-2.321,-8.172 -4.892,-15.087 -6.535,-22.194c-0.031,-0.136 -0.376,-1.626 -0.454,-1.684c-0.019,-0.014 -1.462,0.026 -1.477,0.041c-0.191,0.188 -0.195,2.141 -1.321,5.78c-1.876,6.061 -1.792,6.061 -3.673,12.103Zm107.617,1.828c0.082,-0.173 0.485,0.09 0.567,-0.082c0.104,-0.218 -0.167,-0.458 -0.197,-0.698c-0.22,-1.782 -0.232,-4.741 -0.234,-5.153c-0.011,-2.64 -0.104,-24.22 0.003,-32.998c0.01,-0.826 -0.108,-2.499 1.943,-2.65c1.691,-0.125 16.526,-0.022 17.963,-0.012c2.803,0.019 2.754,0.857 2.754,3.66c0.001,69.711 0.041,69.708 0.003,71.991c-0.019,1.169 0.178,1.299 -0.703,2.076c-0.582,0.513 -3.405,0.342 -6.048,0.342c-11.976,-0.002 -11.96,0.143 -12.998,0.098c-3.851,-0.165 -3.611,-1.367 -7.171,-6.394c-0.193,-0.272 -1.783,-2.518 -2.375,-3.424c-5.422,-8.299 -16.414,-23.935 -19.768,-29.456c-1.114,-1.834 -0.891,-2.173 -1.684,-2.254c-1.448,-0.147 -1.113,0.573 -0.985,2.023c0.17,1.941 0.235,1.938 0.236,18.998c0,17.544 0.276,17.566 -0.083,19.047c-0.392,1.615 -1.053,1.361 -13.172,1.363c-7.676,0.001 -8.962,0.34 -9.391,-1.273c-0.301,-1.131 -0.014,-68.529 -0.173,-73.136c-0.161,-4.652 1.906,-3.662 6.564,-3.663c14.802,-0.001 14.87,-0.067 16.062,0.573c1.02,0.548 6.321,9.379 10.646,15.295c0.906,1.239 0.779,1.306 1.645,2.555c3.079,4.444 3.104,4.409 6.076,8.942c0.538,0.821 0.643,0.719 1.191,1.556c5.645,8.625 5.969,8.424 7.872,12.325l1.458,0.348Zm-269.924,12.934l0.861,0.039c1.48,-5.991 2.105,-8.024 9.649,-32.049c2.944,-9.376 2.735,-9.427 5.718,-18.779c0.883,-2.767 0.73,-3.729 4.747,-3.734c1.516,-0.002 18.872,-0.023 18.949,-0.008c0.169,0.033 1.416,0.275 1.346,1.682c-0.013,0.26 -14.683,39.657 -15.967,43.103c-0.918,2.466 -10.994,29.524 -11.466,30.824c-1.147,3.159 -2.467,2.464 -6.862,2.463l-16,0.001c-3.154,-0.009 -3.912,0.548 -5.029,-2.398c-5.88,-15.513 -5.82,-15.52 -6.338,-16.865c-0.709,-1.845 -7.112,-18.492 -8.745,-23.104c-0.576,-1.626 -12.031,-31.886 -12.063,-31.98c-0.508,-1.494 -1.875,-3.762 1.188,-3.74c19.674,0.137 21.666,-0.397 22.737,0.876c0.694,0.824 12.055,38.493 13.513,42.711c3.417,9.884 2.544,10.151 3.002,10.934c0.128,0.219 0.633,-0.195 0.761,0.024Zm106.353,-18.53c-0.005,0.404 -0.363,0.253 -0.368,0.663c-0.001,0.052 -0.004,0.312 0.353,0.55c0.069,0.046 5.883,0.676 10.483,5.592c6.089,6.507 6.427,19.936 -1.02,27.691c-6.387,6.652 -12.479,6.26 -20.817,7.255c-3.266,0.39 -3.273,0.314 -36.01,0.322c-7.655,0.002 -8.948,0.345 -9.37,-1.284c-0.056,-0.216 -0.084,-0.215 -0.107,-68.125c-0.002,-7.009 -0.438,-7.961 1.31,-8.477c0.755,-0.223 0.775,-0.184 39.167,-0.179c4.046,0.001 13.392,-0.34 19.736,4.043c11.656,8.051 9.347,24.541 1.278,29.633c-2.203,1.39 -2.18,1.433 -4.636,2.317Zm-20.379,25.229c2.35,-0.041 9.2,-0.085 10.895,-5.599c1.43,-4.653 -1.46,-8.343 -4.824,-9.204c-3.62,-0.926 -4.467,-0.866 -14.071,-0.842c-0.238,0.001 -2.558,0.006 -2.964,0.172c-1.008,0.411 -1.078,1.729 -1.087,1.904c-0.157,2.979 -0.014,10.125 0.004,11.005c0.058,2.912 1.15,2.482 4.048,2.49c4.002,0.011 3.979,-0.069 8,0.075Zm-4.001,-45.25c-0.478,-0 -5.768,-0.004 -5.978,0.004c-0.156,0.006 -1.326,0.049 -1.778,0.816c-0.476,0.806 -0.417,12.089 -0.06,12.778c0.437,0.841 0.643,1.126 11.813,0.906c6.796,-0.134 8.408,-4.582 8.148,-7.83c-0.598,-7.483 -9.694,-6.603 -12.145,-6.674Z" style="fill:#fff;"/></g></svg>