<?xml version="1.0" encoding="UTF-8" standalone="no"?><!DOCTYPE svg PUBLIC "-//W3C//DTD SVG 1.1//EN" "http://www.w3.org/Graphics/SVG/1.1/DTD/svg11.dtd"><svg width="100%" height="100%" viewBox="0 0 24 24" version="1.1" xmlns="http://www.w3.org/2000/svg" xmlns:xlink="http://www.w3.org/1999/xlink" xml:space="preserve" xmlns:serif="http://www.serif.com/" style="fill-rule:evenodd;clip-rule:evenodd;stroke-linejoin:round;stroke-miterlimit:2;"><path d="M7.226,1.791l2.432,0c1.557,4.184 3.113,8.27 4.67,12.453l-2.821,0c-0.097,-0.292 -0.195,-0.681 -0.292,-0.973c-1.654,-1.07 -3.308,-1.07 -4.865,0c-1.362,1.362 -1.654,2.919 -0.778,4.767c0.778,1.265 1.849,1.849 3.211,1.849c1.362,0 1.654,-0.292 2.432,-0.778c0.389,0.778 0.778,1.654 1.07,2.432c-0.778,0.584 -1.751,0.973 -2.724,1.07c-2.238,0.292 -4.184,-0.389 -5.74,-2.14c-1.557,-1.946 -1.946,-4.086 -1.167,-6.519c1.459,-3.989 3.016,-8.075 4.573,-12.161Zm1.167,2.627l-1.459,5.546l3.016,0c-0.486,-1.849 -0.973,-3.697 -1.557,-5.546Z" style="fill:#fff;"/><path d="M15.204,14.633l1.751,0c-3.405,0.389 -6.616,1.751 -9.924,3.794l-0.195,0c2.53,-2.14 5.351,-3.308 8.367,-3.794Z" style="fill:#fff;"/><path d="M10.729,15.217l0.876,0c-0.973,0.195 -1.946,0.486 -2.724,0.584l-0.097,0c0.584,-0.292 1.265,-0.486 1.946,-0.584Z" style="fill:#fff;"/><path d="M20.166,15.509c-1.946,2.335 -6.324,2.919 -9.826,3.211c-3.308,0.292 7.2,-0.876 9.729,-3.211l0.097,0Z" style="fill:#fff;"/><path d="M8.199,18.719c1.849,-0.681 10.313,-2.724 11.772,-3.989c3.405,-2.043 -0.876,-5.351 -3.016,-3.405c-0.292,0.292 -0.486,0.584 -0.389,1.265c0.097,0.681 0.292,0.389 0.389,0.486c0.292,0.292 1.265,0.389 1.557,0c0.195,0 0,-0.778 0,-0.876c-0.097,-0.292 -0.389,-0.486 -0.389,-0.486c-0.097,0.292 0.195,0.486 0.195,0.778c0,0.389 -0.195,0.681 -0.876,0.681c-0.097,0 -0.292,-0.195 -0.389,-0.195c-0.195,-0.292 -0.292,-0.973 0,-1.265c0.292,-0.292 0.584,-0.389 0.876,-0.486c0.584,-0.097 1.362,0 1.849,0.389c1.167,0.486 1.167,1.751 0.292,2.53c-0.584,0.681 -3.989,1.654 -4.378,1.849l-7.589,3.016l0.097,-0.292Z" style="fill:#fff;"/></svg>