<?xml version="1.0" encoding="UTF-8" standalone="no"?><!DOCTYPE svg PUBLIC "-//W3C//DTD SVG 1.1//EN" "http://www.w3.org/Graphics/SVG/1.1/DTD/svg11.dtd"><svg width="100%" height="100%" viewBox="0 0 512 512" version="1.1" xmlns="http://www.w3.org/2000/svg" xmlns:xlink="http://www.w3.org/1999/xlink" xml:space="preserve" xmlns:serif="http://www.serif.com/" style="fill-rule:evenodd;clip-rule:evenodd;stroke-linejoin:round;stroke-miterlimit:2;"><path d="M428.7,278.4c0,19.8 8.5,40.8 30.5,40.8c14.7,0 24.9,-10.1 27.4,-27.2l25.4,0c-4.7,30.9 -23.1,47.9 -52.8,47.9c-36.1,0 -55.9,-26.5 -55.9,-61.5c0,-35.9 18.9,-64 56.8,-64c26.7,0 49.4,13.8 51.9,43.1l-25.4,-0.1c-2,-14.5 -12.2,-22.3 -26.3,-22.3c-13.1,0 -31.6,7.1 -31.6,43.3m-35.6,-0.8c0,32 -15.6,62.2 -49.6,62.2c-15.6,0 -32.3,-3.9 -39.8,-19.6l-0.4,0l0,16.4l-24,0l-0.2,-164.4l25.4,0l0,60.8l0.4,0c6.9,-11.5 21.4,-18.7 34.3,-18.7c36.3,0 53.9,28.6 53.9,63.3m-25.5,-0.5c0,-21.6 -10.9,-42.1 -31.8,-42.1c-21.4,0 -32.3,16.8 -32.3,42.1c0,23.9 11.8,41.9 32.3,41.9c23.2,0 31.8,-21.2 31.8,-41.9" style="fill:#fff;fill-rule:nonzero;"/><path d="M0,336.3l190.3,0l88.9,-164.1l-190.3,0l-88.9,164.1Z" style="fill:#fff;fill-rule:nonzero;"/></svg>