<?xml version="1.0" encoding="UTF-8" standalone="no"?><!DOCTYPE svg PUBLIC "-//W3C//DTD SVG 1.1//EN" "http://www.w3.org/Graphics/SVG/1.1/DTD/svg11.dtd"><svg width="100%" height="100%" viewBox="0 0 512 512" version="1.1" xmlns="http://www.w3.org/2000/svg" xmlns:xlink="http://www.w3.org/1999/xlink" xml:space="preserve" xmlns:serif="http://www.serif.com/" style="fill-rule:evenodd;clip-rule:evenodd;stroke-linecap:round;stroke-linejoin:round;stroke-miterlimit:1.5;"><path d="M492.993,84.539l0,342.921c0,36.169 -29.365,65.534 -65.534,65.534l-342.921,0c-36.169,0 -65.534,-29.365 -65.534,-65.534l0,-342.921c0,-36.169 29.365,-65.534 65.534,-65.534l342.921,0c36.169,0 65.534,29.365 65.534,65.534Z" style="fill:#fff;fill-opacity:0;stroke:#fff;stroke-width:18.6px;"/><path d="M312.693,223.5c0,10.514 0.397,13.937 -2.309,22.964c-3.214,10.723 -9.082,17.474 -10.203,18.764c-2.168,2.494 -3.706,4.433 -10.731,9.198c-1.428,0.969 -9.597,6.509 -19.905,8.306c-6.809,1.187 -6.845,1.022 -46.044,1.022c-100.495,0 -100.499,0.017 -101.04,-0.142c-1.485,-0.437 -1.247,-1.026 -1.247,-14.111c0,-85.716 -0.01,-85.718 0.083,-86.058c0.431,-1.581 1.069,-1.327 14.205,-1.327c30.358,0 30.453,-0.053 31.005,0.378c0.806,0.631 0.728,0.859 0.728,23.007c0,26.214 -0.058,26.205 -0.02,37.002c0.01,2.868 0.42,3.341 3.283,3.349c6.083,0.016 73.118,0.196 76.032,-0.121c0.843,-0.092 10.558,-0.597 16.521,-10.493c0.935,-1.551 2.608,-5.983 2.685,-8.729c0.002,-0.073 0.019,-0.068 0.017,-54.009c-0,-4.06 -0.023,-4.095 -1.237,-7.006c-1.312,-3.147 -0.698,-3.601 -4.66,-7.367c-2.001,-1.902 -2.259,-1.497 -5.18,-2.956c-5.591,-2.792 -7.225,-2.429 -30.175,-2.429c-101.574,-0 -101.578,0.015 -102.04,-0.122c-1.164,-0.345 -1.232,-1.902 -1.24,-2.097c-0.112,-2.559 -0.012,-2.548 -0.007,-32.023c0,-2.586 -0.27,-3.382 2.304,-3.665c0.075,-0.008 135.61,-0.006 135.981,-0.001c27.94,0.335 41.888,20.184 42.175,20.532c5.802,7.021 10.858,20.278 11.008,31.133c0.013,0.92 0.011,0.918 0.011,57.002Z" style="fill:#fefefe;"/><path d="M366.227,341.635c-0.835,0.297 -0.87,-0.362 -1.691,-0.07c-0.105,0.037 -0.1,0.053 -0.962,1.014c-0.954,1.063 -0.926,1.061 -1.956,2.047c-0.374,0.358 -32.386,32.593 -41.962,42.03c-2.239,2.207 -3.62,4.4 -5.713,2.368c-2.213,-2.147 -11.437,-11.532 -12.427,-12.539c-2.538,-2.582 -2.491,-2.611 -31.601,-32.394c-1.482,-1.517 -3.61,-4.163 -3.621,-4.163c-0.341,-0.004 -0.647,0.226 -0.951,0.38c-0.819,0.415 -0.244,0.735 -0.239,7.193c0.003,3.84 0.033,45.99 -0.023,47.995c-0.028,1.02 -0.05,2.738 -1.57,3.052c-1.182,0.244 -19.331,0.076 -21.012,0.06c-3.396,-0.032 -2.793,-1.978 -2.793,-5.109c-0.001,-6.879 -0.006,-85.542 0.003,-85.991c0.025,-1.173 -0.143,-1.293 0.741,-2.079c0.492,-0.437 2.804,-0.44 3.051,-0.44c18.1,-0.018 20.662,-0.092 22.013,0.484c1.229,0.524 16.67,16.099 18.03,17.991c2.328,3.237 23.293,23.716 26.718,27.263c3.089,3.2 4.338,6.325 8.589,2.138c13.276,-13.076 16.485,-17.571 20.594,-21.426c1.245,-1.169 10.637,-10.749 17.97,-18.026c7.18,-7.126 7.682,-8.191 11.097,-8.416c0.758,-0.05 20.319,0 21.047,0.055c0.198,0.015 1.721,0.129 2.036,1.427c0.238,0.98 0.107,89.201 0.061,90.035c-0.133,2.371 -2.009,2.095 -4.154,2.095c-19.45,0.001 -19.461,0.015 -19.991,-0.135c-1.553,-0.439 -1.285,-1.51 -1.285,-11.974c0,-40.456 0.141,-40.453 0.121,-43.971c-0.002,-0.301 -0.116,-0.594 -0.117,-0.894Z" style="fill:#fefefe;"/><path d="M391.666,241.5c-0,40.544 0.017,40.557 -0.124,41.013c-0.454,1.47 -1.036,1.241 -15.041,1.241c-32.159,-0 -32.263,0.058 -32.866,-0.421c-0.809,-0.644 -0.708,-0.88 -0.708,-31.832c0,-134.871 -0.002,-134.856 0.019,-134.95c0.401,-1.736 0.765,-1.698 2.562,-1.718c11.535,-0.128 39.55,-0.015 42.989,-0.001c0.54,0.002 1.66,-0.075 2.23,0.315c1.134,0.777 0.923,0.98 0.938,2.351c0.001,0.057 0.001,0.049 0.001,124.003Z" style="fill:#fefefe;"/><path d="M223.793,310.5c-0,14.161 0.086,14.271 -0.464,14.876c-0.578,0.635 -0.75,0.553 -26.829,0.553c-47.868,0 -47.857,-0.003 -47.961,0.019c-1.809,0.375 -1.851,0.708 -1.881,2.558c-0.018,1.113 -0.208,12.778 0.115,13.911c0.445,1.563 2.75,1.26 9.727,1.26c51.258,-0 51.279,-0.024 51.86,0.185c0.911,0.327 1.061,1.489 1.081,1.645c0.041,0.314 0.033,16.707 0.004,16.986c-0.229,2.28 -2.22,2.022 -2.946,2.026c-1.272,0.006 -57.774,-0.014 -57.997,0.011c-1.761,0.204 -1.817,1.58 -1.836,1.981c-0.116,2.337 0.211,29.825 -0.197,30.975c-0.47,1.323 -0.976,1.121 -15.97,1.121c-9.802,-0 -10.923,0.423 -11.13,-2.098c-0.116,-1.418 -0.019,-80.971 -0.011,-88.012c0.003,-2.687 0.111,-3.443 3.133,-3.46c26.265,-0.149 84.646,-0.061 92.006,-0.05c7.493,0.011 7.508,0.002 8.123,0.212c1.524,0.52 1.17,3.138 1.172,5.299Z" style="fill:#fdfefe;"/><path d="M0,446.5l0,-387c0.218,0.431 0.821,0.58 1.039,1.011c0.014,0.027 -0.008,2.19 -0.006,4.986c-0,126.001 -0,252.002 -0,378.004c-0,1.879 0.052,1.876 -0.001,2.029c-0.246,0.715 -0.789,0.265 -1.032,0.97Z" style="fill:#fefefe;fill-opacity:0.85;"/><path d="M511.999,64.5l0,381c-0.211,-0.402 -0.8,-0.511 -1.011,-0.914c-0.023,-0.043 -0.022,-1.915 -0.022,-2.082c0.003,-7.835 -0.004,-377.032 0.004,-377.047c0.216,-0.416 0.813,-0.542 1.029,-0.958Z" style="fill:#fefefe;fill-opacity:0.81;"/><path d="M-0,453.5l0,-5c0.249,0.442 0.826,0.634 1.074,1.076c0.05,0.088 0.026,0.095 -0.014,1.847c-0.009,0.387 0.184,0.817 0.008,1.162c-0.213,0.418 -0.855,0.498 -1.069,0.915Z" style="fill:#ececed;fill-opacity:0.62;"/><path d="M511.999,59.5l0,5c-0.246,-0.443 -0.795,-0.665 -1.041,-1.108c-0.078,-0.141 -0.029,-1.682 -0.025,-1.828c0.026,-0.819 -0.137,-0.838 0.024,-1.148c0.333,-0.644 0.71,-0.272 1.042,-0.915Z" style="fill:#fafafb;fill-opacity:0.67;"/></svg>