<?xml version="1.0" encoding="UTF-8" standalone="no"?><!DOCTYPE svg PUBLIC "-//W3C//DTD SVG 1.1//EN" "http://www.w3.org/Graphics/SVG/1.1/DTD/svg11.dtd"><svg width="100%" height="100%" viewBox="0 0 512 512" version="1.1" xmlns="http://www.w3.org/2000/svg" xmlns:xlink="http://www.w3.org/1999/xlink" xml:space="preserve" xmlns:serif="http://www.serif.com/" style="fill-rule:evenodd;clip-rule:evenodd;stroke-linejoin:round;stroke-miterlimit:2;"><g id="Layer-1" serif:id="Layer 1"><path d="M353.578,339.242c-0.316,-1.354 -0.188,-1.389 -0.731,-2.493c-0.194,-0.395 -0.863,-1.754 -1.757,-5.219c-0.932,-3.611 -1.269,-3.498 -1.894,-6.185c-0.745,-3.202 -1.236,-3.132 -1.581,-5.041c-0.077,-0.427 -0.539,-2.983 -1.314,-5.268c-1.852,-5.461 -1.764,-5.487 -1.931,-5.959c-1.05,-2.962 -0.744,-3.049 -1.828,-5.997c-1.267,-3.445 -1.174,-5.335 -2.569,-8.62c-1.232,-2.902 -0.759,-3.046 -1.594,-5.234c-1.982,-5.199 -3.641,-10.868 -3.824,-12.138c-0.444,-3.075 -1.209,-2.877 -1.658,-5.958c-0.229,-1.57 -0.9,-3.305 -1.528,-5.153c-0.607,-1.787 -1.704,-6.637 -3.843,-12.246c-1.048,-2.749 -0.454,-2.998 -1.339,-4.98c-0.155,-0.347 -0.323,-0.689 -0.477,-1.037c-1.501,-3.373 -1.416,-5.248 -1.991,-6.783c-1.106,-2.953 -0.833,-3.022 -1.83,-6.002c-0.8,-2.39 -0.799,-2.38 -0.868,-2.587c-1.147,-3.437 -0.732,-3.548 -2.06,-7.088c-0.915,-2.44 -0.486,-2.552 -1.354,-4.994c-1.691,-4.754 -1.575,-4.775 -2.526,-7.784c-1.518,-4.8 -1.405,-4.828 -1.543,-5.243c-0.858,-2.579 -0.902,-2.555 -1.511,-5.213c-0.145,-0.631 -1.112,-2.807 -1.471,-4.161c-0.481,-1.811 -0.639,-1.757 -1.036,-3.592c-0.532,-2.457 -2.86,-8.7 -3.248,-10.222c-0.356,-1.397 0.141,-2.979 1.809,-2.251c0.296,0.129 10.331,6.235 11.228,6.781c0.023,0.014 51.83,31.195 53.662,32.453c2.199,1.51 5.118,2.917 7.018,4.097c6.941,4.315 6.928,4.335 7.559,4.662c1.597,0.825 11.348,7.083 12.874,7.874c3.859,1.999 3.541,2.519 6.955,4.217c2.397,1.192 2.429,1.542 4.318,2.569c1.221,0.664 2.006,1.837 2.791,2.17c1.265,0.537 1.321,0.396 2.479,1.129c1.324,0.837 1.366,0.748 2.651,1.623c1.7,1.158 3.404,1.871 5.962,3.568c4.774,3.167 9.343,5.378 11.26,6.834c1.91,1.45 8.195,4.567 9.279,5.44c1.171,0.943 1.732,2.182 0.803,8.439c-0.561,3.775 -0.11,3.819 -0.696,6.928c-0.613,3.25 -0.331,3.285 -0.709,5.2c-0.941,4.758 -0.804,4.762 -0.892,5.173c-2.474,11.613 -10.975,60.2 -55.61,103.15c-0.769,0.74 -9.389,8.445 -9.506,8.534c-4.062,3.058 -3.915,3.225 -4.274,3.481c-3.745,2.673 -3.653,2.794 -3.991,3.007c-2.132,1.344 -11.741,9.598 -33.866,20.233c-14.346,6.896 -31.551,11.386 -34.372,12.123c-0.821,0.214 -0.831,0.095 -1.663,0.317c-2.535,0.676 -2.536,0.594 -5.091,1.214c-1.532,0.372 -8.24,1.482 -8.656,1.578c-2.646,0.608 -3.244,0.367 -5.206,0.736c-4.273,0.803 -4.313,0.377 -8.603,1.019c-5.141,0.769 -28.401,0.773 -33.683,-0.016c-3.885,-0.58 -3.922,-0.129 -7.771,-0.85c-2.589,-0.486 -2.629,-0.168 -5.2,-0.728c-3.045,-0.663 -7.41,-1.248 -9.493,-1.76c-0.632,-0.155 -11.65,-2.533 -20.588,-5.584c-21.957,-7.494 -31.694,-13.707 -40.516,-18.943c-2.405,-1.428 -2.354,-1.487 -4.631,-2.946c-0.549,-0.352 -4.52,-2.896 -6.738,-4.58c-3.166,-2.403 -3.207,-2.346 -3.475,-2.564c-2.029,-1.643 -2.089,-1.55 -3.416,-2.632c-17.052,-13.902 -21.678,-20.342 -24.71,-23.592c-2.786,-2.987 -3.167,-3.745 -4.334,-5.134c-11.712,-13.924 -20.685,-30.754 -22.73,-35.144c-2.377,-5.103 -2.716,-4.958 -4.309,-10.376c-0.846,-2.877 -2.911,-6.646 -1.327,-8.418c0.188,-0.21 3.54,-3.004 4.72,-3.913c8.077,-6.225 53.313,-41.733 57.667,-44.996c1.923,-1.441 2.594,-2.055 7.819,1.577c3.001,2.086 6.377,3.785 7.022,4.159c1.686,0.977 1.499,1.405 3.614,2.253c1.257,0.504 1.193,0.6 2.311,1.346c1.238,0.826 5.122,2.993 6.317,3.898c1.558,1.179 6.241,3.277 8.223,4.799c2.501,1.92 2.67,1.628 5.305,3.375c1.811,1.201 2.023,0.833 3.732,2.164c0.979,0.762 1.055,0.614 2.64,1.603c4.06,2.534 8.317,4.703 10.326,6.093c2.354,1.629 6.469,3.608 8.29,4.814c5.326,3.529 5.505,3.194 5.956,3.515c1.301,0.926 1.279,0.94 2.679,1.698c1.221,0.662 1.945,1.504 3.693,2.133c1.88,0.677 3.106,2.063 5.932,3.667c3.537,2.007 5.861,3.716 6.94,4.244c2.274,1.114 2.088,1.401 4.324,2.563c1.186,0.616 1.32,1.004 4.296,2.612c1.053,0.569 0.904,0.767 1.929,1.36c2.192,1.27 2.228,1.171 4.389,2.474c2.813,1.697 3.019,1.347 5.013,2.896c1.228,0.954 1.331,0.764 2.629,1.638c2.657,1.788 5.327,2.717 10.292,6.137c1.743,1.2 3.327,1.77 3.941,2.211c1.303,0.936 1.28,0.939 2.676,1.701c0.35,0.191 3.095,1.689 4.276,2.56c1.439,1.06 3.048,1.567 7.025,4.169c1.97,1.289 2.974,1.705 3.27,1.918c2.254,1.622 2.326,1.48 4.665,2.983c1.333,0.857 1.521,0.522 2.748,1.535c2.206,1.822 3.363,2.008 6.524,3.981c2.456,1.533 2.574,1.307 3.315,1.842c1.299,0.939 1.273,0.949 2.681,1.705c2.736,1.471 2.545,1.768 5.308,3.218c0.492,0.258 3.552,1.865 6.043,3.427c10.661,6.685 11.668,7.763 14.032,6.162c2.111,-1.43 1.885,-1.706 4.018,-3.078c0.36,-0.232 5.268,-4.125 6.275,-4.769c2.653,-1.698 2.239,-2.2 4.792,-4.034c3.587,-2.577 3.546,-2.615 3.863,-2.83c1.296,-0.883 1.187,-1.006 2.441,-1.943c2.719,-2.032 5.623,-3.144 4.452,-6.929c-0.53,-1.715 -0.345,-1.747 -0.916,-3.433c-0.704,-2.08 -0.387,-2.152 -1.098,-4.226c-1.386,-4.043 -2.202,-7.681 -2.661,-8.564c-0.88,-1.69 -0.817,-1.714 -1.01,-3.548Z" style="fill:#fff;"/><path d="M231.563,37.225c0.094,0.261 0.736,-0.19 0.83,0.072c0.064,0.177 -1.065,0.854 0.061,3.486c0.756,1.768 0.878,1.709 1.328,3.562c0.365,1.499 1.109,3.272 1.703,6.03c0.575,2.673 1.15,2.489 1.725,5.174c0.478,2.236 2.23,5.813 2.527,7.742c0.485,3.143 1.055,2.968 1.851,6.068c0.546,2.124 1.899,4.331 2.53,7.751c0.169,0.915 4.024,12.668 4.242,13.795c0.109,0.563 0.175,0.903 1.998,6.883c0.108,0.355 1.166,2.555 1.417,3.497c1.27,4.775 1.674,4.643 2.739,9.463c0.359,1.624 0.682,1.509 1.712,5.185c0.349,1.245 1.23,3.42 1.642,5.171c0.635,2.704 1.962,5.99 2.666,8.624c0.392,1.467 1.276,3.436 1.631,5.163c0.56,2.732 4.129,12.29 4.301,13.763c0.216,1.849 0.189,1.853 0.971,3.557c1.132,2.466 2.745,7.49 2.469,9.324c-0.336,2.225 -2.114,2.676 -5.305,5.576c-1.603,1.456 -1.85,1.118 -3.447,2.587c-2.042,1.878 -2.221,1.631 -4.353,3.436c-1.636,1.385 -1.836,1.107 -3.388,2.598c-2.003,1.925 -2.316,1.522 -4.354,3.42c-2.935,2.733 -5.559,3.936 -6.851,5.202c-1.657,1.624 -1.611,1.664 -3.791,3.11c-1.112,0.738 -1.622,1.716 -4.307,3.458c-0.289,0.188 -0.225,0.27 -3.469,2.56c-1.306,0.922 -1.5,1.736 -4.282,3.494c-1.898,1.2 -1.469,1.744 -4.307,3.459c-1.191,0.719 -1.847,1.844 -4.34,3.408c-1.318,0.827 -1.22,0.946 -2.56,1.765c-1.003,0.614 -1.921,1.873 -3.665,3.148c-0.123,0.09 -0.123,0.084 -1.546,1.109c-1.678,1.209 -1.443,1.497 -3.407,2.654c-0.297,0.175 -0.192,0.316 -3.482,2.535c-1.746,1.177 -1.443,1.988 -4.265,3.535c-1.594,0.874 -1.188,1.416 -4.337,3.398c-1.18,0.742 -1.256,1.312 -2.771,2.276c-0.362,0.23 -0.464,0.078 -2.139,1.494c-2.109,1.783 -2.246,1.596 -4.283,3.449c-1.59,1.447 -1.866,1.072 -3.422,2.583c-2.431,2.362 -2.659,2.072 -5.225,4.309c-1.63,1.421 -1.803,1.17 -3.444,2.595c-1.629,1.415 -1.873,1.08 -3.403,2.581c-1.271,1.247 -1.21,1.312 -2.898,2.298c-2.577,1.505 -5.014,6.647 -10.311,2.401c-0.227,-0.182 -0.257,-0.131 -2.977,-2.076c-0.315,-0.225 -1.483,-0.826 -1.615,-0.894c-1.435,-0.738 -1.41,-0.754 -2.703,-1.694c-0.063,-0.046 -6.81,-3.994 -8.191,-4.907c-2.302,-1.521 -2.398,-1.344 -4.704,-2.857c-0.373,-0.245 -1.235,-0.563 -2.245,-1.353c-1.504,-1.176 -5.481,-2.786 -11.99,-7.056c-1.52,-0.997 -1.56,-0.906 -3.033,-1.944c-0.522,-0.368 -2.843,-1.419 -3.937,-2.235c-1.255,-0.936 -1.37,-0.741 -2.601,-1.701c-2.787,-2.173 -3.263,-1.42 -6.395,-3.855c-0.96,-0.747 -2.069,-1.239 -2.26,-1.324c-1.375,-0.611 -8.955,-5.526 -10.612,-6.419c-0.406,-0.219 -3.606,-1.943 -4.885,-3.053c-1.492,-1.294 -1.943,-0.836 -3.404,-1.815c-3.109,-2.083 -10.545,-6.416 -11.219,-6.886c-1.284,-0.896 -1.395,-0.701 -2.621,-1.657c-2.045,-1.596 -2.439,-1.313 -4.285,-2.64c-0.367,-0.264 -3.659,-2.336 -6.331,-3.824c-5.164,-2.876 -5.126,-2.931 -7.003,-4.254c-0.217,-0.153 -0.261,-0.049 -2.892,-1.641c-0.495,-0.299 -0.505,-0.236 -1.042,-0.487c0.429,-2.61 0.786,-2.499 2.343,-6.945c0.091,-0.259 0.137,-0.532 0.219,-0.794c0.316,-1.01 1.366,-2.434 2.336,-5.256c0.089,-0.259 0.151,-0.526 0.238,-0.785c0.082,-0.246 0.15,-0.499 0.27,-0.729c0.06,-0.115 0.205,-0.17 0.263,-0.286c0.23,-0.464 0.362,-0.972 0.591,-1.437c0.058,-0.118 0.204,-0.177 0.263,-0.296c0.866,-1.74 0.696,-1.818 3.414,-6.917c0.822,-1.541 0.623,-1.626 1.483,-3.14c1.234,-2.174 1.114,-2.219 1.736,-3.445c0.061,-0.119 0.207,-0.181 0.267,-0.3c0.231,-0.46 0.366,-0.964 0.598,-1.423c0.061,-0.121 0.213,-0.18 0.274,-0.301c0.23,-0.458 0.355,-0.964 0.59,-1.419c0.065,-0.126 0.228,-0.179 0.301,-0.3c0.13,-0.216 0.153,-0.489 0.298,-0.696c0.098,-0.139 0.304,-0.171 0.406,-0.306c0.446,-0.585 0.268,-0.675 0.684,-1.285c0.632,-0.926 1.423,-2.629 1.49,-2.725c0.097,-0.14 0.293,-0.186 0.396,-0.322c0.439,-0.581 0.279,-0.662 0.697,-1.264c0.574,-0.828 1.459,-2.664 1.501,-2.721c0.105,-0.142 0.317,-0.175 0.426,-0.314c0.445,-0.569 0.251,-0.667 0.67,-1.271c0.086,-0.125 0.235,-0.199 0.315,-0.328c0.131,-0.21 0.164,-0.476 0.31,-0.676c0.103,-0.141 0.309,-0.18 0.416,-0.318c0.444,-0.572 0.26,-0.667 0.68,-1.265c0.088,-0.125 0.236,-0.202 0.317,-0.332c0.131,-0.209 0.165,-0.473 0.312,-0.672c0.104,-0.141 0.31,-0.18 0.418,-0.318c0.443,-0.57 0.258,-0.666 0.679,-1.264c0.089,-0.126 0.238,-0.203 0.32,-0.333c0.131,-0.208 0.163,-0.473 0.311,-0.67c0.108,-0.143 0.322,-0.175 0.433,-0.316c0.45,-0.571 0.244,-0.668 0.665,-1.268c0.088,-0.126 0.244,-0.197 0.326,-0.327c0.131,-0.209 0.153,-0.48 0.304,-0.674c0.116,-0.149 0.348,-0.173 0.469,-0.319c0.146,-0.175 0.156,-0.44 0.306,-0.612c0.123,-0.142 0.356,-0.154 0.481,-0.294c0.075,-0.084 -0.075,-0.161 0.692,-1.224c0.092,-0.127 0.241,-0.207 0.325,-0.339c0.131,-0.206 0.161,-0.471 0.312,-0.662c0.117,-0.149 0.345,-0.179 0.466,-0.325c0.145,-0.175 0.159,-0.436 0.308,-0.607c0.123,-0.142 0.352,-0.159 0.477,-0.298c0.075,-0.084 -0.072,-0.159 0.697,-1.218c0.093,-0.128 0.243,-0.208 0.327,-0.341c0.131,-0.205 0.159,-0.47 0.312,-0.66c0.121,-0.151 0.355,-0.178 0.48,-0.325c0.145,-0.172 0.15,-0.436 0.301,-0.603c0.134,-0.147 0.38,-0.153 0.516,-0.297c0.461,-0.488 0.247,-0.622 0.69,-1.122c1.037,-1.17 1.043,-1.16 1.146,-1.318c0.131,-0.201 0.163,-0.462 0.315,-0.647c0.124,-0.151 0.36,-0.178 0.486,-0.327c0.144,-0.17 0.146,-0.436 0.298,-0.599c0.14,-0.15 0.397,-0.149 0.54,-0.297c0.152,-0.157 0.159,-0.418 0.306,-0.58c0.13,-0.144 0.363,-0.165 0.496,-0.307c0.141,-0.15 0.085,-0.189 1.53,-2.063c0.101,-0.131 0.25,-0.221 0.34,-0.359c0.131,-0.199 0.163,-0.459 0.316,-0.642c0.127,-0.151 0.367,-0.176 0.495,-0.326c0.429,-0.503 0.153,-0.665 0.619,-1.138c0.146,-0.148 0.383,-0.182 0.53,-0.329c0.148,-0.148 0.185,-0.384 0.332,-0.533c0.146,-0.148 0.378,-0.188 0.524,-0.334c0.246,-0.245 0.09,-0.388 0.853,-0.871c0.172,-0.109 0.382,-0.168 0.524,-0.314c0.15,-0.155 0.178,-0.402 0.325,-0.56c0.136,-0.147 0.362,-0.186 0.501,-0.33c0.447,-0.463 0.265,-0.579 0.718,-1.051c2.627,-2.732 2.644,-2.702 2.885,-3.065c0.131,-0.197 0.163,-0.455 0.316,-0.635c0.128,-0.151 0.369,-0.175 0.498,-0.326c0.429,-0.501 0.146,-0.665 0.615,-1.138c0.147,-0.148 0.388,-0.177 0.536,-0.325c0.148,-0.148 0.177,-0.389 0.325,-0.537c0.148,-0.148 0.389,-0.178 0.537,-0.325c0.148,-0.148 0.177,-0.389 0.325,-0.536c0.149,-0.148 0.389,-0.178 0.541,-0.323c0.143,-0.137 0.159,-0.385 0.32,-0.499c0.354,-0.252 0.465,-0.051 1.601,-0.955c1.886,-1.5 1.748,-1.623 2.7,-2.538c0.151,-0.145 0.356,-0.225 0.504,-0.372c0.144,-0.143 0.217,-0.347 0.363,-0.487c0.15,-0.145 0.366,-0.212 0.514,-0.359c0.145,-0.144 0.205,-0.36 0.352,-0.502c0.15,-0.146 0.375,-0.2 0.523,-0.347c0.146,-0.146 0.194,-0.371 0.342,-0.515c0.15,-0.146 0.381,-0.19 0.529,-0.338c0.147,-0.147 0.186,-0.379 0.334,-0.525c0.149,-0.147 0.386,-0.183 0.534,-0.331c0.147,-0.147 0.181,-0.385 0.329,-0.531c0.15,-0.148 0.388,-0.18 0.54,-0.325c0.143,-0.136 0.16,-0.383 0.321,-0.497c0.613,-0.434 0.705,-0.261 1.6,-0.948c0.121,-0.093 1.244,-0.955 1.487,-1.192c0.143,-0.14 0.21,-0.347 0.356,-0.484c0.154,-0.145 0.379,-0.2 0.529,-0.349c0.146,-0.145 0.191,-0.372 0.339,-0.514c0.152,-0.146 0.386,-0.186 0.539,-0.332c0.142,-0.136 0.163,-0.38 0.324,-0.493c0.767,-0.537 0.847,-0.377 1.6,-0.943c0.122,-0.092 1.272,-0.956 1.501,-1.181c0.144,-0.142 0.199,-0.36 0.346,-0.499c0.154,-0.145 0.386,-0.19 0.54,-0.336c0.142,-0.135 0.164,-0.378 0.325,-0.49c0.775,-0.534 0.844,-0.384 1.6,-0.934c0.194,-0.141 0.436,-0.211 0.619,-0.366c0.147,-0.124 0.21,-0.328 0.354,-0.456c0.161,-0.144 0.39,-0.2 0.547,-0.349c0.141,-0.134 0.169,-0.371 0.329,-0.481c0.777,-0.529 0.847,-0.389 1.601,-0.934c0.195,-0.141 0.439,-0.209 0.622,-0.364c0.147,-0.124 0.208,-0.331 0.351,-0.459c0.161,-0.144 0.391,-0.198 0.548,-0.347c0.141,-0.134 0.177,-0.359 0.326,-0.484c0.087,-0.073 0.167,0.107 1.287,-0.601c0.128,-0.081 0.192,-0.239 0.315,-0.326c0.198,-0.14 0.451,-0.196 0.64,-0.349c0.144,-0.117 0.189,-0.328 0.334,-0.443c0.117,-0.092 0.197,0.068 1.613,-0.935c0.198,-0.14 0.446,-0.203 0.634,-0.356c0.142,-0.115 0.194,-0.32 0.339,-0.433c0.118,-0.092 0.191,0.07 1.614,-0.936c0.198,-0.14 0.446,-0.203 0.634,-0.356c0.46,-0.373 0.381,-0.469 0.951,-0.739c1.751,-0.83 1.732,-1.257 1.977,-1.418c0.786,-0.517 0.853,-0.38 1.614,-0.948c0.123,-0.092 1.19,-0.888 1.501,-1.189c0.239,-0.231 0.084,-0.407 0.935,-0.769c0.235,-0.1 0.501,-0.131 0.72,-0.262c0.125,-0.075 0.157,-0.258 0.28,-0.335c0.665,-0.416 0.761,-0.162 1.43,-0.554c0.129,-0.076 0.182,-0.244 0.303,-0.332c0.197,-0.143 0.452,-0.196 0.638,-0.352c0.22,-0.184 0.055,-0.389 0.939,-0.756c0.237,-0.098 0.507,-0.121 0.727,-0.253c0.126,-0.075 0.149,-0.266 0.272,-0.344c0.668,-0.422 0.773,-0.147 1.45,-0.533c0.123,-0.07 0.155,-0.249 0.276,-0.324c0.677,-0.419 0.767,-0.17 1.442,-0.553c0.121,-0.069 0.164,-0.236 0.283,-0.308c0.672,-0.408 0.761,-0.178 1.431,-0.568c0.127,-0.074 0.181,-0.235 0.3,-0.321c0.198,-0.143 0.453,-0.199 0.64,-0.356c0.186,-0.157 0.059,-0.4 0.934,-0.761c0.24,-0.099 0.515,-0.114 0.737,-0.248c0.125,-0.075 0.117,-0.32 0.259,-0.353c0.174,-0.04 0.341,0.241 0.508,0.176c0.156,-0.061 0.074,-0.359 0.21,-0.457c0.213,-0.152 0.523,-0.1 0.75,-0.23c0.125,-0.072 0.116,-0.316 0.257,-0.349c0.174,-0.041 0.343,0.236 0.509,0.17c0.155,-0.061 0.074,-0.356 0.209,-0.452c0.213,-0.152 0.524,-0.102 0.751,-0.232c0.124,-0.071 0.115,-0.313 0.254,-0.345c0.177,-0.041 0.349,0.229 0.52,0.167c0.15,-0.054 0.075,-0.346 0.211,-0.429c0.234,-0.143 0.533,-0.131 0.802,-0.189c0.261,-0.056 0.537,-0.056 0.786,-0.152c0.111,-0.043 0.148,-0.194 0.253,-0.252c0.696,-0.384 0.769,-0.18 1.469,-0.567c0.117,-0.065 0.165,-0.219 0.28,-0.287c0.683,-0.401 0.766,-0.181 1.451,-0.564c0.118,-0.066 0.158,-0.229 0.274,-0.298c0.68,-0.405 0.772,-0.16 1.458,-0.549c0.12,-0.068 0.149,-0.243 0.266,-0.315c0.679,-0.416 0.783,-0.143 1.466,-0.537c0.12,-0.069 0.136,-0.258 0.255,-0.329c0.333,-0.201 1.408,-0.433 1.533,-0.461c0.263,-0.057 0.542,-0.052 0.792,-0.15c0.109,-0.043 0.138,-0.198 0.24,-0.255c0.701,-0.388 0.786,-0.152 1.487,-0.545c0.118,-0.066 0.145,-0.24 0.262,-0.308c0.352,-0.204 1.405,-0.443 1.53,-0.472c0.939,-0.213 0.9,-0.291 1.774,-0.689c0.24,-0.109 0.518,-0.128 0.748,-0.257c0.257,-0.144 0.136,-0.414 1.793,-0.775c1.345,-0.293 1.251,-0.567 2.583,-0.873c0.942,-0.216 0.897,-0.288 1.775,-0.683c0.242,-0.109 0.522,-0.124 0.753,-0.255c0.205,-0.116 0.052,-0.43 1.793,-0.774c0.266,-0.052 0.552,-0.027 0.803,-0.128c0.11,-0.044 0.113,-0.224 0.216,-0.282c0.667,-0.371 3.158,-0.619 3.224,-0.642c0.049,-0.017 0.701,-0.447 1.786,-0.693c1.764,-0.399 1.669,-0.776 3.467,-0.923c1.512,-0.124 1.513,-0.106 1.677,-0.156c0.334,-0.1 0.624,-0.314 0.952,-0.431c0.263,-0.094 0.538,-0.153 0.813,-0.201c0.554,-0.096 1.125,-0.093 1.67,-0.232c0.925,-0.236 0.841,-0.447 1.761,-0.666c1.757,-0.419 1.676,-0.723 3.472,-0.889c1.582,-0.146 1.569,-0.134 1.683,-0.168c0.333,-0.1 0.623,-0.314 0.95,-0.43c0.263,-0.094 0.539,-0.151 0.814,-0.197c0.559,-0.094 1.136,-0.086 1.686,-0.223c0.426,-0.107 0.426,-0.506 2.63,-0.703c1.583,-0.142 1.583,-0.131 1.69,-0.163c0.332,-0.099 0.616,-0.319 0.943,-0.432c0.787,-0.272 4.021,-0.374 4.239,-0.437c0.271,-0.078 0.691,-0.557 2.617,-0.687c2.561,-0.173 2.557,-0.172 2.561,-0.173c0.818,-0.237 0.753,-0.601 4.349,-0.749c1.415,-0.058 1.392,0.106 1.813,0.137Z" style="fill:#fff;fill-opacity:1;"/><path d="M261.683,35.222l8.624,0c0.371,0.202 0.552,0.665 0.923,0.867c0.751,0.409 6.471,-0.406 10.205,0.705c1.231,0.366 2.052,0.245 4.416,0.381c2.203,0.126 2.108,0.656 4.319,0.773c3.1,0.165 3.015,0.627 4.309,0.826c2.065,0.318 2.108,0.003 4.198,0.62c0.923,0.272 3.405,0.422 7.759,1.72c1.674,0.499 2.144,0.22 3.53,0.607c3.872,1.08 3.887,1.008 4.216,1.125c3.8,1.348 3.906,0.959 6.034,1.725c0.122,0.044 15.4,5.134 15.493,5.184c0.11,0.059 0.152,0.211 0.265,0.266c0.831,0.403 3.044,1.101 3.313,1.186c1.143,0.361 1.78,1.115 3.515,1.525c0.124,0.029 1.206,0.285 1.528,0.468c0.115,0.066 0.146,0.235 0.262,0.3c0.23,0.129 0.498,0.171 0.744,0.265c1.253,0.483 1.915,1.195 3.502,1.564c0.266,0.062 0.561,0.055 0.795,0.195c0.133,0.079 0.07,0.36 0.216,0.41c0.17,0.059 0.342,-0.199 0.517,-0.155c0.139,0.035 0.13,0.275 0.253,0.347c0.685,0.398 0.801,0.09 1.47,0.514c0.121,0.076 0.135,0.27 0.259,0.341c0.684,0.397 0.793,0.101 1.465,0.523c0.12,0.075 0.14,0.264 0.263,0.334c0.689,0.398 0.796,0.113 1.461,0.529c0.12,0.075 0.142,0.262 0.265,0.332c0.681,0.393 0.792,0.11 1.459,0.53c0.121,0.076 0.141,0.265 0.265,0.337c0.682,0.394 0.793,0.1 1.46,0.524c0.122,0.077 0.137,0.272 0.262,0.345c0.225,0.131 0.53,0.091 0.743,0.239c0.134,0.093 0.073,0.375 0.225,0.433c0.162,0.062 0.328,-0.201 0.495,-0.157c0.141,0.037 0.132,0.281 0.258,0.354c0.225,0.131 0.534,0.082 0.747,0.232c0.135,0.095 0.061,0.388 0.216,0.446c0.166,0.063 0.332,-0.215 0.505,-0.172c0.143,0.036 0.129,0.285 0.255,0.362c0.22,0.135 0.526,0.095 0.736,0.246c0.14,0.101 0.108,0.349 0.243,0.457c0.196,0.158 0.467,0.187 0.694,0.296c0.824,0.397 0.715,0.546 0.952,0.667c0.455,0.232 0.972,0.327 1.423,0.566c0.129,0.068 0.153,0.264 0.279,0.336c0.223,0.128 0.522,0.096 0.733,0.244c0.135,0.095 0.081,0.377 0.235,0.436c0.159,0.061 0.32,-0.204 0.484,-0.16c0.143,0.038 0.134,0.283 0.26,0.36c0.22,0.135 0.524,0.096 0.733,0.248c0.142,0.103 0.113,0.353 0.249,0.465c0.577,0.472 0.715,0.187 1.329,0.635c0.125,0.091 0.167,0.275 0.299,0.353c0.219,0.13 0.514,0.104 0.722,0.252c0.136,0.097 0.09,0.376 0.246,0.436c0.155,0.06 0.312,-0.205 0.472,-0.161c0.144,0.039 0.135,0.284 0.262,0.361c0.22,0.134 0.524,0.094 0.732,0.246c0.143,0.104 0.113,0.357 0.249,0.47c0.191,0.158 0.492,0.139 0.68,0.3c0.145,0.124 0.112,0.392 0.264,0.507c0.607,0.456 0.783,0.003 1.393,0.45c0.143,0.105 0.122,0.352 0.259,0.465c0.571,0.47 0.716,0.184 1.318,0.632c0.127,0.094 0.162,0.286 0.297,0.37c0.215,0.134 0.51,0.108 0.713,0.258c0.143,0.105 0.13,0.349 0.267,0.462c0.188,0.155 0.48,0.146 0.665,0.305c0.143,0.122 0.119,0.383 0.27,0.495c0.601,0.447 0.772,0.012 1.385,0.463c0.144,0.106 0.129,0.351 0.266,0.465c0.188,0.155 0.481,0.144 0.664,0.305c0.145,0.127 0.112,0.397 0.266,0.513c0.6,0.452 0.785,-0.01 1.392,0.439c0.145,0.108 0.12,0.36 0.258,0.477c0.186,0.158 0.483,0.145 0.665,0.308c0.152,0.136 0.123,0.416 0.284,0.541c0.365,0.283 0.844,0.384 1.231,0.635c0.132,0.086 0.171,0.277 0.304,0.36c0.214,0.133 0.504,0.118 0.706,0.268c0.145,0.108 0.139,0.349 0.278,0.464c0.185,0.154 0.475,0.145 0.652,0.308c0.147,0.136 0.107,0.418 0.267,0.54c0.185,0.142 0.49,0.042 0.675,0.184c0.18,0.14 -0.013,0.524 0.168,0.664c0.208,0.162 0.531,0.023 0.789,0.08c0.241,0.054 0.455,0.197 0.696,0.251c0.228,0.235 0.011,0.335 0.23,0.562c0.259,0.267 0.364,0.071 0.622,0.317c0.15,0.143 0.14,0.406 0.289,0.551c0.156,0.152 0.424,0.148 0.583,0.298c0.143,0.134 0.126,0.398 0.282,0.516c0.592,0.445 0.783,-0.026 1.377,0.427c0.15,0.114 0.11,0.382 0.253,0.504c0.184,0.158 0.489,0.123 0.669,0.286c0.152,0.137 0.118,0.409 0.261,0.555c0.158,0.16 0.436,0.159 0.597,0.316c0.149,0.146 0.144,0.408 0.293,0.554c0.155,0.151 0.423,0.144 0.577,0.295c0.145,0.141 0.101,0.441 0.278,0.538c0.422,0.233 0.977,0.143 1.394,0.385c0.174,0.1 0.08,0.425 0.233,0.555c0.186,0.158 0.513,0.07 0.695,0.233c0.154,0.139 0.071,0.435 0.215,0.585c0.162,0.168 0.464,0.135 0.633,0.296c0.15,0.142 0.123,0.412 0.268,0.559c0.155,0.158 0.429,0.158 0.586,0.313c0.15,0.148 0.147,0.41 0.296,0.559c0.151,0.152 0.414,0.153 0.566,0.304c0.149,0.148 0.15,0.408 0.301,0.554c0.153,0.149 0.419,0.142 0.571,0.293c0.146,0.145 0.115,0.425 0.277,0.551c0.605,0.472 0.826,-0.123 1.404,0.358c0.167,0.139 0.046,0.478 0.213,0.617c0.204,0.189 -0.164,0.645 0.04,0.834c0.21,0.196 0.577,-0.032 0.862,0.004c0.237,0.03 0.453,0.161 0.69,0.191c0.265,1.291 0.203,1.31 0.285,1.388c0.19,0.182 0.528,0.037 0.784,0.102c0.221,0.056 0.413,0.202 0.634,0.258c0.222,0.228 0.298,0.106 0.527,0.342c0.227,0.233 0.104,0.306 0.325,0.532c0.186,0.191 0.371,0.008 0.854,0.872c0.309,0.553 0.309,0.547 0.858,0.868c0.837,0.488 0.657,0.66 0.861,0.864c0.147,0.147 0.381,0.187 0.528,0.334c0.147,0.147 0.187,0.381 0.334,0.528c0.147,0.147 0.381,0.187 0.528,0.334c0.147,0.147 0.187,0.381 0.334,0.528c0.147,0.147 0.381,0.187 0.528,0.334c0.147,0.147 0.187,0.381 0.334,0.528c0.147,0.147 0.381,0.187 0.528,0.334c0.147,0.147 0.187,0.381 0.334,0.529c0.147,0.147 0.381,0.185 0.529,0.332c0.148,0.148 0.186,0.383 0.335,0.53c0.148,0.146 0.384,0.18 0.532,0.326c0.149,0.147 0.187,0.385 0.337,0.531c0.149,0.146 0.387,0.176 0.536,0.321c0.15,0.146 0.188,0.384 0.338,0.531c0.149,0.145 0.386,0.176 0.536,0.321c0.15,0.146 0.189,0.383 0.339,0.529c0.071,0.353 0.156,0.316 0.225,0.662c0.151,0.751 0.025,0.76 0.07,0.807c0,0 1.337,0.214 1.453,0.233c0.038,0.376 0.119,0.35 0.156,0.72c0.081,0.806 -0.045,0.811 0.003,0.861c0.193,0.204 0.649,-0.172 0.842,0.032c0.269,0.314 0.539,0.627 0.808,0.941c0.167,0.212 0.259,0.084 0.425,0.294c0.225,0.286 0.072,0.357 0.313,0.644c0.131,0.156 0.369,0.189 0.511,0.335c0.148,0.151 0.189,0.387 0.339,0.536c0.147,0.147 0.381,0.184 0.528,0.33c0.148,0.148 0.186,0.385 0.336,0.532c0.149,0.145 0.387,0.173 0.536,0.317c0.151,0.147 0.189,0.387 0.341,0.533c0.07,0.358 0.158,0.319 0.229,0.685c0.149,0.761 0.02,0.769 0.064,0.817c0,0 1.269,0.249 1.38,0.271c0.2,0.348 -0.022,0.403 0.174,0.744c0.134,0.233 0.252,0.075 0.423,0.293c0.148,0.188 0.159,0.463 0.314,0.645c0.131,0.155 0.37,0.184 0.512,0.329c0.149,0.152 0.188,0.392 0.341,0.541c0.149,0.144 0.389,0.168 0.538,0.312c0.152,0.148 0.187,0.391 0.34,0.539c0.281,1.391 0.224,1.404 0.303,1.498c0.15,0.179 0.533,-0.022 0.683,0.157c0.163,0.208 0.253,0.082 0.417,0.292c0.232,0.296 0.079,0.368 0.316,0.645c0.131,0.154 0.371,0.18 0.513,0.325c0.15,0.153 0.192,0.391 0.342,0.544c0.077,0.361 0.162,0.322 0.241,0.69c0.162,0.757 0.036,0.766 0.081,0.814c0,0 1.255,0.236 1.364,0.257c0.203,0.351 -0.028,0.407 0.171,0.75c0.133,0.23 0.254,0.062 0.426,0.28c0.15,0.191 0.161,0.467 0.311,0.658c0.351,1.366 0.302,1.38 0.379,1.475c0.135,0.166 0.482,0.008 0.617,0.174c0.161,0.206 0.25,0.083 0.41,0.288c0.231,0.295 0.079,0.367 0.32,0.646c0.132,0.153 0.373,0.175 0.514,0.319c0.151,0.154 0.188,0.398 0.339,0.552c0.297,1.399 0.24,1.413 0.32,1.506c0.15,0.175 0.526,-0.031 0.676,0.144c0.246,0.312 0.491,0.623 0.737,0.935c0.317,1.391 0.263,1.404 0.342,1.498c0.143,0.17 0.506,-0.015 0.649,0.156c0.245,0.311 0.49,0.623 0.734,0.934c0.32,1.39 0.265,1.403 0.344,1.497c0.142,0.17 0.504,-0.014 0.646,0.157c0.245,0.311 0.49,0.623 0.734,0.934c0.299,1.401 0.242,1.415 0.322,1.509c0.148,0.173 0.518,-0.027 0.665,0.146c0.246,0.311 0.492,0.622 0.738,0.933c0.236,1.4 -0.041,1.599 1.103,2.456c0.157,0.118 0.407,0.055 0.564,0.173c0.206,0.35 -0.012,0.408 0.191,0.752c0.136,0.231 0.253,0.069 0.411,0.271c0.151,0.193 0.167,0.469 0.318,0.661c0.245,1.472 0.205,1.475 0.265,1.589c0.187,0.356 0.633,0.527 0.82,0.883c0.259,0.304 0.517,0.609 0.776,0.913c0.085,0.13 0.306,0.122 0.391,0.252c0.438,0.667 0.06,0.8 0.473,1.476c0.083,0.136 0.3,0.14 0.398,0.266c0.151,0.194 0.174,0.467 0.325,0.661c0.229,1.487 0.19,1.489 0.247,1.605c0.178,0.358 0.618,0.54 0.796,0.898c0.295,0.571 0.589,1.142 0.884,1.713c0.196,0.379 -0.101,0.437 0.094,0.814c0.044,0.085 0.259,0.502 0.79,0.9c0.163,0.122 0.433,0.017 0.596,0.139l0.185,0.773c0.316,0.847 0.632,1.694 0.948,2.54c0.189,0.386 -0.096,0.439 0.091,0.821c0.265,0.54 0.492,0.363 0.758,0.911c0.12,0.249 -0.038,0.577 0.083,0.826c0.172,0.356 0.587,0.555 0.758,0.911c0.12,0.25 -0.046,0.578 0.075,0.827c0.174,0.357 0.59,0.555 0.77,0.909c0.125,0.245 -0.013,0.57 0.108,0.817c0.174,0.357 0.571,0.573 0.745,0.93c0.032,0.133 0.315,0.084 0.347,0.217c0.071,0.295 -0.268,0.238 -0.165,0.54c0.051,0.149 0.335,0.082 0.422,0.213c0.146,0.221 0.084,0.538 0.224,0.764c0.079,0.127 0.358,0.078 0.388,0.224c0.041,0.198 -0.298,0.375 -0.226,0.564c0.062,0.164 0.396,0.021 0.501,0.161c0.16,0.214 0.04,0.561 0.2,0.775c0.171,1.522 0.128,1.523 0.184,1.643c0.253,0.542 0.46,0.391 0.715,0.936c0.031,0.132 0.313,0.084 0.344,0.216c0.074,0.314 -0.264,0.258 -0.164,0.547c0.051,0.148 0.337,0.075 0.423,0.206c0.146,0.225 0.07,0.548 0.213,0.775c0.081,0.128 0.325,0.078 0.406,0.206c-0.042,0.343 -0.241,0.255 -0.284,0.605c-0.008,0.066 -0.055,0.45 0.11,0.818c0.158,0.353 0.521,0.588 0.679,0.94c0.03,0.131 0.311,0.083 0.341,0.214c0.073,0.314 -0.264,0.259 -0.164,0.551c0.051,0.148 0.338,0.071 0.422,0.202c0.145,0.227 0.062,0.553 0.206,0.78c0.083,0.13 0.335,0.068 0.418,0.198c-0.055,0.359 -0.265,0.257 -0.322,0.625c-0.01,0.066 -0.069,0.451 0.1,0.824c0.161,0.356 0.538,0.584 0.7,0.939l0.383,0.178c-0.037,0.349 -0.231,0.269 -0.269,0.624c-0.007,0.067 -0.048,0.449 0.115,0.83c0.15,0.352 0.495,0.598 0.646,0.95c0.024,0.133 0.336,0.055 0.36,0.188c0.062,0.346 -0.323,0.273 -0.218,0.6c0.05,0.156 0.375,0.025 0.463,0.163c0.455,0.72 -0.091,0.851 0.263,1.635c0.055,0.121 0.324,0.061 0.349,0.191c0.04,0.204 -0.26,0.394 -0.197,0.592c0.048,0.15 0.359,0.037 0.441,0.171c0.441,0.726 -0.096,0.856 0.264,1.639c0.056,0.121 0.333,0.051 0.357,0.183c0.038,0.211 -0.282,0.401 -0.215,0.605c0.05,0.155 0.376,0.02 0.463,0.158c0,0 0.223,1.518 0.242,1.65c0.283,0.864 0.566,1.728 0.849,2.592c0.162,1.525 0.125,1.524 0.175,1.647c0.225,0.549 0.413,0.429 0.636,0.973l0.071,0.829c0.258,0.583 0.515,1.166 0.773,1.75l0.062,0.845c0.111,1.545 0.066,1.546 0.12,1.668c0.244,0.552 0.467,0.393 0.711,0.944c0.006,0.134 0.074,1.678 0.074,1.678c0.099,1.462 0.666,1.505 0.788,1.779c0.019,0.564 0.038,1.127 0.057,1.691c0.211,1.514 0.183,1.511 0.228,1.635c0.196,0.538 0.362,0.443 0.56,0.985c0.134,2.328 0.083,2.322 0.145,2.513c0.191,0.59 0.546,0.346 0.738,0.937l-0.023,0.865c0.019,0.595 0.024,2.721 0.296,3.343c0.151,0.344 0.417,0.63 0.567,0.974l-0.008,0.861c0.12,2.332 0.067,2.327 0.13,2.518c0.196,0.598 0.575,0.328 0.771,0.925c-0.084,3.194 -0.068,3.174 -0.09,3.45c-0.039,0.476 -0.143,0.444 -0.17,0.908c-0.03,0.524 0.039,0.508 0.303,1.633c0.342,1.459 0.167,5.072 0.213,5.206c0.136,0.395 0.748,0.495 0.884,0.89l0,42.258c-0.191,0.376 -0.673,0.547 -0.864,0.922c-0.121,0.238 0.197,4.151 -0.293,6.022c-0.329,1.256 -0.264,1.263 -0.086,2.553c0,0 0.07,2.377 0.077,2.583c-0.159,0.345 -0.446,0.622 -0.605,0.967c-0.201,0.436 -0.226,1.529 -0.27,3.346l0.009,0.863c-0.208,0.558 -0.512,0.446 -0.68,1.82c-0.049,0.401 -0.06,0.383 -0.111,0.801c-0.03,0.854 -0.061,1.709 -0.091,2.563c-0.252,0.586 -0.505,1.171 -0.757,1.757c-0.028,0.562 -0.055,1.123 -0.083,1.685c-0.268,0.873 -0.536,1.745 -0.804,2.618c-0.028,0.567 -0.056,1.135 -0.084,1.702c-0.251,0.586 -0.503,1.173 -0.754,1.759c-0.104,1.565 -0.067,1.562 -0.112,1.69c-0.127,0.363 -0.521,0.604 -0.613,0.977c-0.052,0.212 0.258,0.401 0.221,0.616c-0.023,0.13 -0.305,0.049 -0.358,0.17c-0.11,0.253 0.035,0.572 -0.076,0.826c-0.269,0.871 -0.538,1.743 -0.807,2.614l-0.054,0.837c-0.101,0.231 -0.691,0.375 -0.779,1.779c-0.027,0.427 -0.009,0.409 -0.036,0.84c-0.285,0.863 -0.57,1.726 -0.856,2.589c-0.223,0.54 -0.412,0.417 -0.633,0.954c-0.026,0.062 -0.155,0.376 -0.105,0.837c0.025,0.226 0.24,0.403 0.265,0.63c-0.059,0.126 -0.321,0.046 -0.38,0.172c-0.183,0.394 0.074,0.437 -0.087,0.832c-0.146,0.359 -0.552,0.59 -0.647,0.965c-0.054,0.215 0.282,0.397 0.248,0.616c-0.021,0.136 -0.351,0.043 -0.372,0.18c-0.226,0.535 -0.414,0.412 -0.642,0.951c-0.026,0.062 -0.162,0.382 -0.113,0.834c0.024,0.226 0.246,0.399 0.271,0.624l-0.383,0.179c-0.243,0.542 -0.457,0.39 -0.701,0.934c-0.027,0.061 -0.163,0.364 -0.09,0.829c0.038,0.239 0.285,0.411 0.322,0.65l-0.402,0.171c-0.263,0.551 -0.505,0.362 -0.768,0.912c-0.029,0.06 -0.165,0.345 -0.064,0.832c0.05,0.244 0.32,0.406 0.37,0.65c-0.137,0.214 -0.29,-0.024 -0.43,0.195c-0.226,0.351 0.043,0.44 -0.197,0.782c-0.098,0.14 -0.425,0.018 -0.479,0.18c-0.066,0.196 0.263,0.374 0.225,0.577c-0.026,0.138 -0.344,0.062 -0.369,0.2c-0.254,0.545 -0.48,0.376 -0.733,0.919c-0.028,0.06 -0.163,0.35 -0.08,0.825c0.041,0.235 0.293,0.397 0.334,0.632c-0.137,0.216 -0.288,-0.01 -0.422,0.201c-0.221,0.347 0.042,0.436 -0.201,0.778c-0.099,0.14 -0.427,0.02 -0.481,0.182c-0.065,0.195 0.266,0.372 0.228,0.574c-0.026,0.139 -0.347,0.062 -0.373,0.201c-0.265,0.551 -0.511,0.357 -0.777,0.909c-0.187,0.388 0.114,0.434 -0.062,0.834c-0.156,0.356 -0.551,0.57 -0.709,0.924c-0.114,0.255 -0.118,0.557 -0.078,0.834c0.031,0.216 0.251,0.375 0.281,0.591c-0.133,0.211 -0.279,0.004 -0.411,0.215c-0.219,0.348 0.032,0.435 -0.207,0.77c-0.1,0.14 -0.42,0.03 -0.478,0.191c-0.065,0.182 0.26,0.349 0.218,0.538c-0.033,0.148 -0.311,0.105 -0.39,0.234c-0.136,0.225 -0.061,0.546 -0.213,0.76c-0.098,0.138 -0.412,0.038 -0.466,0.198c-0.063,0.189 0.253,0.363 0.214,0.559c-0.028,0.138 -0.34,0.069 -0.367,0.206c-0.273,0.554 -0.523,0.351 -0.797,0.906c-0.192,0.389 0.138,0.439 -0.063,0.837c-0.181,0.358 -0.635,0.53 -0.811,0.891c-0.124,0.254 0.088,0.592 -0.035,0.847c-0.174,0.36 -0.628,0.531 -0.804,0.891c-0.124,0.253 0.08,0.59 -0.044,0.842c-0.176,0.36 -0.628,0.532 -0.806,0.891c-0.125,0.251 0.072,0.588 -0.052,0.839c-0.29,0.574 -0.581,1.148 -0.871,1.722l-0.843,0.873c-0.181,0.347 -0.508,0.605 -0.689,0.952c-0.09,0.173 -0.158,0.302 -0.366,2.41c-0.241,0.292 -0.087,0.365 -0.329,0.658c-0.163,0.197 -0.278,0.024 -0.419,0.248c-0.423,0.674 -0.025,0.825 -0.466,1.487c-0.085,0.128 -0.316,0.108 -0.393,0.24c-0.133,0.227 -0.062,0.537 -0.195,0.763c-0.244,0.185 -0.309,0.009 -0.547,0.189c-0.077,0.059 -0.641,0.487 -0.849,0.87c0,0 -0.234,1.454 -0.255,1.58c-0.239,0.292 -0.087,0.364 -0.327,0.658c-0.161,0.197 -0.277,0.027 -0.417,0.252c-0.419,0.675 -0.013,0.816 -0.452,1.489c-0.086,0.131 -0.312,0.12 -0.398,0.251c-0.158,0.181 -0.555,-0.075 -0.713,0.106c0,0 -0.258,1.431 -0.281,1.556c-0.239,0.292 -0.085,0.365 -0.326,0.658c-0.162,0.198 -0.279,0.024 -0.419,0.252c-0.137,0.222 -0.067,0.534 -0.204,0.757c-0.155,0.114 -0.382,0.096 -0.537,0.211c-1.297,0.96 -0.727,1.3 -0.936,1.673c-0.266,0.308 -0.532,0.615 -0.798,0.923c-0.193,0.352 -0.663,0.496 -0.856,0.848c0,0 -0.211,1.459 -0.229,1.585c-0.283,0.189 -0.347,-0.036 -0.638,0.158c-0.08,0.053 -0.628,0.419 -0.861,0.842c0,0 -0.207,1.461 -0.225,1.588c-0.289,0.186 -0.349,-0.035 -0.646,0.157c-0.082,0.052 -0.666,0.428 -0.886,0.829c-0.135,0.245 0.104,0.594 -0.031,0.84c-0.15,0.175 -0.533,-0.068 -0.683,0.107c0,0 -0.325,1.392 -0.353,1.513c-0.241,0.311 -0.482,0.623 -0.723,0.934c-0.162,0.183 -0.564,-0.086 -0.726,0.097c0,0 -0.258,1.429 -0.28,1.554c-0.236,0.237 -0.099,0.317 -0.333,0.552c-0.223,0.224 -0.319,0.069 -0.526,0.312c-0.157,0.184 -0.154,0.468 -0.302,0.659c-0.102,0.133 -0.317,0.144 -0.42,0.276c-0.159,0.181 -0.555,-0.075 -0.715,0.106c0,0 -0.27,1.421 -0.293,1.544c-0.236,0.237 -0.098,0.318 -0.332,0.552c-0.222,0.223 -0.319,0.065 -0.528,0.312c-0.156,0.185 -0.148,0.47 -0.294,0.662c-0.102,0.135 -0.319,0.148 -0.421,0.282l-0.815,0.058c-0.171,0.358 -0.593,0.555 -0.763,0.913c-0.121,0.255 -0.02,0.567 -0.074,0.844c-0.046,0.237 -0.179,0.452 -0.225,0.69c-0.232,0.233 -0.097,0.313 -0.331,0.548c-0.221,0.223 -0.319,0.065 -0.528,0.315c-0.155,0.185 -0.146,0.47 -0.291,0.663c-0.102,0.136 -0.319,0.151 -0.42,0.287c-0.184,0.228 -0.696,-0.206 -0.88,0.022c-0.198,0.245 0.119,0.624 0.105,0.939c-0.011,0.252 -0.167,0.483 -0.177,0.734c-1.35,0.161 -1.37,0.089 -1.451,0.173c0,0 -0.315,1.371 -0.343,1.49c-0.234,0.231 -0.094,0.313 -0.325,0.541c-0.232,0.229 -0.314,0.087 -0.544,0.316c-0.149,0.148 -0.171,0.395 -0.32,0.544c-0.148,0.148 -0.394,0.171 -0.542,0.319c-0.15,0.151 -0.176,0.398 -0.324,0.551c-0.143,0.147 -0.392,0.164 -0.523,0.321c-0.154,0.185 -0.15,0.467 -0.294,0.66c-0.102,0.136 -0.316,0.155 -0.417,0.291l-0.881,0.027c-1.556,1.638 -1.606,1.585 -1.678,1.766c-0.114,0.287 0.175,0.638 0.061,0.924c-0.289,0.285 -0.578,0.571 -0.867,0.856c-0.18,0.179 -0.579,-0.108 -0.759,0.072c0,0 -0.309,1.331 -0.336,1.447c-0.235,0.228 -0.098,0.311 -0.33,0.536c-0.233,0.226 -0.314,0.084 -0.546,0.313c-0.15,0.148 -0.173,0.394 -0.322,0.542c-0.149,0.148 -0.396,0.169 -0.544,0.317c-0.149,0.148 -0.17,0.395 -0.319,0.544c-0.149,0.149 -0.395,0.17 -0.544,0.319c-0.149,0.149 -0.17,0.395 -0.319,0.544c-0.149,0.149 -0.395,0.17 -0.544,0.319c-0.149,0.149 -0.17,0.395 -0.319,0.544c-0.149,0.149 -0.395,0.17 -0.544,0.319c-0.149,0.149 -0.17,0.395 -0.319,0.544c-0.149,0.149 -0.395,0.17 -0.544,0.319c-0.148,0.149 -0.17,0.395 -0.318,0.544c-0.148,0.149 -0.394,0.173 -0.541,0.322c-0.148,0.149 -0.17,0.394 -0.316,0.544c-0.146,0.15 -0.388,0.181 -0.535,0.331c-0.146,0.15 -0.173,0.39 -0.317,0.541c-0.144,0.151 -0.382,0.19 -0.526,0.341c-0.345,0.064 -0.299,0.17 -0.655,0.237c-0.786,0.146 -0.793,-0.006 -0.84,0.042c-0.193,0.197 0.179,0.631 -0.014,0.827c-0.285,0.113 -0.634,-0.167 -0.919,-0.053c-0.127,0.051 -1.71,1.531 -1.778,1.665c-0.132,0.259 0.094,0.611 -0.037,0.87c-0.197,0.146 -0.533,-0.048 -0.73,0.099c-0.173,0.129 -0.128,0.414 -0.222,0.609c-0.319,0.661 -0.849,0.822 -0.873,0.846c-0.149,0.148 -0.172,0.393 -0.321,0.541c-0.149,0.148 -0.394,0.172 -0.543,0.32c-0.148,0.149 -0.171,0.394 -0.318,0.543c-0.148,0.149 -0.392,0.175 -0.539,0.325c-0.146,0.149 -0.168,0.393 -0.313,0.544c-0.145,0.152 -0.387,0.189 -0.532,0.341c-0.372,0.078 -0.329,0.174 -0.692,0.25c-0.753,0.158 -0.774,0.027 -0.826,0.068c-0.185,0.148 0.054,0.551 -0.131,0.699c-0.193,0.143 -0.517,-0.011 -0.71,0.133c-0.165,0.122 -0.141,0.386 -0.236,0.569c-0.362,0.7 -0.817,0.784 -0.876,0.842c-0.148,0.148 -0.172,0.392 -0.319,0.542c-0.147,0.15 -0.391,0.177 -0.538,0.327c-0.146,0.15 -0.168,0.392 -0.312,0.544c-0.484,0.513 -0.705,0.129 -1.231,0.591c-0.151,0.132 -0.058,0.437 -0.215,0.562c-0.619,0.493 -0.835,-0.166 -1.467,0.302c-0.171,0.126 -0.069,0.449 -0.22,0.598c-0.161,0.159 -0.473,0.086 -0.634,0.246c-0.155,0.153 -0.076,0.459 -0.233,0.609c-0.177,0.169 -0.499,0.106 -0.683,0.268c-0.146,0.129 -0.078,0.415 -0.229,0.537c-0.603,0.485 -0.815,-0.084 -1.434,0.376c-0.161,0.12 -0.086,0.42 -0.233,0.556c-0.167,0.155 -0.474,0.089 -0.637,0.248c-0.154,0.151 -0.076,0.455 -0.233,0.603c-0.178,0.169 -0.503,0.104 -0.687,0.267c-0.146,0.129 -0.073,0.417 -0.225,0.539c-0.606,0.489 -0.817,-0.101 -1.442,0.365c-0.163,0.122 -0.079,0.427 -0.227,0.566c-0.168,0.157 -0.48,0.088 -0.643,0.251c-0.153,0.152 -0.063,0.461 -0.22,0.609c-0.182,0.171 -0.518,0.091 -0.705,0.258c-0.147,0.131 -0.053,0.43 -0.205,0.554c-0.624,0.505 -0.847,-0.161 -1.478,0.318c-0.169,0.128 -0.043,0.459 -0.197,0.605c-0.181,0.172 -0.517,0.087 -0.706,0.25c-0.147,0.127 -0.06,0.421 -0.211,0.544c-0.619,0.501 -0.841,-0.133 -1.467,0.344c-0.165,0.126 -0.05,0.448 -0.202,0.589c-0.184,0.17 -0.517,0.087 -0.707,0.25c-0.147,0.127 -0.061,0.42 -0.211,0.541c-0.618,0.498 -0.844,-0.13 -1.468,0.346c-0.165,0.126 -0.048,0.448 -0.2,0.588c-0.185,0.17 -0.522,0.085 -0.712,0.249c-0.147,0.127 -0.054,0.423 -0.205,0.544c-0.618,0.498 -0.813,-0.081 -1.486,0.344c-0.158,0.1 -0.101,0.387 -0.249,0.501c-0.203,0.157 -0.508,0.122 -0.728,0.255c-0.13,0.079 -0.163,0.265 -0.285,0.356c-0.612,0.458 -0.775,0.12 -1.348,0.602c-0.144,0.121 -0.076,0.401 -0.224,0.517c-0.623,0.488 -0.808,-0.028 -1.472,0.391c-0.15,0.095 -0.112,0.362 -0.255,0.467c-0.207,0.152 -0.508,0.123 -0.729,0.256c-0.13,0.078 -0.163,0.263 -0.284,0.353c-0.614,0.459 -0.779,0.117 -1.354,0.603c-0.143,0.121 -0.068,0.404 -0.216,0.521c-0.627,0.495 -0.817,-0.046 -1.488,0.383c-0.15,0.096 -0.094,0.373 -0.237,0.479c-0.208,0.154 -0.514,0.113 -0.738,0.242c-0.125,0.072 -0.148,0.26 -0.27,0.336c-0.672,0.417 -0.782,0.136 -1.451,0.536c-0.128,0.077 -0.162,0.26 -0.282,0.349c-0.618,0.463 -0.791,0.103 -1.37,0.599c-0.144,0.124 -0.048,0.415 -0.195,0.535c-0.642,0.523 -0.856,-0.109 -1.542,0.352c-0.154,0.104 -0.028,0.415 -0.173,0.531c-0.647,0.518 -0.857,-0.111 -1.544,0.346c-0.151,0.1 -0.039,0.401 -0.183,0.512c-0.207,0.161 -0.528,0.087 -0.756,0.218c-0.127,0.073 -0.108,0.334 -0.252,0.36c-0.189,0.034 -0.354,-0.287 -0.533,-0.217c-0.165,0.065 -0.045,0.392 -0.186,0.5c-0.208,0.159 -0.528,0.09 -0.755,0.221c-0.126,0.073 -0.108,0.332 -0.251,0.359c-0.189,0.035 -0.357,-0.283 -0.535,-0.213c-0.164,0.065 -0.042,0.39 -0.183,0.497c-0.209,0.159 -0.529,0.089 -0.756,0.221c-0.126,0.073 -0.106,0.334 -0.25,0.359c-0.192,0.034 -0.361,-0.292 -0.542,-0.22c-0.166,0.066 -0.035,0.396 -0.176,0.505c-0.208,0.161 -0.53,0.087 -0.758,0.218c-0.126,0.072 -0.103,0.336 -0.247,0.359c-0.198,0.032 -0.368,-0.298 -0.557,-0.23c-0.164,0.059 -0.029,0.396 -0.174,0.493c-0.229,0.154 -0.539,0.118 -0.811,0.167c-0.266,0.047 -0.549,0.022 -0.8,0.12c-0.116,0.045 -0.129,0.226 -0.237,0.288c-0.697,0.403 -0.792,0.141 -1.484,0.536c-0.12,0.068 -0.149,0.245 -0.267,0.317c-0.684,0.417 -0.786,0.147 -1.465,0.543c-0.119,0.069 -0.139,0.251 -0.255,0.324c-0.676,0.431 -0.789,0.136 -1.472,0.536c-0.121,0.071 -0.106,0.315 -0.244,0.342c-0.193,0.038 -0.376,-0.251 -0.561,-0.182c-0.151,0.056 -0.033,0.366 -0.169,0.453c-0.233,0.149 -0.538,0.123 -0.81,0.172c-0.266,0.048 -0.551,0.021 -0.802,0.12c-0.115,0.045 -0.126,0.226 -0.233,0.287c-0.699,0.404 -0.803,0.131 -1.497,0.535c-0.117,0.068 -0.13,0.252 -0.245,0.323c-0.221,0.136 -0.48,0.202 -0.729,0.277c-1.452,0.435 -1.487,0.262 -1.609,0.31c-0.112,0.044 -0.126,0.219 -0.23,0.279c-0.231,0.132 -0.496,0.189 -0.746,0.279c-1.019,0.364 -0.905,0.562 -0.995,0.582c-0.196,0.043 -0.397,-0.216 -0.584,-0.144c-0.139,0.054 -0.019,0.344 -0.146,0.424c-0.234,0.147 -0.538,0.128 -0.81,0.178c-0.269,0.049 -0.558,0.017 -0.812,0.119c-0.111,0.045 -0.108,0.231 -0.212,0.291c-0.231,0.134 -0.499,0.194 -0.755,0.269c-1.473,0.429 -1.497,0.268 -1.62,0.317c-0.107,0.042 -0.112,0.217 -0.213,0.273c-0.019,0.011 -6.39,2.069 -7.757,2.588c-1.576,0.598 -2.181,0.5 -2.389,0.583c-0.107,0.043 -0.099,0.225 -0.199,0.283c-0.495,0.288 -1.451,0.422 -1.581,0.44c-1.584,0.222 -1.536,0.352 -2.629,0.688c-0.268,0.082 -0.544,0.137 -0.82,0.179c-2.613,0.396 -3.965,1.153 -5.211,1.561c-0.894,0.293 -1.795,-0.026 -3.549,0.573c-1.691,0.577 -1.767,0.264 -3.448,0.864c-2.086,0.744 -2.227,0.123 -4.31,0.862c-2.494,0.885 -2.679,-0.015 -5.173,0.862c-2.27,0.798 -2.317,0.443 -5.066,0.543c-1.19,0.043 -1.581,0.542 -1.739,0.607c-1.079,0.44 -8.268,0.106 -8.565,0.293c-0.384,0.242 -0.537,0.761 -0.921,1.003l-40.533,-0c-0.383,-0.233 -0.537,-0.747 -0.92,-0.981c-0.085,-0.052 -7.58,-0.08 -7.734,-0.136c-0.056,-0.02 -0.434,-0.709 -2.57,-0.786c-0.208,-0.007 -0.206,0.028 -2.601,-0.036c-1.542,-0.041 -1.372,-0.491 -1.778,-0.66c-0.316,-0.132 -3.55,-0.167 -4.226,-0.434c-0.22,-0.087 -0.507,-0.518 -1.75,-0.594c-1.809,-0.111 -1.819,0.018 -2.561,-0.273c-0.21,-0.082 -0.527,-0.506 -1.755,-0.59c-2.001,-0.137 -2.014,-0.049 -2.56,-0.266c-0.331,-0.131 -0.587,-0.433 -0.931,-0.522c-0.55,-0.143 -1.134,-0.084 -1.696,-0.162c-0.948,-0.132 -0.831,-0.453 -1.761,-0.692c-0.548,-0.141 -1.129,-0.09 -1.689,-0.17c-1.227,-0.176 -1.091,-0.641 -2.59,-0.793c-0.135,-0.014 -1.41,-0.142 -1.68,-0.25c-0.335,-0.134 -0.607,-0.401 -0.945,-0.527c-0.791,-0.296 -0.848,-0.03 -1.637,-0.347c-0.27,-0.108 -0.503,-0.47 -1.777,-0.604c-1.04,-0.11 -1.057,0.006 -1.679,-0.244c-0.34,-0.137 -0.613,-0.414 -0.955,-0.544c-0.792,-0.301 -0.855,-0.006 -1.629,-0.324c-0.339,-0.139 -0.617,-0.404 -0.96,-0.533c-0.785,-0.295 -0.844,-0.011 -1.626,-0.333c-0.887,-0.365 -0.836,-0.477 -1.782,-0.668c-1.767,-0.356 -1.612,-0.675 -1.774,-0.739c-0.123,-0.049 -0.14,0.135 -1.621,-0.31c-0.249,-0.075 -0.508,-0.14 -0.73,-0.276c-0.115,-0.071 -0.127,-0.255 -0.244,-0.322c-0.23,-0.133 -0.513,-0.144 -0.754,-0.254c-0.884,-0.403 -0.844,-0.471 -1.777,-0.681c-1.806,-0.407 -1.652,-0.709 -1.788,-0.784c-0.23,-0.129 -0.509,-0.146 -0.749,-0.255c-0.87,-0.396 -0.828,-0.466 -1.776,-0.686c-1.71,-0.396 -1.582,-0.676 -1.787,-0.792c-0.695,-0.394 -0.783,-0.136 -1.493,-0.534c-0.101,-0.057 -0.12,-0.222 -0.228,-0.264c-0.122,-0.048 -0.142,0.111 -1.607,-0.332c-0.248,-0.075 -0.508,-0.135 -0.729,-0.271c-0.118,-0.072 -0.131,-0.26 -0.251,-0.33c-0.687,-0.402 -0.794,-0.118 -1.468,-0.535c-0.119,-0.074 -0.141,-0.257 -0.262,-0.327c-0.683,-0.394 -0.786,-0.12 -1.462,-0.536c-0.118,-0.073 -0.144,-0.252 -0.265,-0.321c-0.685,-0.393 -0.784,-0.131 -1.46,-0.542c-0.117,-0.071 -0.149,-0.245 -0.268,-0.312c-0.684,-0.389 -0.778,-0.141 -1.456,-0.55c-0.117,-0.071 -0.154,-0.239 -0.273,-0.306c-0.68,-0.384 -0.77,-0.147 -1.452,-0.556c-0.117,-0.07 -0.157,-0.236 -0.276,-0.303c-0.683,-0.385 -0.769,-0.15 -1.448,-0.559c-0.118,-0.071 -0.158,-0.237 -0.278,-0.305c-0.68,-0.384 -0.77,-0.146 -1.446,-0.557c-0.119,-0.072 -0.156,-0.243 -0.277,-0.311c-0.684,-0.389 -0.782,-0.142 -1.448,-0.551c-0.119,-0.073 -0.151,-0.25 -0.273,-0.319c-0.682,-0.391 -0.784,-0.129 -1.453,-0.543c-0.12,-0.074 -0.146,-0.256 -0.268,-0.326c-0.681,-0.393 -0.788,-0.119 -1.456,-0.536c-0.121,-0.075 -0.146,-0.26 -0.267,-0.334c-0.22,-0.134 -0.488,-0.168 -0.725,-0.269c-0.711,-0.302 -1.73,-1.332 -1.902,-1.42c-0.452,-0.232 -0.965,-0.33 -1.415,-0.565c-0.126,-0.066 -0.157,-0.25 -0.28,-0.32c-0.677,-0.388 -0.777,-0.121 -1.447,-0.541c-0.122,-0.077 -0.148,-0.262 -0.271,-0.337c-0.219,-0.133 -0.484,-0.169 -0.72,-0.268c-0.751,-0.314 -0.619,-0.479 -0.943,-0.749c-0.187,-0.155 -0.446,-0.202 -0.641,-0.346c-0.123,-0.091 -0.17,-0.267 -0.3,-0.348c-0.631,-0.394 -0.742,-0.141 -1.327,-0.587c-0.142,-0.108 -0.196,-0.306 -0.334,-0.42c-0.185,-0.153 -0.427,-0.225 -0.62,-0.368c-1.076,-0.797 -1.173,-0.591 -1.741,-0.89c-0.129,-0.068 -0.153,-0.261 -0.277,-0.336c-0.217,-0.133 -0.48,-0.171 -0.715,-0.269c-0.723,-0.302 -0.589,-0.46 -0.941,-0.753c-0.187,-0.155 -0.45,-0.194 -0.645,-0.339c-0.125,-0.093 -0.163,-0.279 -0.294,-0.362c-0.624,-0.395 -0.76,-0.105 -1.329,-0.561c-0.146,-0.117 -0.175,-0.344 -0.319,-0.464c-0.187,-0.155 -0.451,-0.193 -0.646,-0.338c-0.125,-0.093 -0.162,-0.28 -0.294,-0.363c-0.213,-0.135 -0.474,-0.173 -0.706,-0.271c-0.69,-0.29 -0.579,-0.431 -0.933,-0.772c-0.157,-0.152 -0.39,-0.206 -0.552,-0.353c-0.366,-0.332 -0.479,-0.814 -1.963,-1.465c-0.21,-0.092 -0.443,-0.148 -0.623,-0.29c-0.147,-0.115 -0.181,-0.336 -0.324,-0.455c-0.186,-0.154 -0.446,-0.198 -0.64,-0.344c-0.126,-0.094 -0.169,-0.277 -0.302,-0.362c-0.211,-0.134 -0.469,-0.176 -0.699,-0.273c-0.662,-0.279 -0.55,-0.414 -0.929,-0.779c-0.153,-0.148 -0.392,-0.184 -0.547,-0.332c-0.147,-0.14 -0.191,-0.364 -0.334,-0.508c-0.153,-0.154 -0.377,-0.22 -0.537,-0.367c-0.409,-0.376 -0.581,-0.867 -1.962,-1.468c-0.207,-0.09 -0.441,-0.138 -0.616,-0.281c-0.151,-0.123 -0.182,-0.352 -0.322,-0.487c-0.156,-0.15 -0.389,-0.201 -0.548,-0.348c-0.309,-0.285 -0.51,-0.852 -1.964,-1.471c-0.207,-0.088 -0.444,-0.131 -0.616,-0.276c-0.151,-0.128 -0.169,-0.369 -0.312,-0.506c-0.153,-0.146 -0.398,-0.171 -0.549,-0.319c-0.149,-0.145 -0.176,-0.386 -0.323,-0.533c-0.149,-0.15 -0.387,-0.187 -0.538,-0.334c-0.147,-0.142 -0.191,-0.368 -0.335,-0.514c-0.149,-0.151 -0.374,-0.21 -0.528,-0.357c-0.144,-0.137 -0.212,-0.342 -0.353,-0.482c-0.213,-0.212 -0.213,-0.194 -1.468,-1.21c-0.132,-0.107 -0.199,-0.289 -0.346,-0.372c-0.405,-0.229 -0.895,-0.291 -1.283,-0.548c-0.165,-0.109 -0.169,-0.369 -0.312,-0.506c-0.153,-0.146 -0.399,-0.168 -0.55,-0.316c-0.149,-0.147 -0.172,-0.391 -0.32,-0.539c-0.148,-0.149 -0.392,-0.177 -0.541,-0.325c-0.148,-0.146 -0.179,-0.385 -0.325,-0.533c-0.148,-0.149 -0.386,-0.185 -0.535,-0.333c-0.147,-0.145 -0.187,-0.376 -0.333,-0.523c-0.148,-0.149 -0.378,-0.196 -0.527,-0.343c-0.146,-0.144 -0.198,-0.366 -0.343,-0.511c-0.148,-0.148 -0.369,-0.208 -0.519,-0.354c-0.146,-0.142 -0.21,-0.354 -0.353,-0.498c-0.31,-0.311 -0.38,-0.23 -3.958,-3.808c-0.483,-0.483 -5.431,-5.429 -6.026,-6.039c-0.454,-0.465 -0.256,-0.6 -0.709,-1.065c-0.14,-0.143 -0.375,-0.167 -0.511,-0.314c-0.149,-0.16 -0.163,-0.42 -0.316,-0.576c-0.445,-0.454 -0.617,-0.182 -1.058,-0.629c-0.147,-0.15 -0.186,-0.385 -0.335,-0.533c-0.148,-0.146 -0.385,-0.179 -0.531,-0.327c-0.148,-0.149 -0.178,-0.391 -0.327,-0.54c-0.088,-0.088 -0.502,-0.114 -0.856,-0.87c-0.098,-0.208 -0.094,-0.469 -0.242,-0.646c-0.13,-0.155 -0.405,-0.131 -0.537,-0.285c-0.063,-0.073 0.058,-0.139 -0.648,-1.012c-0.976,-1.206 -0.959,-1.209 -1.21,-1.465c-0.068,-0.069 -0.443,-0.231 -0.836,-0.887c-0.117,-0.195 -0.155,-0.442 -0.313,-0.605c-0.139,-0.143 -0.402,-0.119 -0.535,-0.268c-0.151,-0.167 -0.108,-0.46 -0.265,-0.621c-0.149,-0.152 -0.443,-0.093 -0.588,-0.249c-0.157,-0.169 -0.097,-0.47 -0.245,-0.647c-0.129,-0.154 -0.404,-0.129 -0.533,-0.283c-0.156,-0.185 -0.144,-0.469 -0.273,-0.674c-0.088,-0.14 -0.264,-0.205 -0.365,-0.335c-1.474,-1.907 -1.343,-1.981 -1.476,-2.141c-0.119,-0.144 -0.359,-0.151 -0.475,-0.297c-0.06,-0.075 0.047,-0.128 -0.646,-1.011c-1.095,-1.394 -1.11,-1.361 -1.188,-1.491c-0.12,-0.2 -0.161,-0.452 -0.321,-0.62c-0.133,-0.14 -0.391,-0.115 -0.517,-0.261c-0.152,-0.176 -0.118,-0.466 -0.267,-0.645c-0.124,-0.149 -0.385,-0.135 -0.507,-0.286c-0.154,-0.191 -0.143,-0.475 -0.274,-0.683c-0.265,-0.422 -0.384,-0.327 -0.708,-0.956c-0.11,-0.213 -0.162,-0.46 -0.31,-0.648c-0.109,-0.138 -0.33,-0.157 -0.436,-0.297c-0.147,-0.194 -0.163,-0.462 -0.293,-0.667c-0.088,-0.138 -0.25,-0.214 -0.35,-0.343c-0.143,-0.186 -0.22,-0.419 -0.372,-0.598c-0.036,-0.043 -0.449,-0.269 -0.8,-0.913c-0.114,-0.21 -0.145,-0.467 -0.297,-0.652c-0.116,-0.141 -0.358,-0.137 -0.47,-0.281c-0.151,-0.195 -0.146,-0.478 -0.278,-0.687c-0.246,-0.392 -0.372,-0.299 -0.699,-0.958c-0.107,-0.215 -0.148,-0.468 -0.298,-0.656c-0.111,-0.139 -0.344,-0.143 -0.451,-0.285c-0.149,-0.198 -0.149,-0.478 -0.281,-0.688c-0.241,-0.384 -0.359,-0.281 -0.695,-0.958c-0.107,-0.215 -0.149,-0.469 -0.298,-0.657c-0.11,-0.139 -0.344,-0.142 -0.449,-0.284c-0.149,-0.2 -0.151,-0.481 -0.28,-0.695c-0.076,-0.126 -0.254,-0.172 -0.324,-0.301c-0.221,-0.407 -0.024,-0.509 -0.911,-1.727c-0.14,-0.192 -0.225,-0.422 -0.373,-0.608c-0.299,-0.374 -0.391,-0.291 -0.71,-0.972c-0.409,-0.873 -0.532,-0.781 -0.977,-1.647c-0.111,-0.215 -0.161,-0.465 -0.31,-0.655c-0.106,-0.136 -0.327,-0.152 -0.428,-0.293c-0.146,-0.204 -0.153,-0.484 -0.283,-0.699c-0.075,-0.124 -0.251,-0.168 -0.318,-0.297c-0.236,-0.455 -0.345,-0.968 -0.576,-1.425c-0.062,-0.124 -0.226,-0.174 -0.291,-0.296c-0.254,-0.478 -0.082,-0.552 -0.907,-1.727c-0.138,-0.197 -0.219,-0.433 -0.369,-0.621c-0.28,-0.352 -0.392,-0.261 -0.71,-0.968c-0.105,-0.232 -0.161,-0.488 -0.291,-0.708c-0.072,-0.12 -0.24,-0.166 -0.303,-0.29c-0.233,-0.459 -0.341,-0.974 -0.572,-1.434c-0.061,-0.122 -0.23,-0.167 -0.292,-0.289c-0.233,-0.459 -0.349,-0.971 -0.58,-1.431c-0.061,-0.122 -0.224,-0.171 -0.286,-0.293c-0.233,-0.458 -0.358,-0.967 -0.589,-1.426c-0.061,-0.121 -0.216,-0.176 -0.278,-0.297c-0.876,-1.727 -0.775,-1.76 -1.728,-3.446c-0.387,-0.685 -0.219,-0.747 -0.593,-1.431c-0.282,-0.516 -0.346,-0.465 -0.567,-1.006c-0.098,-0.24 -0.161,-0.497 -0.286,-0.724c-0.064,-0.116 -0.213,-0.172 -0.272,-0.291c-0.228,-0.464 -0.348,-0.977 -0.578,-1.44c-0.06,-0.12 -0.222,-0.168 -0.281,-0.288c-0.229,-0.464 -0.341,-0.979 -0.572,-1.441c-0.06,-0.121 -0.228,-0.164 -0.288,-0.285c-0.753,-1.525 -1.253,-2.975 -1.345,-3.24c-0.15,-0.435 -0.277,-0.375 -2.144,-5.332c-0.187,-0.497 -0.343,-1.006 -0.568,-1.487c-0.054,-0.115 -0.198,-0.168 -0.257,-0.281c-0.028,-0.053 -1.291,-3.7 -1.45,-4.042c-0.054,-0.116 -0.21,-0.159 -0.269,-0.272c-0.065,-0.124 -0.756,-2.398 -1.744,-5.138c-1.436,-3.983 -2.156,-6.967 -2.304,-7.583c-0.738,-3.062 -1.023,-2.966 -1.737,-6.037c-0.404,-1.738 -0.515,-1.69 -0.898,-3.448c-0.07,-0.321 -1.306,-4.714 -1.673,-6.917c-0.442,-2.652 -0.632,-2.604 -1.043,-5.272c-0.396,-2.578 -1.147,-4.209 -1.635,-9.404c-0.254,-2.704 -0.669,-2.665 -0.946,-6.939c-0.145,-2.238 -0.944,-6.169 -0.865,-8.616c0.071,-2.188 0.1,-2.18 -0.341,-4.329c-0.561,-2.735 -0.478,-24.35 0.001,-26.7c0.615,-3.02 0.132,-3.051 0.472,-6.095c0.283,-2.538 0.116,-2.539 0.595,-5.067c0.09,-0.477 0.409,-4.943 0.655,-6.087c0.739,-3.443 1.594,-11.014 2.853,-15.441c0.71,0.614 0.556,0.8 2.222,1.68c0.22,0.116 0.177,0.175 2.608,1.684c1.02,0.633 0.858,0.833 1.891,1.442c0.176,0.104 1.341,0.524 3.94,2.323c1.641,1.135 2.59,1.027 2.032,4c-1.635,8.706 -2.319,18.243 -2.433,19.838c-0.161,2.252 -0.799,6.607 -0.566,22.412c0.179,12.176 2.935,28.909 4.673,36.204c2.668,11.2 7.744,35.795 27.88,67.929c8.738,13.945 17.915,24.016 19.669,25.942c6.839,7.506 11.934,12.803 22.452,21.478c1.818,1.5 5.688,5.038 14.286,10.86c1.492,1.01 1.476,1.013 2.967,2.008c42.726,28.532 81.348,31.998 92.134,33.504c0.237,0.033 10.198,0.898 14.623,1.049c62.495,2.127 106.815,-25.751 110.579,-27.871c0.886,-0.499 6.523,-3.673 10.829,-6.665c4.818,-3.347 4.832,-3.299 9.546,-6.796c5.189,-3.849 5.046,-4.01 10.13,-7.992c0.343,-0.269 6.603,-6.042 7.175,-6.569c5.752,-5.305 5.66,-5.375 14.824,-15.364c1.678,-1.83 1.529,-1.939 4.315,-5.177c1.723,-2.003 9.567,-12.368 13.337,-18.427c9.103,-14.631 20.028,-34.274 26.97,-63.614c1,-4.229 1.136,-4.185 1.684,-7.761c0.334,-2.178 0.547,-2.123 0.808,-4.313c0.311,-2.611 0.611,-2.553 0.844,-5.17c0.271,-3.042 0.642,-2.987 0.814,-6.033c0.246,-4.343 0.706,-4.287 0.813,-8.618c0.259,-10.472 1.218,-10.455 0.452,-23.277c-0.257,-4.302 -0.277,-4.283 -0.424,-8.604c-0.047,-1.386 -1.071,-10.364 -1.239,-11.262c-0.209,-1.116 -2.585,-22.169 -11.311,-44.836c-0.676,-1.755 -6.624,-17.208 -9.81,-21.363c-3.599,-4.695 -2.961,-5.097 -6.039,-9.497c-1.44,-2.058 -3.531,-8.711 -9.394,-16.431c-0.586,-0.772 -0.727,-1.167 -2.546,-3.474c-0.588,-0.746 -3.02,-4.22 -6.095,-7.7c-2.02,-2.287 -1.874,-2.4 -3.967,-4.617c-3.343,-3.54 -6.986,-8.258 -13.43,-14.159c-2.93,-2.683 -2.979,-2.612 -5.891,-5.327c-1.446,-1.349 -6.786,-5.792 -8.499,-7.026c-2.033,-1.463 -1.923,-1.591 -3.985,-3.016c-0.643,-0.444 -1.022,-1.039 -2.892,-2.183c-0.8,-0.489 -0.646,-0.695 -9.674,-6.608c-7.516,-4.923 -26.79,-15.793 -47.129,-22.197c-10.703,-3.37 -10.763,-3.081 -21.631,-5.793c-0.341,-0.085 -0.374,0.091 -4.319,-0.833c-0.409,-0.096 -0.426,0.037 -5.166,-0.907c-2.323,-0.463 -2.363,-0.138 -5.206,-0.71c-2.721,-0.548 -2.761,-0.097 -6.912,-0.751c-7.045,-1.11 -9.624,0.347 -10.807,-2.108c-1.282,-2.659 -0.946,-2.783 -3.558,-9.401c-0.649,-1.644 -0.716,-2.244 -0.815,-2.566c-0.229,-0.741 -0.282,-0.721 -0.292,-0.787c-0.097,-0.64 0.077,-0.639 -0.021,-1.285Z" style="fill:#fff;fill-opacity:0.99;"/><path d="M293.252,137.491c-0.328,-1.32 -0.312,-1.304 -0.74,-2.586c-1.043,-3.125 -2.156,-7.558 -2.262,-7.876c-2.619,-7.87 -2.417,-7.92 -2.664,-8.596c-1.747,-4.799 -3.172,-10.583 -3.723,-11.96c-1.174,-2.933 -0.788,-3.039 -1.784,-6.045c-1.542,-4.654 -1.575,-4.778 -1.689,-5.2c-0.844,-3.142 -1.307,-2.993 -1.944,-6.173c-0.08,-0.399 -2.685,-9.464 -3.016,-10.258c-1.219,-2.93 -0.884,-3.027 -1.586,-5.229c-0.895,-2.808 -1.763,-4.406 -0.47,-5.569c0.882,-0.792 2.215,-0.738 3.846,-0.611c2.159,0.168 2.147,-0.012 4.3,0.049c5.136,0.144 6.172,0.711 7.768,0.91c6.64,0.829 19.686,4.393 20.604,4.661c34.739,10.142 55.823,26.623 61.073,30.266c0.358,0.249 7.462,5.751 9.988,7.971c14.358,12.622 15.335,14.848 19.514,19.332c4.916,5.275 13.569,16.98 17.389,23.178c9.844,15.97 16.38,29.387 22.256,49.236c7.713,26.053 8.018,50.431 6.906,52.559c-0.081,0.156 -0.674,1.291 -1.651,1.448c-0.444,0.071 -0.739,0.119 -5.004,-2.559c-1.855,-1.165 -14.654,-8.9 -15.93,-9.672c-29.466,-17.78 -58.933,-35.56 -88.399,-53.339c-0.424,-0.256 -5.116,-3.087 -5.285,-3.219c-1.252,-0.973 -13.726,-7.989 -15.007,-9.055c-1.758,-1.464 -1.837,-1.334 -3.888,-2.369c-1.658,-0.836 -3.259,-2.037 -3.629,-2.236c-1.377,-0.74 -1.237,-0.935 -2.576,-1.749c-1.011,-0.615 -1.577,-0.463 -3.538,-6.022c-0.112,-0.318 -2.765,-9.219 -2.814,-9.469c-0.621,-3.197 -0.942,-3.094 -1.966,-6.179c-2.511,-7.569 -2.317,-7.62 -2.504,-8.602c-0.079,-0.415 -0.083,-0.435 -1.577,-5.037Z" style="fill:#fff;"/><path d="M284.612,206.469c0.234,0.817 0.186,0.815 0.465,1.622c0.764,2.212 0.63,2.248 1.552,4.386c1.276,2.959 0.787,3.293 3.586,11.153c0.835,2.346 1.152,3.933 1.221,4.282c0.133,0.669 2.76,8.685 3.423,10.235c0.752,1.759 0.697,1.765 0.97,3.659c0.127,0.883 1.183,4.213 1.574,4.943c0.925,1.724 0.704,1.8 1.316,3.663c0.984,2.993 0.868,3.011 1.859,5.984c1.297,3.888 1.243,3.885 2.584,7.762c1.431,4.139 1.107,4.24 2.276,7.033c0.84,2.006 0.496,2.103 1.219,4.158c0.909,2.582 0.771,2.607 1.693,5.189c1.836,5.141 1.557,5.22 3.388,10.375c0.462,1.301 0.2,1.35 0.616,2.666c0.479,1.516 1.021,2.085 2.51,7.766c0.1,0.383 0.824,2.508 1.908,5.151c0.289,0.706 1.578,5.169 1.588,5.201c0.281,0.91 0.376,0.867 0.658,2.459c0.461,2.611 3.339,9.343 4.477,13.917c0.106,0.425 0.261,0.371 1.724,5.194c0.146,0.481 0.19,0.462 1.937,5.98c1.981,6.257 2.218,7.171 2.381,7.803c0.547,2.114 1.822,3.907 1.254,5.187c-0.59,1.328 -2.451,-0.059 -2.62,-0.184c-0.232,-0.173 -0.238,-0.159 -2.964,-2.081c-0.327,-0.231 -0.435,-0.026 -4.288,-2.589c-0.385,-0.256 -1.187,-0.538 -2.243,-1.352c-1.57,-1.211 -2.387,-1.286 -4.285,-2.64c-1.445,-1.031 -4.654,-2.376 -6.048,-3.425c-1.253,-0.944 -1.381,-0.723 -2.606,-1.691c-0.345,-0.273 -0.454,-0.359 -4.631,-2.971c-0.429,-0.269 -1.223,-0.536 -2.265,-1.348c-1.299,-1.013 -5.667,-3.345 -6.903,-4.308c-2.125,-1.656 -2.424,-1.173 -4.307,-2.598c-2.201,-1.665 -2.536,-1.238 -4.312,-2.586c-2.197,-1.667 -2.495,-1.181 -4.315,-2.581c-2.846,-2.189 -5.365,-3.149 -7.586,-4.602c-3.311,-2.165 -3.329,-2.131 -3.607,-2.333c-1.263,-0.92 -1.413,-0.672 -2.622,-1.662c-1.961,-1.607 -2.266,-1.117 -4.288,-2.629c-0.335,-0.251 -6.089,-3.705 -6.895,-4.316c-2.384,-1.806 -4.169,-1.797 -6.919,-4.275c-2.074,-1.869 -2.631,-0.998 -6.413,-3.83c-0.879,-0.658 -5.905,-3.456 -6.516,-3.944c-2.236,-1.785 -5.756,-3.526 -6.875,-4.358c-1.114,-0.828 -6.259,-3.811 -6.906,-4.3c-2.661,-2.015 -4.197,-1.782 -9.009,-5.546c-1.176,-0.92 -6.065,-3.602 -6.517,-3.94c-2.024,-1.511 -2.352,-0.972 -4.327,-2.555c-1.788,-1.433 -5.507,-3.27 -6.894,-4.326c-1.664,-1.266 -2.709,-1.396 -4.3,-2.607c-2.189,-1.666 -3.03,-1.299 -5.188,-3.406c-2.364,-2.309 -0.357,-2.578 0.734,-3.434c0.709,-0.556 0.58,-0.678 1.287,-1.246c0.384,-0.308 0.428,-0.231 4.995,-3.59c1.196,-0.879 2.908,-2.658 4.228,-3.562c1.292,-0.885 1.307,-0.852 2.443,-1.928c1.375,-1.302 1.71,-0.859 3.442,-2.592c2.395,-2.396 2.741,-1.971 5.184,-4.305c1.563,-1.494 1.868,-1.1 3.437,-2.6c1.78,-1.703 2.033,-1.367 3.851,-3.014c0.762,-0.691 2.341,-1.426 3.91,-3.02c1.941,-1.972 2.293,-1.535 4.28,-3.486c1.241,-1.218 1.633,-0.703 3.49,-2.545c0.437,-0.434 0.421,-0.429 0.868,-0.858c1.513,-1.452 1.816,-1.063 3.433,-2.605c1.576,-1.503 1.899,-1.074 3.448,-2.587c0.446,-0.436 0.418,-0.436 0.868,-0.86c1.268,-1.195 1.998,-1.203 3.453,-2.582c1.154,-1.093 1.186,-1.026 2.493,-1.905c0.593,-0.399 2.183,-1.954 3.714,-3.036c1.029,-0.727 1.013,-0.722 1.927,-1.567c0.61,-0.564 1.918,-0.957 3.94,-2.976c1.743,-1.741 2.077,-1.325 3.825,-3.079c1.749,-1.754 2.139,-1.244 3.936,-2.961c0.141,-0.135 0.118,-0.152 1.724,-1.725c1.12,-1.096 1.335,-0.772 2.57,-1.751c1.703,-1.349 1.94,-1.025 3.471,-2.556c0.87,-0.869 0.814,-0.904 1.71,-1.745c1.148,-1.076 1.379,-0.734 2.59,-1.724c1.218,-0.995 1.089,-1.124 2.397,-2.029c3.733,-2.584 5.592,-4.161 6.944,-2.889c0.358,0.336 0.129,0.455 2.025,5.794c0.291,0.819 0.37,1.675 1.41,4.44c1.366,3.632 1.621,4.963 2.44,7.736Z" style="fill:#fff;"/><path d="M66.402,255.569c0.01,-9.459 -0.012,-12.629 0.482,-15.506c0.816,-4.753 0.743,-4.767 0.88,-5.163c0.207,-0.599 0.513,-1.161 0.727,-1.757c0.255,-0.713 0.235,-3.037 1.474,-4.566c0.972,-1.2 2.381,-0.037 3.789,1.023c1.254,0.944 1.377,0.736 2.636,1.653c1.821,1.328 4.532,2.367 5.985,3.528c1.121,0.895 2.01,1.14 4.306,2.577c4.538,2.84 5.538,3.228 6.917,4.311c1.053,0.827 1.118,0.681 2.368,1.248c0.132,0.06 0.943,0.427 1.555,0.932c1.243,1.025 1.251,0.985 2.65,1.773c4.424,2.49 15.687,9.532 16.597,10c1.621,0.833 2.961,1.853 3.203,2.036c2.314,1.759 6.813,3.531 10.701,6.437c1.601,1.197 1.867,0.763 4.298,2.603c1.113,0.842 2.31,1.183 2.523,1.807c0.553,1.624 -1.28,2.332 -3.535,4.202c-1.305,1.082 -9.674,7.743 -10.517,8.414c-5.821,4.633 -5.875,4.559 -6.379,4.964c-7.445,5.977 -7.469,5.933 -8.112,6.457c-6.875,5.601 -11.754,9.255 -12.978,10.308c-1.427,1.228 -7.318,5.704 -7.733,6.076c-0.441,0.396 -1.218,1.095 -5.775,4.641c-1.01,0.786 -1.422,0.966 -1.557,1.064c-0.992,0.717 -2.961,4.085 -5.397,-0.47c-1.586,-2.967 -4.229,-13.973 -4.705,-16.28c-1.983,-9.612 -1.819,-9.64 -1.995,-10.475c-0.629,-2.982 -0.41,-3.005 -0.909,-6.018c-0.64,-3.866 -0.335,-3.885 -0.86,-7.753c-0.195,-1.433 -0.894,-6.577 -0.639,-18.066Z" style="fill:#fff;"/></g></svg>