<?xml version="1.0" encoding="UTF-8" standalone="no"?><!DOCTYPE svg PUBLIC "-//W3C//DTD SVG 1.1//EN" "http://www.w3.org/Graphics/SVG/1.1/DTD/svg11.dtd"><svg width="100%" height="100%" viewBox="0 0 128 128" version="1.1" xmlns="http://www.w3.org/2000/svg" xmlns:xlink="http://www.w3.org/1999/xlink" xml:space="preserve" xmlns:serif="http://www.serif.com/" style="fill-rule:evenodd;clip-rule:evenodd;stroke-linejoin:round;stroke-miterlimit:2;"><g id="network"></g><g id="text92"><g id="NFS"><path d="M17.839,57.221l9.617,0l12.55,18.441l0,-18.441l9.708,0l0,33.331l-9.708,0l-12.482,-18.299l0,18.299l-9.686,0l0,-33.331Z" style="fill:#fff;fill-rule:nonzero;"/><path d="M56.605,57.221l25.465,0l0,7.162l-15.12,0l0,5.82l12.914,0l0,6.73l-12.914,0l0,13.619l-10.345,0l0,-33.331Z" style="fill:#fff;fill-rule:nonzero;"/></g><path d="M114.969,66.589l-9.708,0.568c-0.258,-1.501 -0.8,-2.592 -1.626,-3.274c-0.826,-0.682 -1.967,-1.023 -3.422,-1.023c-1.197,0 -2.099,0.254 -2.706,0.762c-0.606,0.508 -0.909,1.125 -0.909,1.853c0,0.531 0.25,1.008 0.75,1.432c0.485,0.44 1.637,0.849 3.456,1.228c4.502,0.97 7.727,1.952 9.674,2.944l0.21,0.109c0.34,0.18 0.663,0.368 0.97,0.563c1.351,0.86 2.375,1.868 3.072,3.023c0.887,1.47 1.33,3.115 1.33,4.934c0,2.137 -0.591,4.108 -1.773,5.911c-0.708,1.08 -1.584,2.003 -2.628,2.771c-0.309,0.227 -0.632,0.44 -0.97,0.639c-0.429,0.253 -0.882,0.485 -1.358,0.694c-2.122,0.932 -4.797,1.398 -8.026,1.398c-5.669,0 -9.595,-1.091 -11.777,-3.274c-2.183,-2.183 -3.418,-4.957 -3.706,-8.321l9.799,-0.614c0.212,1.592 0.643,2.805 1.296,3.638c1.059,1.351 2.577,2.024 4.547,2.024c1.47,0 2.603,-0.345 3.399,-1.034c0.796,-0.69 1.194,-1.489 1.194,-2.399c0,-0.864 -0.376,-1.641 -1.137,-2.319l-0.044,-0.039c-0.781,-0.668 -2.524,-1.299 -5.231,-1.894c-3.111,-0.699 -5.608,-1.557 -7.489,-2.573c-0.85,-0.46 -1.574,-0.952 -2.174,-1.474c-1.937,-1.686 -2.91,-3.827 -2.91,-6.434c0,-1.713 0.496,-3.331 1.489,-4.854c0.993,-1.523 2.486,-2.721 4.479,-3.592c1.993,-0.872 4.725,-1.307 8.196,-1.307c4.079,0 7.229,0.726 9.452,2.179c0.098,0.064 0.195,0.13 0.29,0.197c0.237,0.168 0.463,0.346 0.68,0.535c1.827,1.593 2.931,3.935 3.31,7.025Z" style="fill:#fff;"/><path d="M40,102.92l0,7.279c0,0 0.039,0.393 -0.221,0.801l7.221,0c0.55,0 1,0.45 1,1l0,2l42,0l0,5l-42,0l0,2c0,0.55 -0.45,1 -1,1l-19,0c-0.55,0 -1,-0.45 -1,-1l0,-2l-17,0l0,-5l17,0l0,-2c0,-0.55 0.45,-1 1,-1l7.189,0c-0.243,-0.408 -0.189,-0.801 -0.189,-0.801l0,-7.199l-22.054,-0c-3.83,0 -6.946,-3.109 -6.946,-6.931l0,-73.038c0,-3.822 3.116,-6.931 6.946,-6.931l36.701,-0c3.874,0 7.132,2.526 9.246,4.425l1.035,0.928c2.471,2.221 6.008,3.713 8.801,3.713l37.325,0c3.83,0 6.945,3.109 6.945,6.931l-0,6.002l2.054,0.001c3.831,0 6.947,3.098 6.947,6.905l0,50.891c0,3.746 -3.024,6.866 -6.947,7.104l-75.053,-0.08Zm75.053,-63.82l-39.711,-0c-3.271,0 -6.151,1.779 -8.58,3.952l-1.033,0.924c-2.43,2.172 -6.202,4.251 -9.474,4.251l-37.308,0c-3.271,0 -5.947,2.657 -5.947,5.905l0,41.764c0,1.982 -0.51,3.63 -1.433,4.414c-0.348,0.249 -0.827,0.459 -1.332,0.492c-0.371,0.025 -0.757,-0.046 -1.114,-0.267c-0.042,-0.026 -0.084,-0.054 -0.125,-0.084l0.086,0.066c0.393,0.301 1.243,0.901 2.175,1.238c0.409,0.148 0.834,0.246 1.244,0.246l0.446,-0l22.054,-0l71.055,0l3.589,-0l2.356,-0l3.053,-0c3.271,-0.2 5.947,-2.857 5.947,-6.104l0,-50.891c0,-3.248 -2.676,-5.905 -5.947,-5.905Zm-67.053,-15.1l0,-2c0,-1.1 -0.9,-2 -2,-2l-31,0c-1.1,0 -2,0.9 -2,2l0,2c0,1.1 0.9,2 2,2l31,0c1.1,0 2,-0.9 2,-2Z" style="fill:#fff;"/></g></svg>