<?xml version="1.0" encoding="UTF-8" standalone="no"?><!DOCTYPE svg PUBLIC "-//W3C//DTD SVG 1.1//EN" "http://www.w3.org/Graphics/SVG/1.1/DTD/svg11.dtd"><svg width="100%" height="100%" viewBox="0 0 683 683" version="1.1" xmlns="http://www.w3.org/2000/svg" xmlns:xlink="http://www.w3.org/1999/xlink" xml:space="preserve" xmlns:serif="http://www.serif.com/" style="fill-rule:evenodd;clip-rule:evenodd;stroke-linejoin:round;stroke-miterlimit:2;"><path d="M523.471,248.685c-0.036,-10.91 -0.056,-17.96 -0.823,-23.437c-1.267,-9.05 -0.462,-9.145 -1.708,-15.146c-1.281,-6.169 -0.603,-6.272 -1.398,-9.311c-0.76,-2.905 -0.706,-2.9 -1.206,-5.864c-0.304,-1.805 -1.17,-3.64 -1.562,-5.988c-0.589,-3.524 -1.014,-3.398 -1.735,-6.9c-0.633,-3.071 -0.894,-2.983 -1.734,-6.004c-4.179,-15.031 -4.886,-14.785 -6.857,-21.1c-0.71,-2.275 0.707,-4.748 3.085,-5.439c3.393,-0.986 9.43,7.967 16.507,15.937c6.698,7.544 17.908,24.972 17.98,25.094c16.166,27.223 20.756,43.325 21.114,44.292c6.822,18.402 8.298,29.003 9.474,33.841c0.305,1.256 2.185,12.648 2.427,15.18c1.34,13.984 1.6,13.957 1.744,21.014c0.614,30.104 -1.283,36.39 -1.467,38.63c-0.537,6.534 -0.817,6.473 -1.783,12.961c-1.726,11.587 -3.581,17.513 -5.189,23.329c-1.816,6.569 -2.026,6.502 -2.181,7.074c-2.548,9.356 -9.612,26.371 -10.989,29.065c-11.966,23.408 -12.136,23.328 -23.894,40.221c-2.16,3.103 -2.343,2.936 -4.585,5.96c-4.623,6.236 -5,5.913 -6.951,8.293c-2.833,3.455 -2.653,3.586 -9.313,10.672c-8.969,9.543 -17.264,16.016 -19.418,18.005c-6.215,5.74 -23.36,17.474 -24.796,18.324c-0.899,0.532 -9.221,5.46 -11.278,6.581c-14.646,7.979 -15.462,7.957 -22.544,11.078c-7.519,3.314 -13.52,5.211 -15.176,5.861c-6.847,2.687 -7.682,2.513 -11.596,3.817c-4.545,1.514 -16.106,4.16 -17.606,4.389c-4.665,0.711 -4.555,1.257 -9.264,1.719c-5.949,0.584 -5.828,1.328 -11.77,1.718c-8.208,0.538 -8.134,1.229 -16.353,1.483c-21.171,0.654 -28.055,-0.175 -30.476,-0.466c-10.322,-1.243 -10.619,-0.993 -11.602,-1.086c-3.324,-0.313 -5.448,-1.175 -8.28,-1.436c-5.878,-0.542 -5.79,-0.959 -11.592,-1.929c-2.965,-0.495 -4.842,-1.179 -6.037,-1.427c-2.955,-0.614 -2.911,-0.69 -5.811,-1.45c-6.472,-1.697 -6.471,-1.651 -12.814,-3.756c-11.265,-3.738 -16.456,-6.142 -21.158,-8.001c-10.527,-4.162 -31.506,-16.273 -36.385,-19.815c-1.179,-0.856 -10.233,-7.21 -12.942,-9.324c-7.148,-5.578 -9.558,-7.72 -10.357,-8.429c-10.047,-8.928 -10.156,-9.487 -10.384,-10.655c-0.769,-3.933 2.699,-5.519 5.74,-4.5c0.559,0.187 3.805,1.275 6.923,2.528c3.382,1.358 13.188,4.189 17.65,5.692c2.119,0.714 3.006,0.577 4.692,1.149c3.53,1.197 3.619,0.76 7.214,1.692c3.563,0.924 3.575,0.762 6.943,1.334c2.176,0.37 2.697,0.955 5.815,1.26c8.824,0.865 8.719,1.597 17.576,2.078c9.141,0.497 11.366,1.313 24.531,1.292c14.343,-0.023 32.892,-2.186 33.883,-2.374c5.892,-1.117 6.001,-0.373 11.772,-1.909c3.988,-1.062 4.091,-0.509 8.073,-1.613c3.576,-0.991 3.695,-0.452 7.216,-1.668c2.82,-0.974 2.95,-0.467 5.74,-1.525c0.417,-0.158 10.137,-2.953 16.594,-5.332c13.213,-4.869 15.647,-5.441 30.355,-13.091c13.023,-6.773 13.088,-6.649 25.319,-14.737c11.824,-7.819 11.694,-7.986 22.697,-16.912c7.098,-5.758 6.94,-5.905 13.588,-12.192c14.369,-13.589 29.235,-33.079 34.865,-42.174c6.316,-10.205 6.344,-10.177 6.872,-11.077c8.748,-14.918 12.891,-25.36 14.827,-29.499c3.341,-7.141 8.62,-23.479 9.183,-25.808c0.701,-2.895 0.901,-2.812 1.687,-5.708c2.677,-9.856 2.41,-9.92 2.649,-10.775c1.45,-5.196 1.069,-5.272 2.454,-10.471c0.505,-1.894 0.233,-3.495 1.144,-8.199c1.364,-7.039 0.753,-7.102 1.566,-13.97c0.693,-5.851 0.968,-5.829 1.115,-21.069Z" style="fill:#fff;"/><path d="M125.926,234.675c0.604,-5.354 1.129,-5.255 1.804,-10.6c0.484,-3.828 2.433,-9.141 3.74,-13.999c0.483,-1.795 0.68,-1.71 1.227,-3.494c2.11,-6.88 7.406,-18.724 10.318,-23.504c3.924,-6.443 10.033,-17.174 19.608,-27.203c7.545,-7.902 8.211,-9.015 12.095,-9.241c0.594,-0.034 40.506,-0.029 43.32,0.008c7.728,0.102 12.324,-1.04 13.67,3.8c0.375,1.348 0.159,1.375 0.158,17.485c-0.003,36.15 0.053,36.186 -0.425,37.636c-0.298,0.903 -0.611,1.853 -7.5,9.228c-5.814,6.224 -15.1,20.595 -16.146,22.362c-3.597,6.077 -3.336,6.194 -6.429,12.562c-4.428,9.113 -6.627,15.869 -6.875,16.478c-0.913,2.244 -0.73,2.288 -1.395,4.631c-0.509,1.791 -0.698,1.714 -1.155,3.525c-0.144,0.572 -1.715,6.807 -1.773,7.152c-0.781,4.664 -1.222,4.573 -1.72,9.274c-1.239,11.703 -1.758,11.635 -1.918,18.775c-0.411,18.326 1.084,23.253 1.342,25.707c0.688,6.525 0.92,6.464 2.031,12.922c0.817,4.747 2.239,8.737 3.576,14.03c0.815,3.226 3.864,8.038 1.456,10.804c-3.015,3.463 -7.411,-0.784 -13.91,-5.511c-10.93,-7.949 -22.947,-21.692 -25.758,-25.531c-5.077,-6.934 -7.177,-10.25 -7.759,-11.17c-7.293,-11.519 -9.724,-17.387 -12.973,-25.805c-2.47,-6.4 -2.197,-6.476 -4.458,-12.951c-0.802,-2.298 -0.414,-2.385 -1.122,-4.705c-1.411,-4.623 -0.943,-4.712 -2.036,-9.437c-1.459,-6.306 -0.896,-6.375 -1.563,-12.813c-1.57,-15.176 -0.556,-15.192 0.568,-30.415Z" style="fill:#fff;"/><path d="M392.238,150.517c1.612,2.019 8.933,11.987 11.774,17.478c0.589,1.139 11.72,20.081 15.682,39.65c0.717,3.542 1.847,4.239 -0.194,7.234c-1.572,2.306 -5.603,1.417 -13.023,1.563c-2.685,0.053 -8.481,-1.04 -9.477,5.312c-0.498,3.177 0.94,44.148 -1.218,51.474c-1.321,4.484 -4.27,18.481 -19.458,30.826c-5.877,4.777 -17.909,11.286 -30.736,11.993c-7.739,0.427 -12.835,-0.829 -13.92,-1.096c-3.547,-0.874 -11.157,-2.008 -21.579,-9.531c-14.823,-10.7 -18.342,-23.248 -20.608,-29.832c-0.216,-0.627 -0.13,-0.645 -1.681,-8.114c-1.172,-5.642 5.547,-6.273 6.256,-6.34c5.547,-0.521 5.471,-0.847 8.317,-1.649c1.7,-0.48 1.82,-0.12 10.312,-4.09c6.758,-3.159 18.816,-12.095 25.001,-26.483c5.63,-13.096 4.873,-22.347 4.873,-43.431c-0,-14.419 0.006,-24.076 -0.043,-31.611c-0.054,-8.146 3.148,-6.973 11.284,-6.97c32.21,0.014 34.061,-0.577 36.207,1.224c0.139,0.117 2.158,2.308 2.23,2.39Z" style="fill:#fff;"/></svg>