<?xml version="1.0" encoding="UTF-8" standalone="no"?><!DOCTYPE svg PUBLIC "-//W3C//DTD SVG 1.1//EN" "http://www.w3.org/Graphics/SVG/1.1/DTD/svg11.dtd"><svg width="100%" height="100%" viewBox="0 0 64 64" version="1.1" xmlns="http://www.w3.org/2000/svg" xmlns:xlink="http://www.w3.org/1999/xlink" xml:space="preserve" xmlns:serif="http://www.serif.com/" style="fill-rule:evenodd;clip-rule:evenodd;stroke-linejoin:round;stroke-miterlimit:2;"><path d="M16.933,32.192l-3.697,0.408l-1.236,-11.18l2.16,-0.242c-0.634,-8.501 6.09,-16.115 15.32,-17.136c0.589,-0.065 1.176,-0.103 1.756,-0.113c8.494,-0.137 15.808,5.588 16.986,13.467l2.234,-0.246l1.236,11.181l-5.949,0.657c0.1,-1.148 0.089,-2.365 -0.049,-3.615l-0.019,-0.169c-0.297,-2.497 -1.059,-4.754 -2.091,-6.525l-0.084,-0.76l2.349,-0.26c-1.117,-7.209 -8.205,-12.282 -16.116,-11.408c-7.916,0.875 -13.69,7.379 -13.195,14.664l0.448,-0.05c-0.421,1.431 -0.694,3.044 -0.77,4.753l-0.004,0.09l-0.008,0.159c-0.103,2.329 0.177,4.512 0.73,6.323Z" style="fill:#fff;fill-rule:nonzero;"/><path d="M25.413,16.465c0.176,-0.824 0.371,-1.555 0.586,-2.13c0.449,-1.205 0.983,-2.232 1.659,-3.003c0.676,-0.771 1.536,-1.291 2.516,-1.329l-0.001,0.002c0.952,-0.037 1.832,0.346 2.562,0.979c0.73,0.633 1.338,1.508 1.88,2.549c0.288,0.555 0.557,1.302 0.809,2.153c-0.56,0.449 -1.064,1.038 -1.498,1.747c-1.344,2.194 -2.021,5.55 -1.619,9.193l0.019,0.169c0.438,3.678 1.883,6.835 3.716,8.686c1.006,1.016 2.132,1.645 3.282,1.797c0.098,1.45 0.101,3.365 0.189,4.378c0.102,1.178 0.32,2.104 0.807,2.73c0.487,0.626 1.274,1.494 2.849,1.614c1.575,0.119 3.889,-0.552 7.169,-1.322c2.858,-0.671 5.06,-1.694 6.929,-1.655c0.935,0.02 1.844,0.562 2.268,1.578c0.424,1.017 0.533,3.233 0.43,5.346c-0.112,2.272 -1.245,4.054 -2.901,5.338c-1.656,1.283 -3.824,2.123 -6.169,2.719c-4.69,1.192 -10.129,1.391 -13.567,1.674l-0.01,0l-0.008,0.003c-9.341,0.541 -17.565,0.404 -23.488,-0.47c-2.962,-0.437 -5.346,-1.05 -7.049,-1.902c-0.851,-0.426 -1.538,-0.913 -2.029,-1.507c-0.49,-0.594 -0.77,-1.319 -0.74,-2.08c0.093,-2.352 0.15,-5.855 0.784,-7.092c0.317,-0.619 0.837,-1.109 1.503,-1.329c0.665,-0.22 1.43,-0.205 2.346,-0.034c5.69,1.059 9.704,2.191 12.45,2.044c2.747,-0.147 4.175,-0.785 4.823,-1.494c0.648,-0.709 0.7,-1.585 0.448,-2.685c-0.253,-1.1 -0.839,-3.317 -1.344,-4.382c-0.307,-0.649 -0.528,-1.571 -0.689,-2.715c0.282,-0.266 0.553,-0.574 0.811,-0.92c1.447,-1.943 2.491,-5.126 2.65,-8.735l0.004,-0.09l0.008,-0.159c0.159,-3.609 -0.601,-6.872 -1.872,-8.935c-0.162,-0.263 -0.332,-0.507 -0.51,-0.73Z" style="fill:#fff;fill-rule:nonzero;"/><path d="M24.172,34.723c-0.78,0.974 -1.674,1.557 -2.625,1.515c-1.016,-0.045 -1.904,-0.794 -2.622,-1.959c-0.384,-0.624 -0.716,-1.366 -0.984,-2.199c-0.56,-1.743 -0.841,-3.882 -0.741,-6.168l0.007,-0.154l0,-0.006l0.004,-0.089c0.079,-1.787 0.382,-3.464 0.85,-4.917c0.417,-1.294 0.965,-2.409 1.603,-3.266c0.817,-1.098 1.767,-1.766 2.784,-1.721c1.016,0.045 1.905,0.794 2.622,1.959l0.076,0.126c1.142,1.936 1.794,4.935 1.648,8.241l-0.007,0.154l-0,0.006l-0.004,0.089c-0.149,3.378 -1.099,6.364 -2.453,8.182c-0.052,0.071 -0.106,0.139 -0.159,0.206Z" style="fill:#fff;fill-opacity:0;fill-rule:nonzero;"/><path d="M44.732,29.076c-0.189,1.952 -0.72,3.678 -1.511,4.969c-0.775,1.265 -1.795,2.105 -2.997,2.248c-0.335,0.04 -0.668,0.024 -0.998,-0.042c-0.868,-0.175 -1.709,-0.698 -2.476,-1.473c-1.707,-1.725 -3.026,-4.676 -3.433,-8.101l-0.018,-0.16c-0.374,-3.391 0.227,-6.52 1.478,-8.561c0.282,-0.46 0.596,-0.864 0.94,-1.198c0.601,-0.585 1.293,-0.959 2.057,-1.05c1.215,-0.145 2.416,0.447 3.474,1.515c1.112,1.123 2.059,2.767 2.697,4.722c0.342,1.047 0.595,2.184 0.737,3.379l0.018,0.16c0.137,1.247 0.143,2.458 0.033,3.592Z" style="fill:#fff;fill-opacity:0;fill-rule:nonzero;"/><path d="M17.942,32.08c-0.56,-1.743 -0.841,-3.882 -0.741,-6.168l0.008,-0.16l0.004,-0.089c0.079,-1.787 0.382,-3.464 0.85,-4.917c0.417,-1.294 0.965,-2.409 1.603,-3.266c0.817,-1.098 1.767,-1.766 2.784,-1.721c1.016,0.045 1.904,0.794 2.622,1.959c0.025,0.041 0.051,0.083 0.076,0.126c1.142,1.936 1.794,4.935 1.648,8.241l-0.008,0.16l-0.004,0.089c-0.149,3.378 -1.099,6.364 -2.453,8.182c-0.052,0.071 -0.106,0.139 -0.159,0.206c-0.78,0.974 -1.674,1.557 -2.625,1.515c-1.016,-0.045 -1.904,-0.794 -2.622,-1.959c-0.384,-0.624 -0.716,-1.366 -0.984,-2.199Zm6.041,-0.408c1.004,-0.567 1.795,-1.811 1.977,-3.314c0.011,-0.087 0.019,-0.174 0.025,-0.261c0.121,-1.692 -0.574,-3.191 -1.663,-3.805c-0.26,-0.147 -0.543,-0.243 -0.842,-0.279c-1.624,-0.196 -3.179,1.442 -3.443,3.629c-0.011,0.087 -0.019,0.175 -0.025,0.262c-0,0.004 -0.001,0.008 -0.001,0.013c-0.045,0.649 0.03,1.269 0.201,1.821c0.381,1.227 1.236,2.12 2.304,2.249c0.508,0.061 1.009,-0.057 1.466,-0.315Z" style="fill:#fff;"/><path d="M39.226,36.25c-0.868,-0.175 -1.709,-0.698 -2.476,-1.473c-1.707,-1.725 -3.026,-4.676 -3.433,-8.101l-0.018,-0.16c-0.374,-3.391 0.227,-6.52 1.478,-8.561c0.282,-0.46 0.596,-0.864 0.94,-1.198c0.601,-0.585 1.293,-0.959 2.057,-1.05c1.215,-0.145 2.416,0.447 3.474,1.515c1.112,1.123 2.059,2.767 2.697,4.722c0.342,1.047 0.595,2.184 0.737,3.379l0.018,0.16c0.137,1.247 0.143,2.458 0.033,3.592c-0.189,1.952 -0.72,3.678 -1.511,4.969c-0.775,1.265 -1.795,2.105 -2.997,2.248c-0.335,0.04 -0.668,0.024 -0.998,-0.042Zm-0.538,-4.285c1.265,-0.164 2.535,-1.403 3.065,-3.14c0.055,-0.181 0.102,-0.365 0.139,-0.55c0.398,-1.981 -0.331,-3.784 -1.697,-4.201c-0.906,-0.277 -1.91,0.112 -2.71,0.931c-0.533,0.545 -0.974,1.282 -1.236,2.139c-0.059,0.194 -0.108,0.391 -0.147,0.589c-0.381,1.968 0.348,3.748 1.705,4.162c0.287,0.088 0.584,0.109 0.881,0.07Z" style="fill:#fff;"/></svg>