<?xml version="1.0" encoding="UTF-8" standalone="no"?>
<!DOCTYPE svg PUBLIC "-//W3C//DTD SVG 1.1//EN" "http://www.w3.org/Graphics/SVG/1.1/DTD/svg11.dtd">
<svg width="100%" height="100%" viewBox="0 0 240 240" version="1.1" xmlns="http://www.w3.org/2000/svg" xmlns:xlink="http://www.w3.org/1999/xlink" xml:space="preserve" xmlns:serif="http://www.serif.com/" style="fill-rule:evenodd;clip-rule:evenodd;stroke-linejoin:round;stroke-miterlimit:2;">
    <g transform="matrix(0.884253,0,0,0.884253,13.889637,14.223653)">
        <path d="M229.39,109.153L130.61,10.372C124.78,4.542 115.23,4.542 109.4,10.372L10.61,109.153C4.78,114.983 -0,126.512 -0,134.762L-0,224.762C-0,233.012 6.75,239.762 15,239.762L107.27,239.762L66.64,199.132C64.55,199.852 62.32,200.262 60,200.262C48.7,200.262 39.5,191.062 39.5,179.762C39.5,168.462 48.7,159.262 60,159.262C71.3,159.262 80.5,168.462 80.5,179.762C80.5,182.092 80.09,184.322 79.37,186.412L111,218.042L111,102.162C104.2,98.822 99.5,91.842 99.5,83.772C99.5,72.472 108.7,63.272 120,63.272C131.3,63.272 140.5,72.472 140.5,83.772C140.5,91.842 135.8,98.822 129,102.162L129,183.432L160.46,151.972C159.84,150.012 159.5,147.932 159.5,145.772C159.5,134.472 168.7,125.272 180,125.272C191.3,125.272 200.5,134.472 200.5,145.772C200.5,157.072 191.3,166.272 180,166.272C177.5,166.272 175.12,165.802 172.91,164.982L129,208.892L129,239.772L225,239.772C233.25,239.772 240,233.022 240,224.772L240,134.772C240,126.522 235.23,115.002 229.39,109.162L229.39,109.153Z" style="fill:white;fill-rule:nonzero;"/>
    </g>
</svg>
