<?xml version="1.0" encoding="UTF-8" standalone="no"?>
<!DOCTYPE svg PUBLIC "-//W3C//DTD SVG 1.1//EN" "http://www.w3.org/Graphics/SVG/1.1/DTD/svg11.dtd">
<svg width="100%" height="100%" viewBox="0 0 512 512" version="1.1" xmlns="http://www.w3.org/2000/svg" xmlns:xlink="http://www.w3.org/1999/xlink" xml:space="preserve" xmlns:serif="http://www.serif.com/" style="fill-rule:evenodd;clip-rule:evenodd;stroke-linejoin:round;stroke-miterlimit:2;">
    <g>
        <g transform="matrix(1,0,0,1,25.822006,-6.719389)">
            <path d="M165.5,146.984C52.772,146.984 52.772,146.976 50.501,147.052C47.919,147.139 47.197,147.1 47.159,144.508C47.115,141.551 47.155,115.061 47.158,112.5C47.159,112.253 47.162,109.81 47.285,109.422C47.642,108.286 49.284,108.231 49.484,108.225C50.364,108.195 375.179,108.218 403.5,108.22C405.696,108.221 407.316,107.921 407.406,110.505C407.496,113.063 407.416,113.051 407.412,142.5C407.412,142.801 407.411,145.77 407.124,146.254C406.622,147.102 406.342,146.984 387.5,146.984L165.5,146.984Z" style="fill:white;"/>
        </g>
        <g transform="matrix(1,0,0,1,25.822006,-6.719389)">
            <path d="M254.571,47.084C257.214,47.534 281.541,53.281 282.478,53.568C283.258,53.806 283.275,53.704 292.424,55.832C298.006,57.131 305.446,58.909 306.577,59.179C309.532,59.885 309.537,59.781 312.472,60.597C312.864,60.705 312.881,60.607 317.426,61.741C320.736,62.568 326.612,63.778 327.414,63.943C329.447,64.362 329.365,64.625 331.424,64.983C332.313,65.138 407.697,82.84 408.428,82.965C408.848,83.037 409.002,83.063 413.614,84.179C415.89,84.729 415.071,85.75 413.517,87.515C405.411,96.715 405.161,96.725 403.519,96.812C403.397,96.819 51.198,96.9 50.458,96.769C48.431,96.411 47.77,94.558 40.291,86.643C40.163,86.509 38.62,84.875 40.405,84.33C41.504,83.994 41.537,84.201 54.402,81.1C55.141,80.922 57.076,80.369 58.438,80.156C58.636,80.125 75.148,76.193 75.441,76.149C76.657,75.965 86.688,73.477 87.464,73.327C90.862,72.67 104.121,69.362 105.44,69.158C105.775,69.107 138.567,61.328 140.426,61.009C140.829,60.939 147.771,59.274 148.409,59.121C149.305,58.906 151.234,58.343 152.443,58.161C154.369,57.87 155.023,57.412 165.423,55.148C166.158,54.988 173.819,53.077 175.551,52.764C176.572,52.578 180.853,51.424 182.435,51.162C182.811,51.1 198.81,47.259 199.444,47.163C199.949,47.087 224.984,41.124 226.555,40.881C227.103,40.797 227.682,40.707 233.404,41.959C234.294,42.154 234.245,42.301 244.468,44.64C252.085,46.383 252.905,46.605 254.571,47.084Z" style="fill:white;fill-opacity:1;"/>
        </g>
        <g transform="matrix(1,0,0,1,25.822006,-6.719389)">
            <path d="M406.969,301.503C407.152,314.595 406.235,314.567 405.866,345.507C405.721,357.648 404.427,372.861 404.089,384.48C403.828,393.499 403.201,393.448 403.052,402.488C402.901,411.622 401.81,412.016 400.485,412.452C400.022,412.604 394.722,413.726 394.535,413.752C393.975,413.831 393.975,413.643 387.486,414.367C384.2,414.734 384.197,414.533 376.472,413.891C375.904,413.844 373.773,413.666 369.465,412.645C366.551,411.954 367.174,410.68 366.669,407.474C365.282,398.685 366.44,398.609 365.483,388.501C364.656,379.773 364.245,361.077 363.451,349.503C362.6,337.088 363.494,337.068 362.481,304.5C361.615,276.643 362.748,274.035 363.126,234.495C363.231,223.557 363.721,223.594 364.153,208.487C364.262,204.684 365.156,186.406 365.308,184.485C365.845,177.679 365.832,177.689 365.959,169.513C366.008,166.384 366.899,158.787 366.957,158.627C367.888,156.064 370.303,156.661 377.479,155.373C378.268,155.231 380.356,154.856 387.487,154.957C390.712,155.003 393.139,155.771 395.457,155.937C396.336,156 401.508,156.14 402.38,158.548C403.542,161.753 402.24,164.728 403.663,179.486C403.817,181.081 403.709,181.074 404.698,199.49C404.942,204.05 404.832,206.66 405.504,217.5C406.382,231.658 405.331,231.687 406.563,254.497C407.13,264.992 407.136,294.985 406.969,301.503Z" style="fill:white;fill-opacity:1;"/>
        </g>
        <g transform="matrix(1,0,0,1,25.822006,-6.719389)">
            <path d="M98.967,305.506C99.023,308.998 98.476,349.779 97.398,362.493C96.702,370.707 97.568,372.549 96.425,382.493C95.804,387.896 95.469,409.576 94.341,411.404C93.36,412.993 85.581,413.865 85.53,413.868C79.013,414.228 79.021,414.894 72.543,414.19C70.915,414.012 67.438,414.072 61.482,412.569C58.812,411.895 59.143,411.207 58.921,408.466C57.987,396.961 58.508,396.94 57.365,383.511C56.81,376.98 57.432,374.336 56.557,365.495C55.488,354.696 56.251,354.665 55.408,335.503C55.197,330.705 53.747,276.816 55.582,235.503C56.178,222.104 55.391,219.99 56.608,206.508C57.259,199.304 56.78,194.091 57.484,186.499C58.337,177.292 58.616,159.938 59.212,158.378C59.944,156.463 64.003,156.136 64.459,156.1C70.003,155.653 69.943,155.071 75.496,155.01C80.078,154.96 80.526,154.715 85.473,155.646C89.272,156.36 94.322,155.6 94.855,159.449C94.987,160.405 94.799,160.405 95.576,171.495C96.074,178.601 95.579,180.727 96.492,189.501C97.487,199.053 96.537,199.093 97.559,212.496C98.07,219.205 99.77,280.122 98.967,305.506Z" style="fill:white;fill-opacity:1;"/>
        </g>
        <g transform="matrix(1,0,0,1,25.822006,-6.719389)">
            <path d="M153.038,309.507C152.842,304.876 152.744,285.987 152.793,278.503C152.839,271.482 152.945,271.501 153.022,264.492C153.222,246.48 153.489,246.507 153.826,228.508C154.133,212.066 154.841,212.105 155.029,198.489C155.153,189.44 155.865,189.494 156.077,180.483C156.313,170.463 156.573,170.49 157.051,160.47C157.29,155.459 160.454,156.777 167.491,155.45C172.054,154.589 180.284,155.006 182.513,155.426C187.956,156.451 191.868,156.078 192.757,158.392C193.312,159.834 193.899,180.734 194.35,185.512C195.456,197.263 194.627,197.287 195.318,206.514C196.328,220.001 195.932,220 196.311,233.505C196.803,251.021 196.893,250.997 197.192,268.507C197.817,305.072 195.936,359.686 195.56,363.505C194.485,374.453 195.221,376.842 194.67,382.515C193.271,396.907 193.567,409.858 192.461,411.474C191.527,412.838 184.563,413.813 183.53,413.874C177.017,414.261 177.022,414.865 170.544,414.176C166.506,413.747 166.481,414.096 163.52,413.413C159.129,412.399 157.476,412.747 157.163,409.54C156.365,401.36 156.163,393.879 156.127,392.515C155.871,383.013 155.069,380.883 154.98,374.488C154.8,361.655 154.113,361.695 153.959,353.484C153.47,327.509 152.906,318.719 153.038,309.507Z" style="fill:white;fill-opacity:1;"/>
        </g>
        <g transform="matrix(1,0,0,1,25.822006,-6.719389)">
            <path d="M310.956,283.5C310.944,316.132 310.996,316.117 310.253,338.491C309.887,349.505 310.013,349.487 309.412,360.496C308.866,370.5 309.31,370.51 308.356,380.486C307.704,387.3 308.363,389.937 307.465,398.497C306.217,410.39 307.526,411.619 304.503,412.51C304.495,412.513 299.216,413.695 298.536,413.779C297.974,413.848 297.961,413.678 291.489,414.389C290.532,414.494 288.534,414.714 279.466,413.813C278.678,413.735 272.51,412.495 271.802,412.05C270.947,411.512 271.018,411.288 270.245,399.518C269.329,385.579 269.088,376.523 269.034,374.521C268.89,369.087 268.176,369.147 268.052,358.508C267.865,342.49 267.169,342.526 267.016,326.506C266.663,289.506 266.494,289.523 266.901,252.508C267.11,233.495 267.802,233.529 267.989,214.508C268.079,205.294 268.751,205.346 269.174,191.487C269.383,184.622 270.677,166.047 270.814,161.51C270.913,158.268 270.613,157.4 274.472,156.387C275.851,156.025 277.659,156.147 280.519,155.604C281.383,155.44 284.407,154.866 291.488,154.955C296.016,155.012 295.956,155.52 300.463,155.983C306.567,156.61 306.751,157.746 306.861,161.484C307.17,172.014 307.8,171.969 307.954,182.489C308.105,192.847 308.89,192.797 309.124,203.513C309.607,225.551 310.93,231.637 310.956,283.5Z" style="fill:white;fill-opacity:1;"/>
        </g>
        <g transform="matrix(1,0,0,1,25.822006,-6.719389)">
            <path d="M128.5,425.92C221.833,425.92 315.166,425.92 408.498,425.92C411.045,425.922 411.744,425.95 411.779,428.494C411.822,431.667 411.784,448.741 411.779,450.502C411.776,452.048 411.965,453.654 409.518,453.758C409.353,453.765 409.353,453.764 54.5,453.764C52.096,453.764 49.55,454.338 49.429,451.505C49.354,449.746 49.418,449.754 49.422,429.5C49.423,427.007 49.217,426.008 52.502,425.92C52.505,425.92 52.505,425.92 128.5,425.92Z" style="fill:white;"/>
        </g>
        <g transform="matrix(1,0,0,1,25.822006,-6.719389)">
            <path d="M33.908,478.5C33.908,475.167 33.908,471.833 33.908,468.5C33.913,465.597 33.593,464.568 36.5,464.514C37.577,464.494 390.7,464.512 421.5,464.513C423.333,464.513 426.188,463.948 426.439,466.506C426.466,466.777 426.457,482.238 426.442,482.495C426.303,484.973 423.86,484.578 422.5,484.578C296.833,484.539 171.167,484.5 45.5,484.461C36.667,484.435 34.744,485.12 33.992,483.373C33.915,483.193 33.908,478.89 33.908,478.5Z" style="fill:white;"/>
        </g>
    </g>
</svg>
