<?xml version="1.0" encoding="UTF-8" standalone="no"?><!DOCTYPE svg PUBLIC "-//W3C//DTD SVG 1.1//EN" "http://www.w3.org/Graphics/SVG/1.1/DTD/svg11.dtd"><svg width="100%" height="100%" viewBox="0 0 200 200" version="1.1" xmlns="http://www.w3.org/2000/svg" xmlns:xlink="http://www.w3.org/1999/xlink" xml:space="preserve" xmlns:serif="http://www.serif.com/" style="fill-rule:evenodd;clip-rule:evenodd;stroke-linejoin:round;stroke-miterlimit:2;"><path d="M142.527,114.584c2.326,0.186 4.88,0.032 8.992,2.391c5.43,3.115 7.466,11.998 3.455,17.372c-0.67,0.897 -0.68,0.872 -1.444,1.687c-1.95,2.082 -0.392,2.43 1.075,3.864c5.622,5.494 4.791,17.199 -3.085,21.144c-5.152,2.58 -7.344,2.309 -25.021,2.297c-2.058,-0.001 -4.055,0.281 -4.21,-2.316c-0.199,-3.356 -0.03,-3.343 -0.019,-42.018c0.001,-3.402 -0.166,-4.463 3.237,-4.586c0.15,-0.005 13.539,-0.006 13.987,-0c1.662,0.02 1.642,0.089 3.032,0.165Zm-9.657,33.422c-0,0.112 -0.04,4.622 0.077,4.882c0.063,0.14 0.424,0.943 1.553,1.116c0.301,0.046 7.167,0.138 8.863,-0.434c4.538,-1.531 4.807,-6.602 2.609,-9.003c-2.173,-2.375 -5.749,-2.217 -10.47,-2.211c-0.177,0 -1.657,0.002 -2.153,0.502c-0.674,0.678 -0.479,4.961 -0.479,5.148Zm-0.001,-20c-0,0.313 -0.005,3.777 0.046,3.918c0.562,1.547 0.928,1.32 2.581,1.331c4.115,0.026 11.167,0.535 10.743,-5.226c-0.329,-4.468 -6.448,-4.315 -10.743,-4.272c-3.017,0.03 -2.429,1.242 -2.627,4.249Z" style="fill:#fdfdfd;"/><path d="M80.212,61.006l-0,-15c0,-6.138 -0.321,-8.331 1.349,-8.846c1.478,-0.456 17.725,-0.16 17.939,-0.146c18.049,1.163 18.258,16.148 14.003,22.994c-2.515,4.047 -6.672,3.108 -4.84,6.922c6.239,12.988 6.398,12.898 6.919,14.036c0.745,1.629 3.142,4.963 -1.08,5.073c-6.821,0.178 -7.278,-0.05 -7.839,-0.331c-0.882,-0.441 -0.786,-0.615 -5.722,-10.917c-1.878,-3.92 -2.917,-7.211 -4.488,-7.628c-0.567,-0.15 -5.09,-0.637 -5.54,0.962c-0.105,0.375 -0.109,2.651 -0.109,2.881c-0.018,11.722 0.214,13.776 -0.706,14.527c-0.924,0.754 -8.252,0.756 -9.179,-0.011c-0.816,-0.674 -0.706,-0.898 -0.706,-24.517Zm15.288,-3.419c0.444,-0.021 3.401,0.039 5.951,-0.735c0.567,-0.172 4.291,-1.304 2.919,-6.812c-0.151,-0.604 -0.879,-3.528 -6.88,-3.644c-5.275,-0.102 -5.485,0.078 -6.147,0.439c-0.451,0.246 -0.593,0.365 -0.541,8.167c0.022,3.294 1.409,2.575 4.698,2.585Z" style="fill:#fdfdfd;"/><path d="M142.503,36.622c3.642,0.119 11.84,0.119 15.768,10.468c1.542,4.062 -0.719,3.738 -3.862,4.591c-0.313,0.085 -3.424,0.929 -3.945,0.91c-1.663,-0.062 -1.846,-1.621 -2.506,-2.824c-0.92,-1.676 -0.76,-1.873 -2.443,-2.786c-2.741,-1.486 -7.93,-1.554 -10.182,2.935c-2.81,5.6 -2.682,16.874 -0.606,21.996c3,7.398 11.583,5.668 13.995,1.222c1.284,-2.367 1.078,-3.514 3.683,-2.795c6.073,1.676 7.248,1.812 7.212,3.669c-0.015,0.75 -1.271,4.16 -3.423,6.753c-0.812,0.978 -5.088,6.131 -14.692,6.054c-7.354,-0.058 -11.183,-3.222 -11.958,-3.862c-9.689,-8.004 -8.328,-28.088 -4.618,-35.746c5.434,-11.215 15.133,-10.548 17.578,-10.586Z" style="fill:#fdfdfd;"/><path d="M73.894,81.006c-0.043,2.438 0.356,2.51 -0.344,4.03c-0.542,1.177 -0.957,1.008 -18.05,1.008c-10.848,-0 -11.829,0.38 -12.232,-1.997c-0.059,-0.345 -0.058,-0.345 -0.057,-40.041c0,-3.492 -0.358,-6.325 1.347,-6.85c0.864,-0.266 7.618,-0.488 8.71,0.198c1.128,0.709 0.966,1.046 0.966,18.652c-0,18.42 -0.035,18.447 0.208,19.032c0.494,1.185 3.661,0.728 16.058,0.8c4.077,0.024 3.353,1.779 3.393,5.168Z" style="fill:#fdfdfd;"/><path d="M53.824,129.006c0,22.77 -0.008,22.761 0.052,22.925c0.816,2.235 1.727,1.11 16.62,1.323c3.652,0.052 3.217,1.863 3.189,5.752c-0.002,0.297 -0.022,3.094 -0.54,3.676c-0.671,0.756 -0.868,0.658 -23.645,0.658c-2.687,-0 -5.772,0.34 -6.366,-1.146c-0.348,-0.869 -0.307,-0.908 -0.307,-40.188c-0,-4.222 -0.379,-6.792 1.54,-7.384c0.427,-0.132 7.862,-0.741 8.952,0.539c0.599,0.704 0.505,1.058 0.505,13.845Z" style="fill:#fdfdfd;"/><path d="M96.5,163.34c-3.033,-0.007 -4.491,0.29 -5.424,-1.094c-0.396,-0.588 -0.346,-0.662 -0.346,-24.24c-0,-22.022 -0.123,-22.266 0.773,-22.996c0.435,-0.354 1.121,-0.913 6.987,-0.589c3.904,0.215 3.222,1.685 3.222,5.586c0.002,41.371 0.015,41.385 -0.181,42.012c-0.543,1.737 -3.941,1.311 -5.032,1.323Z" style="fill:#fdfdfd;"/></svg>