<?xml version="1.0" encoding="UTF-8" standalone="no"?><!DOCTYPE svg PUBLIC "-//W3C//DTD SVG 1.1//EN" "http://www.w3.org/Graphics/SVG/1.1/DTD/svg11.dtd"><svg width="100%" height="100%" viewBox="0 0 512 512" version="1.1" xmlns="http://www.w3.org/2000/svg" xmlns:xlink="http://www.w3.org/1999/xlink" xml:space="preserve" xmlns:serif="http://www.serif.com/" style="fill-rule:evenodd;clip-rule:evenodd;stroke-linejoin:round;stroke-miterlimit:2;"><g id="g22"><path id="path1" d="M263.877,233.754l0,-216.044l201.86,116.274l0,245.836l-201.86,116.274l-0,-96.341c4.883,-0.476 9.645,-1.815 14.064,-3.953c17.704,-4.518 22.635,-1.163 27.83,2.359c4.052,3.196 8.959,5.116 14.097,5.515l1.026,-0c7.967,-0.703 15.78,-2.63 23.164,-5.714c3.823,3.706 8.948,5.759 14.263,5.714c11.099,-0.017 20.222,-9.189 20.222,-20.331c0,-4.848 -1.727,-9.539 -4.868,-13.222l0,0.1c-3.845,-4.505 -9.468,-7.102 -15.378,-7.102c-11.11,0 -20.252,9.178 -20.252,20.331c0,0.841 0.052,1.682 0.156,2.517c-5.647,2.286 -11.583,3.773 -17.638,4.418c-2.733,-0.314 -5.301,-1.476 -7.346,-3.322c-4.087,-3.011 -8.77,-5.107 -13.733,-6.146c12.299,-12.063 21.978,-26.554 28.426,-42.556c10.832,-0.386 19.533,-9.437 19.533,-20.318c0,-11.153 -9.142,-20.331 -20.252,-20.331c-7.14,0 -13.771,3.79 -17.415,9.954c-5.312,8.935 -2.978,20.595 5.361,26.776c-13.402,30.63 -30.511,43.453 -41.596,48.769c-0.415,0.148 -0.814,0.337 -1.191,0.565c-2.707,1.233 -5.551,2.136 -8.472,2.691l0,-139.42c10.818,1.02 15.8,6.288 20.947,12.183c5.162,5.913 10.49,12.026 20.716,12.558c7.015,0.365 12.443,0.166 17.241,0c8.727,-0.654 17.503,0.132 25.977,2.325c8.637,2.126 40.041,32.125 48.877,47.573c-0.364,0.465 -0.728,0.93 -1.026,1.429c-5.737,9.057 -3.362,21.201 5.361,27.407l0.927,0.631c3.241,2.061 7.001,3.156 10.838,3.156c11.11,0 20.252,-9.178 20.252,-20.331c0,-11.153 -9.142,-20.331 -20.252,-20.331l-0.016,0c-1.72,0.005 -3.432,0.229 -5.096,0.664c-8.472,-13.92 -28.624,-34.749 -43.648,-45.812c4.941,-1.804 9.624,-4.25 13.932,-7.275c4.758,-3.608 10.306,-6.023 16.182,-7.043c1.437,3.547 3.861,6.603 6.982,8.804l0.927,0.631c3.241,2.061 7.001,3.156 10.838,3.156c11.11,0 20.252,-9.178 20.252,-20.331c0,-11.153 -9.142,-20.331 -20.252,-20.331l-1.241,0c-2.751,-12.316 -2.751,-25.091 0,-37.407l1.125,-0l0.029,0c11.11,0 20.252,-9.178 20.252,-20.331c0,-11.153 -9.142,-20.331 -20.252,-20.331c-11.11,0 -20.252,9.178 -20.252,20.331c0,5.66 2.354,11.07 6.49,14.916l0.232,0.199c-4.068,15.706 -4.068,32.199 -0,47.905c-0.463,0.432 -0.96,0.831 -1.423,1.329c-0.769,0.849 -1.466,1.76 -2.085,2.724c-1.026,1.63 -1.817,3.397 -2.35,5.249c-8.117,1.196 -15.82,4.366 -22.436,9.235c-6.618,4.385 -13.237,8.538 -31.901,8.87c-5.892,-0.621 -11.824,-0.754 -17.737,-0.399c-4.732,0.166 -9.63,0.365 -16.05,-0c-4.401,-0.233 -6.949,-2.923 -11.45,-8.04c-5.945,-6.797 -13.934,-15.414 -30.908,-16.604Zm102.419,-115.782c-2.052,-9.269 -10.312,-15.921 -19.77,-15.921c-11.11,0 -20.252,9.178 -20.252,20.331c0,4.147 1.264,8.196 3.621,11.602c-8.463,9.196 -20.422,14.378 -32.893,14.252c-10.489,-4.514 -21.694,-7.124 -33.092,-7.707l0,13.288c10.006,0.653 19.809,3.141 28.922,7.342c11.353,5.127 21.176,13.144 28.492,23.255c-0.45,0.576 -0.87,1.174 -1.257,1.794c-2.036,3.245 -3.117,7.002 -3.117,10.837c0,11.153 9.142,20.331 20.252,20.331c11.11,0 20.252,-9.178 20.252,-20.331c0,-6.963 -3.563,-13.459 -9.425,-17.182c-4.622,-2.84 -10.179,-3.736 -15.454,-2.492c-4.941,-7.016 -10.897,-13.253 -17.671,-18.504c10.034,-3.025 18.98,-8.913 25.745,-16.943c1.898,0.584 3.872,0.886 5.857,0.897l0.046,0c11.128,0 20.285,-9.193 20.285,-20.365c0,-1.475 -0.16,-2.945 -0.476,-4.385l-0.066,-0.1Zm-13.866,8.239c-2.087,3.196 -6.387,4.16 -9.63,2.159l-0.331,-0.199c-1.827,-1.315 -2.913,-3.439 -2.913,-5.696c0,-3.845 3.152,-7.01 6.982,-7.01c3.264,0 6.113,2.297 6.818,5.497c0.412,1.813 0.078,3.719 -0.927,5.282l-0,-0.033Zm-21.113,67.073c0.562,-0.892 1.32,-1.642 2.217,-2.193c1.097,-0.673 2.358,-1.03 3.643,-1.03c3.83,0 6.982,3.164 6.982,7.01c0,3.834 -3.133,6.993 -6.952,7.01c-1.314,-0.006 -2.599,-0.387 -3.706,-1.096c-3.229,-2.075 -4.211,-6.433 -2.184,-9.701Zm76.608,136.771c1.28,-2.03 3.513,-3.264 5.907,-3.264c3.835,0 6.991,3.168 6.991,7.018c0,1.329 -0.376,2.631 -1.084,3.754c-2.087,3.196 -6.387,4.16 -9.63,2.159l-0.298,-0.199c-3.002,-2.134 -3.835,-6.303 -1.886,-9.435l-0,-0.033Zm0,-87.371c1.28,-2.03 3.513,-3.264 5.907,-3.264c3.835,0 6.991,3.168 6.991,7.018c0,1.329 -0.376,2.631 -1.084,3.754c-2.087,3.196 -6.387,4.16 -9.63,2.159l-0.298,-0.199c-3.017,-2.124 -3.853,-6.307 -1.886,-9.435l-0,-0.033Zm0,-77.937c1.28,-2.03 3.513,-3.264 5.907,-3.264c3.835,0 6.991,3.168 6.991,7.018c0,1.329 -0.376,2.631 -1.084,3.754c-2.087,3.196 -6.387,4.16 -9.63,2.159l-0.298,-0.199c-3.017,-2.124 -3.853,-6.307 -1.886,-9.435l-0,-0.033Zm-86.767,149.727c1.257,-2.124 3.543,-3.431 6.004,-3.431c3.83,0 6.982,3.164 6.982,7.01c0,3.845 -3.152,7.01 -6.982,7.01c-3.18,0 -5.977,-2.181 -6.765,-5.273c-0.463,-1.802 -0.189,-3.717 0.761,-5.315Zm41.696,74.282c-1.257,1.097 -2.868,1.699 -4.534,1.694l-0.054,0c-3.83,0 -6.982,-3.164 -6.982,-7.01c0,-2.059 0.904,-4.018 2.47,-5.349c1.257,-1.097 2.868,-1.699 4.534,-1.694c3.844,0.007 7.002,3.184 7.002,7.043c0,0.177 -0.007,0.355 -0.02,0.532c-0.134,1.854 -1.005,3.579 -2.416,4.784Z" style="fill:#fff;fill-rule:nonzero;"/><path id="path2" d="M247.332,77.509l-107.681,65.977l-0.199,0c-0.3,0.204 -0.587,0.426 -0.86,0.664l-0.695,0.565c-0.222,0.233 -0.431,0.477 -0.629,0.731c-0.199,0.233 -0.43,0.465 -0.596,0.731c-0.181,0.267 -0.347,0.544 -0.496,0.831c-0.157,0.269 -0.301,0.547 -0.43,0.831c0,0.299 -0.232,0.598 -0.331,0.93c-0.103,0.294 -0.192,0.594 -0.265,0.897c-0.016,0.299 -0.016,0.598 0,0.897c-0.019,0.354 -0.019,0.709 0,1.063l0,168.398c-9.346,-1.315 -18.844,1.069 -26.474,6.644c-16.016,10.697 -21.444,30.829 -13.237,43.187c8.207,12.358 27.102,12.956 43.019,2.259c9.133,-6.113 17.803,-13.521 19.855,-22.192c0.208,-2.21 0.208,-4.434 0,-6.644l0,-73.086l89.017,-52.957l0,278.86l-201.86,-116.274l0,-245.836l201.86,-116.274l-0,59.798Zm0,116.274l-89.348,53.154l0,-39.865l89.348,-53.154l0,39.865Z" style="fill:#fff;fill-rule:nonzero;"/><g id="g21"><path id="path21" d="M263.877,233.754l-0,13.291c-0.033,-0.003 -0.066,-0.006 -0.099,-0.009l0,-13.288c0.033,0.002 0.066,0.005 0.099,0.007Z" style="fill:#fffedb;fill-rule:nonzero;"/></g></g></svg>