<?xml version="1.0" encoding="UTF-8" standalone="no"?><!DOCTYPE svg PUBLIC "-//W3C//DTD SVG 1.1//EN" "http://www.w3.org/Graphics/SVG/1.1/DTD/svg11.dtd"><svg width="100%" height="100%" viewBox="0 0 144 144" version="1.1" xmlns="http://www.w3.org/2000/svg" xmlns:xlink="http://www.w3.org/1999/xlink" xml:space="preserve" xmlns:serif="http://www.serif.com/" style="fill-rule:evenodd;clip-rule:evenodd;stroke-linejoin:round;stroke-miterlimit:2;"><path d="M105.091,8.475l-0.856,1.797c-6.505,7.599 -7.058,7.036 -10.262,10.678c-4.121,4.684 -4.581,4.156 -7.349,6.699c-1.795,1.649 -2.357,1.439 -2.225,2.884c0.079,0.862 0.268,0.851 1.12,0.85c4.522,-0.005 4.483,-0.275 8.991,-0.127c1.987,0.065 22.95,-0.655 25.883,-0.33c2.372,0.263 2.891,0.965 12.12,-0.081c0.374,-0.042 3.183,-0.361 4.573,1.087c0.162,0.169 0.176,0.458 0.36,0.605c0.196,0.156 0.256,0.579 0.318,0.822c0.136,0.528 0.157,0.502 0.164,1.047c0.004,0.329 0.308,0.286 0.391,4.097c0.173,7.995 0.47,7.979 -0.068,15.98c-0.572,8.506 0.696,8.481 0.171,17.014c-0.077,1.25 0.615,5.24 0.185,13.009c-0.066,1.2 0.37,5.349 -0.135,12.993c-1.322,20.008 2.412,25.45 -1.879,28.121c-4.181,2.602 -20.156,0.299 -22.08,1.896c-0.653,0.541 -4.139,7.051 -7.136,9.823l-1.931,0.79c-8.447,0.593 -8.437,-1.044 -15.622,-9.877c-2.246,-2.761 -5.574,-0.827 -14.295,-1.134c-2.92,-0.103 -3.145,-0.672 -11.065,-0.026c-6.024,0.491 -8.059,-2.674 -11.527,3.644c-4.107,7.482 -7.39,7.53 -9.441,7.6c-8.818,0.3 -9.609,-7.034 -13.199,-10.647c-1.099,-1.106 -2.805,-0.763 -11.799,-0.954c-3.531,-0.075 -12.098,1.996 -12.68,-4.267c-0.016,-0.172 -0.511,-14.696 -0.285,-25.966c0.071,-3.522 -0.428,-3.507 0.083,-6.985c0.702,-4.781 -0.646,-4.791 -0.052,-10.01c0.733,-6.44 -1.028,-6.451 -0.233,-14.027c0.268,-2.556 -0.255,-3.958 -0.156,-5.993c0.985,-20.191 -2.793,-28.323 5.331,-28.365c8.045,-0.042 8.01,0.114 16.017,-0.37c0.812,-0.049 10.163,-0.175 18.967,0.231c1.027,0.047 11.896,0.549 12.853,0.113c0.451,-0.205 1.522,-1 -3.028,-5.398c-4.835,-4.674 -5.532,-3.887 -10.527,-9.45c-4.047,-4.507 -8.87,-6.85 -5.554,-10.04c2.639,-2.54 5.359,0.325 17.569,11.977c4.363,4.164 4.254,4.246 9,7.916c4.661,3.604 4.983,6.117 8.511,3.165c0.725,-0.606 7.394,-7.397 12.23,-10.714c0.608,-0.417 0.557,-0.442 6.663,-6.357c2.426,-2.349 7.516,-9.259 10.949,-6.299c0.73,0.629 0.483,0.75 0.938,2.58Zm-64.579,118.485c-2.377,-0.087 -3.765,-0.718 -3.214,1.611c0.006,0.024 2.684,3.784 4.016,4.321c0.476,0.192 2.975,1.198 5.838,-2.655c1.433,-1.929 1.804,-3.161 -0.586,-3.217c-3.048,-0.073 -3.007,0.04 -6.054,-0.059Zm-30.473,-49.467c-0.044,1.6 0.359,1.564 0.279,20.007c-0.026,6.01 0.311,5.987 -0.102,11.973c-0.754,10.951 0.963,12.218 4.276,12.314c5.53,0.161 5.497,0.113 11.024,0.489c2.302,0.157 10.228,-0.816 15.934,-0.329c1.198,0.102 1.18,0.08 15.034,0.113c1.527,0.004 9.214,0.014 10.015,0.015c5.996,0.008 5.984,0.677 11.963,0.073c0.96,-0.097 0.969,0.431 12.054,-0.259c2.155,-0.134 2.16,0.614 26.985,-0.173c0.719,-0.023 0.703,0.11 8.983,0.232c5.905,0.087 7.092,-0.554 7.196,-6.446c0.08,-4.531 0.372,-4.521 -0.243,-8.995c-0.731,-5.321 0.576,-5.332 0.056,-18.007c-0.066,-1.616 0.22,-9.194 0.251,-9.993c0.107,-2.818 -0.871,-5.889 -0.335,-10.015c0.907,-6.983 -0.185,-6.981 -0.016,-13.993c0.023,-0.959 -0.069,-0.943 -0.127,-11.995c-0.023,-4.432 0.682,-6.073 -3.756,-6.281c-0.994,-0.047 -1.989,-0.07 -2.983,-0.11c-4.505,-0.184 -4.485,-0.715 -8.988,-0.276c-10.687,1.042 -13.764,-0.62 -22.087,0.309c-0.49,0.055 -14.003,0.107 -18.978,-0.452c-3.813,-0.429 -8.963,1.021 -20.997,0.065c-9.488,-0.754 -9.47,0.215 -18.982,0.328c-6.52,0.077 -6.506,-0.416 -13.022,0.01c-6.163,0.403 -12.423,-1.762 -12.813,3.417c-0.06,0.797 0.068,0.798 -0.392,9.977c-0.616,12.301 0.786,12.301 -0.123,24.975c-0.017,0.242 -0.008,0.224 -0.108,3.03Zm92.493,49.452c-4.727,0.339 -5.117,-0.424 -5.746,0.679c-0.456,0.799 3.706,8.245 8.305,4.4c1.073,-0.897 0.947,-0.978 2.834,-3.356c0.803,-1.012 0.194,-2.004 -1.439,-1.946c-0.317,0.011 -0.293,0.017 -3.953,0.224Z" style="fill:#fff;fill-opacity:1;"/><path d="M128.047,112.48c-0.204,1.872 0.188,2.009 -0.652,2.924c-0.431,0.469 -0.475,0.518 -7.899,0.969c-1.202,0.073 -5.749,-0.73 -18.018,-0.311c-9.689,0.33 -15.049,-0.719 -23.981,0.416c-2.54,0.323 -2.544,-0.92 -32,-0.291c-4.65,0.099 -4.649,-0.701 -16.004,0.224c-1.236,0.101 -10.183,0.161 -12.065,-0.799c-1.763,-0.9 -1.193,-4.816 -1.397,-11.106c-0.042,-1.28 0.312,-1.27 -0.059,-16.004c-0.016,-0.638 0.294,-0.626 0.116,-7.983c-0.128,-5.278 -0.382,-5.257 -0.14,-13.009c0.052,-1.681 -0.294,-1.654 0.3,-21.018c0.159,-5.188 2.07,-4.482 7.254,-4.417c7.01,0.087 6.986,0.015 13.991,-0.106c5.032,-0.088 5.006,0.561 10.985,0.239c5.419,-0.291 6.985,0.24 16.044,-0.278c6.433,-0.368 6.41,0.449 16.009,0.002c4.35,-0.203 4.338,0.477 13.952,0.109c1.916,-0.073 8.165,0.67 25.983,0.027c4.238,-0.153 7.078,-0.791 7.424,2.379c0.263,2.403 -0.136,3.225 0.293,17.067c0.067,2.158 -0.298,2.135 -0.042,26.989c0.067,6.526 0.43,6.491 0.024,12.977c-0.224,3.579 0.415,3.575 -0.118,11Zm-101.535,0.47c4.051,-0.186 59.662,0.283 64.995,0.037c9.218,-0.424 13.492,0.12 19.018,-0.071c8.478,-0.294 15.084,1.814 14.31,-7.445c-0.742,-8.874 0.582,-8.88 -0.08,-16.995c-0.428,-5.246 0.304,-7.406 0.026,-12.994c-0.419,-8.417 -0.117,-11.459 -0.249,-12.986c-0.909,-10.529 1.474,-10.994 -0.996,-15.024c-1.608,-2.623 -2.378,-1.938 -26.025,-2.353c-17.199,-0.302 -20.023,0.319 -28.985,0.004c-6.52,-0.229 -6.494,0.442 -12.992,-0.033c-0.84,-0.061 -19.075,-0.078 -21.072,0.043c-5.006,0.304 -4.992,-0.107 -9.984,0.052c-6.345,0.203 -5.177,7.323 -5.265,10.301c-0.177,6.015 -0.412,5.979 -0.186,12.026c0.069,1.85 0.1,32.633 0.034,35.982c-0.146,7.312 0.147,9.128 7.45,9.454Z" style="fill:#fff;"/><path d="M73.5,104.071c-8.175,0.044 -12.418,0.742 -11.292,-2.691c0.154,-0.469 7.155,-8.833 9.26,-9.098c0.915,-0.115 1.897,-0.239 8.856,7.38c0.209,0.229 2.218,2.429 1.06,3.735c-0.8,0.903 -5.763,0.675 -7.884,0.673Z" style="fill:#fff;"/><path d="M99.114,64.483c1.963,-9.617 10.392,-4.882 11.488,-3.054c4.486,7.486 -4.6,12.326 -8.918,8.826c-2.792,-2.263 -2.502,-5.052 -2.57,-5.772Z" style="fill:#fff;"/><path d="M31.942,77.535c0.086,-0.37 0.107,-0.752 0.193,-1.122c1.316,-5.656 9.488,-5.93 11.608,-1.028c2.88,6.658 -4.336,11.218 -9.108,7.904c-3.131,-2.175 -2.676,-5.159 -2.693,-5.753Z" style="fill:#fff;"/></svg>