<?xml version="1.0" encoding="UTF-8" standalone="no"?><!DOCTYPE svg PUBLIC "-//W3C//DTD SVG 1.1//EN" "http://www.w3.org/Graphics/SVG/1.1/DTD/svg11.dtd"><svg width="100%" height="100%" viewBox="0 0 200 200" version="1.1" xmlns="http://www.w3.org/2000/svg" xmlns:xlink="http://www.w3.org/1999/xlink" xml:space="preserve" xmlns:serif="http://www.serif.com/" style="fill-rule:evenodd;clip-rule:evenodd;stroke-linejoin:round;stroke-miterlimit:2;"><g id="g20"><g><g><path id="g3" d="M150.444,52.864c-2.144,-5.7 -5.974,-10.608 -10.825,-13.742c-6.468,-4.189 -16.286,-3.236 -23.439,-2.517c-1.818,0.182 -3.69,0.483 -5.587,0.876c-4.876,-1.834 -9.876,-2.98 -14.464,-3.556c-0.087,-0.011 -0.174,-0.007 -0.259,0.013c-4.187,0.949 -7.142,3.423 -9.219,8.135c-0.047,0.107 -0.069,0.224 -0.063,0.341l0.036,0.69c0.004,0.08 0.021,0.156 0.048,0.227c-4.305,1.357 -10.873,3.243 -14.231,5.718c-2.467,1.823 -3.983,4.031 -4.92,6.477c-4.982,8.741 -4.866,16.345 -5.478,27.669c-0.213,3.906 -6.299,20.078 1.58,22.915c0.82,0.289 1.687,0.536 2.587,0.706c0.944,2.34 2.1,4.584 3.537,6.67c0.142,0.222 0.323,0.406 0.473,0.617c0.811,2.114 0.093,0.049 0.811,2.114c3.221,9.293 -6.037,11.94 9.147,12.972c4.266,0.288 8.243,0.147 11.932,-0.243c9.591,-0.339 19.08,-2.407 23.513,5.174c1.871,11.327 -7.104,14.016 -18.154,15.872c-6.903,0.809 -15.206,1.228 -25.237,1.228l-43.591,0l4.972,6.642c-12.894,-15.595 -20.673,-35.793 -20.673,-57.858c0,-49.391 38.974,-89.43 87.056,-89.43c48.084,-0 87.066,40.039 87.066,89.43c0,49.39 -38.983,89.425 -87.066,89.425c-25.74,0 -48.87,-11.474 -64.807,-29.714l37.044,0c57.89,0 65.321,-14.657 70.685,-38.778l0.1,-0.47l0,-0.643c3.695,-6.033 11.935,-11.272 14.723,-18.425c5.773,-5.224 9.462,-13.113 9.462,-21.935c0,-12.133 -6.976,-22.499 -16.757,-26.598Z" style="fill:#fff;"/><path id="path6" d="M61.266,84.619c5.841,-1.289 12.078,-3.06 16.845,-7.118c2.147,-1.825 6.008,-6.56 9.111,-6.068c5.683,0.895 2.3,7.698 -1.202,9.007c-2.395,0.887 -5.181,0.215 -7.629,0.752c-2.413,0.531 -4.682,1.803 -7.004,2.71c-2.9,1.13 -7.07,3.39 -10.122,1.707" style="fill:#fff;"/><path id="path10" d="M154.179,79.861c0,4.612 -3.394,8.354 -7.576,8.354c-4.181,0 -7.574,-3.742 -7.574,-8.354c0,-4.613 3.393,-8.351 7.574,-8.351c4.182,0 7.576,3.738 7.576,8.351Z" style="fill:#fff;"/><path d="M130.802,53.327c-2.612,1.239 -5.004,2.932 -7.091,4.988c-7.596,-11.258 -25.565,-15.798 -36.339,-15.249l-0.036,-0.69c1.963,-4.454 4.742,-6.809 8.699,-7.706c12.031,1.511 26.971,6.961 34.767,18.657Z" style="fill:#fff;"/><path d="M124.524,59.616c2.066,-2.089 4.459,-3.795 7.084,-5.014c2.931,-1.361 6.152,-2.113 9.532,-2.113c3.545,0 6.914,0.828 9.958,2.316c8.602,4.205 14.602,13.685 14.602,24.658c0,7.415 -2.74,14.149 -7.171,19.033c-4.447,4.902 -10.596,7.942 -17.389,7.942c-13.561,0 -24.557,-12.119 -24.557,-26.975c0,-7.836 3.059,-14.911 7.941,-19.847Zm16.615,-2.818c-11.239,0 -20.383,10.168 -20.383,22.666c0,12.498 9.144,22.666 20.383,22.666c11.241,0 20.385,-10.168 20.385,-22.666c0,-12.498 -9.144,-22.666 -20.385,-22.666Z" style="fill:#fff;"/></g></g></g></svg>