<?xml version="1.0" encoding="UTF-8" standalone="no"?><!DOCTYPE svg PUBLIC "-//W3C//DTD SVG 1.1//EN" "http://www.w3.org/Graphics/SVG/1.1/DTD/svg11.dtd"><svg width="100%" height="100%" viewBox="0 0 2500 1387" version="1.1" xmlns="http://www.w3.org/2000/svg" xmlns:xlink="http://www.w3.org/1999/xlink" xml:space="preserve" xmlns:serif="http://www.serif.com/" style="fill-rule:evenodd;clip-rule:evenodd;stroke-linejoin:round;stroke-miterlimit:2;"><path d="M39.193,1123.803c0,30.051 10.894,52.773 32.679,68.175c21.786,15.4 45.074,20.845 69.865,16.339c23.287,-4.507 39.627,-12.772 49.02,-24.791c9.389,-12.019 14.086,-31.928 14.086,-59.724l0,-326.787c0,-23.29 -8.075,-43.011 -24.228,-59.16c-16.149,-16.153 -35.869,-24.228 -59.159,-24.228c-22.537,0 -41.881,8.075 -58.033,24.228c-16.152,16.149 -24.23,35.869 -24.23,59.16l0,326.787Zm259.177,139.73c0,21.79 7.701,38.126 23.1,49.021c15.401,10.894 35.123,16.339 59.16,16.339c24.791,0 44.885,-5.448 60.287,-16.339c15.4,-10.892 23.101,-27.232 23.101,-49.021l0,-761.752c0,-22.537 -8.079,-41.883 -24.228,-58.033c-16.152,-16.149 -35.872,-24.227 -59.16,-24.227c-22.537,0 -41.883,8.078 -58.033,24.227c-16.153,16.153 -24.228,35.496 -24.228,58.033l0,761.752Zm258.05,36.06c0,21.787 7.888,38.126 23.664,49.02c15.775,10.892 36.059,16.34 60.852,16.34c24.038,0 43.758,-5.448 59.157,-16.34c15.401,-10.894 23.103,-27.233 23.103,-49.02l0,-695.269c0,-23.287 -8.078,-43.197 -24.228,-59.724c-16.152,-16.526 -35.495,-24.788 -58.033,-24.788c-23.29,0 -43.197,8.262 -59.724,24.788c-16.526,16.527 -24.791,36.437 -24.791,59.724l0,695.269l-0.002,0Zm259.177,3.381c0,41.32 27.795,61.98 83.387,61.98c55.591,0 83.385,-20.66 83.385,-61.98l0,-1126.854c0,-63.104 -19.156,-98.787 -57.47,-107.052c-24.791,-6.01 -49.207,1.127 -73.245,21.41c-24.04,20.283 -36.06,48.829 -36.06,85.641l0,1126.855l0.003,0Zm263.687,32.679l0,-1226.018c0,-39.064 11.643,-62.352 34.932,-69.865c50.331,-12.019 100.29,-18.029 149.872,-18.029c114.937,0 221.99,27.045 321.151,81.134c99.163,54.089 179.359,127.898 240.582,221.427c61.228,93.532 96.723,196.636 106.489,309.324c45.825,-19.533 94.653,-29.299 146.488,-29.299c105.174,0 195.136,37.186 269.882,111.559c74.748,74.375 112.125,163.771 112.125,268.194c0,105.174 -37.376,194.946 -112.125,269.318c-74.746,74.373 -164.332,111.559 -268.755,111.559l-980.363,-1.127c-6.764,-2.254 -11.835,-6.387 -15.215,-12.396c-3.381,-6.009 -5.063,-11.273 -5.063,-15.78Z" style="fill:#fff;fill-rule:nonzero;"/></svg>