<?xml version="1.0" encoding="UTF-8" standalone="no"?><!DOCTYPE svg PUBLIC "-//W3C//DTD SVG 1.1//EN" "http://www.w3.org/Graphics/SVG/1.1/DTD/svg11.dtd"><svg width="100%" height="100%" viewBox="0 0 123 123" version="1.1" xmlns="http://www.w3.org/2000/svg" xmlns:xlink="http://www.w3.org/1999/xlink" xml:space="preserve" xmlns:serif="http://www.serif.com/" style="fill-rule:evenodd;clip-rule:evenodd;stroke-linejoin:round;stroke-miterlimit:2;"><g><path d="M74.623,32.762c-1.695,0 -1.695,1.695 -1.695,1.695l0,9.605l-66.668,0c-1.695,0 -1.695,1.695 -1.695,1.695l0,34.746c0,1.695 1.695,1.695 1.695,1.695l68.363,0c1.695,0 1.695,-1.695 1.695,-1.695l0,-9.605l38.701,0c1.695,0 1.695,-1.695 1.695,-1.695l0,-34.746c0,-1.695 -1.695,-1.695 -1.695,-1.695l-40.396,0Zm10.452,11.3l7.91,0l0,3.107l-2.542,0l0,9.605l2.825,0l0,3.107l-8.475,0l0,-3.107l2.542,0l0,-9.605l-2.26,0l0,-3.107Zm10.452,0l3.672,0l3.39,9.605l0,-9.605l3.107,0l0,15.82l-3.39,0l-3.672,-9.322l0,9.322l-3.107,0l0,-15.82Zm-87.572,3.39l64.973,0l0,31.357l-64.973,0l0,-31.357Zm8.475,7.91l0,3.107l3.39,0l0,12.43l3.107,0l0,-12.43l3.39,0l0,-3.107l-9.887,0Zm12.147,0l0,11.017c0,0 0,4.802 5.367,4.802c5.367,0 5.367,-4.802 5.367,-4.802l0,-11.017l-3.107,0l0,11.017c0,0 0,1.695 -2.26,1.695c-2.26,0 -2.26,-1.695 -2.26,-1.695l0,-11.017l-3.107,0Zm13.277,0l0,15.537l3.107,0l0,-8.757l3.107,8.757l3.955,0l0,-15.537l-3.39,0l0,8.757l-3.107,-8.757l-3.672,0Zm12.43,0l0,15.537l9.322,0l0,-3.107l-5.932,0l0,-3.107l5.65,0l0,-3.107l-5.65,0l0,-3.107l5.65,0l0,-3.107l-9.04,0Z" style="fill:#fff;fill-rule:nonzero;"/></g></svg>