<?xml version="1.0" encoding="UTF-8" standalone="no"?><!DOCTYPE svg PUBLIC "-//W3C//DTD SVG 1.1//EN" "http://www.w3.org/Graphics/SVG/1.1/DTD/svg11.dtd"><svg width="100%" height="100%" viewBox="0 0 24 24" version="1.1" xmlns="http://www.w3.org/2000/svg" xmlns:xlink="http://www.w3.org/1999/xlink" xml:space="preserve" xmlns:serif="http://www.serif.com/" style="fill-rule:evenodd;clip-rule:evenodd;stroke-linejoin:round;stroke-miterlimit:2;"><path d="M6.854,11.405c-0.828,-0.828 -1.246,-1.891 -1.246,-3.193c0,-1.302 0.419,-2.365 1.246,-3.193c0.828,-0.828 1.891,-1.246 3.193,-1.246c1.302,0 2.365,0.419 3.193,1.246c0.828,0.828 1.246,1.891 1.246,3.193c0,1.302 -0.419,2.365 -1.246,3.193c-0.828,0.828 -1.891,1.246 -3.193,1.246c-1.302,0 -2.365,-0.419 -3.193,-1.246Zm4.796,-1.591c0.422,-0.422 0.631,-0.958 0.631,-1.602c0,-0.646 -0.209,-1.181 -0.631,-1.602c-0.422,-0.422 -0.958,-0.631 -1.602,-0.631c-0.646,0 -1.181,0.209 -1.602,0.631c-0.422,0.422 -0.631,0.958 -0.631,1.602c0,0.646 0.209,1.181 0.631,1.602c0.422,0.422 0.958,0.631 1.602,0.631c0.646,0 1.181,-0.209 1.602,-0.631Z" style="fill:#fff;"/><path d="M7.765,14.241c-0.004,-0.14 0.098,-0.26 0.237,-0.281c0.675,-0.105 1.357,-0.153 2.045,-0.153c0.887,0 1.741,0.071 2.561,0.213c0.821,0.141 1.675,0.372 2.562,0.693c0.088,0.032 0.154,0.108 0.172,0.2c0.018,0.093 -0.013,0.187 -0.083,0.251c-0.211,0.193 -0.395,0.391 -0.553,0.592c-0.156,0.199 -0.295,0.421 -0.415,0.663c-0.059,0.118 -0.195,0.176 -0.321,0.137c-0.579,-0.181 -1.196,-0.316 -1.848,-0.407c-0.655,-0.09 -1.347,-0.137 -2.076,-0.137c-1.055,0 -2.046,0.1 -2.974,0.299c-0.34,0.073 -0.993,0.278 -1.313,0.381c-0.042,0.014 -0.089,-0.001 -0.116,-0.036c-0.028,-0.034 -0.031,-0.083 -0.009,-0.122c0.025,-0.041 0.036,-0.095 0.043,-0.153c-0.003,-0.114 0.08,-0.212 0.193,-0.229c1.636,-0.236 1.873,-1.392 1.895,-1.913l-0.001,0.001Zm-6.464,2.8c0.031,-0.062 0.094,-0.102 0.164,-0.102c0.07,-0.001 0.133,0.038 0.166,0.099c0.199,0.38 0.619,0.966 1.314,1.135c0.114,0.025 0.188,0.137 0.164,0.251c-0.013,0.088 -0.022,0.176 -0.022,0.265l0,0.676l10.574,0c0.127,0 0.237,0.089 0.264,0.213c0.069,0.328 0.168,0.622 0.297,0.88c0.125,0.251 0.28,0.468 0.464,0.653c0.076,0.076 0.1,0.193 0.058,0.293c-0.042,0.1 -0.14,0.166 -0.249,0.166l-13.345,0c-0.147,0 -0.266,-0.118 -0.268,-0.265l0,-2.613c0,-0.645 0.244,-1.281 0.42,-1.652l0,0.001Z" style="fill:#fff;"/><path d="M19.453,10.187c0,-0.149 0.119,-0.269 0.268,-0.27l3.67,0c0.149,0 0.269,0.121 0.269,0.269l0,1.668c0,0.149 -0.121,0.269 -0.269,0.269l-2.038,0l0,6.265c0,0.95 -0.299,1.717 -0.885,2.303c-0.585,0.585 -1.353,0.885 -2.303,0.885c-0.95,0 -1.717,-0.299 -2.303,-0.885c-0.585,-0.585 -0.885,-1.353 -0.885,-2.303c0,-0.95 0.299,-1.717 0.885,-2.303c0.585,-0.585 1.353,-0.885 2.303,-0.885c0.342,0 0.654,0.041 0.936,0.122c0.123,0.036 0.24,0.077 0.352,0.128l-0.001,-5.263l0.001,0Z" style="fill:#fff;"/><path d="M6.67,14.196c-0.084,0.51 -0.527,0.901 -1.062,0.901l-0.994,0l0,0.994c0,0.594 -0.482,1.076 -1.076,1.076c-0.594,0 -1.076,-0.482 -1.076,-1.076l0,-0.994l-0.994,0c-0.594,0 -1.076,-0.482 -1.076,-1.076c0,-0.594 0.482,-1.076 1.076,-1.076l0.994,0l0,-0.994c0,-0.594 0.482,-1.076 1.076,-1.076c0.594,0 1.076,0.482 1.076,1.076l0,0.994l0.994,0c0.594,0 1.076,0.482 1.076,1.076c0,0.06 -0.005,0.118 -0.014,0.175Z" style="fill:#fff;"/></svg>