<?xml version="1.0" encoding="UTF-8" standalone="no"?><!DOCTYPE svg PUBLIC "-//W3C//DTD SVG 1.1//EN" "http://www.w3.org/Graphics/SVG/1.1/DTD/svg11.dtd"><svg width="100%" height="100%" viewBox="0 0 24 24" version="1.1" xmlns="http://www.w3.org/2000/svg" xmlns:xlink="http://www.w3.org/1999/xlink" xml:space="preserve" xmlns:serif="http://www.serif.com/" style="fill-rule:evenodd;clip-rule:evenodd;stroke-linecap:round;stroke-linejoin:round;"><path d="M21,5l-18,0" style="fill:none;fill-rule:nonzero;stroke:#fff;stroke-width:2px;"/><path d="M10,12l-7,0" style="fill:none;fill-rule:nonzero;stroke:#fff;stroke-width:2px;"/><path d="M10,19l-7,0" style="fill:none;fill-rule:nonzero;stroke:#fff;stroke-width:2px;"/><path d="M21.498,11.499c0.001,-0 0.002,-0 0.003,-0c0.549,0 1,0.451 1,1c0,0.182 -0.05,0.361 -0.144,0.517l-2.997,4.997c-0.18,0.302 -0.507,0.488 -0.859,0.488c-0.352,0 -0.679,-0.186 -0.859,-0.488l-2.997,-4.997c-0.094,-0.156 -0.144,-0.335 -0.144,-0.517c0,-0.549 0.451,-1 1,-1c0.001,0 0.003,0 0.004,0l5.993,-0Z" style="fill:none;fill-rule:nonzero;stroke:#fff;stroke-width:2px;"/></svg>