<?xml version="1.0" encoding="UTF-8" standalone="no"?>
<!DOCTYPE svg PUBLIC "-//W3C//DTD SVG 1.1//EN" "http://www.w3.org/Graphics/SVG/1.1/DTD/svg11.dtd">
<svg width="100%" height="100%" viewBox="0 0 24 24" version="1.1" xmlns="http://www.w3.org/2000/svg" xmlns:xlink="http://www.w3.org/1999/xlink" xml:space="preserve" xmlns:serif="http://www.serif.com/" style="fill-rule:evenodd;clip-rule:evenodd;stroke-linecap:round;stroke-linejoin:round;">
    <path d="M2.017,12.587C2.006,12.393 2,12.197 2,12C2,11.803 2.006,11.607 2.017,11.413C2.028,11.219 2.045,11.026 2.067,10.834C2.089,10.643 2.117,10.454 2.15,10.266C2.183,10.078 2.221,9.892 2.264,9.708C2.307,9.524 2.356,9.342 2.409,9.162C2.462,8.982 2.52,8.804 2.583,8.629C2.646,8.453 2.714,8.28 2.786,8.109C2.859,7.938 2.936,7.77 3.017,7.604C3.098,7.438 3.184,7.275 3.275,7.114C3.365,6.953 3.459,6.796 3.558,6.641C3.657,6.486 3.759,6.334 3.866,6.185C3.973,6.036 4.084,5.89 4.198,5.747C4.312,5.604 4.431,5.465 4.553,5.328C4.675,5.192 4.801,5.059 4.93,4.93C5.059,4.801 5.192,4.675 5.328,4.553C5.465,4.431 5.604,4.312 5.747,4.198C5.89,4.084 6.036,3.973 6.185,3.866C6.334,3.759 6.486,3.657 6.641,3.558C6.796,3.459 6.953,3.365 7.114,3.275C7.275,3.184 7.438,3.099 7.604,3.017C7.77,2.936 7.938,2.859 8.109,2.786C8.28,2.714 8.454,2.646 8.629,2.583C8.805,2.52 8.982,2.462 9.162,2.409C9.342,2.356 9.524,2.307 9.708,2.264C9.892,2.221 10.078,2.183 10.266,2.15C10.453,2.117 10.643,2.089 10.834,2.067C11.025,2.045 11.218,2.028 11.413,2.017C11.607,2.006 11.803,2 12,2C12.197,2 12.393,2.006 12.587,2.017C12.781,2.028 12.974,2.045 13.166,2.067C13.357,2.089 13.546,2.117 13.734,2.15C13.922,2.183 14.108,2.221 14.292,2.264C14.476,2.307 14.658,2.356 14.838,2.409C15.018,2.462 15.196,2.52 15.371,2.583C15.547,2.646 15.72,2.714 15.891,2.786C16.062,2.859 16.23,2.936 16.396,3.017C16.562,3.099 16.725,3.184 16.886,3.275C17.047,3.365 17.204,3.459 17.359,3.558C17.514,3.657 17.666,3.759 17.815,3.866C17.964,3.973 18.11,4.084 18.253,4.198C18.396,4.312 18.535,4.431 18.672,4.553C18.808,4.675 18.941,4.801 19.07,4.93C19.199,5.059 19.325,5.192 19.447,5.328C19.569,5.465 19.688,5.604 19.802,5.747C19.916,5.89 20.027,6.036 20.134,6.185C20.241,6.334 20.343,6.486 20.442,6.641C20.541,6.796 20.635,6.953 20.725,7.114C20.816,7.275 20.901,7.438 20.983,7.604C21.065,7.77 21.142,7.938 21.214,8.109C21.286,8.28 21.354,8.454 21.417,8.629C21.48,8.805 21.538,8.982 21.591,9.162C21.644,9.342 21.693,9.524 21.736,9.708C21.779,9.892 21.817,10.078 21.85,10.266C21.883,10.453 21.911,10.643 21.933,10.834C21.955,11.025 21.972,11.218 21.983,11.413C21.994,11.607 22,11.803 22,12C22,12.197 21.994,12.393 21.983,12.587C21.972,12.781 21.955,12.974 21.933,13.166C21.911,13.357 21.883,13.546 21.85,13.734C21.817,13.922 21.779,14.108 21.736,14.292C21.693,14.476 21.644,14.658 21.591,14.838C21.538,15.018 21.48,15.196 21.417,15.371C21.354,15.547 21.286,15.72 21.214,15.891C21.142,16.062 21.065,16.23 20.983,16.396C20.901,16.562 20.816,16.725 20.725,16.886C20.635,17.047 20.541,17.204 20.442,17.359C20.343,17.514 20.241,17.666 20.134,17.815C20.027,17.964 19.916,18.11 19.802,18.253C19.688,18.396 19.569,18.535 19.447,18.672C19.325,18.808 19.199,18.941 19.07,19.07C18.941,19.199 18.808,19.325 18.672,19.447C18.535,19.569 18.396,19.688 18.253,19.802C18.11,19.916 17.964,20.027 17.815,20.134C17.666,20.241 17.514,20.343 17.359,20.442C17.204,20.541 17.047,20.635 16.886,20.725C16.725,20.816 16.562,20.901 16.396,20.983C16.23,21.065 16.062,21.142 15.891,21.214C15.72,21.286 15.547,21.354 15.371,21.417C15.195,21.48 15.018,21.538 14.838,21.591C14.658,21.644 14.476,21.693 14.292,21.736C14.108,21.779 13.922,21.817 13.734,21.85C13.547,21.883 13.357,21.911 13.166,21.933C12.975,21.955 12.782,21.972 12.587,21.983C12.393,21.994 12.197,22 12,22" style="fill:none;stroke:#fff;stroke-width:2px;"/>
    <path d="M12,6L12,12L16,14" style="fill:none;fill-rule:nonzero;stroke:#fff;stroke-width:2px;"/>
    <g transform="matrix(1,0,0,1,0.252355,0.365608)">
        <path d="M3.778,15.915L3.778,15.913C3.778,15.493 4.124,15.147 4.544,15.147C4.684,15.147 4.82,15.185 4.94,15.257C6.5,16.306 7.745,17.041 8.767,17.552C8.999,17.69 9.141,17.94 9.141,18.209C9.141,18.479 8.999,18.729 8.767,18.866L4.94,21.161C4.821,21.233 4.684,21.271 4.544,21.271C4.124,21.271 3.778,20.925 3.778,20.505L3.778,15.913L3.778,15.915Z" style="fill-opacity:0;fill-rule:nonzero;stroke:#fff;stroke-width:2px;stroke-linecap:butt;stroke-miterlimit:2;"/>
    </g>
</svg>
