<?xml version="1.0" encoding="UTF-8" standalone="no"?><!DOCTYPE svg PUBLIC "-//W3C//DTD SVG 1.1//EN" "http://www.w3.org/Graphics/SVG/1.1/DTD/svg11.dtd"><svg width="100%" height="100%" viewBox="0 0 24 24" version="1.1" xmlns="http://www.w3.org/2000/svg" xmlns:xlink="http://www.w3.org/1999/xlink" xml:space="preserve" xmlns:serif="http://www.serif.com/" style="fill-rule:evenodd;clip-rule:evenodd;stroke-linecap:round;stroke-linejoin:round;"><g><path d="M16.741,2.398l3.492,3.492l-3.492,3.492" style="fill:none;fill-rule:nonzero;stroke:#fff;stroke-width:2px;"/><path d="M16.741,14.619l3.492,3.492l-3.492,3.492" style="fill:none;fill-rule:nonzero;stroke:#fff;stroke-width:2px;"/></g><g><path d="M19.479,18.11l-2.595,0c-1.144,0.008 -2.071,-0.675 -2.881,-1.484" style="fill:none;fill-rule:nonzero;stroke:#fff;stroke-width:2px;"/></g><g><path d="M14.004,16.627c0,0 -1.719,-1.804 -3.015,-3.142" style="fill:none;stroke:#fff;stroke-width:2px;stroke-miterlimit:1.5;"/></g><g><path d="M10.989,13.484c-0.988,-0.988 -1.736,-1.492 -2.881,-1.484l-4.341,-0" style="fill:none;fill-rule:nonzero;stroke:#fff;stroke-width:2px;"/></g><g><path d="M19.479,5.89l-2.595,0c-1.144,-0.008 -2.071,0.675 -2.881,1.484" style="fill:none;fill-rule:nonzero;stroke:#fff;stroke-width:2px;"/></g><g><path d="M14.004,7.373c0,0 -1.719,1.804 -3.015,3.142" style="fill:none;stroke:#fff;stroke-width:2px;stroke-miterlimit:1.5;"/></g><g><path d="M10.989,10.516c-0.988,0.988 -1.736,1.492 -2.881,1.484" style="fill:none;fill-rule:nonzero;stroke:#fff;stroke-width:2px;"/></g></svg>