<?xml version="1.0" encoding="UTF-8" standalone="no"?><!DOCTYPE svg PUBLIC "-//W3C//DTD SVG 1.1//EN" "http://www.w3.org/Graphics/SVG/1.1/DTD/svg11.dtd"><svg width="100%" height="100%" viewBox="0 0 31 31" version="1.1" xmlns="http://www.w3.org/2000/svg" xmlns:xlink="http://www.w3.org/1999/xlink" xml:space="preserve" xmlns:serif="http://www.serif.com/" style="fill-rule:evenodd;clip-rule:evenodd;stroke-linejoin:round;stroke-miterlimit:2;"><path d="M22.43,13.009c-0.019,-0.147 0.045,-0.291 0.166,-0.377c0.121,-0.085 0.278,-0.097 0.41,-0.031c0.981,0.493 2.674,1.344 2.674,1.344c0.58,0.292 0.946,0.885 0.946,1.534c0,0.649 -0.366,1.242 -0.946,1.534c0,0 -1.69,0.85 -2.668,1.342c-0.132,0.066 -0.289,0.054 -0.41,-0.031c-0.121,-0.085 -0.184,-0.229 -0.166,-0.376c0.096,-0.803 0.145,-1.62 0.145,-2.448c0,-0.843 -0.051,-1.675 -0.15,-2.491l-0.001,0Zm-2.853,6.918c-0.029,0.112 -0.104,0.207 -0.208,0.259c-0.553,0.278 -2.398,1.206 -3.6,1.81c-0.153,0.076 -0.336,0.047 -0.458,-0.072c-0.122,-0.119 -0.155,-0.302 -0.082,-0.456c0.83,-1.819 1.292,-3.84 1.292,-5.968c0,-2.149 -0.471,-4.188 -1.315,-6.021c-0.074,-0.153 -0.042,-0.337 0.08,-0.456c0.121,-0.119 0.305,-0.148 0.457,-0.072c1.209,0.606 3.061,1.536 3.614,1.815c0.103,0.052 0.179,0.146 0.208,0.258c0.366,1.432 0.56,2.931 0.56,4.476c0,1.527 -0.19,3.011 -0.549,4.427l0.001,0Zm-12.373,-15.25c0.02,0.006 0.039,0.013 0.057,0.022c4.023,1.93 6.805,6.043 6.805,10.801c0,4.4 -2.379,8.248 -5.919,10.328c-0.007,0.004 -0.015,0.009 -0.023,0.012c-0.089,0.045 -0.676,0.34 -0.678,0.341c-0.532,0.268 -1.165,0.24 -1.672,-0.072c-0.507,-0.313 -0.816,-0.866 -0.816,-1.461l0,-0.407c0,-0.511 0.3,-0.974 0.766,-1.184c2.824,-1.341 4.77,-4.223 4.77,-7.556c0,-3.302 -1.91,-6.161 -4.684,-7.533c-0.515,-0.249 -0.842,-0.77 -0.842,-1.342c-0.009,-0.181 -0.009,-0.315 -0.009,-0.315c0,-0.596 0.309,-1.149 0.816,-1.461c0.432,-0.266 0.956,-0.326 1.431,-0.172l-0.002,-0.001Zm-1.624,15.636c-0.121,0.082 -0.277,0.091 -0.406,0.023c-0.129,-0.068 -0.21,-0.202 -0.21,-0.348c-0.006,-1.907 -0.006,-7.07 -0.006,-8.976c0,-0.149 0.082,-0.285 0.213,-0.354c0.131,-0.069 0.29,-0.06 0.413,0.024c1.486,1.086 2.455,2.84 2.455,4.819c0,1.979 -0.969,3.733 -2.458,4.813l-0.001,-0.001Z" style="fill:#fff;"/></svg>