<?xml version="1.0" encoding="UTF-8" standalone="no"?><!DOCTYPE svg PUBLIC "-//W3C//DTD SVG 1.1//EN" "http://www.w3.org/Graphics/SVG/1.1/DTD/svg11.dtd"><svg width="100%" height="100%" viewBox="0 0 31 31" version="1.1" xmlns="http://www.w3.org/2000/svg" xmlns:xlink="http://www.w3.org/1999/xlink" xml:space="preserve" xmlns:serif="http://www.serif.com/" style="fill-rule:evenodd;clip-rule:evenodd;stroke-linejoin:round;stroke-miterlimit:2;"><path d="M27.28,13.545c-0.011,-0.172 0.071,-0.336 0.215,-0.431c0.144,-0.095 0.327,-0.105 0.481,-0.028c0.354,0.179 0.699,0.353 0.7,0.353c0,0 0,0 0,0c0.724,0.366 1.181,1.108 1.181,1.919c0,0.811 -0.457,1.554 -1.181,1.919c-0,0 -0.346,0.175 -0.7,0.353c-0.154,0.078 -0.337,0.067 -0.481,-0.028c-0.144,-0.095 -0.226,-0.259 -0.215,-0.431c0.037,-0.6 0.056,-1.205 0.056,-1.814c0,-0.609 -0.019,-1.214 -0.056,-1.814Zm-1.699,5.056c-0.019,0.16 -0.117,0.299 -0.26,0.372c-0.376,0.19 -1.142,0.577 -1.747,0.882c-0.161,0.081 -0.355,0.065 -0.5,-0.042c-0.146,-0.107 -0.219,-0.287 -0.189,-0.465c0.209,-1.299 0.317,-2.631 0.317,-3.989c0,-1.357 -0.108,-2.69 -0.316,-3.989c-0.03,-0.178 0.044,-0.358 0.189,-0.465c0.146,-0.107 0.339,-0.123 0.5,-0.042c0.605,0.305 1.371,0.692 1.747,0.882c0.144,0.072 0.241,0.212 0.26,0.372c0.124,1.063 0.188,2.145 0.188,3.242c0,1.097 -0.064,2.178 -0.189,3.242Zm-10.012,5.187c-0.046,0.094 -0.121,0.171 -0.215,0.218c-0.4,0.202 -1.57,0.793 -2.608,1.317c-0.196,0.099 -0.434,0.052 -0.578,-0.113c-0.144,-0.166 -0.158,-0.408 -0.033,-0.588c1.767,-2.653 2.795,-5.838 2.795,-9.262c0,-3.424 -1.027,-6.609 -2.791,-9.265c-0.124,-0.179 -0.111,-0.418 0.032,-0.582c0.143,-0.164 0.378,-0.21 0.572,-0.112c1.04,0.52 2.21,1.11 2.61,1.312c0.094,0.047 0.169,0.124 0.215,0.218c1.236,2.549 1.93,5.408 1.93,8.429c0,3.021 -0.694,5.88 -1.93,8.429Zm-13.116,-2.98c-0.143,0.107 -0.334,0.124 -0.494,0.044c-0.16,-0.08 -0.261,-0.243 -0.261,-0.422c-0.008,-2.22 -0.008,-7.921 -0.008,-10.141c-0,-0.182 0.102,-0.348 0.265,-0.429c0.162,-0.081 0.357,-0.064 0.502,0.045c1.603,1.279 2.635,3.247 2.635,5.455c0,2.208 -1.032,4.176 -2.64,5.449Zm18.5,0.184c-0.034,0.136 -0.125,0.25 -0.249,0.313c-0.38,0.192 -1.245,0.629 -1.951,0.985c-0.173,0.087 -0.382,0.062 -0.529,-0.065c-0.147,-0.127 -0.203,-0.329 -0.143,-0.514c0.64,-2.003 0.985,-4.138 0.985,-6.352c0,-2.214 -0.345,-4.349 -0.984,-6.352c-0.061,-0.184 -0.004,-0.386 0.142,-0.513c0.147,-0.126 0.355,-0.152 0.528,-0.064c0.706,0.355 1.571,0.792 1.952,0.984c0.125,0.063 0.216,0.177 0.25,0.313c0.445,1.805 0.681,3.691 0.681,5.632c0,1.941 -0.236,3.828 -0.681,5.632Zm-18.995,-13.244c-0.163,-0.081 -0.267,-0.247 -0.267,-0.43c-0.001,-0.422 -0.001,-1.201 -0.001,-1.77c-0,-0.159 0.079,-0.308 0.211,-0.398c0.132,-0.089 0.299,-0.107 0.447,-0.048c4.035,1.658 6.88,5.628 6.88,10.257c0,4.629 -2.845,8.599 -6.881,10.255c-0.147,0.059 -0.314,0.041 -0.446,-0.048c-0.131,-0.089 -0.21,-0.237 -0.21,-0.396c-0.002,-0.569 -0.002,-1.348 -0.002,-1.77c0,-0.183 0.104,-0.349 0.267,-0.43c2.787,-1.398 4.702,-4.283 4.702,-7.612c0,-3.328 -1.915,-6.213 -4.701,-7.612Zm1.792,21.761c-0.078,0.031 -0.163,0.041 -0.247,0.029c-0.276,-0.046 -0.544,-0.143 -0.79,-0.294c-0.481,-0.296 -0.819,-0.764 -0.956,-1.298c-0.053,-0.236 0.083,-0.474 0.313,-0.548c5.06,-1.663 8.724,-6.426 8.724,-12.039c0,-5.612 -3.663,-10.375 -8.727,-12.027c-0.237,-0.076 -0.377,-0.32 -0.322,-0.562c0.149,-0.531 0.488,-0.999 0.968,-1.295c0.245,-0.151 0.514,-0.249 0.79,-0.292c0.083,-0.012 0.168,-0.003 0.246,0.028c5.629,2.232 9.614,7.728 9.614,14.148c0,6.42 -3.984,11.916 -9.613,14.149Z" style="fill:#fff;"/></svg>