<?xml version="1.0" encoding="UTF-8" standalone="no"?>
<!DOCTYPE svg PUBLIC "-//W3C//DTD SVG 1.1//EN" "http://www.w3.org/Graphics/SVG/1.1/DTD/svg11.dtd">
<svg width="100%" height="100%" viewBox="0 0 240 240" version="1.1" xmlns="http://www.w3.org/2000/svg" xmlns:xlink="http://www.w3.org/1999/xlink" xml:space="preserve" xmlns:serif="http://www.serif.com/" style="fill-rule:evenodd;clip-rule:evenodd;stroke-linejoin:round;stroke-miterlimit:2;">
    <g id="path2" transform="matrix(0.851952,0,0,0.851952,17.765814,17.617803)">
        <g id="g17">
            <path id="path21" serif:id="path2" d="M109.394,6.381C115.242,0.539 124.788,0.539 130.606,6.381L229.394,105.269C235.242,111.111 240,122.643 240,130.907L240,221.017L239.995,221.373C239.789,229.459 233.114,236.001 225,236.001L15,236.001C6.758,236.001 0,229.22 0,220.987L0,130.877C0,122.613 4.788,111.081 10.606,105.239L109.394,6.381ZM36,122.001C31.582,122.001 28,125.582 28,130.001L28,208.001L44,208.001L44,130.001C44,125.582 40.418,122.001 36,122.001ZM68,122.001C63.582,122.001 60,125.582 60,130.001L60,208.001L76,208.001L76,130.001C76,125.582 72.418,122.001 68,122.001ZM100,122.001C95.582,122.001 92,125.582 92,130.001L92,208.001L108,208.001L108,130.001C108,125.582 104.418,122.001 100,122.001ZM158.393,122.427C154.2,121.032 149.671,123.3 148.275,127.492L121.479,208.001L138.342,208.001L163.456,132.544C164.851,128.352 162.584,123.823 158.393,122.427ZM188.708,127.492C187.313,123.3 182.783,121.032 178.591,122.427C174.399,123.823 172.131,128.352 173.526,132.544L198.642,208.001L215.504,208.001L188.708,127.492Z" style="fill:white;fill-rule:nonzero;"/>
        </g>
    </g>
</svg>
