<?xml version="1.0" encoding="UTF-8" standalone="no"?><!DOCTYPE svg PUBLIC "-//W3C//DTD SVG 1.1//EN" "http://www.w3.org/Graphics/SVG/1.1/DTD/svg11.dtd"><svg width="100%" height="100%" viewBox="0 0 256 256" version="1.1" xmlns="http://www.w3.org/2000/svg" xmlns:xlink="http://www.w3.org/1999/xlink" xml:space="preserve" xmlns:serif="http://www.serif.com/" style="fill-rule:evenodd;clip-rule:evenodd;stroke-linejoin:round;stroke-miterlimit:2;"><path d="M39.195,75.151c2.755,-2.707 4.606,-4.117 10.079,-6.722c6.313,-3.006 18.475,-5.528 18.68,-5.644c2.584,-1.461 -1.573,-11.129 4.006,-17.834c1.959,-2.355 3.208,-2.767 3.982,-3.209c5.421,-3.101 11.985,-0.329 14.192,2.308c4.907,5.862 3.623,9.212 3.909,13.029c0.065,0.859 0.099,0.888 0.775,1.428c0.481,0.385 3.002,0.182 3.263,0.161c9.123,-0.734 9.877,0.259 19.03,-0.609c2.105,-0.2 16.71,-0.293 19.005,-0.032c8.224,0.934 8.25,0.123 20.022,0.614c3.262,0.136 4.597,0.697 4.594,-2.568c-0.001,-0.669 -0.011,-1.338 -0.005,-2.007c0.098,-10.738 10.092,-16.016 17.256,-12.705c9.797,4.529 7.433,16.185 7.709,19.749c0.182,2.35 2.029,1.937 7.35,3.256c18.811,4.663 32.543,10.996 34.187,43.7c0.39,7.754 -0.987,67.926 -16.861,91.169c-1.959,2.868 -5.283,8.209 -16.365,12.552c-11.677,4.576 -31.362,2.404 -36.822,3.562c-3.385,0.718 -12.505,-0.196 -18.052,0.04c-7.32,0.312 -16.444,-0.178 -20.013,-0.089c-9.213,0.229 -9.374,-0.118 -36.001,-0.489c-2.502,-0.035 -21.808,1.227 -33.83,-10.912c-13.223,-13.352 -18.026,-52.054 -18.807,-61.863c-1.97,-24.73 -5.096,-51.9 8.717,-66.885Zm123.746,27.149c12.164,8.396 21.854,-0.255 23.167,-2.232c1.096,-1.651 3.198,-4.579 1.818,-9.929c-0.778,-3.019 -2.377,-1.136 -2.47,-0.915c-0.283,0.675 -0.129,4.335 -4.27,7.938c-5.954,5.18 -14.052,2.713 -17.721,-2.35c-1.401,-1.933 -1.925,-4.434 -2.012,-4.845c-0.318,-1.518 -0.226,-1.55 -0.47,-1.782c-0.277,-0.264 -2.158,-1.527 -2.766,3.899c-0.053,0.476 -0.344,3.068 1.089,5.89c1.416,2.79 2.847,3.658 3.633,4.326Zm35.245,20.689c-0.865,-0.728 -0.851,-0.708 -1.782,-1.358c-8.901,-6.213 -35.97,-10.456 -55.315,-11.096c-39.024,-1.291 -58.415,3.108 -68.874,5.899c-17.312,4.62 -23.051,10.459 -20.836,44.616c1.487,22.932 9.873,28.7 19.682,33.134c8.952,4.047 9.443,3.371 9.837,2.762c0.781,-1.208 -0.674,-14.404 1.249,-19.865c6.23,-17.689 23.659,-15.364 23.971,-15.36c11.782,0.151 16.713,-0.409 24.042,3.264c4.669,2.34 3.058,3.559 2.747,3.765c-1.578,1.039 -5.221,-4.167 -13.798,0.314c-2.894,1.512 -6.445,5.797 -6.697,11.025c-0.359,7.455 4.733,8.908 1.748,11.036c-0.73,0.52 -5.268,3.755 -6.614,9.048c-0.871,3.426 3.072,2.935 3.843,2.206c0.923,-0.873 1.469,-5.566 6.888,-7.883c0.8,-0.342 2.516,-1.076 10.848,-0.702c0.838,0.038 6.284,0.282 9.095,5.209c0.774,1.357 0.579,1.428 1.322,2.802c0.432,0.799 2.56,1.198 3.831,0.745c2.088,-0.745 -0.32,-4.955 -0.533,-5.327c-2.657,-4.646 -5.91,-5.771 -6.446,-7.218c-0.343,-0.926 1.967,-3.573 2.355,-6.991c0.576,-5.085 -1.225,-8.083 -1.495,-8.992c-1.427,-4.805 8.458,-4.749 8.861,-4.754c9.482,-0.12 13.48,-0.009 18.357,4.401c7.181,6.493 5.759,11.625 5.903,23.39c0.021,1.714 0.037,2.269 1.748,2.106c0.683,-0.065 16.822,-5.444 22.138,-9.913c2.887,-2.427 4.32,-4.103 6.588,-8.316c6.286,-11.679 5.865,-40.326 3.018,-48.785c-2.064,-6.133 -5.138,-8.628 -5.679,-9.163Zm-106.076,-20.919c0.532,-0.469 0.55,-0.43 1.063,-0.937c3.489,-3.451 3.385,-7.376 3.367,-8.076c-0.012,-0.45 -0.157,-5.942 -2.459,-5.062c-0.498,0.19 -0.798,1.934 -0.828,2.113c-1.267,7.381 -10.068,12.236 -17.014,8.706c-5.903,-3 -6.724,-8.676 -6.781,-8.882c-0.737,-2.65 -2.125,-1.611 -2.618,0.024c-3.266,10.844 11.787,21.78 25.271,12.114Z" style="fill:#fdfdfd;"/></svg>