<?xml version="1.0" encoding="UTF-8" standalone="no"?><!DOCTYPE svg PUBLIC "-//W3C//DTD SVG 1.1//EN" "http://www.w3.org/Graphics/SVG/1.1/DTD/svg11.dtd"><svg width="100%" height="100%" viewBox="0 0 512 512" version="1.1" xmlns="http://www.w3.org/2000/svg" xmlns:xlink="http://www.w3.org/1999/xlink" xml:space="preserve" xmlns:serif="http://www.serif.com/" style="fill-rule:evenodd;clip-rule:evenodd;stroke-linejoin:round;stroke-miterlimit:2;"><path d="M38.858,187.552c-5.479,1.428 -8.094,2.86 -12.296,6.733c-7.803,7.193 -7.659,6.028 -7.659,61.716c0,39.02 0.264,49.683 1.303,52.624c2.733,7.737 12.534,15.32 20.641,15.969l3.713,0.297l0,-68.878c0,-75.67 0.467,-70.07 -5.701,-68.462m428.074,68.512l0,69.515l3.563,-0.617c9.692,-1.675 18.917,-9.383 21.149,-17.673c0.667,-2.479 0.917,-20.533 0.738,-53.41c-0.267,-49.14 -0.292,-49.707 -2.366,-53.584c-3.545,-6.627 -10.966,-11.615 -19.521,-13.12l-3.563,-0.627l0,69.515m-382.129,-30.098c-7.595,2.713 -14.29,10.809 -16.083,19.448c-1.401,6.745 -0.675,21.316 1.293,25.971c2.058,4.866 8.957,12.117 13.505,14.195c2.09,0.955 5.405,1.746 7.364,1.757l3.563,0.021l0,-62.715l-3.088,0.042c-1.698,0.023 -4.648,0.599 -6.555,1.28m332.718,30.036l-0,31.357l3.088,-0.01c4.527,-0.013 12.137,-3.909 15.811,-8.092c5.717,-6.512 6.712,-9.957 6.736,-23.307c0.019,-10.945 -0.181,-12.335 -2.434,-16.856c-4.183,-8.392 -12.858,-14.45 -20.698,-14.45l-2.503,0l0,31.357" style="fill:#fff;"/><path d="M245.056,13.732c-18.424,3.777 -33.706,18.796 -38.011,37.357c-1.27,5.476 -1.43,17.082 -1.207,87.322l0.258,81.006l2.841,5.13c3.256,5.88 9.789,10.759 16.686,12.461c2.864,0.707 13.927,0.965 32.783,0.765l28.459,-0.302l4.837,-2.552c5.394,-2.846 10.006,-7.612 12.507,-12.924c1.54,-3.273 1.661,-9.414 1.661,-84.772c0,-76.135 -0.111,-81.678 -1.769,-88.151c-4.098,-15.993 -18.52,-30.353 -34.737,-34.586c-6.578,-1.717 -17.897,-2.069 -24.308,-0.754m-89.074,100.266c-14.212,3.445 -27.353,14.636 -33.595,28.613c-4.093,9.163 -4.294,15.179 -3.977,118.616c0.33,107.697 -0.035,101.012 6.141,112.249c3.891,7.077 15.097,17.668 22.261,21.041c5.511,2.593 15.376,4.968 20.641,4.968l2.06,0l0,-286.966l-4.038,0.079c-2.222,0.044 -6.493,0.675 -9.493,1.402m186.471,142.003l0,143.483l3.563,-0.014c5.503,-0.022 15.241,-2.612 20.576,-5.475c11.742,-6.299 22.988,-21.147 25.267,-33.361c0.602,-3.227 0.95,-42.028 0.941,-104.999c-0.015,-109.02 0.104,-106.484 -5.475,-116.903c-3.328,-6.215 -14.509,-17.397 -20.724,-20.724c-5.347,-2.864 -15.086,-5.453 -20.585,-5.475l-3.563,-0.014l0,143.483m-118.89,19.341c-5.31,1.937 -10.141,5.23 -12.817,8.738c-5.193,6.808 -5.126,5.631 -5.109,91.087c0.018,85.144 0.086,86.435 5.038,96.183c5.687,11.194 18.448,22.264 29.416,25.521c18.59,5.521 37.774,0.727 51.05,-12.756c7.185,-7.298 10.782,-13.486 12.789,-21.999c2.18,-9.248 2.179,-165.842 -0.002,-172.022c-1.733,-4.914 -5.929,-9.533 -11.837,-13.031l-4.276,-2.532l-30.407,-0.221c-23.262,-0.168 -31.215,0.074 -33.845,1.033" style="fill:#fff;"/></svg>