<?xml version="1.0" encoding="UTF-8" standalone="no"?>
<!DOCTYPE svg PUBLIC "-//W3C//DTD SVG 1.1//EN" "http://www.w3.org/Graphics/SVG/1.1/DTD/svg11.dtd">
<svg width="100%" height="100%" viewBox="0 0 512 512" version="1.1" xmlns="http://www.w3.org/2000/svg" xmlns:xlink="http://www.w3.org/1999/xlink" xml:space="preserve" xmlns:serif="http://www.serif.com/" style="fill-rule:evenodd;clip-rule:evenodd;stroke-linejoin:round;stroke-miterlimit:2;">
    <g transform="matrix(0.909372,0,0,0.910158,23.246125,9.848539)">
        <g id="Layer-1" serif:id="Layer 1">
            <path d="M497.7,103.536L497.7,437.848C497.7,479.018 464.247,512.442 423.042,512.442L88.858,512.442C47.653,512.442 14.2,479.018 14.2,437.848L14.2,103.536C14.2,62.366 47.653,28.942 88.858,28.942L423.042,28.942C464.247,28.942 497.7,62.366 497.7,103.536ZM418.169,252.158L418.334,252.323L437.472,252.323C437.128,251.154 436.797,248.155 436.467,243.505C435.971,238.856 435.971,235.031 435.971,232.198L435.971,131.624L416.833,131.624L416.833,181.505C414.011,177.681 410.183,174.847 405.515,172.852C400.862,170.693 402.363,169.702 390.549,169.702C378.736,169.702 368.919,173.691 361.429,181.505C353.939,189.484 350.112,198.948 350.112,212.086C350.112,225.223 353.609,235.692 360.934,243.175C368.245,250.659 377.896,254.318 389.709,254.318C395.533,254.318 400.862,253.149 405.681,250.989C410.513,248.829 414.176,245.5 416.833,241.511C416.998,243.175 417.494,246.835 418.169,252.158ZM409.508,229.873C405.185,234.357 399.691,236.696 392.711,236.696C385.717,236.696 380.223,234.357 375.9,229.873C371.577,225.388 369.415,219.404 369.415,211.921C369.415,204.437 371.577,198.453 375.9,193.968C380.223,189.484 385.717,187.145 392.711,187.145C399.691,187.145 405.35,189.484 409.508,193.968C413.666,198.453 415.828,204.437 415.828,211.921C415.828,219.404 413.666,225.388 409.508,229.873ZM248.956,219.074L248.956,211.934C248.956,199.127 245.293,188.989 238.134,181.175C230.988,173.361 221.832,169.537 209.688,169.537C197.545,169.537 187.893,173.526 180.403,181.34C172.913,189.319 169.251,199.457 169.251,212.099C169.251,224.728 172.913,234.866 180.238,242.68C187.728,250.494 200.698,254.318 209.179,254.318C217.674,254.318 224.999,252.323 231.484,248.334C237.969,244.345 242.801,238.87 245.789,231.881L229.818,225.567C225.825,233.711 218.996,237.7 209.179,237.7C203.025,237.7 198.206,236.036 194.213,232.872C190.22,229.722 188.058,225.072 187.384,219.074L248.956,219.074ZM187.549,205.606C188.224,199.127 190.385,194.299 194.213,190.804C198.04,187.324 202.859,185.66 208.849,185.66C214.838,185.66 219.67,187.324 223.168,190.804C226.816,194.134 228.813,199.127 229.157,205.606L187.549,205.606ZM144.557,267.039C132.4,267.039 122.927,270.203 115.451,276.682C107.961,283.162 104.299,293.809 104.299,302.118C104.299,310.427 106.791,317.58 111.789,323.399C116.773,329.218 124.263,333.208 134.245,335.532L153.548,340.182C163.034,342.672 167.853,347.666 167.853,355.314C167.853,360.294 165.857,364.118 162.029,366.952C158.202,369.772 153.218,371.107 146.223,371.107C139.243,371.107 133.419,369.607 128.916,366.622C124.428,363.623 121.771,359.469 121.096,354.31L102.137,359.304C103.633,368.612 108.291,376.091 116.112,381.74C124.263,387.229 132.744,389.884 145.562,389.884C158.367,389.884 168.693,386.569 176.335,380.076C183.99,373.431 187.817,362.619 187.817,354.31C187.817,346.001 185.325,339.192 180.327,333.538C175.343,327.884 167.853,323.894 157.871,321.226L138.568,316.411C129.082,314.086 124.263,309.093 124.263,301.444C124.263,296.629 125.929,292.64 129.591,289.806C133.253,286.821 138.568,285.321 144.227,285.321C149.886,285.321 154.718,286.656 158.532,289.476C162.525,292.31 165.031,296.134 166.022,301.279L184.995,296.134C183.329,287.316 178.84,280.342 171.681,275.018C164.356,269.694 155.379,267.039 144.557,267.039ZM271.792,279.565C271.792,282.88 272.948,285.714 275.289,288.204C277.781,290.529 280.603,291.698 283.935,291.698L283.935,267.418C280.603,267.418 277.616,268.587 275.289,270.912C272.948,273.237 271.792,276.071 271.792,279.565ZM116.848,131.473C104.691,131.473 95.218,134.637 87.742,141.116C80.252,147.595 76.59,158.243 76.59,166.552C76.59,174.861 79.082,182.014 84.08,187.833C89.064,193.652 96.554,197.641 106.536,199.966L125.839,204.616C135.326,207.106 140.145,212.099 140.145,219.748C140.145,224.728 138.148,228.552 134.321,231.386C130.493,234.206 125.509,235.54 118.514,235.54C111.534,235.54 105.71,234.041 101.208,231.056C96.719,228.057 94.062,223.903 93.387,218.744L74.428,223.737C75.924,233.046 80.583,240.525 88.403,246.174C96.554,251.663 105.035,254.318 117.854,254.318C130.658,254.318 140.984,251.003 148.626,244.51C156.281,237.865 160.109,227.053 160.109,218.744C160.109,210.435 157.617,203.626 152.619,197.972C147.634,192.318 140.145,188.328 130.162,185.66L110.859,180.845C101.373,178.52 96.554,173.526 96.554,165.878C96.554,161.063 98.22,157.074 101.882,154.24C105.545,151.255 110.859,149.755 116.518,149.755C122.177,149.755 127.01,151.09 130.823,153.91C134.816,156.743 137.322,160.568 138.313,165.713L157.286,160.568C155.62,151.75 151.132,144.775 143.972,139.452C136.647,134.128 127.67,131.473 116.848,131.473ZM243.538,390.393C254.676,390.379 263.998,386.569 271.322,379.085C278.647,371.437 282.296,361.794 282.296,348.491C282.296,335.189 278.812,324.555 271.653,317.071C264.507,309.588 255.021,305.777 242.863,305.777C236.713,305.777 231.224,306.937 226.396,309.258C221.577,311.417 217.915,314.416 215.588,318.241L214.748,308.102L197.441,308.102L197.441,425.293L216.084,425.293L216.084,377.916C218.741,381.74 222.403,384.739 227.401,387.064C232.22,389.224 237.714,390.393 243.538,390.393ZM257.017,365.948C252.694,370.433 247.2,372.771 240.206,372.771C233.225,372.771 227.732,370.433 223.409,365.948C219.076,361.463 216.91,355.479 216.91,347.996C216.91,340.512 219.076,334.528 223.409,330.044C227.732,325.559 233.225,323.22 240.206,323.22C247.2,323.22 252.694,325.559 257.017,330.044C261.34,334.528 263.502,340.512 263.502,347.996C263.502,355.479 261.34,361.463 257.017,365.948ZM337.307,202.773L337.472,202.938C337.472,192.299 334.641,184.156 328.977,178.506C323.318,172.687 315.333,169.867 305.02,169.867C300.036,169.867 295.204,170.858 290.88,172.852C286.557,174.852 283.23,177.511 280.898,180.831L280.224,172.192L262.256,172.192L262.256,252.323L281.394,252.323L281.394,207.601C281.394,201.122 283.225,195.963 286.887,192.469C290.55,188.975 296.043,187.145 300.697,187.145C305.351,187.145 309.344,188.48 312.841,191.313C316.338,194.134 318.169,199.292 318.169,206.927L318.169,252.158L337.307,252.158L337.307,202.773ZM255.242,279.698C255.242,282.439 256.137,284.783 257.947,286.841C259.875,288.764 262.058,289.731 264.635,289.731L264.635,269.655C262.058,269.655 259.747,270.621 257.947,272.544C256.137,274.466 255.242,276.809 255.242,279.698ZM294.288,280.342C294.288,283.657 295.444,286.491 297.785,288.981C300.277,291.305 303.1,292.475 306.432,292.475C309.764,292.475 312.591,291.31 314.913,288.981C317.254,286.491 318.41,283.822 318.41,280.342C318.41,276.847 317.254,274.014 314.913,271.689C312.591,269.359 309.764,268.195 306.432,268.195C303.1,268.195 300.112,269.364 297.785,271.689C295.444,274.014 294.288,276.847 294.288,280.342ZM316.083,308.102L296.945,308.102L296.945,388.233L316.083,388.233L316.083,308.102ZM409.598,338.848L409.763,339.013C409.763,328.374 406.931,320.231 401.268,314.581C395.609,308.762 387.637,305.929 377.311,305.929C372.327,305.929 367.494,306.933 363.171,308.927C358.848,310.927 355.52,313.586 353.189,316.906L352.528,308.267L334.547,308.267L334.547,388.385L353.685,388.385L353.685,343.676C353.685,337.183 355.516,332.038 359.178,328.544C362.84,325.05 368.334,323.22 372.988,323.22C377.641,323.22 381.634,324.555 385.131,327.375C388.629,330.209 390.46,335.367 390.46,343.002L390.46,388.22L409.598,388.22L409.598,338.848ZM372.829,280.823C372.829,278.72 372.254,276.922 371.088,275.342C369.847,273.867 368.441,273.125 366.782,273.125L366.782,288.53C368.441,288.53 369.929,287.788 371.088,286.313C372.254,284.838 372.829,283.04 372.829,280.823ZM340.906,281.104C340.906,277.789 339.75,274.955 337.409,272.465C334.917,270.14 332.095,268.971 328.763,268.971L328.763,293.251C332.095,293.251 335.082,292.082 337.409,289.757C339.75,287.432 340.906,284.598 340.906,281.104ZM239.869,279.846C239.869,281.95 240.444,283.748 241.61,285.327C242.851,286.802 244.257,287.544 245.916,287.544L245.916,272.14C244.257,272.14 242.769,272.881 241.61,274.356C240.444,275.831 239.869,277.629 239.869,279.846ZM357.456,280.971C357.456,278.23 356.561,275.887 354.751,273.828C352.823,271.906 350.64,270.939 348.063,270.939L348.063,291.015C350.64,291.015 352.951,290.048 354.751,288.126C356.561,286.203 357.456,283.86 357.456,280.971Z" style="fill:white;"/>
        </g>
    </g>
</svg>
