<?xml version="1.0" encoding="UTF-8" standalone="no"?><!DOCTYPE svg PUBLIC "-//W3C//DTD SVG 1.1//EN" "http://www.w3.org/Graphics/SVG/1.1/DTD/svg11.dtd"><svg width="100%" height="100%" viewBox="0 0 40 40" version="1.1" xmlns="http://www.w3.org/2000/svg" xmlns:xlink="http://www.w3.org/1999/xlink" xml:space="preserve" xmlns:serif="http://www.serif.com/" style="fill-rule:evenodd;clip-rule:evenodd;stroke-linecap:round;stroke-linejoin:round;"><g id="surface1"><path d="M23.352,13.074c-0.145,0 -0.285,0.051 -0.398,0.141l-4.359,3.609l-3.836,0c-0.344,0 -0.625,0.277 -0.625,0.625l0,4.766c0.004,0.344 0.281,0.621 0.625,0.625l0.016,0l4.125,-0.074l4.035,3.664c0.113,0.102 0.266,0.16 0.418,0.16c0.09,0 0.176,-0.02 0.258,-0.055c0.223,-0.102 0.371,-0.324 0.367,-0.57l0,-12.266c0,-0.242 -0.137,-0.465 -0.359,-0.566c-0.082,-0.039 -0.172,-0.059 -0.266,-0.059Z" style="fill:none;fill-rule:nonzero;stroke:#fefefe;stroke-width:0.72px;"/><path d="M6.57,12.625c2.586,-4.453 7.336,-7.195 12.484,-7.207" style="fill:none;fill-rule:nonzero;stroke:#fefefe;stroke-width:0.72px;"/><path d="M19.285,34.578c-5.148,-0.008 -9.902,-2.75 -12.484,-7.203" style="fill:none;fill-rule:nonzero;stroke:#fefefe;stroke-width:0.72px;"/><path d="M31.555,12.625c2.574,4.461 2.574,9.953 0,14.414" style="fill:none;fill-rule:nonzero;stroke:#fefefe;stroke-width:0.72px;"/><path d="M8.629,13.773c2.172,-3.742 6.164,-6.047 10.488,-6.055" style="fill:none;fill-rule:nonzero;stroke:#fefefe;stroke-width:0.72px;"/><path d="M19.117,31.941c-4.324,-0.008 -8.316,-2.312 -10.484,-6.051" style="fill:none;fill-rule:nonzero;stroke:#fefefe;stroke-width:0.72px;"/><path d="M29.469,13.773c2.164,3.746 2.164,8.367 0,12.113" style="fill:none;fill-rule:nonzero;stroke:#fefefe;stroke-width:0.72px;"/><path d="M10.68,14.937c1.734,-2.988 4.922,-4.828 8.375,-4.836" style="fill:none;fill-rule:nonzero;stroke:#fefefe;stroke-width:0.72px;"/><path d="M19.055,29.559c-3.453,-0.008 -6.641,-1.848 -8.375,-4.832" style="fill:none;fill-rule:nonzero;stroke:#fefefe;stroke-width:0.72px;"/><path d="M27.535,14.996c1.723,2.992 1.723,6.676 0,9.668" style="fill:none;fill-rule:nonzero;stroke:#fefefe;stroke-width:0.72px;"/><path d="M23.352,13.074c-0.145,0 -0.285,0.051 -0.398,0.141l-4.359,3.609l-3.836,0c-0.344,0 -0.625,0.277 -0.625,0.625l0,4.766c0.004,0.344 0.281,0.621 0.625,0.625l0.016,0l4.125,-0.074l4.035,3.664c0.113,0.102 0.266,0.16 0.418,0.16c0.09,0 0.176,-0.02 0.258,-0.055c0.223,-0.102 0.371,-0.324 0.367,-0.57l0,-12.266c0,-0.242 -0.137,-0.465 -0.359,-0.566c-0.082,-0.039 -0.172,-0.059 -0.266,-0.059Z" style="fill:none;fill-rule:nonzero;stroke:#fefefe;stroke-width:1px;"/><path d="M6.57,12.625c2.586,-4.453 7.336,-7.195 12.484,-7.207" style="fill:none;fill-rule:nonzero;stroke:#fefefe;stroke-width:1px;"/><path d="M19.285,34.578c-5.148,-0.008 -9.902,-2.75 -12.484,-7.203" style="fill:none;fill-rule:nonzero;stroke:#fefefe;stroke-width:1px;"/><path d="M31.555,12.625c2.574,4.461 2.574,9.953 0,14.414" style="fill:none;fill-rule:nonzero;stroke:#fefefe;stroke-width:1px;"/><path d="M8.629,13.773c2.172,-3.742 6.164,-6.047 10.488,-6.055" style="fill:none;fill-rule:nonzero;stroke:#fefefe;stroke-width:1px;"/><path d="M19.117,31.941c-4.324,-0.008 -8.316,-2.312 -10.484,-6.051" style="fill:none;fill-rule:nonzero;stroke:#fefefe;stroke-width:1px;"/><path d="M29.469,13.773c2.164,3.746 2.164,8.367 0,12.113" style="fill:none;fill-rule:nonzero;stroke:#fefefe;stroke-width:1px;"/><path d="M10.68,14.937c1.734,-2.988 4.922,-4.828 8.375,-4.836" style="fill:none;fill-rule:nonzero;stroke:#fefefe;stroke-width:1px;"/><path d="M19.055,29.559c-3.453,-0.008 -6.641,-1.848 -8.375,-4.832" style="fill:none;fill-rule:nonzero;stroke:#fefefe;stroke-width:1px;"/><path d="M27.535,14.996c1.723,2.992 1.723,6.676 0,9.668" style="fill:none;fill-rule:nonzero;stroke:#fefefe;stroke-width:1px;"/></g></svg>