<?xml version="1.0" encoding="UTF-8" standalone="no"?><!DOCTYPE svg PUBLIC "-//W3C//DTD SVG 1.1//EN" "http://www.w3.org/Graphics/SVG/1.1/DTD/svg11.dtd"><svg width="100%" height="100%" viewBox="0 0 256 256" version="1.1" xmlns="http://www.w3.org/2000/svg" xmlns:xlink="http://www.w3.org/1999/xlink" xml:space="preserve" xmlns:serif="http://www.serif.com/" style="fill-rule:evenodd;clip-rule:evenodd;stroke-linejoin:round;stroke-miterlimit:2;"><g><path d="M241.529,128c0,-62.7 -50.828,-113.529 -113.529,-113.529c-62.7,0 -113.529,50.829 -113.529,113.529c0,62.701 50.829,113.529 113.529,113.529c62.701,0 113.529,-50.828 113.529,-113.529Z" style="fill:#fff;fill-opacity:0;fill-rule:nonzero;stroke:#fff;stroke-width:5px;"/><path d="M180.282,55.992l-0.004,99.353c0,6.329 -1.454,9.449 -4.318,13.132c-3.468,4.461 -8.716,8.018 -14.846,9.922c-6.126,1.902 -12.426,1.93 -17.738,0.13c-5.314,-1.802 -10.053,-5.638 -11.713,-11.564c-1.647,-5.877 0.334,-11.674 3.782,-16.11c3.468,-4.461 8.716,-8.018 14.846,-9.921c6.126,-1.902 12.426,-1.93 17.738,-0.13c0.335,0.114 0.669,0.235 0.998,0.365l0.004,-67.124c-0.728,0.299 -1.498,0.608 -2.31,0.924c-6.504,2.539 -15.674,5.59 -26.338,7.628c-10.486,2.003 -19.507,3.006 -25.924,3.509c-1.795,0.141 -3.388,0.242 -4.754,0.316l-0.004,84.618c0,6.234 -1.481,9.378 -4.326,13.038c-3.467,4.461 -8.715,8.018 -14.845,9.922c-6.126,1.902 -12.427,1.93 -17.738,0.13c-5.315,-1.801 -10.053,-5.638 -11.713,-11.564c-1.647,-5.877 0.334,-11.674 3.782,-16.11c3.468,-4.461 8.716,-8.018 14.845,-9.921c6.126,-1.902 12.426,-1.93 17.738,-0.13c0.338,0.114 0.674,0.237 1.006,0.368l0.003,-81.409l5.622,0l0.126,-0.001c0.097,-0.001 0.249,-0.003 0.454,-0.006c0.41,-0.007 1.031,-0.021 1.846,-0.051c1.631,-0.059 4.037,-0.177 7.077,-0.415c6.082,-0.476 14.685,-1.432 24.69,-3.344c9.827,-1.878 18.322,-4.701 24.359,-7.058c3.013,-1.176 5.398,-2.23 7.015,-2.982c0.808,-0.376 1.423,-0.675 1.826,-0.876c0.202,-0.1 0.35,-0.176 0.444,-0.224l0.114,-0.059l8.251,-4.356Zm-15.863,95.465c-2.784,-0.943 -6.634,-1.071 -10.793,0.22c-4.155,1.29 -7.381,3.614 -9.298,6.081c-1.937,2.492 -2.253,4.67 -1.832,6.171c0.408,1.454 1.71,3.002 4.491,3.944c2.784,0.943 6.634,1.071 10.792,-0.22c4.156,-1.29 7.382,-3.614 9.299,-6.081c1.937,-2.492 2.253,-4.67 1.832,-6.17c-0.408,-1.454 -1.71,-3.002 -4.491,-3.945Zm-70.582,15.6c-2.784,-0.943 -6.634,-1.071 -10.793,0.22c-4.155,1.29 -7.381,3.614 -9.298,6.081c-1.937,2.492 -2.253,4.67 -1.832,6.171c0.407,1.454 1.71,3.002 4.491,3.944c2.784,0.943 6.634,1.071 10.792,-0.22c4.156,-1.29 7.382,-3.614 9.299,-6.081c1.937,-2.492 2.252,-4.669 1.831,-6.17c-0.407,-1.454 -1.71,-3.002 -4.49,-3.945Z" style="fill:#fff;"/></g></svg>