<?xml version="1.0" encoding="UTF-8" standalone="no"?><!DOCTYPE svg PUBLIC "-//W3C//DTD SVG 1.1//EN" "http://www.w3.org/Graphics/SVG/1.1/DTD/svg11.dtd"><svg width="100%" height="100%" viewBox="0 0 24 24" version="1.1" xmlns="http://www.w3.org/2000/svg" xmlns:xlink="http://www.w3.org/1999/xlink" xml:space="preserve" xmlns:serif="http://www.serif.com/" style="fill-rule:evenodd;clip-rule:evenodd;stroke-linejoin:round;stroke-miterlimit:2;"><path d="M5,23l0,-1c0,-2.317 0.483,-4.196 1.45,-5.637c0.967,-1.442 2.3,-2.896 4,-4.363c-1.7,-1.467 -3.033,-2.921 -4,-4.363c-0.967,-1.442 -1.45,-3.321 -1.45,-5.637l0,-1l2,0l0,1c0,0.183 0.004,0.354 0.013,0.512c0.008,0.158 0.021,0.321 0.038,0.488l9.9,0c0.017,-0.167 0.029,-0.329 0.038,-0.488c0.008,-0.158 0.012,-0.329 0.012,-0.512l0,-1l2,0l0,1c0,2.317 -0.483,4.196 -1.45,5.637c-0.967,1.442 -2.3,2.896 -4,4.363c1.7,1.467 3.033,2.921 4,4.363c0.967,1.442 1.45,3.321 1.45,5.637l0,1l-2,0l0,-1c0,-0.183 -0.004,-0.354 -0.012,-0.512c-0.008,-0.158 -0.021,-0.321 -0.038,-0.488l-9.9,0c-0.017,0.167 -0.029,0.329 -0.038,0.488c-0.008,0.158 -0.013,0.329 -0.013,0.512l0,1l-2,0Zm3.45,-16l7.1,0c0.217,-0.317 0.404,-0.633 0.562,-0.95c0.158,-0.317 0.304,-0.667 0.438,-1.05l-9.1,0c0.133,0.367 0.279,0.712 0.438,1.037c0.158,0.325 0.346,0.646 0.563,0.963Zm3.55,3.7c0.333,-0.283 0.658,-0.567 0.975,-0.85c0.317,-0.283 0.617,-0.567 0.9,-0.85l-3.75,0c0.283,0.283 0.583,0.567 0.9,0.85c0.317,0.283 0.642,0.567 0.975,0.85Zm-1.875,4.3l3.75,0c-0.283,-0.283 -0.583,-0.567 -0.9,-0.85c-0.317,-0.283 -0.642,-0.567 -0.975,-0.85c-0.333,0.283 -0.658,0.567 -0.975,0.85c-0.317,0.283 -0.617,0.567 -0.9,0.85Zm-2.675,4l9.1,0c-0.133,-0.367 -0.279,-0.712 -0.438,-1.038c-0.158,-0.325 -0.346,-0.646 -0.562,-0.962l-7.1,0c-0.217,0.317 -0.404,0.633 -0.563,0.95c-0.158,0.317 -0.304,0.667 -0.438,1.05Z" style="fill:#fff;fill-rule:nonzero;"/></svg>