<?xml version="1.0" encoding="UTF-8" standalone="no"?><!DOCTYPE svg PUBLIC "-//W3C//DTD SVG 1.1//EN" "http://www.w3.org/Graphics/SVG/1.1/DTD/svg11.dtd"><svg width="100%" height="100%" viewBox="0 0 24 24" version="1.1" xmlns="http://www.w3.org/2000/svg" xmlns:xlink="http://www.w3.org/1999/xlink" xml:space="preserve" xmlns:serif="http://www.serif.com/" style="fill-rule:evenodd;clip-rule:evenodd;stroke-linecap:round;stroke-linejoin:round;stroke-miterlimit:1.5;"><g><g><g><path d="M4.137,2.809l0,11.911l5.897,0" style="fill:none;stroke:#fff;stroke-width:2px;"/><g><path d="M13.967,2.809l0,11.911" style="fill:none;stroke:#fff;stroke-width:2px;"/></g><g><path d="M19.863,14.72l-3.129,-5.955" style="fill:none;stroke:#fff;stroke-width:2px;"/></g><g><path d="M16.725,8.764l-2.759,0l0,-5.955l2.759,0c1.732,0 3.138,1.334 3.138,2.978c0,1.643 -1.407,2.978 -3.138,2.978l0,-0.001Z" style="fill:none;stroke:#fff;stroke-width:2px;"/></g></g></g><path d="M12.756,23.033c-0.19,0.218 -0.465,0.343 -0.754,0.343c-0.289,0 -0.564,-0.125 -0.754,-0.343c-0.822,-0.942 -2.156,-2.473 -3.181,-3.648c-0.258,-0.296 -0.319,-0.714 -0.157,-1.071c0.162,-0.357 0.518,-0.586 0.91,-0.586l6.362,0c0.392,0 0.748,0.229 0.91,0.586c0.162,0.357 0.101,0.776 -0.157,1.071c-1.025,1.176 -2.359,2.706 -3.181,3.648l0.002,0Z" style="fill:#fff;"/></g></svg>