<?xml version="1.0" encoding="UTF-8" standalone="no"?><!DOCTYPE svg PUBLIC "-//W3C//DTD SVG 1.1//EN" "http://www.w3.org/Graphics/SVG/1.1/DTD/svg11.dtd"><svg width="100%" height="100%" viewBox="0 0 24 24" version="1.1" xmlns="http://www.w3.org/2000/svg" xmlns:xlink="http://www.w3.org/1999/xlink" xml:space="preserve" xmlns:serif="http://www.serif.com/" style="fill-rule:evenodd;clip-rule:evenodd;stroke-linejoin:round;stroke-miterlimit:2;"><path d="M6,22l12,0l-6,-6l-6,6Zm0.84,-4l10.32,0l-5.16,-5.16l-5.16,5.16Zm14.16,-15l-18,0c-1.1,0 -2,0.9 -2,2l0,12c0,1.1 0.9,2 2,2l4,0l0,-2l-4,0l0,-12l18,0l0,12l-4,0l0,2l4,0c1.1,0 2,-0.9 2,-2l0,-12c0,-1.1 -0.9,-2 -2,-2Z" style="fill:#fff;fill-rule:nonzero;"/></svg>