<?xml version="1.0" encoding="UTF-8" standalone="no"?><!DOCTYPE svg PUBLIC "-//W3C//DTD SVG 1.1//EN" "http://www.w3.org/Graphics/SVG/1.1/DTD/svg11.dtd"><svg width="100%" height="100%" viewBox="0 0 512 512" version="1.1" xmlns="http://www.w3.org/2000/svg" xmlns:xlink="http://www.w3.org/1999/xlink" xml:space="preserve" xmlns:serif="http://www.serif.com/" style="fill-rule:evenodd;clip-rule:evenodd;stroke-linejoin:round;stroke-miterlimit:2;"><path d="M81.242,314.231c34.873,17.831 70.946,29.982 108.812,37.48c31.248,6.188 62.838,8.752 94.248,6.042c27.072,-2.336 53.892,-8.647 80.529,-14.536c14.413,-3.186 28.127,-9.44 42.345,-13.677c3.297,-0.983 9.507,-0.652 10.655,1.283c2.857,4.815 -0.947,8.963 -5.105,11.779c-19.289,13.066 -40.064,23.021 -62.226,30.305c-23.765,7.81 -48.025,12.019 -72.945,14.524c-38.096,3.829 -74.878,-1.919 -110.821,-12.909c-33.49,-10.24 -63.979,-27.026 -91.009,-49.636c-3.627,-3.034 -7.831,-5.631 -10.648,-9.291c-1.751,-2.275 -1.392,-6.173 -1.98,-9.343c0.884,-0.329 1.767,-0.658 2.651,-0.987c4.956,2.95 9.911,5.9 15.495,8.967Z" style="fill:#fff;fill-rule:nonzero;"/><path d="M407.346,214.248c13.426,-0.034 26.145,-0.034 39.925,-0.034c0,-5.567 0.444,-10.878 -0.108,-16.084c-0.75,-7.066 -7.803,-12.911 -16.274,-12.556c-9.94,0.416 -19.833,2.098 -29.727,3.388c-2.917,0.38 -5.765,1.294 -8.682,1.971c-2.566,-14.146 -1.726,-17.642 10.55,-19.346c14.939,-2.073 30.487,-2.666 45.424,-0.924c12.126,1.415 18.857,11.505 19.062,23.926c0.417,25.377 0.125,50.765 0.125,77.477c-7.136,-2.229 -16.058,4.927 -19.339,-5.533c-10.271,2.909 -20.359,7.499 -30.747,8.324c-17.969,1.428 -28.92,-7.244 -32.685,-22.773c-3.548,-14.632 3.818,-28.845 18.814,-36.307c0.988,-0.492 1.97,-0.997 3.662,-1.53m39.959,27.572l0,-12.799c-8.689,-0.438 -16.709,-1.387 -24.687,-1.115c-11.736,0.4 -16.824,6.912 -15.992,19.114c0.521,7.634 8.065,12.819 18.249,11.033c6.334,-1.111 12.541,-3.914 18.278,-6.954c2.153,-1.141 2.813,-5.098 4.153,-9.278Z" style="fill:#fff;fill-rule:nonzero;"/><path d="M44.274,248.981c-0.531,-23.314 13.336,-35.77 34.55,-36.349c8.87,-0.242 17.775,0.801 27.733,1.315c0,-5.285 0.684,-10.652 -0.162,-15.767c-1.241,-7.507 -6.265,-12.768 -13.97,-12.564c-10.477,0.278 -20.897,2.269 -31.375,3.12c-3.331,0.271 -9.332,-0.024 -9.699,-1.314c-1.396,-4.916 -2.379,-11.082 4.152,-13.718c5.041,-2.035 10.391,-3.979 15.738,-4.453c14.128,-1.252 28.691,-3.305 42.052,2.884c8.429,3.904 13.449,11.834 13.55,21.475c0.267,25.643 0.091,51.29 0.091,76.855c-13.425,3.543 -17.601,2.16 -19.053,-6.746c-11.038,8.552 -23.4,12.901 -37.058,11.37c-12.431,-1.393 -23.035,-7.85 -26.548,-26.108m30.628,8.893c24.718,1.875 32.319,-4.434 31.56,-26.225c-0.018,-0.514 -0.392,-1.015 -1.077,-2.687c-7.492,-0.378 -15.538,-1.472 -23.486,-0.982c-7.154,0.441 -13.979,3.713 -15.629,11.491c-1.488,7.014 -0.778,14.192 8.633,18.403Z" style="fill:#fff;fill-rule:nonzero;"/><path d="M281.187,200.426c-1.121,15.707 -10.038,25.758 -25.816,27.101c-13.579,1.156 -27.335,0.24 -41.19,0.24c-2.092,16.391 9.666,30.228 28.113,30.311c8.763,0.04 17.52,-2.24 26.314,-3.139c2.864,-0.293 5.835,0.459 8.757,0.733c-0.852,3.843 -0.446,9.591 -2.806,11.15c-5.775,3.815 -12.702,7.466 -19.396,7.943c-10.416,0.742 -21.3,0.013 -31.485,-2.297c-14.78,-3.353 -23.451,-14.619 -26.63,-28.725c-3.74,-16.594 -4.47,-33.439 2.582,-49.88c6.11,-14.245 21.437,-24.655 36.642,-25.65c11.174,-0.731 22.082,0.909 31.264,5.877c8.951,4.843 14.677,14.08 13.653,26.336m-22.137,5.571c3.573,-6.618 1.697,-13.634 -3.214,-17.177c-4.47,-3.225 -11.678,-4.122 -17.512,-3.704c-14.811,1.06 -21.013,11.22 -22.847,24.978c1.422,0.463 2.942,1.095 4.524,1.452c13.321,3.004 26.644,5.882 39.05,-5.549Z" style="fill:#fff;fill-rule:nonzero;"/><path d="M374.028,260.421c2.428,3.564 4.416,6.665 7.457,11.41c-8.497,0 -14.623,0.255 -20.704,-0.161c-1.743,-0.119 -3.822,-1.84 -4.948,-3.402c-7.575,-10.511 -14.934,-21.178 -22.875,-32.526c-6.164,9.276 -11.855,17.94 -17.649,26.533c-7.04,10.442 -13.205,12.298 -27.564,7.596c5.651,-8.649 10.976,-17.104 16.618,-25.342c4.526,-6.608 10.061,-12.612 13.86,-19.586c1.48,-2.716 0.616,-8.108 -1.217,-10.983c-7.408,-11.619 -15.73,-22.65 -23.402,-34.108c-1.33,-1.987 -2.106,-5.353 -1.329,-7.394c0.53,-1.393 4.158,-1.961 6.482,-2.252c8.279,-1.036 14.315,1.87 18.67,9.493c4.495,7.869 10.153,15.073 16.55,24.384c6.069,-8.801 12.007,-16.544 16.974,-24.867c4.672,-7.829 11.389,-9.78 19.621,-9.053c5.461,0.482 7.504,4.217 4.387,8.593c-9.613,13.493 -19.453,26.825 -29.156,40.152c9.273,13.7 18.529,27.375 28.225,41.513Z" style="fill:#fff;fill-rule:nonzero;"/><path d="M148.97,144.769c0,-3.097 -0,-5.356 0,-7.614c0.001,-12.721 3.864,-16.007 16.11,-12.395c2.055,0.606 4.029,5.467 4.052,8.377c0.275,35.573 0.126,71.149 0.256,106.724c0.014,3.812 0.282,8.031 1.944,11.291c1.193,2.34 4.834,3.531 7.518,4.984c2.362,1.278 6.888,2.003 7.026,3.329c0.507,4.88 2.374,10.688 -4.781,13.401c-16.067,6.092 -32.056,-4.323 -32.098,-21.379c-0.087,-35.293 -0.026,-70.586 -0.026,-106.717Z" style="fill:#fff;fill-rule:nonzero;"/><path d="M448.958,337.553c-5.142,9.795 -9.734,19.234 -15.552,27.845c-2.379,3.52 -7.411,5.247 -11.237,7.79c-0.868,-0.777 -1.735,-1.553 -2.603,-2.33c1.626,-4.77 3.296,-9.526 4.868,-14.314c3.083,-9.39 6.401,-18.717 9.063,-28.227c1.857,-6.635 -3.878,-12.355 -12.804,-12.281c-12.591,0.104 -25.174,1.017 -37.762,1.567c-1.395,0.061 -2.795,0.008 -7.202,0.008c4.07,-4.243 6.133,-7.71 9.18,-9.357c19.195,-10.374 39.733,-11.042 60.733,-7.519c6.899,1.157 8.131,7.284 7.901,11.928c-0.402,8.122 -2.906,16.14 -4.586,24.891Z" style="fill:#fff;fill-rule:nonzero;"/></svg>