<?xml version="1.0" encoding="UTF-8" standalone="no"?><!DOCTYPE svg PUBLIC "-//W3C//DTD SVG 1.1//EN" "http://www.w3.org/Graphics/SVG/1.1/DTD/svg11.dtd"><svg width="100%" height="100%" viewBox="0 0 512 512" version="1.1" xmlns="http://www.w3.org/2000/svg" xmlns:xlink="http://www.w3.org/1999/xlink" xml:space="preserve" xmlns:serif="http://www.serif.com/" style="fill-rule:evenodd;clip-rule:evenodd;stroke-linejoin:round;stroke-miterlimit:2;"><path d="M389.252,169.284c-5.725,-0.397 -17.555,-0.604 -31.574,3.788c-28.533,8.938 -43.135,30.008 -44.123,31.25c-1.895,2.381 -2.544,1.865 -5.057,0.159c-0.581,-0.395 -4.378,-2.972 -7.2,-5.032c-2.763,-2.017 -5.413,-2.76 -3.327,-5.509c4.036,-5.321 16.799,-22.747 43.256,-34.483c36.834,-16.34 82.106,-10.28 113.151,17.61c0.614,0.551 18.628,15.577 28.365,40.788c0.726,1.879 4.996,12.935 6.307,24.37c1.58,13.786 1.298,21.7 -0.699,33.674c-5.472,32.816 -30.41,71.107 -76.789,84.25c-6.704,1.9 -20.747,4.346 -32.552,3.716c-47.578,-2.537 -71.451,-30.755 -80.863,-42.903c-2.201,-2.841 -0.819,-3.331 2.156,-5.361c8.84,-6.031 8.738,-6.152 9.511,-6.669c0.185,-0.124 1.581,-1.057 2.768,-0.289c0.143,0.093 1.295,1.572 1.404,1.712c24.92,31.994 60.284,38.319 85.37,33.545c39.72,-7.56 61.638,-38.13 68.194,-64.002c14.111,-55.691 -25.249,-107.532 -78.298,-110.612Z" style="fill:#fff;"/><path d="M240.132,306.154c-5.632,-0.035 -5.612,-0.093 -11.247,-0.191c-10.469,-0.182 -11.821,0.254 -11.975,-2.517c-0.008,-0.146 -0.01,-92.612 0.001,-92.898c0.009,-0.225 0.077,-1.888 1.743,-2.207c1.075,-0.206 13.19,-0.375 14.338,-0.391c15.713,-0.219 27.882,-0.65 38.72,3.793c11.938,4.894 16.217,11.889 18.74,15.982c5.502,8.928 6.684,22.305 6.631,28.759c-0.1,12.264 -2.852,19.949 -3.442,21.596c-10.661,29.773 -42.739,28.1 -53.51,28.074Zm6.126,-81.741c-8.268,0.052 -9.864,-0.3 -10.045,2.467c-0.004,0.068 -0.036,59.753 0.018,60.223c0.272,2.378 2.001,2.352 10.024,2.432c15.398,0.153 31.571,-4.107 30.265,-36.095c-0.458,-11.23 -4.652,-22.356 -14.946,-26.564c-6.714,-2.745 -11.563,-2.411 -15.316,-2.463Z" style="fill:#fff;"/><path d="M387.091,300.126c-26.383,9.403 -26.375,9.411 -26.459,9.413c-1.462,0.036 -1.595,-1.807 -1.61,-2.013c-0.189,-2.606 0.023,-2.594 0.023,-32.66c0,-24.078 -0.007,-24.07 0.06,-26.551c0.018,-0.659 0.137,-1.329 0.021,-1.978c-0.34,-1.917 -2.384,-1.243 -2.6,-1.172c-4.258,1.403 -17.88,6.514 -19.43,7.096c-5.552,2.083 -5.559,2.125 -6.069,2.075c-1.199,-0.119 -1.253,-1.731 -1.259,-1.914c-0.112,-3.309 0.011,-15.055 0.025,-16.364c0.034,-3.275 1.178,-3.249 5.429,-4.775c5.715,-2.052 67.594,-24.274 71.427,-25.694c9.313,-3.45 9.354,-3.522 10.186,-3.316c1.008,0.249 0.817,0.694 0.817,12.343c0,73.043 0.016,73.056 -0.129,73.45c-0.635,1.717 -1.866,1.766 -7.928,3.995c-5.649,2.077 -20.7,7.426 -22.502,8.066Z" style="fill:#fff;"/><path d="M142.094,305.91c-3.152,-0 -11.14,0 -11.251,-0.001c-1.768,-0.026 -2.144,0.181 -2.747,-1.489c-0.267,-0.739 -0.078,-85.438 -0.061,-92.868c0.001,-0.407 -0.341,-2.82 1.775,-3.215c0.494,-0.092 18.989,-0.421 19.439,-0.426c16.343,-0.149 34.037,-1.409 43.693,11.959c7.021,9.72 8.275,31.841 -7.856,41.875c-4.867,3.028 -6.095,2.61 -6.21,3.932c-0.143,1.642 0.412,1.479 1.332,2.844c2.007,2.977 12.989,20.782 14.107,22.596c1.792,2.906 8.287,13.258 8.296,13.319c0.248,1.75 -0.514,1.62 -2.275,1.5c-2.559,-0.174 -17.958,0.271 -19.49,-0.304c-1.043,-0.391 -1.011,-0.535 -7.625,-11.653c-9.236,-15.525 -9.116,-15.583 -9.935,-16.923c-4.088,-6.681 -4.157,-8.233 -6.884,-8.468c-0.393,-0.034 -6.804,-0.043 -7.18,0.011c-0.172,0.025 -1.44,0.205 -1.79,1.239c-0.364,1.077 -0.083,30.532 -0.172,33.623c-0.089,3.092 -2.464,2.437 -5.165,2.447Zm9.181,-81.528c-2.378,0.071 -3.883,-0.295 -4.009,2.489c-0.004,0.096 -0.019,23.186 0.009,23.479c0.265,2.709 3.406,2.124 5.03,2.125c10.046,0.004 22.123,1.17 24.704,-10.244c0.648,-2.868 2.503,-17.21 -13.438,-17.849c-7.742,-0.31 -11.717,-0.019 -12.296,0Z" style="fill:#fff;"/><path d="M36.908,305.91c-10.009,0 -10.509,0.141 -10.981,-0.591c-0.482,-0.749 -0.099,-1.308 2.548,-9.096c1.888,-5.553 22.348,-65.741 23.648,-69.39c6.156,-17.27 5.712,-17.852 7.257,-18.328c0.578,-0.178 0.59,-0.203 19.397,-0.194c3.389,0.002 3.863,0.075 5.035,3.263c0.026,0.072 14.669,43.12 15.31,44.936c0.193,0.547 14.421,42.405 15.32,44.933c0.725,2.037 2.019,4.352 -0.891,4.477c-4.711,0.202 -15.094,0.009 -16.407,-0.015c-3.011,-0.056 -2.92,-0.898 -4.759,-6.636c-3.931,-12.264 -3.609,-13.291 -6.44,-13.482c-0.289,-0.02 -32.056,-0.027 -32.724,0.007c-2.725,0.139 -2.569,1.434 -5.425,10.409c-2.912,9.15 -3.124,9.153 -3.686,9.405c-0.858,0.385 -3.08,0.302 -7.204,0.302Zm33.7,-36.403l8.169,0.001c0.229,0.001 2.515,0.007 2.857,-0.166c1,-0.507 0.397,-2.475 0.333,-2.682c-3.388,-11.044 -9.825,-29.173 -11.222,-36.792c-0.233,-1.27 0.121,-1.801 -1.169,-1.864c-1.34,-0.065 -1.079,0.488 -1.273,1.81c-1.108,7.543 -11.395,36.543 -11.413,37.885c-0.033,2.455 1.068,1.815 3.507,1.81l10.211,-0.002Z" style="fill:#fff;"/></svg>