<?xml version="1.0" encoding="UTF-8" standalone="no"?><!DOCTYPE svg PUBLIC "-//W3C//DTD SVG 1.1//EN" "http://www.w3.org/Graphics/SVG/1.1/DTD/svg11.dtd"><svg width="100%" height="100%" viewBox="0 0 1238 1238" version="1.1" xmlns="http://www.w3.org/2000/svg" xmlns:xlink="http://www.w3.org/1999/xlink" xml:space="preserve" xmlns:serif="http://www.serif.com/" style="fill-rule:evenodd;clip-rule:evenodd;stroke-linejoin:round;stroke-miterlimit:2;"><g><path d="M1087.475,598.6c-5.861,-4.843 -14.98,-12.11 -27.344,-20.587l0,-95.91c0,-244.534 -198.226,-442.772 -442.76,-442.772c-244.534,0 -442.772,198.238 -442.772,442.772l0,95.91c-12.364,8.477 -21.482,15.743 -27.344,20.587c-5,4.168 -7.9,10.347 -7.907,16.857l0,114.91c-0.021,6.543 2.881,12.765 7.907,16.954c13.672,11.383 45.037,35.239 93.876,59.714l0,11.165c0,30.129 19.376,54.494 43.401,54.494c23.966,0 43.401,-24.413 43.401,-54.494l0,-275.608c0,-30.118 -19.436,-54.494 -43.401,-54.494c-23.008,0 -41.755,22.415 -43.293,50.789l-0.109,0l0,-56.795c0,-207.793 168.448,-376.241 376.241,-376.241c207.781,-0 376.229,168.448 376.229,376.241l0,56.795l-0.096,0c-1.538,-28.374 -20.332,-50.789 -43.305,-50.789c-23.966,0 -43.389,24.425 -43.389,54.494l0,275.584c0,30.129 19.376,54.494 43.389,54.494c23.978,0 43.401,-24.413 43.401,-54.494l0,-11.165c48.839,-24.474 80.215,-48.33 93.876,-59.714c5.026,-4.189 7.928,-10.41 7.907,-16.954l0,-114.886c-0.009,-6.509 -2.907,-12.689 -7.907,-16.857l-0.001,0Z" style="fill:#fff;fill-rule:nonzero;"/><path d="M462.97,1077.701c28.763,-0.006 52.428,-23.672 52.436,-52.436l0,-587.049c-0.006,-28.76 -23.674,-52.423 -52.436,-52.423l-54.155,0c-28.76,0 -52.428,23.663 -52.436,52.423l0,587.049c0.006,28.763 23.672,52.428 52.436,52.436l54.155,0Zm-86.815,-551.12l119.488,0l0,12.485l-119.488,0l0,-12.485Z" style="fill:#fff;fill-rule:nonzero;"/><path d="M644.449,1077.701c28.752,-0.019 52.399,-23.684 52.399,-52.436l0,-587.049c0,-28.758 -23.665,-52.423 -52.423,-52.423l-54.143,0c-28.758,0 -52.423,23.665 -52.423,52.423l0,587.049c0,28.76 23.663,52.428 52.423,52.436l54.168,0l-0.001,0Zm-86.864,-551.12l119.524,0l0,12.485l-119.524,0l0,-12.485Z" style="fill:#fff;fill-rule:nonzero;"/><path d="M825.926,1077.701c28.76,-0.006 52.423,-23.674 52.423,-52.436l0,-587.049c0,-28.758 -23.665,-52.423 -52.423,-52.423l-54.168,0c-28.76,0 -52.428,23.663 -52.436,52.423l0,587.049c0.006,28.763 23.672,52.428 52.436,52.436l54.168,0Zm-86.827,-551.12l119.488,0l0,12.485l-119.488,0l0,-12.485Z" style="fill:#fff;fill-rule:nonzero;"/><path d="M1008.361,1131.177l0,8.347c0,19.501 -15.833,35.335 -35.335,35.335l-711.312,0c-19.501,0 -35.335,-15.833 -35.335,-35.335l0,-8.347c0,-19.501 15.833,-35.335 35.335,-35.335l711.312,0c19.501,0 35.335,15.833 35.335,35.335Z" style="fill:#fff;"/></g></svg>