<?xml version="1.0" encoding="UTF-8" standalone="no"?><!DOCTYPE svg PUBLIC "-//W3C//DTD SVG 1.1//EN" "http://www.w3.org/Graphics/SVG/1.1/DTD/svg11.dtd"><svg width="100%" height="100%" viewBox="0 0 512 512" version="1.1" xmlns="http://www.w3.org/2000/svg" xmlns:xlink="http://www.w3.org/1999/xlink" xml:space="preserve" xmlns:serif="http://www.serif.com/" style="fill-rule:evenodd;clip-rule:evenodd;stroke-linejoin:round;stroke-miterlimit:2;"><path d="M24.161,150.432c-0.003,-0.648 -0.01,-1.295 -0.012,-1.943c0,-6.997 0.001,-13.993 0.001,-20.99c-0,-7.084 -0.119,-7.113 0.678,-9.896c0.409,-1.428 0.254,-2.025 0.609,-3.128c1.839,-5.716 2.471,-6.633 2.819,-7.138c0.612,-0.888 1.588,-3.606 1.608,-3.644c0.079,-0.151 0.306,-0.18 0.395,-0.326c0.153,-0.252 0.193,-0.557 0.305,-0.829c0.357,-0.868 0.541,-0.719 0.891,-1.082c0.168,-0.175 0.218,-0.443 0.389,-0.615c0.17,-0.171 0.438,-0.219 0.609,-0.389c0.17,-0.17 0.219,-0.438 0.391,-0.607c0.543,-0.532 0.718,-0.241 1.294,-0.732c0.175,-0.15 0.223,-0.415 0.399,-0.565c0.627,-0.537 1.049,-0.181 4.221,-3.85c2.009,-2.325 3.15,-2.461 3.406,-2.66c0.162,-0.126 0.197,-0.378 0.365,-0.495c0.243,-0.169 0.57,-0.181 0.825,-0.333c0.139,-0.083 0.191,-0.273 0.331,-0.355c0.787,-0.465 0.892,-0.189 1.685,-0.632c0.138,-0.077 0.177,-0.277 0.315,-0.354c1.236,-0.689 1.396,-0.127 2.712,-0.667c0.128,-0.053 0.137,-0.26 0.26,-0.324c0.613,-0.318 3.804,-0.816 4.865,-0.906c3.041,-0.258 2.939,-0.987 5.981,-0.921c0.105,0.002 395.474,-0.006 396.012,0.005c2.571,0.052 2.432,0.855 5.013,0.987c0.391,0.02 3.545,0.181 4.819,0.843c0.124,0.064 0.131,0.274 0.26,0.327c1.318,0.545 1.476,-0.027 2.712,0.663c0.139,0.077 0.176,0.28 0.314,0.357c0.799,0.45 0.904,0.166 1.686,0.629c0.14,0.083 0.19,0.275 0.329,0.359c0.254,0.152 0.553,0.212 0.824,0.332c0.846,0.375 0.713,0.537 1.102,0.857c0.215,0.177 0.503,0.247 0.727,0.413c0.871,0.643 1.803,1.715 1.944,1.878c3.646,4.194 4.177,3.572 4.909,4.198c0.174,0.148 0.214,0.413 0.379,0.57c0.177,0.167 0.45,0.21 0.624,0.38c0.172,0.168 0.217,0.44 0.388,0.609c0.171,0.17 0.442,0.215 0.612,0.386c0.559,0.563 0.237,0.749 0.737,1.356c0.135,0.164 0.414,0.17 0.539,0.343c0.172,0.239 0.151,0.578 0.304,0.829c0.089,0.146 0.319,0.172 0.399,0.324c0.28,0.533 0.432,1.124 0.657,1.682c0.849,2.102 1.277,1.891 2.021,4.024c2.433,6.968 2.081,7.059 2.082,7.065c0.113,0.681 0.781,2.662 0.84,2.982c0.022,0.122 0.125,0.123 0.125,267.05c0,6.171 0.123,6.198 -0.671,8.897c-0.416,1.413 -0.264,2.072 -0.605,3.134c-1.843,5.732 -2.473,6.639 -2.823,7.144c-0.601,0.867 -1.539,3.496 -1.611,3.636c-0.077,0.149 -0.29,0.192 -0.376,0.336c-0.15,0.253 -0.198,0.555 -0.314,0.826c-0.393,0.917 -0.57,0.76 -0.888,1.091c-0.167,0.174 -0.235,0.43 -0.405,0.602c-0.168,0.17 -0.422,0.237 -0.591,0.406c-0.169,0.169 -0.238,0.423 -0.408,0.592c-0.17,0.169 -0.426,0.235 -0.596,0.405c-0.17,0.168 -0.235,0.424 -0.406,0.591c-0.546,0.532 -0.7,0.282 -1.268,0.765c-0.174,0.148 -0.239,0.401 -0.415,0.548c-0.881,0.737 -1.152,0.426 -3.217,2.844c-3.926,4.597 -11.111,6.104 -11.669,6.432c-0.137,0.08 -0.102,0.37 -0.258,0.4c-0.229,0.044 -0.442,-0.295 -0.664,-0.222c-0.172,0.057 -0.04,0.416 -0.197,0.506c-0.281,0.162 -0.636,0.139 -0.959,0.161c-5.543,0.385 -5.537,0.448 -6.02,0.437c-6.479,-0.152 -151.842,-0.125 -151.991,-0.119c-1.525,0.059 -1.475,0.24 -2.942,0.698c0.024,-0.377 0.204,-0.733 0.227,-1.11c0.021,-0.332 -0.072,-0.661 -0.096,-0.993c-0.132,-1.843 0.111,-12.325 -0.525,-16.97c-1.094,-7.991 0.015,-8.09 -0.935,-12.989c-0.821,-4.231 -2.374,-18.012 -2.597,-19.073c-2.188,-10.399 -6.547,-37.771 -23.582,-72.765c-17.119,-35.167 -38.459,-58.299 -43.18,-63.541c-16.306,-18.107 -32.795,-30.342 -36.642,-33.318c-8.812,-6.818 -24.619,-16.964 -28.01,-18.896c-16.642,-9.479 -32.806,-16.188 -35.744,-17.407c-23.503,-9.755 -50.524,-15.051 -57.001,-15.871c-3.012,-0.381 -2.957,-0.607 -6.005,-0.884c-4.009,-0.364 -3.957,-0.733 -7.992,-0.929c-5.64,-0.274 -5.596,-0.769 -12.994,-0.958c-7.068,-0.181 -9.348,-1.417 -19.036,-0.821c-1.158,0.071 -1.129,0.171 -2.293,0.348Z" style="fill:#fff;fill-opacity:1;"/><path d="M24.218,216.573c4.074,-0.888 4.096,-0.501 8.282,-0.498c7.009,0.005 6.977,0.431 13.968,0.829c0.563,0.032 0.554,0.041 6.972,1.001c1.087,0.163 15.136,2.765 23.944,5.037c20.77,5.357 37.156,13.782 40.218,15.357c11.097,5.706 11.466,6.023 20.965,12.098c2.592,1.658 15.345,9.813 30.203,23.815c9.608,9.055 34.59,34.173 51.541,76.364c4.633,11.532 10.487,34.245 11.405,40.894c1.173,8.499 2.631,12.092 2.506,32.031c-0.007,1.071 -0.1,1.999 -0.1,1.999c0.042,0.387 0.265,0.739 0.307,1.126c-1.29,-0.412 -1.255,-0.66 -3.93,-0.661c-6.002,-0.001 -5.979,0.044 -12.003,0.059c-10.813,0.027 -10.868,-0.179 -13.89,0.843c0.331,-1.307 0.605,-1.262 0.548,-3.364c-0.043,-1.59 0.169,-17.674 -0.462,-22.027c-1.475,-10.163 -2.908,-22.697 -12.886,-48.091c-19.606,-49.901 -59.702,-75.59 -66.273,-78.947c-3.592,-1.835 -3.65,-2.095 -7.836,-4.333c-4.902,-2.62 -12.066,-6.226 -13.12,-6.757c-0.912,-0.459 -7.213,-3.364 -8.136,-3.667c-2.564,-0.839 -4.091,-2.036 -5.843,-2.547c-4.531,-1.322 -4.354,-1.79 -8.056,-2.807c-5.613,-1.541 -5.552,-1.713 -6.041,-1.843c-2.473,-0.656 -2.476,-0.59 -4.961,-1.166c-1.767,-0.409 -2.833,-1.202 -6.065,-1.651c-2.094,-0.291 -2.487,-0.779 -4.012,-0.929c-4.129,-0.405 -4.047,-0.735 -8.059,-1.825c-0.787,-0.214 -20.087,-2.507 -24.899,-2.659c-3.116,-0.098 -3.095,-0.26 -3.364,-0.238c-0.344,0.029 -0.611,0.371 -0.955,0.4c-0.115,-19.148 -0.008,-25.617 0.028,-27.845Z" style="fill:#fff;fill-opacity:1;"/><path d="M24.191,310.577c0.333,0.025 0.578,0.392 0.911,0.417c0.026,0.002 0.834,-0.422 5.368,-0.058c5.529,0.445 31.865,1.045 60.282,21.205c22.678,16.088 39.543,40.523 45.658,66.382c2.459,10.396 2.499,10.941 3.344,21.955c0.019,0.241 0.136,1.772 0.109,3.025c-0.041,1.904 0.163,1.871 0.529,3.362c-2.357,-0.795 -2.686,-0.841 -2.929,-0.875c-1.511,-0.211 -21.13,0.022 -22.967,0.044c-2.257,0.027 -2.451,0.439 -2.932,0.578c0.057,-1.058 0.195,-1.037 0.113,-2.106c-0.391,-5.052 0.333,-5.113 -1.956,-18.044c-1.258,-7.106 -6.228,-20.074 -9.57,-25.76c-0.527,-0.896 -5.697,-10.564 -14.808,-19.031c-3.481,-3.235 -9.389,-7.666 -11.127,-8.728c-15.656,-9.563 -26.215,-12.485 -39.732,-13.087c-3.497,-0.156 -3.463,-0.386 -6.935,-0.74c-1.017,-0.104 -0.977,-0.228 -1.959,-0.476c-0.46,-0.116 -0.947,-0.093 -1.407,-0.209c-0.101,-12.215 -0.007,-25.624 0.008,-27.852Z" style="fill:#fff;fill-opacity:1;"/></svg>