<?xml version="1.0" encoding="UTF-8" standalone="no"?><!DOCTYPE svg PUBLIC "-//W3C//DTD SVG 1.1//EN" "http://www.w3.org/Graphics/SVG/1.1/DTD/svg11.dtd"><svg width="100%" height="100%" viewBox="0 0 128 128" version="1.1" xmlns="http://www.w3.org/2000/svg" xmlns:xlink="http://www.w3.org/1999/xlink" xml:space="preserve" xmlns:serif="http://www.serif.com/" style="fill-rule:evenodd;clip-rule:evenodd;stroke-linejoin:round;stroke-miterlimit:2;"><g id="network"></g><g id="text92"><text x="16.401px" y="88.741px" style="font-family:'Arial-Black', 'Arial', sans-serif;font-weight:900;font-size:41.501px;fill:#fff;">SMB</text><path d="M40,102.92l0,7.279c0,0 0.039,0.393 -0.221,0.801l7.221,0c0.55,0 1,0.45 1,1l0,2l42,0l0,5l-42,0l0,2c0,0.55 -0.45,1 -1,1l-19,0c-0.55,0 -1,-0.45 -1,-1l0,-2l-17,0l0,-5l17,0l0,-2c0,-0.55 0.45,-1 1,-1l7.189,0c-0.243,-0.408 -0.189,-0.801 -0.189,-0.801l0,-7.199l-22.054,-0c-3.83,0 -6.946,-3.109 -6.946,-6.931l0,-73.038c0,-3.822 3.116,-6.931 6.946,-6.931l36.701,-0c3.874,0 7.132,2.526 9.246,4.425l1.035,0.928c2.471,2.221 6.008,3.713 8.801,3.713l37.325,0c3.83,0 6.945,3.109 6.945,6.931l-0,6.002l2.054,0.001c3.831,0 6.947,3.098 6.947,6.905l0,50.891c0,3.746 -3.024,6.866 -6.947,7.104l-75.053,-0.08Zm75.053,-63.82l-39.711,-0c-3.271,0 -6.151,1.779 -8.58,3.952l-1.033,0.924c-2.43,2.172 -6.202,4.251 -9.474,4.251l-37.308,0c-3.271,0 -5.947,2.657 -5.947,5.905l0,41.764c0,1.982 -0.51,3.63 -1.433,4.414c-0.348,0.249 -0.827,0.459 -1.332,0.492c-0.371,0.025 -0.757,-0.046 -1.114,-0.267c-0.042,-0.026 -0.084,-0.054 -0.125,-0.084l0.086,0.066c0.393,0.301 1.243,0.901 2.175,1.238c0.409,0.148 0.834,0.246 1.244,0.246l0.446,-0l22.054,-0l71.055,0l3.589,-0l2.356,-0l3.053,-0c3.271,-0.2 5.947,-2.857 5.947,-6.104l0,-50.891c0,-3.248 -2.676,-5.905 -5.947,-5.905Zm-67.053,-15.1l0,-2c0,-1.1 -0.9,-2 -2,-2l-31,0c-1.1,0 -2,0.9 -2,2l0,2c0,1.1 0.9,2 2,2l31,0c1.1,0 2,-0.9 2,-2Z" style="fill:#fff;"/></g></svg>