<?xml version="1.0" encoding="UTF-8" standalone="no"?><!DOCTYPE svg PUBLIC "-//W3C//DTD SVG 1.1//EN" "http://www.w3.org/Graphics/SVG/1.1/DTD/svg11.dtd"><svg width="100%" height="100%" viewBox="0 0 512 512" version="1.1" xmlns="http://www.w3.org/2000/svg" xmlns:xlink="http://www.w3.org/1999/xlink" xml:space="preserve" xmlns:serif="http://www.serif.com/" style="fill-rule:evenodd;clip-rule:evenodd;stroke-linejoin:round;stroke-miterlimit:2;"><g id="Layer-1" serif:id="Layer 1"><path id="path1" d="M161.065,468.662c-2.093,-1.036 -4.693,-3.405 -6.074,-5.535c-1.503,-2.318 -2.763,-6.014 -3.339,-9.792c-0.509,-3.338 -1.239,-15.079 -1.622,-26.091c-0.384,-11.013 -0.716,-23.095 -0.738,-26.849c-0.022,-3.754 0.53,-13.546 1.227,-21.759c1.028,-12.122 1.057,-16.579 0.152,-23.68c-1.012,-7.944 -0.928,-9.916 0.916,-21.473c1.302,-8.158 2.147,-18.116 2.355,-27.743c0.178,-8.259 0.347,-16.411 0.375,-18.115c0.028,-1.704 -0.545,-3.693 -1.272,-4.421c-1.158,-1.158 -2.338,-0.969 -9.427,1.505c-4.457,1.556 -8.978,2.828 -10.047,2.828c-1.142,0 -2.181,-0.749 -2.52,-1.817c-0.407,-1.284 1.195,-4.757 5.461,-11.838c5.334,-8.853 6.866,-10.651 13.139,-15.426c5.111,-3.89 7.491,-6.381 8.493,-8.886c0.766,-1.914 2.022,-7.568 2.79,-12.564c0.769,-4.996 1.873,-15.022 2.455,-22.28c0.581,-7.258 1.664,-16.473 2.407,-20.478c0.742,-4.005 2.131,-9.608 3.086,-12.451c1.427,-4.252 1.578,-6.001 0.849,-9.845c-0.579,-3.051 -0.574,-6.881 0.014,-11.027c0.495,-3.494 1.516,-9.882 2.269,-14.196c0.752,-4.315 1.799,-9.517 2.326,-11.562c0.527,-2.045 1.962,-6.38 3.188,-9.633c1.227,-3.254 3.967,-9.086 6.09,-12.96c2.123,-3.874 6.502,-10.781 9.731,-15.348c3.229,-4.567 9.32,-12.251 13.535,-17.074c4.215,-4.824 10.173,-10.909 13.241,-13.522c3.068,-2.614 9.879,-6.975 15.135,-9.691c5.256,-2.717 13.447,-6.273 18.203,-7.903c6.865,-2.353 10.24,-2.988 16.382,-3.082c4.255,-0.065 9.276,-0.7 11.157,-1.411c3.054,-1.153 3.937,-1.117 8.225,0.341c4.609,1.567 5.023,1.567 10.231,0.016c3.977,-1.185 8.224,-1.585 15.894,-1.498c7.809,0.089 12.029,0.604 16.619,2.03c4.178,1.298 7.158,2.916 9.285,5.044c1.881,1.881 3.382,4.46 3.756,6.455c0.343,1.827 0.391,7.465 0.106,12.528c-0.284,5.063 -1.359,13.096 -2.389,17.852c-1.03,4.755 -2.546,10.489 -3.37,12.742c-0.823,2.253 -2.36,5.046 -3.415,6.208c-1.209,1.331 -2.594,1.953 -3.746,1.683c-1.006,-0.236 -7.972,-2.977 -15.481,-6.091c-13.652,-5.661 -13.652,-5.661 -19.568,-3.689c-5.079,1.693 -6.598,1.84 -10.738,1.036c-3.322,-0.645 -7.003,-0.64 -11.832,0.016c-3.855,0.524 -9.467,1.545 -12.471,2.268c-3.003,0.724 -7.557,1.993 -10.12,2.821c-2.562,0.828 -6.186,2.564 -8.053,3.86c-1.867,1.295 -3.956,3.379 -4.644,4.63c-0.688,1.251 -3.911,7.804 -7.163,14.562c-4.38,9.1 -6.748,15.548 -9.133,24.863c-1.771,6.917 -5.886,24.186 -9.144,38.376c-3.258,14.19 -6.532,27.255 -7.275,29.033c-0.743,1.778 -1.351,4.793 -1.351,6.7c0,1.907 0.638,4.378 1.417,5.49c0.779,1.113 2.164,2.023 3.078,2.023c0.914,0 7.136,-1.828 13.828,-4.062c6.692,-2.234 15.239,-4.541 18.993,-5.126c3.754,-0.585 12.969,-2.443 20.478,-4.129c10.03,-2.252 15.843,-3.065 21.912,-3.065c4.543,0 12.882,-0.832 18.532,-1.85c8.82,-1.588 11.32,-1.712 17.679,-0.875c4.749,0.625 9.423,1.95 13.025,3.692c4.673,2.26 5.946,3.394 7.565,6.739c1.869,3.861 1.911,4.599 1.05,18.433c-0.896,14.411 -0.896,14.411 -4.513,20.757c-3.454,6.061 -3.753,6.333 -6.668,6.056c-1.679,-0.159 -7.762,-1.265 -13.519,-2.457c-5.757,-1.192 -13.834,-2.886 -17.949,-3.766c-6.328,-1.352 -8.294,-1.432 -12.742,-0.517c-2.893,0.595 -11.403,1.525 -18.911,2.067c-7.509,0.542 -16.314,1.385 -19.568,1.872c-3.254,0.488 -8.351,1.139 -11.328,1.449c-3.278,0.34 -7.352,1.583 -10.331,3.15c-4.374,2.301 -5.85,2.588 -13.315,2.588c-7.545,0 -8.585,0.208 -10.268,2.048c-1.03,1.126 -2.483,3.276 -3.23,4.778c-0.747,1.502 -1.985,4.983 -2.751,7.736c-0.766,2.753 -2.297,9.248 -3.401,14.433c-1.617,7.594 -1.836,10.294 -1.126,13.885c0.715,3.614 0.377,7.603 -1.784,21.063c-1.656,10.317 -2.482,18.266 -2.181,20.993c0.267,2.414 -0.31,10.195 -1.282,17.292c-0.972,7.097 -2.207,17.409 -2.746,22.915c-0.539,5.506 -1.322,20.527 -1.741,33.379c-0.735,22.552 -0.846,23.552 -3.177,28.645c-1.329,2.902 -3.074,6.005 -3.88,6.894c-1.07,1.183 -2.832,1.617 -6.556,1.617c-3.25,-0 -6.416,-0.656 -8.752,-1.812l-0,0Z" style="fill:#fff;fill-rule:nonzero;"/></g></svg>