<?xml version="1.0" encoding="UTF-8" standalone="no"?><!DOCTYPE svg PUBLIC "-//W3C//DTD SVG 1.1//EN" "http://www.w3.org/Graphics/SVG/1.1/DTD/svg11.dtd"><svg width="100%" height="100%" viewBox="0 0 40 40" version="1.1" xmlns="http://www.w3.org/2000/svg" xmlns:xlink="http://www.w3.org/1999/xlink" xml:space="preserve" xmlns:serif="http://www.serif.com/" style="fill-rule:evenodd;clip-rule:evenodd;stroke-linejoin:round;stroke-miterlimit:2;"><g id="surface1"><path d="M16.03,7.556c13.472,0 13.472,0 15.647,1.917c0.062,0.046 0.125,0.096 0.187,0.141c0.786,0.682 1.443,1.967 1.605,2.994c0.121,1.709 -0.025,3.293 -1.048,4.74c-0.486,0.553 -1.015,1.035 -1.597,1.489c0.096,0.042 0.187,0.083 0.287,0.129c1.497,0.686 2.657,1.672 3.26,3.239c0.645,1.809 0.37,4.013 -0.432,5.73c-0.965,1.751 -2.516,2.915 -4.391,3.572c-4.171,1.168 -10.304,0.424 -13.518,0.424l0,-24.375Zm6.387,5.426l0,3.834l1.451,0.008l0.815,0c0.362,0.004 0.703,-0.008 1.06,-0.058c0.686,-0.133 1.035,-0.391 1.435,-0.961c0.241,-0.669 0.254,-1.356 -0.012,-2.017c-0.765,-0.748 -1.568,-0.865 -2.603,-0.852l-0.511,0.012l-1.634,0.033Zm0,9.048l0,4.366c0.665,0.008 1.31,0.012 1.954,0.021c1.06,0.012 2.166,0.125 3.156,-0.341c0.59,-0.374 0.877,-0.823 1.064,-1.489c0.083,-0.728 0.025,-1.281 -0.42,-1.871c-0.919,-0.732 -1.934,-0.736 -3.06,-0.724l-0.64,0.012l-2.054,0.025Z" style="fill:#fff;"/><rect x="6.769" y="18.304" width="5.534" height="13.626" style="fill:#fff;fill-rule:nonzero;"/><path d="M11.106,9.963c0.844,0.52 1.314,1.247 1.622,2.171c0.137,1.094 -0.15,1.909 -0.811,2.786c-0.607,0.661 -1.256,0.948 -2.15,0.994c-0.823,0.017 -1.459,-0.121 -2.15,-0.586c-0.096,-0.067 -0.195,-0.129 -0.299,-0.195c-0.653,-0.653 -1.002,-1.447 -1.031,-2.374c0.017,-0.865 0.316,-1.551 0.865,-2.216c1.044,-0.99 2.661,-1.181 3.954,-0.578Z" style="fill:#fff;fill-rule:nonzero;"/></g></svg>