<?xml version="1.0" encoding="UTF-8" standalone="no"?><!DOCTYPE svg PUBLIC "-//W3C//DTD SVG 1.1//EN" "http://www.w3.org/Graphics/SVG/1.1/DTD/svg11.dtd"><svg width="100%" height="100%" viewBox="0 0 512 512" version="1.1" xmlns="http://www.w3.org/2000/svg" xmlns:xlink="http://www.w3.org/1999/xlink" xml:space="preserve" xmlns:serif="http://www.serif.com/" style="fill-rule:evenodd;clip-rule:evenodd;stroke-linejoin:round;stroke-miterlimit:2;"><g id="icon-solid"><path id="inner-shape" d="M256,201.62c-20.44,0 -86.23,119.29 -76.2,139.43c10.03,20.14 142.48,19.92 152.4,0c9.92,-19.92 -55.73,-139.42 -76.2,-139.43Z" style="fill:#fff;fill-rule:nonzero;"/><path id="outer-shape" d="M256,23.3c-61.56,0 -259.82,359.43 -229.59,420.13c30.23,60.7 429.34,60 459.24,0c29.9,-60 -168.03,-420.13 -229.65,-420.13Zm150.51,367.46c-19.59,39.33 -281.08,39.77 -300.89,0c-19.81,-39.77 110.09,-275.28 150.44,-275.28c40.35,-0 170.04,235.94 150.45,275.28Z" style="fill:#fff;fill-rule:nonzero;"/></g></svg>