<?xml version="1.0" encoding="UTF-8" standalone="no"?><!DOCTYPE svg PUBLIC "-//W3C//DTD SVG 1.1//EN" "http://www.w3.org/Graphics/SVG/1.1/DTD/svg11.dtd"><svg width="100%" height="100%" viewBox="0 0 804 447" version="1.1" xmlns="http://www.w3.org/2000/svg" xmlns:xlink="http://www.w3.org/1999/xlink" xml:space="preserve" xmlns:serif="http://www.serif.com/" style="fill-rule:evenodd;clip-rule:evenodd;stroke-linejoin:round;stroke-miterlimit:2;"><path id="path1" d="M359.23,380.241l-26.512,-72.064c0,0 -43.08,48.047 -107.683,48.047c-57.167,0 -97.749,-49.703 -97.749,-129.227c0,-101.888 51.353,-138.336 101.888,-138.336c72.891,0 96.083,47.215 115.968,107.689l26.512,82.84c26.502,80.343 76.205,144.958 219.51,144.958c102.725,0 172.304,-31.474 172.304,-114.312c0,-67.097 -38.111,-101.888 -109.352,-118.459l-53.013,-11.593c-36.444,-8.283 -47.212,-23.199 -47.212,-48.047c0,-28.165 22.36,-44.733 58.814,-44.733c39.757,0 61.292,14.912 64.609,50.531l82.837,-9.943c-6.626,-74.551 -57.982,-105.2 -142.476,-105.2c-74.548,0 -147.447,28.165 -147.447,118.457c0,56.329 27.337,91.951 96.084,108.517l56.336,13.249c42.246,9.943 56.322,27.337 56.322,51.367c0,30.643 -29.818,43.07 -86.147,43.07c-83.662,0 -118.45,-43.902 -138.336,-104.378l-27.336,-82.831c-34.785,-107.689 -90.289,-147.45 -200.465,-147.45c-121.767,0 -186.379,77.036 -186.379,207.917c0,125.914 64.612,193.836 180.59,193.836c93.592,-0.004 138.332,-43.906 138.332,-43.906Z" style="fill:#fff;fill-rule:nonzero;"/></svg>