<?xml version="1.0" encoding="UTF-8" standalone="no"?><!DOCTYPE svg PUBLIC "-//W3C//DTD SVG 1.1//EN" "http://www.w3.org/Graphics/SVG/1.1/DTD/svg11.dtd"><svg width="100%" height="100%" viewBox="0 0 24 24" version="1.1" xmlns="http://www.w3.org/2000/svg" xmlns:xlink="http://www.w3.org/1999/xlink" xml:space="preserve" xmlns:serif="http://www.serif.com/" style="fill-rule:evenodd;clip-rule:evenodd;stroke-linejoin:round;stroke-miterlimit:2;"><path d="M12,2c-5.486,0 -10,4.514 -10,10c0,5.486 4.514,10 10,10c5.486,0 10,-4.514 10,-10c0,-5.486 -4.514,-10 -10,-10m0,2c4.389,-0 8,3.611 8,8c0,4.389 -3.611,8 -8,8c-4.389,0 -8,-3.611 -8,-8c-0,-4.389 3.611,-8 8,-8m0,2c-3.292,0 -6,2.708 -6,6c0,3.292 2.708,6 6,6c3.292,0 6,-2.708 6,-6c0,-3.292 -2.708,-6 -6,-6m0,2c2.194,0 4,1.806 4,4c0,2.194 -1.806,4 -4,4c-2.194,0 -4,-1.806 -4,-4c0,-2.194 1.806,-4 4,-4m0,2c-1.097,0 -2,0.903 -2,2c0,1.097 0.903,2 2,2c1.097,0 2,-0.903 2,-2c0,-1.097 -0.903,-2 -2,-2Z" style="fill:#fff;fill-rule:nonzero;"/></svg>