<?xml version="1.0" encoding="UTF-8" standalone="no"?><!DOCTYPE svg PUBLIC "-//W3C//DTD SVG 1.1//EN" "http://www.w3.org/Graphics/SVG/1.1/DTD/svg11.dtd"><svg width="100%" height="100%" viewBox="0 0 123 123" version="1.1" xmlns="http://www.w3.org/2000/svg" xmlns:xlink="http://www.w3.org/1999/xlink" xml:space="preserve" xmlns:serif="http://www.serif.com/" style="fill-rule:evenodd;clip-rule:evenodd;stroke-linejoin:round;stroke-miterlimit:2;"><rect x="15.369" y="26.642" width="3.879" height="68.716" style="fill:#fff;"/><rect x="24.236" y="26.642" width="3.879" height="68.716" style="fill:#fff;"/><rect x="33.102" y="26.642" width="3.879" height="68.716" style="fill:#fff;"/><rect x="41.969" y="26.642" width="3.879" height="68.716" style="fill:#fff;"/><path d="M54.161,26.642l6.65,0l16.957,34.846l-16.957,33.87l-6.65,0l16.957,-33.87l-16.957,-34.846Z" style="fill:#fff;fill-rule:nonzero;"/><path d="M73.002,26.642l15.516,68.716l3.879,0l-15.516,-68.716l-3.879,-0Z" style="fill:#fff;fill-rule:nonzero;"/><path d="M81.869,26.642l15.516,68.716l3.879,0l-15.516,-68.716l-3.879,-0Z" style="fill:#fff;fill-rule:nonzero;"/><path d="M90.735,26.642l15.516,68.716l3.879,0l-15.516,-68.716l-3.879,-0Z" style="fill:#fff;fill-rule:nonzero;"/></svg>