<?xml version="1.0" encoding="UTF-8" standalone="no"?><!DOCTYPE svg PUBLIC "-//W3C//DTD SVG 1.1//EN" "http://www.w3.org/Graphics/SVG/1.1/DTD/svg11.dtd"><svg width="100%" height="100%" viewBox="0 0 550 155" version="1.1" xmlns="http://www.w3.org/2000/svg" xmlns:xlink="http://www.w3.org/1999/xlink" xml:space="preserve" xmlns:serif="http://www.serif.com/" style="fill-rule:evenodd;clip-rule:evenodd;stroke-linejoin:round;stroke-miterlimit:2;"><g><path d="M48.354,66.866c-2.848,0 -7.69,-0.57 -7.69,3.845c0,2.278 1.709,3.133 3.702,3.987l34.175,15.521c8.829,3.988 13.386,9.54 13.386,19.366c0,13.814 -9.398,20.364 -22.499,20.364l-21.075,0c-7.12,0 -11.962,-0.285 -17.088,-4.272c-2.563,-1.994 -6.266,-4.557 -6.266,-7.974c0,-3.845 3.276,-6.835 7.12,-6.835c2.136,0 3.702,0.712 5.269,2.421c2.421,2.706 6.693,2.99 10.965,2.99l18.512,0c4.842,0 11.392,0.428 11.392,-7.546c0,-3.276 -3.987,-5.411 -7.12,-6.835l-32.183,-14.667c-7.547,-3.417 -11.961,-7.832 -11.961,-16.661c0,-10.822 8.544,-17.372 18.797,-17.372l23.353,0c7.547,0 10.68,0.427 15.806,4.699c2.563,2.136 5.411,3.845 5.411,7.69c0,3.845 -3.275,6.835 -6.978,6.835c-2.563,0 -4.129,-0.996 -5.838,-2.848c-2.278,-2.421 -4.699,-2.706 -8.401,-2.706l-20.79,0Z" style="fill:#fff;fill-rule:nonzero;"/><path d="M104.737,78.685c0,-9.114 1.851,-12.246 8.687,-17.8c6.693,-5.553 9.825,-7.689 19.366,-7.689l10.822,0c9.541,0 12.674,2.136 19.367,7.689c6.835,5.554 8.686,8.687 8.686,17.8l0,25.775c0,8.971 -2.278,12.388 -9.398,18.368c-7.12,5.982 -9.968,7.121 -18.654,7.121l-10.822,0c-8.686,0 -11.534,-1.139 -18.654,-7.121c-7.12,-5.981 -9.398,-9.398 -9.398,-18.368l0,-25.775Zm13.67,25.775c0,2.848 0.997,4.699 4.984,8.116c2.99,2.563 5.126,3.702 9.398,3.702l10.822,0c4.272,0 6.408,-1.139 9.398,-3.702c3.987,-3.417 4.984,-5.268 4.984,-8.116l0,-25.775c0,-2.848 -0.997,-4.699 -4.984,-8.117c-2.99,-2.563 -5.126,-3.702 -9.398,-3.702l-10.822,0c-4.272,0 -6.408,1.139 -9.398,3.702c-3.987,3.418 -4.984,5.269 -4.984,8.117l0,25.775Z" style="fill:#fff;fill-rule:nonzero;"/><path d="M224.773,76.122l0,44.428c0,4.699 -0.996,9.399 -6.834,9.399c-5.839,0 -6.835,-4.7 -6.835,-9.399l0,-45.71c0,-2.278 0.284,-6.55 -3.276,-6.55c-1.566,0 -2.563,1.282 -3.702,2.278l-5.981,5.554l0,44.428c0,4.699 -0.996,9.399 -6.835,9.399c-5.838,0 -6.835,-4.7 -6.835,-9.399l0,-57.671c0,-4.842 1.282,-9.683 7.12,-9.683c3.418,0 5.696,2.278 6.55,5.411l1.139,-0.854c3.56,-2.706 5.696,-4.557 10.395,-4.557c5.27,0 9.399,2.563 12.532,6.835l1.139,-1.139c4.272,-4.272 5.981,-5.696 11.961,-5.696c4.557,0 8.687,1.993 11.392,5.553c3.418,4.415 3.133,8.402 3.276,13.67l1.424,47.277c0.141,4.842 -0.571,10.253 -6.693,10.253c-5.554,0 -6.693,-4.7 -6.835,-9.256l-1.424,-45.141c-0.143,-2.421 0.57,-7.262 -3.133,-7.262c-1.993,0 -4.556,3.418 -5.695,4.699l-2.849,3.133Z" style="fill:#fff;fill-rule:nonzero;"/><path d="M287.138,66.866c-3.986,0 -9.398,-0.855 -9.398,-6.835c0,-5.838 4.841,-6.835 9.398,-6.835l18.797,0c7.12,0 12.246,0.712 17.658,6.123c5.268,5.268 5.981,9.398 6.123,16.233l1.424,46.422c0.141,3.987 -1.851,7.974 -6.409,7.974c-3.56,0 -7.12,-2.99 -6.977,-6.835l-9.399,4.842c-3.845,1.994 -3.987,1.994 -8.401,1.994l-13.101,0c-6.121,0 -10.536,-0.712 -15.52,-4.842c-5.696,-4.7 -7.12,-9.683 -7.12,-16.804l0,-5.981c0,-6.55 1.566,-10.679 6.693,-15.237c4.699,-4.129 9.967,-5.126 15.947,-5.126l29.334,0l0,-3.133c0,-10.253 -2.278,-11.961 -12.104,-11.961l-16.945,0Zm-0.143,28.764c-3.702,0 -9.113,0.998 -9.113,5.981l0,9.114c0,4.557 5.554,5.554 8.829,5.554l15.094,0l15.094,-7.832l0,-2.99c0,-7.548 -2.137,-9.826 -9.683,-9.826l-20.221,0Z" style="fill:#fff;fill-rule:nonzero;"/><path d="M409.789,66.866l-3.845,0c-3.987,0 -9.398,-0.855 -9.398,-6.835c0,-5.838 4.841,-6.835 9.398,-6.835l3.845,0l0,-1.851c0,-7.832 0.427,-13.528 6.55,-19.509c6.55,-6.265 12.673,-6.835 21.075,-6.835l9.256,0c4.699,0 9.968,0.427 9.968,6.835c0,5.838 -4.699,6.835 -9.399,6.835l-10.679,0c-9.256,0 -13.101,1.851 -13.101,11.82l0,2.706l12.104,0c4.557,0 9.399,0.996 9.399,6.835c0,5.981 -5.411,6.835 -9.399,6.835l-12.104,0l0,53.684c0,4.699 -0.996,9.399 -6.834,9.399c-5.839,0 -6.835,-4.7 -6.835,-9.399l0,-53.684Z" style="fill:#fff;fill-rule:nonzero;"/><path d="M498.356,76.122l0,44.428c0,4.699 -0.998,9.399 -6.835,9.399c-5.839,0 -6.835,-4.7 -6.835,-9.399l0,-45.71c0,-2.278 0.285,-6.55 -3.274,-6.55c-1.567,0 -2.563,1.282 -3.702,2.278l-5.982,5.554l0,44.428c0,4.699 -0.996,9.399 -6.834,9.399c-5.839,0 -6.835,-4.7 -6.835,-9.399l0,-57.671c0,-4.842 1.282,-9.683 7.12,-9.683c3.418,0 5.696,2.278 6.55,5.411l1.14,-0.854c3.56,-2.706 5.695,-4.557 10.394,-4.557c5.27,0 9.399,2.563 12.532,6.835l1.139,-1.139c4.272,-4.272 5.981,-5.696 11.961,-5.696c4.557,0 8.687,1.993 11.393,5.553c3.417,4.415 3.132,8.402 3.274,13.67l1.424,47.277c0.143,4.842 -0.57,10.253 -6.693,10.253c-5.554,0 -6.693,-4.7 -6.835,-9.256l-1.424,-45.141c-0.141,-2.421 0.57,-7.262 -3.132,-7.262c-1.994,0 -4.557,3.418 -5.696,4.699l-2.848,3.133Z" style="fill:#fff;fill-rule:nonzero;"/></g></svg>