<?xml version="1.0" encoding="UTF-8" standalone="no"?><!DOCTYPE svg PUBLIC "-//W3C//DTD SVG 1.1//EN" "http://www.w3.org/Graphics/SVG/1.1/DTD/svg11.dtd"><svg width="100%" height="100%" viewBox="0 0 512 512" version="1.1" xmlns="http://www.w3.org/2000/svg" xmlns:xlink="http://www.w3.org/1999/xlink" xml:space="preserve" xmlns:serif="http://www.serif.com/" style="fill-rule:evenodd;clip-rule:evenodd;stroke-linejoin:round;stroke-miterlimit:2;"><g id="Layer-1" serif:id="Layer 1"><path d="M256,82.683c2.897,0.107 5.674,0.306 8.635,0.42c3.123,0.121 3.094,0.382 6.218,0.573c1.089,0.067 2.012,0.364 3.48,0.496c2.496,0.224 11.955,1.853 17.539,3.364c0.301,0.082 2.08,0.453 6.234,1.687c1.548,0.46 11.143,3.319 18.987,6.851c4.625,2.083 29.703,12.385 53.535,37.513c11.512,12.138 18.105,22.97 18.163,23.055c0.257,0.377 5.081,7.787 7.739,12.971c3.546,6.915 4.827,9.985 5.2,10.874c2.163,5.163 4.108,9.365 7.116,19.269c1.106,3.641 3.348,12.61 3.733,15.248c0.212,1.454 0.371,1.412 0.554,2.874c0.029,0.227 0.075,0.49 0.127,0.75c2.313,0.753 7.775,2.564 11.466,4.039c2.998,1.198 26.419,9.578 44.813,30.774c9.951,11.466 13.631,21.533 15.251,24.197c0.292,0.48 0.582,1.42 1.429,3.343c0.705,1.601 3.057,11.321 3.158,11.669c0.257,0.885 0.103,1.034 0.45,2.117c0.644,2.012 0.574,3.742 0.511,4.408c0.199,0.919 0.527,1.575 0.563,8.192c0.031,5.731 0.049,5.882 -0.578,11.262l-0,0.002c0.11,1.623 0.079,1.784 -0.503,3.609c-0.253,0.795 -0.128,1.057 -0.435,2.121c-0.411,1.424 -1.543,7.354 -3.392,12.125c-0.943,2.434 -0.927,2.433 -2.099,4.772c-1.716,3.426 -8.363,18.714 -25.211,33.071c-23.472,20 -49.015,24.864 -56.449,26.436c-1.643,0.348 -8.566,1.379 -8.919,1.414c-1.56,0.158 -1.552,0.121 -3.098,0.338c-2.762,0.388 -2.779,0.156 -5.535,0.556c-0.93,0.135 -2.221,0.164 -3.088,0.165c-0.175,0.072 -0.354,0.141 -0.489,0.186c-0.432,0.142 -0.429,0.288 -7.072,0.411c-1.184,0.022 -2.521,-0.38 -3.118,-0.584c-2.707,-0.233 -2.99,-0.107 -5.066,-2.187c-1.346,-1.349 -2.171,-1.414 -2.171,-9.749c-0,-154.669 -0.059,-176.583 -0.062,-177.838c-0.831,-5.227 -1.498,-12.434 -5.899,-22.458c-10.153,-23.124 -31.035,-40.569 -57.304,-50.509c-1.7,-0.643 -10.355,-3.916 -21.88,-6.127c-0.516,-0.099 -0.521,-0.067 -6.349,-1.05c-0.405,-0.026 -1.559,-0.128 -4.044,-0.511c-0.465,-0.072 -0.466,0.01 -5.855,-0.535c-0.176,-0.018 -2.767,-0.153 -6.286,-0.225c-3.519,0.072 -6.11,0.207 -6.286,0.225c-5.389,0.545 -5.39,0.464 -5.855,0.535c-2.485,0.383 -3.639,0.484 -4.044,0.511c-5.828,0.982 -5.833,0.951 -6.349,1.05c-11.525,2.211 -20.18,5.484 -21.88,6.127c-26.269,9.941 -47.151,27.385 -57.304,50.509c-4.401,10.024 -5.068,17.231 -5.899,22.458c-0.004,1.255 -0.062,23.17 -0.062,177.838c0,8.335 -0.825,8.4 -2.171,9.749c-2.076,2.081 -2.359,1.954 -5.066,2.187c-0.597,0.203 -1.935,0.605 -3.118,0.584c-6.643,-0.123 -6.64,-0.269 -7.072,-0.411c-0.135,-0.044 -0.313,-0.114 -0.489,-0.186c-0.867,-0.002 -2.158,-0.031 -3.088,-0.165c-2.756,-0.4 -2.774,-0.168 -5.535,-0.556c-1.545,-0.217 -1.538,-0.18 -3.098,-0.338c-0.353,-0.036 -7.276,-1.067 -8.919,-1.414c-7.433,-1.572 -32.977,-6.436 -56.449,-26.436c-16.848,-14.356 -23.494,-29.644 -25.211,-33.071c-1.172,-2.339 -1.156,-2.338 -2.099,-4.772c-1.849,-4.772 -2.981,-10.702 -3.392,-12.125c-0.307,-1.065 -0.182,-1.327 -0.435,-2.121c-0.581,-1.825 -0.613,-1.985 -0.503,-3.609l-0,-0.002c-0.628,-5.38 -0.609,-5.531 -0.578,-11.262c0.036,-6.616 0.363,-7.273 0.563,-8.192c-0.063,-0.666 -0.133,-2.397 0.511,-4.408c0.347,-1.083 0.193,-1.232 0.45,-2.117c0.101,-0.348 2.453,-10.068 3.158,-11.669c0.847,-1.923 1.137,-2.863 1.429,-3.343c1.62,-2.664 5.3,-12.731 15.251,-24.197c18.395,-21.196 41.815,-29.576 44.813,-30.774c3.691,-1.475 9.153,-3.285 11.466,-4.039c0.052,-0.26 0.098,-0.523 0.127,-0.75c0.183,-1.462 0.342,-1.42 0.554,-2.874c0.384,-2.637 2.627,-11.607 3.733,-15.248c3.008,-9.904 4.953,-14.106 7.116,-19.269c0.373,-0.889 1.654,-3.959 5.2,-10.874c2.659,-5.185 7.482,-12.595 7.739,-12.971c0.057,-0.084 6.651,-10.917 18.163,-23.055c23.832,-25.129 48.91,-35.43 53.535,-37.513c7.844,-3.532 17.439,-6.391 18.987,-6.851c4.153,-1.234 5.932,-1.606 6.234,-1.687c5.584,-1.511 15.043,-3.14 17.539,-3.364c1.468,-0.132 2.391,-0.429 3.48,-0.496c3.124,-0.191 3.094,-0.452 6.218,-0.573c2.961,-0.114 5.738,-0.313 8.635,-0.42Zm0,39.397c4.062,0.079 7.093,0.238 7.293,0.259c5.865,0.594 5.865,0.523 6.371,0.601c3.643,0.561 3.655,0.444 3.97,0.497c6.246,1.054 6.243,1.022 6.784,1.126c12.397,2.378 21.706,5.903 23.535,6.595c28.931,10.948 51.74,30.375 62.921,55.842c4.939,11.25 5.708,19.277 6.647,25.085c0.106,0.654 0.158,0.661 0.158,179.231c-0,0.863 0.003,1.669 0.006,2.345c0.202,0.061 0.384,0.121 0.529,0.169c2.155,-0.039 3.487,-0.061 4.139,-0.071c0.301,-0.123 0.672,-0.268 0.925,-0.339l1.482,-0.19c0.277,0.003 1.546,0.083 2.488,-0.054c2.778,-0.403 2.795,-0.171 5.578,-0.562c1.739,-0.244 1.73,-0.207 3.485,-0.385c0.311,-0.031 6.408,-0.942 7.855,-1.249c6.847,-1.448 30.413,-5.842 52.032,-24.264c15.236,-12.982 21.203,-26.839 22.755,-29.938c0.959,-1.914 0.944,-1.914 1.716,-3.906c1.719,-4.437 2.726,-9.962 3.109,-11.286c0.346,-1.199 0.229,-1.489 0.514,-2.384l0.038,-0.121l-0.015,-0.228c-0.021,-0.308 -0.014,-0.618 0.022,-0.925c0.612,-5.233 0.593,-5.229 0.565,-10.509c-0.033,-6.109 -0.358,-6.079 -0.509,-7.061c-0.089,-0.576 -0.099,-1.087 -0.065,-1.591c0.014,-0.208 0.151,-0.406 -0.024,-0.953c-0.39,-1.218 -0.24,-1.381 -0.529,-2.376c-0.09,-0.31 -2.079,-9.003 -2.707,-10.43c-0.481,-1.093 -0.87,-2.15 -0.976,-2.444c-1.596,-2.864 -5.043,-12.13 -14.104,-22.571c-16.8,-19.359 -38.234,-26.948 -40.972,-28.043c-3.895,-1.557 -8.461,-2.812 -11.231,-3.843c-2.233,-0.831 -3.71,-1.834 -4.339,-2.518l-1.119,-1.799c-0.363,-0.876 -0.873,-2.741 -1.115,-4.669c-0.171,-1.362 -0.33,-1.321 -0.528,-2.676c-0.348,-2.385 -2.405,-10.49 -3.405,-13.783c-2.859,-9.413 -4.716,-13.404 -6.771,-18.311c-0.349,-0.832 -1.556,-3.703 -4.875,-10.175c-2.438,-4.755 -6.863,-11.549 -7.099,-11.895c-0.054,-0.08 -6.275,-10.335 -17.16,-21.812c-22.424,-23.644 -46.033,-33.317 -50.386,-35.277c-7.323,-3.298 -16.285,-5.954 -17.73,-6.384c-3.995,-1.187 -5.708,-1.542 -5.997,-1.62c-5.038,-1.364 -13.57,-2.855 -15.822,-3.057c-1.349,-0.121 -2.194,-0.413 -3.195,-0.474c-3.011,-0.184 -2.982,-0.445 -5.993,-0.561c-2.828,-0.109 -5.478,-0.309 -8.249,-0.418c-2.771,0.109 -5.421,0.309 -8.249,0.418c-3.011,0.116 -2.982,0.377 -5.993,0.561c-1.001,0.061 -1.846,0.353 -3.195,0.474c-2.252,0.203 -10.783,1.694 -15.822,3.057c-0.29,0.078 -2.002,0.433 -5.997,1.62c-1.445,0.43 -10.407,3.086 -17.73,6.384c-4.352,1.96 -27.962,11.633 -50.386,35.277c-10.885,11.478 -17.106,21.733 -17.16,21.812c-0.236,0.345 -4.661,7.14 -7.099,11.895c-3.319,6.472 -4.526,9.343 -4.875,10.175c-2.056,4.907 -3.912,8.898 -6.771,18.311c-1,3.293 -3.058,11.398 -3.405,13.783c-0.197,1.355 -0.357,1.314 -0.528,2.676c-0.242,1.928 -0.752,3.794 -1.115,4.669l-1.119,1.799c-0.629,0.684 -2.106,1.687 -4.339,2.518c-2.77,1.031 -7.336,2.286 -11.231,3.843c-2.738,1.094 -24.172,8.684 -40.972,28.043c-9.062,10.442 -12.508,19.707 -14.104,22.571c-0.106,0.294 -0.495,1.351 -0.976,2.444c-0.628,1.427 -2.617,10.12 -2.707,10.43c-0.289,0.996 -0.139,1.158 -0.529,2.376c-0.175,0.547 -0.038,0.745 -0.024,0.953c0.034,0.504 0.024,1.015 -0.065,1.591c-0.151,0.982 -0.476,0.951 -0.509,7.061c-0.029,5.28 -0.047,5.276 0.565,10.509c0.036,0.307 0.043,0.617 0.022,0.925l-0.015,0.228l0.038,0.121c0.285,0.895 0.168,1.185 0.514,2.384c0.382,1.324 1.39,6.849 3.109,11.286c0.772,1.992 0.757,1.992 1.716,3.906c1.552,3.098 7.52,16.956 22.755,29.938c21.619,18.421 45.186,22.816 52.032,24.264c1.447,0.306 7.544,1.217 7.855,1.249c1.755,0.177 1.746,0.14 3.485,0.385c2.783,0.391 2.8,0.159 5.578,0.562c0.943,0.137 2.211,0.056 2.488,0.054l1.482,0.19c0.253,0.072 0.624,0.216 0.925,0.339c0.652,0.01 1.984,0.031 4.139,0.071c0.145,-0.049 0.327,-0.108 0.529,-0.169c0.003,-0.676 0.006,-1.482 0.006,-2.345c0,-178.57 0.052,-178.577 0.158,-179.231c0.938,-5.808 1.708,-13.835 6.647,-25.085c11.181,-25.467 33.99,-44.894 62.921,-55.842c1.829,-0.692 11.138,-4.217 23.535,-6.595c0.54,-0.104 0.538,-0.072 6.784,-1.126c0.316,-0.053 0.327,0.064 3.97,-0.497c0.506,-0.078 0.506,-0.007 6.371,-0.601c0.2,-0.02 3.231,-0.18 7.293,-0.259Zm-115.317,271.194c0.168,-0.007 0.282,-0.01 0.282,-0.01c-0,0 -0.108,-0.007 -0.282,0.01Zm230.635,0c-0.174,-0.016 -0.282,-0.01 -0.282,-0.01c0,-0 0.113,0.003 0.282,0.01Z" style="fill:#fff;"/><path d="M92.544,217.982c0.043,-0.114 0.074,-0.177 0.074,-0.177c-0,0 -0.031,0.073 -0.074,0.177Zm9.383,-0.7l-0.174,-0.526c0.055,0.119 0.126,0.296 0.174,0.526Z" style="fill:#ebebeb;"/></g></svg>