<svg version="1.2" xmlns="http://www.w3.org/2000/svg" viewBox="0 0 24 24" width="24" height="24">
	<style>
		.s0 { fill: #ffffff } 
	</style>
	<g id="Layer 1">
		<path class="s0" d="m17 2h-10c-1.11 0-2 0.89-2 2v16q0 0.4 0.15 0.77 0.16 0.36 0.44 0.64 0.28 0.28 0.64 0.44 0.37 0.15 0.77 0.15h10q0.4 0 0.77-0.15 0.36-0.16 0.64-0.44 0.28-0.28 0.44-0.64 0.15-0.37 0.15-0.77v-16c0-1.11-0.9-2-2-2zm-5 18q-0.99 0-1.91-0.38-0.92-0.38-1.63-1.08-0.7-0.71-1.08-1.63-0.38-0.92-0.38-1.91 0-0.99 0.38-1.91 0.38-0.92 1.08-1.63 0.71-0.7 1.63-1.08 0.92-0.38 1.91-0.38 0.99 0 1.91 0.38 0.92 0.38 1.63 1.08 0.7 0.71 1.08 1.63 0.38 0.92 0.38 1.91 0 0.99-0.38 1.91-0.38 0.92-1.08 1.63-0.71 0.7-1.63 1.08-0.92 0.38-1.91 0.38zm0-16q0.4 0 0.77 0.15 0.36 0.16 0.64 0.44 0.28 0.28 0.44 0.64 0.15 0.37 0.15 0.77 0 0.4-0.15 0.77-0.16 0.36-0.44 0.64-0.28 0.28-0.64 0.44-0.37 0.15-0.77 0.15c-1.11 0-2-0.9-2-2 0-1.11 0.89-2 2-2zm0 8q-0.6 0-1.15 0.23-0.55 0.23-0.97 0.65-0.42 0.42-0.65 0.97-0.23 0.55-0.23 1.15 0 0.6 0.23 1.15 0.23 0.55 0.65 0.97 0.42 0.42 0.97 0.65 0.55 0.23 1.15 0.23 0.6 0 1.15-0.23 0.55-0.23 0.97-0.65 0.42-0.42 0.65-0.97 0.23-0.55 0.23-1.15 0-0.6-0.23-1.15-0.23-0.55-0.65-0.97-0.42-0.42-0.97-0.65-0.55-0.23-1.15-0.23z"/>
	</g>
</svg>