<?xml version="1.0" encoding="UTF-8" standalone="no"?><!DOCTYPE svg PUBLIC "-//W3C//DTD SVG 1.1//EN" "http://www.w3.org/Graphics/SVG/1.1/DTD/svg11.dtd"><svg width="100%" height="100%" viewBox="0 0 136 114" version="1.1" xmlns="http://www.w3.org/2000/svg" xmlns:xlink="http://www.w3.org/1999/xlink" xml:space="preserve" xmlns:serif="http://www.serif.com/" style="fill-rule:evenodd;clip-rule:evenodd;stroke-linejoin:round;stroke-miterlimit:2;"><path d="M113.584,48.66c0.138,2.531 0.211,5.298 0.211,8.341c0,16.822 -2.255,25.233 -5.004,31.868c-3.664,8.846 -10.692,15.875 -19.539,19.539c-6.635,2.749 -15.047,5.005 -31.869,5.005c-16.822,0 -25.233,-2.256 -31.867,-5.005c-8.846,-3.664 -15.875,-10.692 -19.539,-19.539c-2.748,-6.635 -5.005,-15.046 -5.005,-31.868c0,-16.822 2.257,-25.233 5.005,-31.868c3.664,-8.846 10.693,-15.875 19.539,-19.539c6.635,-2.748 15.045,-5.005 31.867,-5.005c16.822,0 25.234,2.256 31.869,5.005c4.418,1.83 8.382,4.499 11.701,7.814l16.623,0c9.735,0 17.627,7.892 17.627,17.626c0,9.735 -7.892,17.626 -17.627,17.626l-3.992,-0Zm-49.408,52.182c4.64,-0.217 8.286,-0.656 11.259,-1.219c0.978,-0.185 1.467,-0.278 1.764,-0.665c0.297,-0.387 0.259,-0.888 0.184,-1.89c-2.405,-32.062 -28.005,-57.662 -60.067,-60.067c-1.002,-0.075 -1.503,-0.113 -1.89,0.184c-0.387,0.297 -0.479,0.786 -0.665,1.764c-0.565,2.973 -1.002,6.619 -1.219,11.259c-0.052,1.107 -0.077,1.661 0.238,2.042c0.315,0.381 0.891,0.462 2.043,0.625c23.64,3.344 42.342,22.046 45.686,45.687c0.163,1.152 0.244,1.728 0.625,2.043c0.38,0.315 0.934,0.289 2.042,0.237Zm28.741,-9.812l-0.002,0c1.84,-2.013 3.335,-4.347 4.399,-6.915c2.013,-4.86 4.058,-11.606 4.058,-27.115c0,-3.115 -0.082,-5.877 -0.23,-8.341l-7.214,0c-9.734,0 -17.626,-7.891 -17.626,-17.626c0,-5.894 2.893,-11.112 7.336,-14.312c-4.806,-1.894 -11.64,-3.712 -26.256,-3.712c-15.508,0 -22.254,2.046 -27.114,4.059c-2.567,1.064 -4.901,2.559 -6.914,4.399c-1.38,1.262 -2.069,1.892 -1.84,2.66c0.23,0.768 1.25,0.932 3.291,1.261c32.905,5.303 58.888,31.287 64.191,64.192c0.329,2.04 0.493,3.061 1.261,3.29c0.768,0.23 1.399,-0.46 2.66,-1.84Zm-44.156,6.702c-3.332,-16.099 -16.011,-28.777 -32.109,-32.109c-1.366,-0.283 -2.049,-0.424 -2.528,0.003c-0.479,0.427 -0.416,1.14 -0.289,2.564c0.711,7.976 2.173,12.436 3.618,15.925c2.404,5.803 7.014,10.413 12.817,12.817c3.489,1.445 7.949,2.907 15.924,3.617c1.425,0.127 2.137,0.19 2.564,-0.289c0.427,-0.48 0.286,-1.163 0.003,-2.528Z" style="fill:#fff;"/></svg>