<?xml version="1.0" encoding="UTF-8" standalone="no"?><!DOCTYPE svg PUBLIC "-//W3C//DTD SVG 1.1//EN" "http://www.w3.org/Graphics/SVG/1.1/DTD/svg11.dtd"><svg width="100%" height="100%" viewBox="0 0 512 512" version="1.1" xmlns="http://www.w3.org/2000/svg" xmlns:xlink="http://www.w3.org/1999/xlink" xml:space="preserve" xmlns:serif="http://www.serif.com/" style="fill-rule:evenodd;clip-rule:evenodd;stroke-linejoin:round;stroke-miterlimit:2;"><g id="SVGRepo_iconCarrier"><path d="M194.402,371.526l0,-178.788c0,-6.705 3.725,-10.802 11.174,-12.292l154.205,-31.288c8.194,-1.49 12.664,2.235 13.409,11.174l0,136.326c0,11.174 -16.761,18.624 -50.284,22.349c-63.693,10.057 -53.636,117.33 33.523,88.277c33.523,-12.292 39.11,-44.697 39.11,-77.102l0,-261.478c0,-0 0,-22.349 -18.996,-16.761l-189.962,39.11c0,0 -14.527,2.235 -14.527,20.114l0,226.837c0,11.174 -16.761,18.624 -50.284,22.349c-63.693,10.057 -53.636,117.33 33.523,88.277c33.523,-12.292 39.11,-44.697 39.11,-77.102" style="fill:#fff;fill-rule:nonzero;"/></g></svg>