<?xml version="1.0" encoding="UTF-8" standalone="no"?><!DOCTYPE svg PUBLIC "-//W3C//DTD SVG 1.1//EN" "http://www.w3.org/Graphics/SVG/1.1/DTD/svg11.dtd"><svg width="100%" height="100%" viewBox="0 0 90 90" version="1.1" xmlns="http://www.w3.org/2000/svg" xmlns:xlink="http://www.w3.org/1999/xlink" xml:space="preserve" xmlns:serif="http://www.serif.com/" style="fill-rule:evenodd;clip-rule:evenodd;stroke-linejoin:round;stroke-miterlimit:2;"><g><path d="M45,62.545l38.392,-24.381l0,6.585l-38.392,24.383l-38.392,-24.383l0,-6.585l38.392,24.381Zm-0.011,-30.483c8.648,0 16.265,4.482 20.726,11.286l-0.007,0l-5.651,3.591c-8.501,-11.507 -24.052,-13.499 -34.825,-4.423c-0.316,0.265 -0.621,0.54 -0.921,0.818l-0.036,-0.004c4.46,-6.793 12.074,-11.27 20.714,-11.27l0,0.001Zm0,11.192c4.708,0 8.87,2.386 11.375,6.031l-0.001,0l-5.452,3.464c-2.543,-3.557 -6.246,-5.8 -10.37,-5.8c-2.508,0 -4.857,0.831 -6.889,2.279c2.512,-3.613 6.653,-5.974 11.337,-5.974Zm-25.948,-9.832c-1.382,1.11 -2.921,2.703 -4.11,3.974c6.467,-10.009 17.646,-16.528 30.058,-16.528c12.588,0 23.662,6.584 30.073,16.552l0,-0.003l-5.852,3.704l-0.079,-0.123c-11.912,-16.888 -34.283,-20.294 -50.089,-7.576l-0.001,-0Z" style="fill:#fff;fill-rule:nonzero;"/></g></svg>