<?xml version="1.0" encoding="UTF-8" standalone="no"?><!DOCTYPE svg PUBLIC "-//W3C//DTD SVG 1.1//EN" "http://www.w3.org/Graphics/SVG/1.1/DTD/svg11.dtd"><svg width="100%" height="100%" viewBox="0 0 300 300" version="1.1" xmlns="http://www.w3.org/2000/svg" xmlns:xlink="http://www.w3.org/1999/xlink" xml:space="preserve" xmlns:serif="http://www.serif.com/" style="fill-rule:evenodd;clip-rule:evenodd;stroke-linejoin:round;stroke-miterlimit:2;"><path id="path1" d="M169.368,174.079l-69.883,0.025c-20.743,0.014 -37.811,17.07 -37.838,37.813c0,17.063 0.058,31.104 0.058,31.104l0,6.858l107.829,0l1.59,-0.017c38.937,-0.824 67.228,-29.773 67.228,-68.859c0.071,-10.69 -2.217,-21.266 -6.7,-30.971c4.478,-9.716 6.765,-20.298 6.7,-30.996c0,-39.078 -28.291,-68.027 -67.286,-68.876l-109.36,-0.042l0,6.933c0,0 -0.058,13.992 -0.058,31.071c0.032,20.738 17.1,37.787 37.838,37.796l69.908,0.108c19.768,0 36.556,8.723 46.336,24.004c-9.805,15.298 -26.61,24.046 -46.361,24.046m1.823,-62.025l-71.706,0.017c-13.138,-0.005 -23.949,-10.809 -23.963,-23.946l0,-24.146l93.871,0c31.92,0 55.1,23.156 55.1,55.059c0,5.668 -0.766,11.145 -2.256,16.397c-12.235,-14.366 -30.538,-22.889 -51.047,-23.38m51.047,52.554c1.49,5.235 2.256,10.737 2.256,16.397c0,31.887 -23.18,55.026 -55.1,55.026l-93.871,0.017l0,-24.129c0.014,-13.14 10.822,-23.949 23.963,-23.963l70.299,-0l2.397,-0.125c20.076,-0.699 37.988,-9.056 50.057,-23.222" style="fill:#fff;fill-rule:nonzero;"/></svg>