<?xml version="1.0" encoding="UTF-8" standalone="no"?><!DOCTYPE svg PUBLIC "-//W3C//DTD SVG 1.1//EN" "http://www.w3.org/Graphics/SVG/1.1/DTD/svg11.dtd"><svg width="100%" height="100%" viewBox="0 0 512 512" version="1.1" xmlns="http://www.w3.org/2000/svg" xmlns:xlink="http://www.w3.org/1999/xlink" xml:space="preserve" xmlns:serif="http://www.serif.com/" style="fill-rule:evenodd;clip-rule:evenodd;stroke-linejoin:round;stroke-miterlimit:2;"><path d="M366.414,203.675c11.135,4.413 11.618,5.3 16.381,8.377c14.948,9.654 23.198,25.154 26.461,36.527c2.648,9.226 3.623,17.042 3.625,29.921c0.001,13.041 0.018,161.005 -0.002,163.009c-0.017,1.745 0.188,2.12 -1.449,2.687c-0.629,0.218 -31.22,0.069 -33.935,0.056c-12.635,-0.061 -14.163,0.27 -15.018,-0.738c-0.309,-0.365 -0.312,-2.77 -0.313,-3.013c-0.166,-127.892 0.11,-127.879 0.006,-138.998c-0.194,-20.788 1.622,-42.94 -7.992,-54.745c-13.19,-16.195 -45.034,-9.293 -49.57,-7.899c-20.413,6.271 -23.641,20.5 -25.214,31.63c-0.778,5.506 -0.272,52.259 -0.371,58.009c-0.101,5.883 -0.127,111.441 -0.137,113.008c-0.011,1.744 0.196,2.139 -1.448,2.689c-0.451,0.151 -0.446,0.068 -5.942,0.056c-40.42,-0.084 -40.554,0.186 -41.271,-0.369c-0.83,-0.643 -0.887,-1.211 -0.849,-6.383c0.009,-1.162 -0.007,-22.081 -0.009,-24.001c-0.053,-69.925 0.083,-69.916 0.04,-75.996c-0.284,-39.801 0.76,-60.34 -1.176,-72.949c-2.703,-17.612 -10.74,-22.415 -16.739,-25.033c-3.696,-1.428 -6.702,-2.852 -17.997,-3.244c-22.255,0.016 -37.401,5.59 -44.074,22.192c-1.121,3.336 -2.891,7.212 -3.142,18.008c-0.153,6.46 0.239,161.585 0.239,165.025c0,2.959 -1.043,2.783 -4.021,2.768c-36.799,-0.187 -36.796,0.053 -39.995,0.012c-1.185,-0.015 -1.319,0.183 -2.091,-0.716c-0.311,-0.362 -0.319,-0.423 -0.337,-18.072c-0.016,-15.517 -0.148,-144.1 0.013,-193.968c-0.004,-0.962 -0.019,-4.817 -0.007,-12.023c0.012,-7.405 -0.214,-8.998 0.741,-9.508c0.812,-0.434 2.749,0.074 2.753,0.074c2.526,0.406 2.487,0.49 5.01,0.945c19.23,3.467 19.18,3.634 20.863,3.858c13.506,1.804 19.815,-3.138 27.985,-6.534c15.772,-6.556 24.303,-7.627 29.104,-8.668c9.762,-2.117 23.059,-1.834 26.987,-1.38c11.244,1.299 28.049,4.072 45.049,20.137c5.075,4.796 5.189,6.547 6.866,5.895c1.511,-0.587 9.127,-9.252 21.892,-16.157c11.086,-5.997 20.385,-7.492 22.107,-7.932c2.793,-0.715 12.608,-1.916 17.05,-2.061c22.477,-0.736 34.849,3.814 39.929,5.507Z" style="fill:#fefefe;"/><path d="M63.962,101.516c0.37,-3.75 1.141,-9.206 4.167,-15.196c14.882,-29.46 54.236,-30.922 72.016,-4.58c9.288,13.761 6.505,28.248 6.033,30.707c-4.263,22.189 -23.36,32.156 -35.63,33.394c-7.656,0.772 -12.889,-0.396 -13.982,-0.64c-16.362,-3.652 -26.203,-15.671 -29.946,-25.751c-3.053,-8.225 -2.772,-12.998 -2.657,-17.934Zm31.444,38.463c4.473,1.221 4.468,1.301 9.096,1.452c9.358,0.304 20.322,-3.254 28.511,-12.367c2.475,-3.152 2.551,-3.083 4.725,-6.446c1.529,-3.665 7.093,-13.534 3.105,-28.211c-2.8,-10.304 -10.177,-16.665 -11.458,-17.77c-11.962,-10.314 -27.738,-10.886 -39.096,-5.615c-0.765,0.355 -7.891,2.966 -14.524,11.671c-7.945,10.428 -9.215,25.587 -4.1,36.733c0.389,0.849 1.648,4.387 5.762,9.139c1.066,1.231 7.313,8.448 17.002,11.196c0.321,0.091 0.657,0.126 0.978,0.217Z" style="fill:#fefefe;"/><path d="M257.512,88.349c-0.3,0.07 -0.39,-0.685 -0.69,-0.615c-0.756,0.177 0.379,11.639 0.135,18.772c-0.036,1.067 -0.015,18.388 -0.013,19.987c0.016,13.055 0.431,13.871 -1.372,14.299c-0.109,0.026 -8.486,0.229 -9.1,-0.248c-0.932,-0.723 -0.796,-0.861 -0.821,-2.048c-0.059,-2.879 0.091,-2.877 0.028,-35.999c-0.062,-32.62 0.018,-32.623 0.1,-32.901c0.37,-1.259 2.476,-1.254 2.715,-1.253c6.863,0.018 6.853,-0.012 12.008,0.048c3.756,0.044 4.879,-0.526 5.588,3.171c3.109,16.214 4.184,18.886 5.176,27.016c0.027,0.22 0.315,2.581 0.513,2.722c0.199,0.141 0.463,-0.185 0.707,-0.183c0.245,0.002 0.515,0.343 0.71,0.194c0.53,-0.406 -0.401,-0.864 1.463,-10.78c0.591,-3.147 1.437,-8.354 1.556,-9.082c0.354,-2.179 0.544,-2.127 0.904,-5.012c0.017,-0.133 1.035,-6.229 1.379,-6.939c0.728,-1.503 1.512,-1.013 15,-1.149c0.028,-0 4.258,-0.131 4.869,0.355c1.123,0.893 0.587,1.226 0.77,18.795c0.009,0.878 -0.017,0.873 0.042,10.978c-0.225,8.862 0.072,8.855 -0.085,27.044c-0.008,0.878 0.032,0.875 0.03,10.976c-0,0.234 -0.001,2.759 -0.058,2.922c-0.399,1.134 -1.35,1.336 -1.51,1.37c-0.63,0.134 -0.637,0.043 -8.048,0.057c-2.609,0.005 -3.458,0.234 -3.603,-2.375c-0.006,-0.099 -0.109,-36.812 0.084,-39.975c0.055,-0.903 0.827,-11.067 0.126,-11.716c-0.151,-0.14 -0.409,0.055 -0.614,0.055c-0.206,0 -0.463,-0.195 -0.614,-0.055c-0.102,0.095 -0.857,6.456 -1.085,8.779c-0.192,1.961 -0.251,1.937 -2.62,15.887c-0.147,0.864 -1.052,6.7 -1.761,10.036c-0.81,3.808 -1.424,10.26 -2.489,11.419c-0.767,0.834 -1.044,0.827 -7.43,0.812c-3.303,-0.008 -2.962,-1.155 -4.134,-6.189c-0.253,-1.085 -3.099,-15.58 -3.366,-16.935c-0.391,-1.99 -2.982,-12.532 -3.681,-22.014c-0.269,-0.076 -0.539,-0.151 -0.808,-0.227Z" style="fill:#fefefe;"/><path d="M196.909,129.557c2.713,-15.794 2.921,-15.755 3.137,-17.131c0.164,-1.04 0.759,-4.821 2.317,-12.952c2.821,-14.724 2.649,-14.745 2.901,-16.023c2.68,-13.595 2.231,-13.952 3.406,-14.698c0.597,-0.379 0.993,-0.63 8.83,-0.422c8.927,0.237 9.538,-0.31 10.175,1.061c0.534,1.149 3.345,19.591 6.126,36.051c0.177,1.05 2.066,12.231 2.202,13.128c0.455,3.005 0.506,2.981 1,5.988c0.184,1.117 2.094,12.738 2.195,13.983c0.096,1.173 0.281,1.333 -0.647,2.052c-0.266,0.206 -2.809,0.229 -3.054,0.232c-5.542,0.051 -7.845,0.173 -8.567,-0.67c-0.922,-1.078 -2.258,-13.099 -2.735,-14.565c-0.717,-2.202 -1.38,-1.635 -3.699,-1.649c-10.196,-0.059 -10.316,-0.003 -10.921,0.629c-0.753,0.787 -1.796,10.036 -2.666,14.022c-0.6,2.75 -2.494,2.221 -4.406,2.247c-4.761,0.065 -7.078,0.308 -7.354,-1.26c-0.081,-0.46 1.388,-8.315 1.759,-10.022Zm20.259,-48.725c-0.399,-0.012 -0.272,-0.336 -0.668,-0.348c-0.052,-0.002 -0.352,-0.011 -0.566,0.311c-0.175,0.264 -0.221,1.617 -0.226,1.759c-0.263,7.819 -1.698,12.472 -2.602,18.891c-0.914,6.491 -2.079,9.589 -0.702,10.219c0.911,0.417 7.913,0.248 8.208,0.17c1.013,-0.269 1.141,-1.151 1.16,-1.289c0.09,-0.621 -3.081,-19.348 -3.366,-21.028c-0.655,-3.869 0.082,-4.196 -1.239,-8.684Z" style="fill:#fefefe;"/><path d="M315.677,82.526c1.704,-10.676 2.029,-11.842 2.309,-12.848c0.476,-1.706 4.424,-1.341 4.512,-1.34c13.502,0.24 13.673,-0.35 14.783,0.456c0.453,0.328 0.814,0.59 1.745,6.769c0.454,3.01 0.521,2.985 0.993,5.985c2.59,16.486 2.67,16.452 2.886,17.886c1.287,8.541 1.549,8.477 2.87,17.022c2.707,17.498 2.871,17.462 3.081,18.987c0.354,2.572 0.99,4.793 -0.277,5.236c-0.719,0.251 -9.848,0.156 -10.129,0.113c-2.176,-0.329 -1.705,-1.175 -3.158,-9.254c-0.93,-5.174 -0.283,-7.7 -3.799,-7.604c-0.479,0.013 -9.879,0.076 -10.044,0.085c-2.744,0.156 -2.328,2.728 -2.86,5.497c-0.577,2.999 -0.446,3.008 -1.011,5.997c-0.6,3.168 -0.573,4.797 -2.008,5.213c-0.616,0.179 -8.874,0.125 -9.16,0.058c-1.038,-0.241 -1.157,-1.099 -1.176,-1.234c-0.071,-0.513 3.34,-18.247 3.611,-19.994c0.872,-5.618 1.107,-5.567 4.192,-23.146c1.718,-9.79 2.391,-12.781 2.639,-13.884Zm13.275,9.927c-0.455,-4.101 -0.697,-4.053 -1.027,-8.151c-0.018,-0.219 -0.518,-6.436 -1.716,-2.15c-0.088,0.316 -0.061,0.657 -0.152,0.972c-0.047,0.165 -0.223,0.278 -0.256,0.446c-0.064,0.324 -0.014,0.66 -0.027,0.99c-0.047,1.208 -0.078,1.999 -2.193,14.955c-1.483,9.086 -2.285,11.133 -1.159,12.104c0.43,0.371 0.492,0.335 7.091,0.29c2.585,-0.018 2.599,-0.888 2.099,-3.428c-0.633,-3.213 -1.893,-11.889 -2.66,-16.027Z" style="fill:#fefefe;"/><path d="M407.513,140.852c-2.583,-0.02 -5.255,0.144 -5.837,-0.508c-0.674,-0.755 -0.41,-0.858 -0.228,-1.851c4.721,-25.749 4.682,-25.746 5.144,-27.974c0.281,-1.352 0.146,-1.367 3.158,-16.974c0.168,-0.87 1.968,-11.017 2.138,-11.976c2.185,-12.321 2.167,-12.749 3.603,-13.102c0.637,-0.157 16.677,-0.112 17.022,-0.04c0.154,0.032 1.291,0.27 1.536,1.228c0.186,0.724 11.547,69.505 11.507,69.855c-0.143,1.265 -1.833,1.32 -2.027,1.326c-2.256,0.073 -7.394,0.004 -8.037,-0.005c-3.308,-0.045 -2.881,-1.741 -3.728,-7.382c-0.095,-0.636 -1.005,-6.698 -1.378,-7.915c-0.54,-1.762 -1.658,-1.454 -5.886,-1.595c-0.4,-0.013 -0.397,0.049 -4.998,0.001c-0.305,-0.003 -3.056,-0.032 -3.725,0.786c-0.583,0.713 -1.729,8.684 -2.11,10.802c-0.498,2.766 -0.665,4.237 -1.289,4.829c-0.62,0.588 -3.669,0.481 -4.866,0.494Zm15.728,-59.868c-0.198,0.231 -0.608,0.198 -0.806,0.429c-0.182,0.212 -0.136,0.545 -0.249,0.802c-0.065,0.148 -0.258,0.238 -0.278,0.399c-0.025,0.204 0.166,0.39 0.157,0.595c-0.006,0.14 -0.182,0.23 -0.199,0.369c-0.076,0.655 -0.04,1.318 -0.075,1.976c-0.104,1.973 -0.213,1.945 -0.515,3.904c-1.734,11.261 -1.873,11.225 -2.117,12.983c-1.111,8.009 -1.662,8.259 -0.707,9.122c0.355,0.321 1.873,0.336 2.038,0.337c6.578,0.064 6.649,0.047 7.058,-0.344c0.871,-0.833 -0.198,-4.501 -0.385,-6.004c-0.429,-3.459 -1.579,-9.789 -2.064,-12.991c-0.43,-2.842 -0.402,-2.844 -0.44,-3.09c-0.867,-5.664 -0.142,-5.81 -1.107,-8.036c-0.073,-0.168 -0.241,-0.282 -0.314,-0.45Z" style="fill:#fefefe;"/><path d="M377.5,108.965c-7.683,0.032 -8.284,-0.023 -8.81,0.681c-0.584,0.783 -0.202,5.604 -0.308,17.853c-0.092,10.531 0.351,12.564 -0.837,13.083c-0.664,0.29 -0.69,0.289 -9.048,0.258c-3.14,-0.012 -2.688,-1.218 -2.684,-4.348c0,-0.208 -0.123,-66.086 0.074,-66.881c0.37,-1.495 3.022,-1.279 7.61,-1.254c1.903,0.01 3.643,-0.173 4.451,0.792c0.584,0.698 0.311,0.828 0.449,14.35c0.095,9.263 -0.487,11.727 0.911,12.324c0.749,0.32 1.114,0.475 10.18,0.291c3.272,-0.066 2.707,-1.337 2.776,-4.615c0.082,-3.957 -0.245,-20.783 0.207,-22.011c0.537,-1.46 3.166,-1.103 9.029,-1.123c1.426,-0.005 3.615,-0.368 3.682,2.156c0.048,1.816 -0.004,55.226 0.031,66.971c0.008,2.63 -0.069,3.329 -2.709,3.341c-8.931,0.042 -9.767,0.125 -10.174,-1.286c-0.262,-0.909 0.216,-28.736 -0.317,-29.755c-0.344,-0.659 -1.012,-0.709 -4.512,-0.827Z" style="fill:#fefefe;"/><path d="M184.399,135.495c-0.047,2.784 -0.043,2.766 -0.051,3.007c-0.04,1.183 0.105,1.323 -0.824,2.041c-0.348,0.269 -3.709,0.26 -4.032,0.259c-6.14,-0.017 -7.932,0.339 -8.715,-0.564c-0.601,-0.692 -0.479,-2.671 -0.481,-2.73c-0.047,-6.078 0.026,-22.765 -0.046,-23.987c-0.17,-2.858 -12.538,-39.784 -13.245,-42.934c-0.262,-1.168 -0.459,-1.371 0.517,-2.044c0.274,-0.189 1.819,-0.173 1.978,-0.172c7.214,0.072 8.437,-0.237 9.362,0.791c0.779,0.866 4.681,14.443 6.123,19.182c1.926,6.327 1.422,6.532 1.85,6.913c0.171,0.153 0.459,-0.011 0.689,-0.009c0.244,0.002 0.532,0.16 0.732,0.02c0.13,-0.091 0.496,-1.496 0.53,-1.629c1.043,-4.011 1.12,-3.967 2.273,-7.297c5.765,-16.656 5.419,-16.987 6.564,-17.642c0.618,-0.353 0.951,-0.544 8.888,-0.354c0.183,0.004 1.855,0.044 1.979,1.153c0.046,0.41 -6.443,19.315 -7.018,20.989c-6.56,19.11 -6.595,19.278 -6.958,21.012c-0.141,0.673 -0.167,0.68 -0.114,23.993Z" style="fill:#fefefe;"/><path d="M104.938,69.786l1.357,0.893c0.224,0.615 2.514,6.893 2.558,7.776c0.12,2.426 -2.848,3.383 -0.14,6.875c3.276,4.226 2.102,4.718 2.53,7.257c0.185,1.099 1.135,1.042 1.265,1.034c0.362,-0.022 10.488,-6.021 12.106,-6.913c3.01,-1.658 3.29,1.466 3.226,1.86c-0.189,1.158 -4.076,3.095 -6.149,4.269c-0.715,0.405 -8.16,4.623 -8.92,5.081c-2.277,1.371 -1.408,4.037 0.739,3.981c1.272,-0.033 10.881,-5.989 15.082,-8.234c2.976,-1.59 3.34,1.283 3.207,1.924c-0.226,1.092 -4.926,3.337 -10.445,6.649c-2.6,1.56 -2.966,1.36 -3.01,2.244c-0.044,0.882 0.146,0.844 0.886,1.324c4.997,3.247 4.057,5.939 5.548,7.417c1.695,1.679 3.408,-0.32 5.786,2.222c1.931,2.064 1.811,2.153 3.737,4.226c0.734,0.79 1.108,0.722 0.84,1.769l-0.675,0.894c-7.224,-1.339 -8.339,-1.581 -9.223,-2.657c-1.152,-1.403 -0.953,-2.944 -4.808,-2.543c-4.347,0.452 -4.35,0.012 -7.088,-1.284c-2.725,-1.29 -2.114,2.546 -2.112,2.653c0.154,7.994 -0.007,11.815 -0.05,12.841c-0.123,0.15 -0.182,0.346 -0.305,0.496c-0.858,1.045 -2.182,0.68 -2.372,0.628c-0.268,-0.074 -0.466,-0.321 -0.734,-0.394c-0.825,-4.894 0.295,-17.569 -0.672,-19.321c-0.582,-1.055 -3.556,-1.913 -3.801,1.74c-0.163,2.427 0.367,16.218 -0.356,17.387c-0.588,0.95 -1.995,1.177 -2.883,0.039c-0.491,-0.629 -0.544,-0.697 -0.517,-12.422c0.004,-1.751 0.202,-3.219 -0.333,-3.701c-1.608,-1.451 -1.748,2.156 -8.641,1.293c-1.612,-0.202 -1.671,-0.418 -3.142,0.295c-1.611,0.781 -1.015,2.792 -3.831,3.505c-2.058,0.521 -5.643,1.189 -6.136,1.281c-0.189,0.035 -2.57,0.479 -1.814,-1.579c0.138,-0.376 0.42,-0.148 3.337,-3.726c1.773,-2.173 2.209,-2.356 2.466,-2.464c1.945,-0.814 3.967,0.818 5.483,-2.73c1.664,-3.894 1.74,-3.967 4.777,-5.929c0.696,-0.45 0.861,-0.42 0.829,-1.248c-0.034,-0.861 -0.836,-0.994 -2.934,-2.196c-10.023,-5.742 -10.198,-5.703 -10.524,-6.643c-0.434,-1.253 0.611,-2.896 2.498,-2.384c0.799,0.217 14.602,8.807 15.907,8.75c1.654,-0.072 2.916,-2.451 0.676,-4.042c-0.043,-0.031 -12.296,-6.968 -13.947,-8.07c-2.968,-1.981 -0.005,-3.677 0.214,-3.708c0.85,-0.12 0.869,0.02 8.14,4.17c4.072,2.324 5.797,3.833 6.694,2.92c0.962,-0.978 -0.738,-3.623 2.531,-7.561c3.279,-3.95 0.084,-4.862 0.16,-7.194c0.01,-0.317 2.02,-6.625 2.98,-8.752Zm8.489,41.834c1.184,0.635 3.892,2.526 5.29,1.082c1.716,-1.773 -1.228,-3.555 -1.503,-3.721c-2.079,-1.258 -4.202,-2.388 -5.331,-1.122c-0.132,0.148 -0.99,1.111 -0.131,2.474c0.299,0.475 0.367,0.39 1.674,1.288Zm-10.127,-19.124c0.02,0.671 -0.02,1.342 0,2.013c0.112,3.72 4.06,3.963 4.179,-0.011c0.013,-0.416 0.137,-4.548 -0.871,-5.132c-0.192,-0.111 -1.786,-1.034 -2.745,0.397c-0.601,0.896 -0.353,0.972 -0.562,2.733Zm-6.954,19.732c0.598,-0.35 0.574,-0.354 1.178,-0.689c0.275,-0.152 3.008,-1.667 1.494,-3.628c-1.299,-1.683 -4.546,0.586 -5.272,1.006c-0.29,0.168 -3.518,2.035 -1.542,3.894c1.355,1.274 3.925,-0.477 4.142,-0.583Z" style="fill:#fefefe;"/></svg>