<?xml version="1.0" encoding="UTF-8" standalone="no"?><!DOCTYPE svg PUBLIC "-//W3C//DTD SVG 1.1//EN" "http://www.w3.org/Graphics/SVG/1.1/DTD/svg11.dtd"><svg width="100%" height="100%" viewBox="0 0 512 512" version="1.1" xmlns="http://www.w3.org/2000/svg" xmlns:xlink="http://www.w3.org/1999/xlink" xml:space="preserve" xmlns:serif="http://www.serif.com/" style="fill-rule:evenodd;clip-rule:evenodd;stroke-linejoin:round;stroke-miterlimit:2;"><g id="Layer-1" serif:id="Layer 1"><path d="M209.936,448.363c0.059,1.663 0.053,1.65 -0.237,3.289c-0.927,3.36 -1.204,3.604 -1.616,4.147c-0.054,0.071 -0.446,0.587 -0.626,0.913c-0.228,0.413 -0.375,0.869 -0.617,1.273c-0.074,0.123 -0.242,0.168 -0.319,0.289c-0.125,0.198 -0.131,0.462 -0.273,0.649c-0.105,0.138 -0.323,0.153 -0.438,0.284c-0.143,0.164 -0.201,0.386 -0.312,0.573c-0.451,0.753 -0.836,0.664 -1.418,1.096c-0.181,0.134 -0.096,0.224 -2.099,1.868c-0.806,0.662 -0.763,0.696 -0.836,0.747c-0.573,0.398 -0.708,0.079 -2.293,0.912c-0.203,0.106 -0.625,0.271 -0.681,0.292c-1.531,0.594 -1.285,0.941 -1.64,1.202l-117.421,0c-0.523,-4.205 -0.152,-4.22 -0.217,-50.962c-0.008,-5.533 -0.017,-5.517 0.004,-8.973c-0.023,-1.369 -0.16,-9.361 -0.017,-17.12l-0.003,-14.674c-0.194,-1.789 -0.066,-1.778 -0.065,-8.975c0.001,-8.268 0.004,-8.261 0.052,-10.593c-0.001,-3.69 -0.013,-3.671 0.011,-7.353c-0.12,-1.636 -0.141,-1.626 -0.064,-3.255c0.022,-0.461 -0.044,-28.903 0.027,-35.065c0.114,-5.826 0.005,-35.574 0.042,-45.657c-0.183,-1.693 -0.07,-1.696 -0.07,-12.236c-0,-4.565 -0.008,-4.555 0.064,-6.5c-0.043,-3.837 -0.047,-6.661 -0.012,-11.465c-0.162,-9.629 -0.006,-17.204 0.025,-18.7c-0.086,-4.692 -0.053,-4.673 -0.02,-9.003c-0.124,-7.159 0.053,-112.062 -0.047,-113.357c-0.255,-3.302 -0.083,-12.72 -0.124,-38.308c-0.002,-1.234 0.054,-1.216 0.108,-2.444l0.066,-1.697c0.344,-1.417 0.916,-1.191 11.657,-1.191l77.483,-0.011c13.304,0.06 13.299,0.108 17.909,0.023c4.033,0.099 11.013,-0.007 11.423,-0.007c3.944,0.003 51.263,-0.023 57.067,0.009c1.826,-0.008 17.826,-0.083 22.822,0.041c1.662,-0.027 1.833,0.081 6.572,0.147c1.197,0.181 1.178,0.215 2.356,0.476c1.704,0.378 2.444,-0.122 5.02,0.279c2.388,0.371 2.406,0.104 4.777,0.538c4.335,0.793 5.092,0.394 6.491,0.837c1.636,0.518 1.634,0.485 3.35,0.583c1.763,0.101 5.841,1.427 9.843,2.096c1.987,0.332 1.925,0.566 4.848,1.071c1.676,0.289 2.287,0.705 2.47,0.751c0.513,0.129 1.047,0.148 1.568,0.243c1.363,0.248 5.013,1.804 13.041,4.061c0.877,0.247 0.791,0.435 1.681,0.665c3.301,0.853 4.616,2.246 7.4,3.022c0.255,0.071 0.516,0.117 0.772,0.184c0.248,0.064 0.517,0.081 0.739,0.209c0.119,0.069 0.093,0.305 0.224,0.346c0.155,0.049 0.314,-0.175 0.47,-0.129c0.085,0.025 -0.05,0.228 0.947,0.572c0.232,0.08 0.475,0.135 0.693,0.249c0.109,0.057 0.157,0.2 0.268,0.255c0.441,0.219 0.924,0.343 1.366,0.557c0.109,0.053 0.166,0.184 0.274,0.237c2.465,1.214 2.502,1.098 4.932,2.395c1.789,0.955 3.178,1.465 5.413,2.972c0.147,0.099 0.641,0.432 1.925,1.103c1.94,1.012 1.983,0.921 3.75,2.194c0.845,0.609 1.336,0.842 2.471,1.609c1.216,0.822 1.251,0.745 2.447,1.613c0.746,0.541 0.817,0.406 1.576,0.933c0.121,0.084 0.168,0.251 0.291,0.331c0.196,0.128 0.454,0.143 0.645,0.278c0.129,0.091 0.156,0.285 0.282,0.38c0.159,0.12 0.22,0.025 2.062,1.396c1.813,1.351 1.722,1.439 4.079,3.25c0.144,0.11 1.688,1.297 1.789,1.391c0.139,0.128 0.179,0.345 0.324,0.465c0.685,0.565 0.739,0.466 1.396,1.063c1.524,1.385 1.428,1.478 3.034,2.755c0.446,0.355 0.503,0.257 0.928,0.647c0.143,0.131 0.167,0.362 0.311,0.493c0.463,0.421 0.667,0.093 1.059,0.57c0.253,0.308 0.326,0.738 0.579,1.046c0.128,0.156 0.383,0.156 0.526,0.298c0.141,0.141 0.153,0.381 0.295,0.521c0.141,0.141 0.381,0.152 0.522,0.292c0.14,0.139 0.138,0.391 0.29,0.517c0.31,0.255 0.741,0.333 1.052,0.588c0.154,0.126 0.155,0.378 0.296,0.518c0.14,0.14 0.378,0.151 0.517,0.292c0.141,0.144 0.152,0.384 0.291,0.53c0.13,0.136 0.365,0.141 0.488,0.284c0.092,0.107 -0.149,0.249 0.918,1.512c1.245,1.474 1.353,1.353 2.357,2.552c0.133,0.159 0.198,0.37 0.34,0.521c0.131,0.14 0.333,0.199 0.464,0.338c0.137,0.145 0.184,0.36 0.327,0.5c0.141,0.138 0.364,0.172 0.503,0.312c0.139,0.14 0.168,0.367 0.308,0.506c0.133,0.133 0.363,0.143 0.486,0.286c0.126,0.147 -0.194,0.342 1.249,2.074c0.114,0.137 0.291,0.214 0.406,0.351c0.134,0.159 0.192,0.375 0.334,0.526c0.125,0.133 0.348,0.161 0.452,0.311c0.501,0.722 0.367,0.791 0.904,1.504c0.134,0.178 0.21,0.398 0.352,0.57c0.113,0.137 0.292,0.211 0.406,0.348c0.133,0.16 0.186,0.38 0.327,0.534c0.12,0.131 0.347,0.149 0.441,0.3c0.238,0.381 0.303,0.851 0.524,1.242c0.072,0.128 0.252,0.165 0.336,0.286c0.72,1.036 0.481,1.172 1.255,2.168c0.832,1.07 2.184,3.176 2.278,3.377c0.365,0.778 1.201,2.191 1.447,2.56c0.513,0.77 0.615,0.688 0.996,1.52c0.1,0.218 0.161,0.455 0.286,0.659c0.071,0.115 0.227,0.164 0.291,0.283c0.435,0.81 0.34,0.847 0.838,1.627c0.126,0.198 0.18,0.44 0.325,0.626c0.103,0.132 0.305,0.164 0.4,0.302c0.179,0.261 -0.147,0.397 1.501,3.654c0.83,1.641 0.858,1.619 1.522,3.341c0.631,1.637 0.976,1.467 1.324,2.562c0.153,0.481 0.244,0.982 0.417,1.457c0.038,0.103 0.164,0.155 0.209,0.255c1.075,2.393 1.183,2.84 1.247,3.099c0.434,1.78 0.39,1.786 1.212,3.427c0.342,0.683 0.183,0.737 0.534,1.407c0.052,0.1 0.197,0.131 0.245,0.233c0.058,0.122 0.52,2.049 0.59,2.202c0.171,0.37 0.301,0.296 0.458,0.951c0.045,0.188 0.285,1.921 0.419,2.295c0.117,0.329 0.308,0.629 0.427,0.958c0.162,0.447 -0.176,0.53 1.442,5.769c0.663,2.147 0.228,2.237 0.841,4.08c0.376,1.132 0.282,1.138 0.603,2.274c0.136,0.482 0.224,0.433 0.361,0.926c0.035,0.124 0.014,0.118 0.195,1.596c0.042,0.259 0.068,0.521 0.11,0.78c0.213,1.303 0.595,1.509 0.655,2.493c0.175,2.885 0.055,2.896 0.7,5.723c0.527,2.313 0.425,5.995 0.41,6.517c-0.052,1.866 0.637,1.776 0.676,4.077c0.003,0.191 0.002,0.177 0.023,2.39c0.209,2.775 0.171,2.766 0.175,19.625c0.001,4.498 -0.088,5.292 -0.14,5.749c-0.133,1.186 0.033,2.916 -0.264,4.047c-0.522,1.989 -0.405,1.998 -0.465,4.061c-0.043,0.849 0.028,0.84 -0.086,1.687c-0.268,1.986 -0.129,1.993 -0.539,3.964c-0.042,0.202 0.048,0.2 -0.365,2.55c-0.284,1.618 0.109,1.661 -0.617,4.776c-0.676,2.899 -0.279,2.976 -1.182,5.8c-0.752,2.352 -0.483,2.409 -1.095,4.802c-1.039,4.061 -1.262,5.324 -1.345,5.792c-0.045,0.257 -0.037,0.534 -0.155,0.767c-0.058,0.114 -0.295,0.071 -0.332,0.194c-0.051,0.171 0.16,0.35 0.116,0.523c-0.03,0.118 -0.25,0.098 -0.302,0.208c-0.271,0.575 0.1,0.673 -1.052,3.988c-0.559,1.61 -0.733,1.532 -1.166,3.198c-0.854,3.283 -1.75,5.253 -1.96,5.821c-0.089,0.24 -0.086,0.513 -0.207,0.738c-0.059,0.111 -0.269,0.099 -0.306,0.219c-0.049,0.156 0.133,0.325 0.087,0.482c-0.036,0.123 -0.243,0.127 -0.298,0.243c-0.113,0.24 -0.03,0.27 -1.215,3.086c-0.706,1.677 -0.648,2.088 -0.834,2.412c-0.067,0.116 -0.239,0.143 -0.308,0.258c-0.391,0.645 -0.208,0.714 -0.553,1.381c-0.547,1.059 -0.372,1.123 -0.645,1.703c-0.06,0.126 -0.309,0.097 -0.35,0.231c-0.048,0.155 0.181,0.313 0.133,0.467c-0.042,0.134 -0.278,0.113 -0.35,0.232c-0.129,0.212 -0.095,0.497 -0.221,0.71c-0.069,0.116 -0.291,0.1 -0.334,0.228c-0.051,0.151 0.147,0.314 0.101,0.466c-0.026,0.084 -0.19,-0.013 -0.57,0.938c-0.347,0.868 -1.022,1.473 -1.222,1.853c-1.187,2.264 -1.064,2.305 -2.27,4.549c-0.062,0.115 -0.196,0.18 -0.255,0.296c-0.219,0.431 -0.351,0.904 -0.574,1.334c-0.059,0.115 -0.198,0.172 -0.263,0.284c-0.042,0.071 0.117,0.197 -1.291,2.168c-0.86,1.204 -0.755,1.261 -1.599,2.477c-0.785,1.132 -0.488,1.264 -0.755,1.674c-0.086,0.132 -0.287,0.153 -0.383,0.278c-0.138,0.179 -0.161,0.429 -0.3,0.607c-0.107,0.136 -0.305,0.178 -0.416,0.31c-0.063,0.075 -1.302,1.852 -1.415,2.014c-0.669,0.96 -0.84,1.475 -0.904,1.58c-0.077,0.124 -0.232,0.186 -0.312,0.308c-0.127,0.194 -0.166,0.44 -0.303,0.627c-0.095,0.13 -0.278,0.175 -0.377,0.303c-0.122,0.156 -0.004,0.214 -1.398,2.039c-2.038,2.668 -2.272,2.937 -2.483,3.182c-0.39,0.451 -0.393,0.433 -0.764,0.901c-0.356,0.45 -0.291,0.482 -0.652,0.932c-0.108,0.134 -0.288,0.197 -0.399,0.328c-0.212,0.25 -0.117,0.303 -0.339,0.544c-0.203,0.22 -0.271,0.119 -0.466,0.331c-0.138,0.145 -0.198,0.353 -0.336,0.498c-0.398,0.418 -0.458,0.354 -0.782,0.841c-1.285,1.931 -3.292,3.422 -3.831,4.229c-0.126,0.189 -0.191,0.417 -0.331,0.596c-0.109,0.139 -0.293,0.206 -0.405,0.343c-0.255,0.313 -0.422,0.695 -0.688,0.999c-0.129,0.147 -0.343,0.198 -0.482,0.337c-0.138,0.137 -0.189,0.35 -0.335,0.478c-0.293,0.257 -0.675,0.399 -0.965,0.659c-0.148,0.132 -0.187,0.355 -0.325,0.498c-0.135,0.14 -0.342,0.194 -0.478,0.333c-0.138,0.141 -0.189,0.353 -0.327,0.494c-0.137,0.139 -0.351,0.187 -0.482,0.332c-0.261,0.287 -0.416,0.66 -0.678,0.946c-0.134,0.146 -0.351,0.194 -0.493,0.333c-0.136,0.133 -0.188,0.338 -0.328,0.467c-0.148,0.137 -0.37,0.177 -0.518,0.316c-0.133,0.125 -0.165,0.337 -0.304,0.455c-0.495,0.419 -0.599,0.227 -1.131,0.618c-0.072,0.053 -0.063,0.054 -0.855,0.726c-0.852,0.794 -0.871,0.755 -1.726,1.534c-0.782,0.713 -0.79,0.702 -0.856,0.766c-0.139,0.135 -0.196,0.341 -0.335,0.477c-0.14,0.138 -0.347,0.194 -0.488,0.331c-0.134,0.131 -0.173,0.346 -0.321,0.459c-0.955,0.731 -1.077,0.538 -2.008,1.315c-0.658,0.55 -0.569,0.621 -1.217,1.157c-0.161,0.133 -0.373,0.196 -0.528,0.335c-0.428,0.386 -0.368,0.446 -0.878,0.732c-0.205,0.115 -1.086,0.609 -2.357,1.748c-0.129,0.116 -0.184,0.308 -0.328,0.405c-0.209,0.139 -0.261,0.04 -2.734,1.543c-0.31,0.189 -0.775,0.631 -0.838,0.691c-1.851,1.762 -2.145,1.329 -3.414,2.296c-0.134,0.102 -0.204,0.276 -0.344,0.37c-0.746,0.501 -0.783,0.415 -1.505,0.94c-1.48,1.075 -2.893,1.8 -3.06,1.931c-0.132,0.104 -0.178,0.295 -0.315,0.394c-0.562,0.406 -0.669,0.17 -1.263,0.541c-0.115,0.072 -0.147,0.245 -0.268,0.308c-0.427,0.224 -0.913,0.32 -1.344,0.538c-0.123,0.062 -0.177,0.216 -0.292,0.291c-0.122,0.079 -0.157,-0.025 -1.605,0.853c-0.203,0.123 -0.444,0.182 -0.632,0.325c-0.132,0.101 -0.176,0.293 -0.311,0.39c-0.56,0.405 -0.673,0.16 -1.262,0.543c-0.117,0.076 -0.144,0.252 -0.262,0.326c-0.626,0.392 -0.718,0.165 -1.348,0.539c-0.111,0.066 -0.151,0.228 -0.269,0.281c-0.449,0.203 -0.955,0.264 -1.401,0.475c-0.118,0.056 -0.123,0.263 -0.247,0.304c-0.141,0.047 -0.299,-0.121 -0.439,-0.073c-0.127,0.044 -0.14,0.243 -0.256,0.311c-0.201,0.117 -1.388,0.34 -3.338,1.507c-0.204,0.122 -0.437,0.194 -0.63,0.333c-0.125,0.09 -0.164,0.291 -0.309,0.345c-0.125,0.047 -0.268,-0.124 -0.394,-0.079c-0.121,0.044 -0.123,0.245 -0.236,0.306c-0.232,0.125 -0.332,-0.117 -3.053,1.255c-1.167,0.588 -1.206,0.46 -2.433,0.896c-0.162,0.058 -0.114,0.134 -1.925,0.957c-2.22,1.01 -2.818,1.197 -3.072,1.276c-0.195,0.061 -1.686,0.527 -2.38,0.92c-0.471,0.266 -0.433,0.313 -0.965,0.453c-0.251,0.066 -0.506,0.116 -0.758,0.18c-0.884,0.227 -0.804,0.423 -1.682,0.654c-0.386,0.101 -2.03,0.385 -2.265,0.475c-0.33,0.126 -0.621,0.343 -0.952,0.464c-0.399,0.145 -3.816,1.305 -4.148,1.417c-1.596,0.542 -1.643,0.345 -3.217,0.965c-2.739,1.08 -2.935,0.418 -5.002,1.377c-1.063,0.493 -2.209,0.3 -4.031,0.876c-0.609,0.192 -7.252,1.926 -8.848,2.151c-1.665,0.234 -1.626,0.376 -3.275,0.67c-1.494,0.266 -2.364,0.658 -3.293,0.721c-0.541,0.037 -1.084,0.019 -1.625,0.053c-1.47,0.092 -3.315,0.764 -4.076,0.841c-1.057,0.107 -4.555,0.315 -4.951,0.338c-0.186,0.055 -1.87,0.555 -2.336,0.637c-0.878,0.156 -0.842,0.233 -1.705,0.477c-0.218,0.062 -5.238,0.353 -5.694,0.379c-1.685,0.098 -1.704,-0.218 -3.345,0.201c-4.103,1.048 -8.697,0.332 -10.591,0.852c-1.959,0.538 -1.993,0.377 -18.686,0.368c-27.037,-0.015 -27.077,-0.044 -27.49,0.186c-0.679,0.377 -0.609,0.586 -0.637,11.092c-0.076,3.638 -0.059,15.066 -0.031,27.759l0.008,3.297c-0.017,0.817 -0.031,1.857 -0.03,3.189l-0.001,35.876Z" style="fill:#fff;"/></g></svg>