<?xml version="1.0" encoding="UTF-8" standalone="no"?><!DOCTYPE svg PUBLIC "-//W3C//DTD SVG 1.1//EN" "http://www.w3.org/Graphics/SVG/1.1/DTD/svg11.dtd"><svg width="100%" height="100%" viewBox="0 0 25 25" version="1.1" xmlns="http://www.w3.org/2000/svg" xmlns:xlink="http://www.w3.org/1999/xlink" xml:space="preserve" xmlns:serif="http://www.serif.com/" style="fill-rule:evenodd;clip-rule:evenodd;stroke-linejoin:round;stroke-miterlimit:2;"><g id="g35"><g id="g37"><g id="g47"><path id="path49" d="M12.52,15.918c-1.947,0 -3.54,-1.593 -3.54,-3.54l0,-5.91c0,-1.947 1.593,-3.54 3.54,-3.54c1.947,0 3.54,1.593 3.54,3.54l0,5.91c0,1.947 -1.593,3.54 -3.54,3.54Zm-2.428,-9.424c0.015,-1.319 1.097,-2.428 2.428,-2.428c0.352,0 0.352,-0.547 0,-0.547c-1.63,0 -2.956,1.36 -2.975,2.975c-0.004,0.352 0.543,0.352 0.547,0Z" style="fill:#fff;fill-rule:nonzero;"/></g><g id="g51"></g><g id="g55"><path id="path57" d="M16.667,12.898c-0.006,0.77 -0.279,1.552 -0.734,2.14c-0.516,0.668 -1.213,1.141 -1.971,1.394c-1.627,0.542 -3.461,0.128 -4.624,-1.124c-0.177,-0.19 -0.254,-0.29 -0.386,-0.495c-0.064,-0.099 -0.124,-0.2 -0.179,-0.304c-0.028,-0.052 -0.054,-0.104 -0.08,-0.157c0.001,0.002 -0.073,-0.16 -0.04,-0.084c-0.203,-0.479 -0.277,-0.89 -0.28,-1.369c-0.005,-0.703 -1.099,-0.705 -1.093,0c0.016,2.136 1.521,3.927 3.508,4.588c1.979,0.659 4.319,0.109 5.728,-1.449c0.782,-0.865 1.236,-1.97 1.245,-3.139c0.005,-0.704 -1.088,-0.704 -1.093,0" style="fill:#fff;fill-rule:nonzero;"/></g><g id="g59"><path id="path61" d="M12.52,22.232c0.362,0 0.658,-0.296 0.658,-0.658l0,-4.071c0,-0.362 -0.296,-0.658 -0.658,-0.658c-0.362,0 -0.658,0.296 -0.658,0.658l0,4.071c0,0.362 0.296,0.658 0.658,0.658" style="fill:#fff;fill-rule:nonzero;"/></g><g id="g63"><path id="path65" d="M15.793,22.232l-6.548,0c-0.301,0 -0.547,-0.246 -0.547,-0.547c0,-0.301 0.246,-0.547 0.547,-0.547l6.548,0c0.301,0 0.547,0.246 0.547,0.547c0,0.301 -0.246,0.547 -0.547,0.547" style="fill:#fff;fill-rule:nonzero;"/></g></g></g></svg>