<?xml version="1.0" encoding="UTF-8" standalone="no"?><!DOCTYPE svg PUBLIC "-//W3C//DTD SVG 1.1//EN" "http://www.w3.org/Graphics/SVG/1.1/DTD/svg11.dtd"><svg width="100%" height="100%" viewBox="0 0 512 512" version="1.1" xmlns="http://www.w3.org/2000/svg" xmlns:xlink="http://www.w3.org/1999/xlink" xml:space="preserve" xmlns:serif="http://www.serif.com/" style="fill-rule:evenodd;clip-rule:evenodd;stroke-linejoin:round;stroke-miterlimit:2;"><g id="Layer-1" serif:id="Layer 1"><path d="M228.487,225.521c7.752,0.272 7.717,0.586 15.464,1.043c8.383,0.494 8.371,1.296 17.308,0.533c10.816,-0.924 10.825,-0.672 11.764,-0.754c3.786,-0.327 3.956,-0.568 10.938,-0.815c1.556,-0.055 22.877,-1.634 23.669,-1.664c6.511,-0.241 7.471,0.975 7.477,7.479c0.007,6.587 0.687,11.031 -4.716,11.275c-6.633,0.3 -22.152,0.352 -26.934,9.864c-5.116,10.177 -4.459,25.664 -4.459,51.66c0,62.081 -0.04,62.082 0.248,66.441c0.526,7.961 0.812,12.577 2.569,19.195c1.203,4.532 3.686,11.926 20.31,13.957c7.94,0.97 12.96,-1.547 12.982,6.875c0.026,9.642 0.718,12.603 -6.554,12.448c-10.052,-0.215 -10.028,-0.458 -20.045,-1.321c-4.04,-0.348 -4.003,-0.576 -8.19,-0.914c-1.47,-0.119 -3.594,-0.573 -9.097,-0.855c-7.972,-0.408 -7.959,-1.042 -20.913,-0.227c-6.837,0.43 -6.836,0.249 -13.646,0.946c-1.6,0.164 -1.6,0.059 -20.025,1.758c-3.984,0.367 -15.813,0.78 -17.225,0.526c-4.435,-0.798 -3.923,-4.226 -3.891,-12.36c0.036,-9.153 4.897,-5.179 18.375,-7.345c3.293,-0.529 3.315,-0.397 6.481,-1.467c12.664,-4.282 11.242,-21.83 11.242,-37.597c-0,-93.536 -0.006,-93.528 0.059,-98.277c0.038,-2.75 -0.379,-5.252 -0.784,-8.141c-0.225,-1.606 -1.636,-6.779 -4.566,-9.748c-3.589,-3.636 -7.711,-4.264 -17.857,-5.121c-8.929,-0.755 -12.943,1.698 -12.951,-7.022c-0.008,-8.212 -0.782,-12.158 5.65,-12.081c4.911,0.059 26.086,1.63 27.314,1.708Z" style="fill:#fefefe;"/><path d="M470.881,177.667c-0.327,9.487 -1.391,14.621 -1.917,19.13c-0.219,1.876 -2.324,13.732 -5.195,23.508c-1.049,3.573 -11.46,43.581 -45.828,78.578c-1.982,2.018 -2.541,0.747 -6.847,-3.557c-6.607,-6.603 -6.633,-6.552 -13.22,-13.171c-7.184,-7.22 -7.405,-7.156 -7.503,-8.03c-0.181,-1.607 0.879,-1.148 9.892,-11.999c8.891,-10.704 18.445,-27.256 23.069,-39.833c2.012,-5.471 8.383,-21.837 9.707,-43.74c0.664,-10.989 0.582,-10.988 -0.186,-24.53c-0.178,-3.131 -2.061,-16.224 -4.602,-25.4c-0.773,-2.792 -5.07,-18.307 -13.661,-33.543c-4.505,-7.989 -10.451,-16.489 -14.264,-21.06c-4.121,-4.942 -4.079,-4.964 -8.542,-9.608c-2.429,-2.527 -1.351,-3.07 0.101,-4.525c1.854,-1.858 22.806,-22.854 23.222,-23.172c1.757,-1.346 2.932,0.569 5.564,3.348c43.152,45.565 48.269,99.325 49,103.914c0.104,0.651 0.052,0.652 0.871,8.196c0.202,1.864 0.928,15.135 0.342,25.494Z" style="fill:#fefefe;"/><path d="M76.915,166.738c0.021,20.934 3.921,34.735 4.425,37.239c1.265,6.287 9.831,37.928 34.381,64.594c3.969,4.311 5.538,4.806 3.288,7.113c-5.831,5.979 -21.345,21.353 -23.209,23.201c-1.97,1.952 -2.583,0.756 -4.98,-1.8c-7.794,-8.308 -8.312,-9.354 -12.605,-14.7c-6.512,-8.109 -14.368,-21.093 -17.707,-27.582c-20.246,-39.35 -21.964,-74.3 -20.989,-95.33c0.977,-21.064 5.475,-50.735 24.063,-83.841c7.632,-13.592 18.484,-27.943 28.976,-38.469c1.939,-1.945 2.559,-0.622 5.128,1.916c5.532,5.464 22.023,21.837 22.26,22.23c1.23,2.04 -1.76,1.797 -14.084,18.241c-12.537,16.729 -23.558,41.132 -27.074,65.275c-1.13,7.757 -1.523,11.995 -1.874,21.913Z" style="fill:#fefefe;"/><path d="M370.98,159.483c-0.489,-4.295 -2.412,-23.626 -15.727,-42.095c-7.572,-10.503 -9.957,-10.091 -8.513,-12.555c0.14,-0.24 19.073,-19.053 20.528,-20.431c2.968,-2.809 3.656,-4.918 6.055,-2.464c7.589,7.764 13.439,16.301 16.314,21.035c9.904,16.305 13.109,28.726 15.047,36.544c3.213,12.956 3.924,29.02 2.945,38.126c-0.607,5.645 -2.545,40.76 -30.461,72.225c-3.735,4.21 -4.8,6.333 -6.84,4.332c-3.452,-3.385 -18.449,-18.786 -20.302,-20.66c-1.985,-2.007 -3.816,-3.206 -3.03,-4.79c0.164,-0.329 11.894,-11.61 18.594,-29.366c7.005,-18.564 5.742,-32.674 5.389,-39.901Z" style="fill:#fefefe;"/><path d="M102.522,168.555c0.01,-2.437 -2.232,-46.985 32.917,-84.827c2.481,-2.671 3.145,-3.874 5.087,-1.983c0.923,0.899 0.9,0.904 11.444,11.339c3.895,3.855 3.839,3.887 7.72,7.752c3.46,3.446 4.872,4.252 4.258,5.883c-0.432,1.147 -10.378,9.273 -18.042,27.355c-1.625,3.835 -10.635,25.092 -5.002,51.818c5.369,25.477 20.234,40.257 21.824,42.009c1.892,2.083 0.766,2.537 -2.205,5.557c-17.445,17.73 -17.346,17.826 -18.905,19.324c-1.672,1.606 -1.633,1.642 -1.782,1.777c-0.127,0.116 -0.977,0.89 -2.143,0.137c-0.194,-0.126 -11.266,-11.206 -19.445,-26.02c-15.031,-27.223 -15.619,-50.023 -15.725,-60.123Z" style="fill:#fefefe;"/><path d="M213.521,168.558c0.002,-0.179 -1.422,-17.441 13.119,-30.953c4.396,-4.085 10.67,-7.805 16.518,-9.575c1.32,-0.4 8.506,-2.575 17.174,-1.453c30.975,4.011 45.728,38.045 30.755,62.806c-14.985,24.781 -48.673,27.551 -67.494,5.842c-10.782,-12.436 -10.046,-25.508 -10.073,-26.667Z" style="fill:#fefefe;"/><path d="M165.306,174.958c-0.001,-0.018 -0.556,-4.797 -0.348,-9.125c0.266,-5.542 0.247,-5.536 1.211,-11.004c0.411,-2.328 2.715,-15.4 11.08,-27.399c2.843,-4.079 3.406,-5.787 5.728,-3.474c5.704,5.683 5.683,5.679 11.361,11.394c0.294,0.296 0.657,0.519 0.944,0.822c2.216,2.338 -1.521,2.48 -6.051,15.055c-0.451,1.253 -2.714,7.534 -2.772,16.417c-0.109,16.657 8.008,27.791 8.255,28.261c1.274,2.425 0.174,2.668 -6.207,9.127c-5.841,5.913 -5.811,5.921 -6.32,6.433c-0.145,0.145 -1.428,1.437 -2.526,0.433c-0.315,-0.288 -4.44,-6.427 -5.359,-8.098c-8.423,-15.299 -8.934,-28.054 -8.997,-28.841Z" style="fill:#fefefe;"/><path d="M345.307,173.125c-1.285,21.984 -13.325,37.045 -13.667,37.535c-0.78,1.115 -1.368,2.869 -3.759,0.44c-11.229,-11.406 -11.256,-11.377 -12.167,-12.429c-1.669,-1.926 0.878,-2.746 4.419,-11.108c4.269,-10.082 6.67,-27.436 -2.165,-43.751c-2.994,-5.529 -3.855,-5.508 -3.119,-7.149c0.172,-0.384 13.316,-13.499 13.71,-13.625c1.663,-0.534 2.479,1.319 4.706,4.467c7.192,10.164 9.811,21.649 10.27,23.661c1.429,6.266 2.351,11.402 1.771,21.96Z" style="fill:#fefefe;"/><path d="M70.67,462.506c-1.367,-23.067 17.107,-26.014 25.778,-22.585c13.793,5.454 12.098,22.878 10.847,27.068c-1.109,3.716 -3.543,11.315 -13.489,13.764c-2.734,0.673 -7.676,0.365 -9.141,0.054c-12.913,-2.746 -13.867,-16.462 -13.995,-18.3Zm11.616,1.75c0.092,0.437 0.794,3.778 1.857,5.261c3.102,4.325 10.671,4.22 12.137,-4.347c1.369,-8.002 0.045,-17.591 -7.042,-17.539c-3.36,0.025 -5.095,2.664 -5.367,3.077c-0.748,1.138 -1.435,3.452 -1.574,4.54c-0.569,4.489 -0.339,4.493 -0.012,9.009Z" style="fill:#fdfdfd;"/><path d="M401.726,459.753c-0.067,2.066 0.122,3.725 -1.239,8.197c-2.256,7.41 -8.177,10.272 -9.197,10.765c-2.71,1.31 -3.016,1.894 -21.769,1.736c-3.051,-0.026 -2.433,-1.284 -2.434,-4.322c-0.002,-3.803 -0.005,-34.192 0.004,-34.565c0.047,-2.027 1.233,-2.097 2.42,-2.111c14.755,-0.18 15.93,0.06 17.286,0.336c0.829,0.169 5.415,0.848 9.166,4.433c6.206,5.932 5.733,14.225 5.764,15.531Zm-23.606,6.367c0,1.041 -0.256,4.538 0.707,5.125c0.567,0.345 5.537,0.663 7.718,-0.951c3.541,-2.622 3.928,-8.01 3.611,-13.251c-0.475,-7.848 -6.065,-8.471 -6.942,-8.568c-3.807,-0.424 -4.344,0.086 -4.612,0.341c-0.807,0.766 -0.197,4.442 -0.482,17.305Z" style="fill:#fdfdfd;"/><path d="M113.319,453.38c0.263,-11.859 -0.127,-11.89 0.187,-12.87c0.427,-1.336 2.445,-1.058 7.585,-1.058c8.811,0 17.554,-1.064 23.521,7.65c6.029,8.806 5.222,30.784 -12.655,33.173c-2.422,0.324 -17.156,0.146 -17.189,0.136c-1.132,-0.357 -1.265,-0.406 -1.433,-1.592c-0.018,-0.13 -0.014,-2.777 -0.015,-25.439Zm11.04,4.55c-0,12.573 -0.118,12.798 0.625,13.289c0.665,0.44 5.655,0.627 7.716,-0.871c4.047,-2.941 4.026,-9.503 3.579,-14.202c-0.672,-7.06 -6.128,-7.602 -6.953,-7.684c-3.797,-0.377 -4.308,0.134 -4.568,0.393c-0.493,0.493 -0.397,1.989 -0.399,9.075Z" style="fill:#fefdfd;"/><path d="M336.753,454.346c-0.482,-0.001 -0.043,-0.639 -0.533,-0.64c-0.055,-0 -0.123,-0 -0.253,0.638c-0.475,2.344 0.631,2.338 0.632,12.687c0.001,12.189 0.093,12.331 -0.549,12.96c-0.428,0.419 -0.629,0.616 -7.473,0.453c-1.047,-0.025 -1.16,0.136 -1.848,-0.66c-0.355,-0.411 -0.312,-0.499 -0.312,-32.772c0,-5.935 -0.502,-7.418 2.134,-7.547c0.225,-0.011 8.616,-0.016 9.128,0.003c2.637,0.097 2.26,1.107 7.485,12.91c3.506,7.921 3.463,9.459 3.665,9.973c0.082,0.209 0.328,0.326 0.406,0.535c0.083,0.221 0.027,0.472 0.06,0.705c0.076,0.532 0.352,1.462 0.372,1.48c0.093,0.08 1.341,0.087 1.402,0.015c0.356,-0.423 -0.14,-2.412 -0.191,-2.616c-0.683,-2.734 -0.765,-5.413 -0.775,-10.909c-0.02,-10.975 -0.055,-11.099 0.495,-11.633c0.417,-0.406 0.625,-0.53 7.095,-0.474c1.563,0.014 1.897,-0.21 2.49,1.247c0.081,0.2 0.08,4.13 0.08,4.489c-0.011,33.8 0.066,33.84 -0.197,34.414c-0.419,0.915 -1.106,0.888 -8.748,0.843c-2.985,-0.017 -3.59,0.321 -4.701,-2.433c-3.323,-8.235 -7.457,-16.106 -9.144,-23.6c-0.24,-0.023 -0.48,-0.046 -0.72,-0.069Z" style="fill:#fefefd;"/><path d="M205.719,439.452c1.895,-0 6.138,-0.005 6.39,0.015c1.792,0.146 2.031,1.027 2.423,2.182c1.069,3.148 8.716,29.187 9.462,31.728c0.689,2.346 0.699,2.331 1.401,4.672c0.344,1.148 0.656,1.333 -0.253,2.095c-0.584,0.489 -2.833,0.304 -3.043,0.303c-4.863,-0.017 -6.153,0.2 -7.402,-0.546c-1.05,-0.628 -1.646,-6.355 -2.857,-6.989c-0.848,-0.444 -9.725,-0.393 -10.46,-0.033c-1.356,0.664 -1.785,6.365 -2.829,7.005c-1.196,0.733 -2.164,0.559 -6.481,0.566c-2.823,0.005 -4.299,0.251 -3.46,-2.449c1.134,-3.65 9.653,-33.605 10.485,-36.53c0.711,-2.501 2.235,-2.016 6.625,-2.02Zm1.516,9.542c-0.404,-0.229 -0.198,-0.44 -0.606,-0.672c-0.036,-0.021 -0.287,-0.163 -0.52,0.033c-0.377,0.318 -1.033,5.701 -1.314,6.842c-0.126,0.512 -1.568,6.362 -1.575,6.405c-0.289,1.753 1.393,1.816 1.587,1.823c0.292,0.011 2.362,0.088 3.646,-0.006c0.116,-0.009 0.975,-0.071 1.237,-0.767c0.754,-2.004 -1.253,-1.997 -2.455,-13.657Z" style="fill:#fdfdfd;"/><path d="M434.451,458.841c-0.002,2.287 0.31,4.481 -1.075,4.934c-1.326,0.434 -13.712,-0.086 -14.807,0.343c-0.839,0.329 -0.862,1.827 -0.864,2.001c-0.049,3.329 -0.278,5.138 1.878,5.211c0.895,0.03 14.95,-0.076 15.508,0.073c1.164,0.31 1.106,1.82 1.099,2.003c-0.014,0.356 -0.822,5.44 -0.849,5.539c-0.491,1.781 -1.17,1.507 -13.043,1.507c-14.343,0 -14.68,0.147 -15.162,-0.834c-0.236,-0.479 -0.225,-0.509 -0.221,-34.427c0,-2.051 -0.256,-5.016 0.807,-5.491c0.531,-0.237 0.556,-0.257 22.767,-0.247c0.97,0 3.646,-0.176 4.307,0.517c0.802,0.842 0.56,7.339 0.176,7.91c-0.641,0.953 -1.482,0.727 -14.494,0.742c-3.283,0.004 -2.781,1.279 -2.761,3.849c0.021,2.7 0.983,2.415 3.673,2.415c11.758,0.002 12.009,-0.1 12.584,0.47c0.844,0.837 0.396,1.022 0.48,3.484Z" style="fill:#fefefd;"/><path d="M46.823,472.49c-0.001,4.053 0.088,6.852 -0.31,7.309c-0.697,0.801 -0.813,0.63 -1.87,0.65c-7.853,0.144 -8.006,0.025 -8.32,-0.564c-0.538,-1.008 -0.387,-1.092 -0.407,-34.695c-0,-0.357 -0.003,-4.308 0.051,-4.463c0.493,-1.421 0.813,-1.254 2.306,-1.275c16.184,-0.229 17.573,0.149 19.044,0.549c12.575,3.419 10.887,16.777 7.118,21.383c-1.703,2.082 -4.28,3.514 -6.082,4.002c-7.745,2.098 -11.112,-0.575 -11.52,2.582c-0.006,0.05 -0.01,4.161 -0.01,4.523Zm-0,-20.02c0.002,1.201 -0.152,3.96 0.484,4.624c0.554,0.579 9.121,1.907 8.829,-4.604c-0.262,-5.85 -8.499,-4.139 -8.536,-4.122c-0.602,0.289 -0.748,1.277 -0.767,1.404c-0.059,0.398 -0.002,0.387 -0.011,2.698Z" style="fill:#fefdfd;"/><path d="M243.939,481.2c-3.919,-0.207 -6.075,-0.186 -10.031,-2.305c-4.692,-2.513 -7.331,-9.421 -6.053,-10.655c0.455,-0.44 0.56,-0.541 7.896,-0.424c2.507,0.04 2.151,0.86 3.531,2.934c2.131,3.204 10.345,3.034 9.542,-1.964c-0.707,-4.4 -7.836,-3.024 -15.825,-8.097c-3.279,-2.082 -5.16,-6.498 -4.493,-10.943c0.591,-3.935 2.335,-5.84 2.716,-6.355c4.11,-5.549 19.302,-7.275 25.378,0.949c1.595,2.159 2.22,4.929 2.224,5.404c0.002,0.168 0.013,1.481 -1.26,1.688c-0.338,0.055 -7.126,0.018 -7.249,0.01c-2.466,-0.165 -2.07,-2.118 -3.715,-3.431c-1.795,-1.432 -6.177,-1.102 -6.789,0.977c-1.671,5.678 8.239,4.128 16.026,9.764c6.689,4.841 4.559,15.216 0.839,18.287c-3.325,2.745 -5.738,4.005 -12.737,4.162Z" style="fill:#fdfdfd;"/><path d="M457.467,451.188c4.989,-11.414 5.406,-11.243 5.801,-11.417c1.066,-0.468 3.583,-0.292 7.26,-0.321c0.226,-0.002 2.475,-0.019 2.822,0.13c0.174,0.075 0.592,0.852 0.558,1.023c-0.061,0.3 -9.759,16.547 -9.984,17.23c-0.617,1.867 0.812,3.636 1.912,5.635c7.3,13.271 7.413,13.455 8.112,14.593c0.107,0.174 1.468,2.391 -0.714,2.448c-0.484,0.013 -7.512,-0.057 -8.166,-0.064c-3.072,-0.031 -2.894,-0.797 -4.295,-3.526c-1.894,-3.688 -1.615,-3.801 -3.496,-7.497c-0.524,-1.03 -0.487,-1.085 -0.63,-1.104c-0.186,-0.026 -1.178,0.463 -1.336,0.696c-0.31,0.456 -0.096,0.552 -2.829,6.28c-1.901,3.985 -1.947,5.113 -4.71,5.153c-7.977,0.114 -8.063,0.125 -8.56,-0.348c-0.805,-0.765 -0.288,-1 2.953,-6.785c6.906,-12.326 7.586,-12.452 6.739,-14.576c-0.138,-0.346 -8.643,-15.803 -9.034,-16.433c-0.305,-0.49 -0.885,-1.674 -0.884,-1.707c0.003,-0.149 0.024,-1.085 1.457,-1.17c1.141,-0.067 7.587,0.016 8.247,0.025c2.534,0.033 2.806,0.366 4.673,4.768c1.349,3.182 1.543,3.083 2.724,6.339c0.076,0.208 0.065,0.509 0.262,0.61c0.039,0.02 -0.065,-0.23 0.495,-0.222c0.356,0.005 0.278,0.234 0.623,0.239Z" style="fill:#fdfdfc;"/><path d="M182.06,452.996c-2.065,-0 -5.277,0.226 -6.061,-0.767c-0.132,-0.167 -0.706,-1.591 -1.243,-2.471c-1.357,-2.224 -6.759,-4.303 -9.836,0.976c-2.392,4.103 -3.49,20.634 4.415,21.643c5.373,0.686 6.32,-4.411 6.8,-4.947c0.464,-0.518 0.706,-0.789 8.668,-0.648c0.184,0.003 1.835,0.032 2.021,1.109c0.141,0.817 -1.126,4.048 -1.346,4.494c-5.057,10.241 -17.163,9.897 -23.408,7.319c-10.366,-4.278 -13.896,-21.609 -6.447,-33.635c5.261,-8.494 20.045,-10.004 27.206,-2.561c2.948,3.064 4.01,7.463 3.979,8.067c-0.007,0.147 -0.052,1.035 -1.182,1.403c-0.091,0.03 -3.28,0.02 -3.565,0.019Z" style="fill:#fdfdfd;"/><path d="M293.431,444.28c-0.002,0.223 -0.025,2.789 -0.025,2.789c-0.255,1.546 -0.6,1.517 -2.155,1.55c-6.942,0.147 -7.151,-0.212 -7.779,0.557c-0.483,0.593 -0.373,0.702 -0.383,26.954c-0.001,3.141 0.382,4.306 -2.752,4.319c-6.673,0.026 -7.51,0.083 -8.158,-0.697c-0.342,-0.411 -0.309,-0.49 -0.307,-22.731c0,-3.972 0.027,-7.004 -0.052,-7.205c-0.551,-1.405 -0.88,-1.184 -2.398,-1.195c-4.597,-0.033 -6.83,0.224 -7.505,-0.445c-0.378,-0.374 -0.885,-0.876 -0.602,-6.621c0.102,-2.077 1.048,-2.092 2.639,-2.103c2.262,-0.014 27.318,-0.172 28.271,0.081c0.851,0.227 1.06,0.901 1.095,1.015c0.108,0.348 0.111,3.433 0.111,3.731Z" style="fill:#fefefd;"/><path d="M314.918,439.452c2.531,0.008 4.578,-0.53 4.735,2.086c0.001,0.018 -0,36.395 -0.001,36.416c-0.049,3.037 -1.566,2.5 -6.555,2.497c-1.371,-0.001 -3.31,0.108 -3.876,-0.308c-1.029,-0.756 -0.859,-1.003 -0.859,-10.382c-0,-28.694 -0.016,-28.706 0.112,-29.143c0.311,-1.068 1.694,-1.142 1.869,-1.151c0.229,-0.012 4.208,-0.013 4.574,-0.013Z" style="fill:#fefefe;"/></g></svg>