<?xml version="1.0" encoding="UTF-8" standalone="no"?><!DOCTYPE svg PUBLIC "-//W3C//DTD SVG 1.1//EN" "http://www.w3.org/Graphics/SVG/1.1/DTD/svg11.dtd"><svg width="100%" height="100%" viewBox="0 0 24 25" version="1.1" xmlns="http://www.w3.org/2000/svg" xmlns:xlink="http://www.w3.org/1999/xlink" xml:space="preserve" xmlns:serif="http://www.serif.com/" style="fill-rule:evenodd;clip-rule:evenodd;stroke-linejoin:round;stroke-miterlimit:2;"><path d="M12,13.443c0.521,0 0.943,-0.422 0.943,-0.943c0,-0.521 -0.422,-0.943 -0.943,-0.943c-0.521,0 -0.943,0.422 -0.943,0.943c0,0.521 0.422,0.943 0.943,0.943Zm0,2.264c1.771,0 3.207,-1.436 3.207,-3.207c0,-1.771 -1.436,-3.208 -3.207,-3.208c-1.771,0 -3.208,1.436 -3.208,3.208c0,1.771 1.436,3.207 3.208,3.207Z" style="fill:#fff;"/><path d="M12,2.5c5.523,0 10,4.477 10,10c0,2.354 -0.813,4.517 -2.174,6.225l2.076,2.076l-1.601,1.601l-2.076,-2.076c-1.708,1.361 -3.872,2.174 -6.225,2.174c-5.523,0 -10,-4.477 -10,-10c0,-5.523 4.477,-10 10,-10Zm7.736,10c0,-4.272 -3.463,-7.736 -7.736,-7.736c-4.272,0 -7.736,3.463 -7.736,7.736c0,4.272 3.463,7.736 7.736,7.736c1.728,0 3.323,-0.566 4.611,-1.524l-1.449,-1.449c-0.442,-0.442 -0.442,-1.159 0,-1.601c0.442,-0.442 1.159,-0.442 1.601,0l1.449,1.449c0.957,-1.288 1.524,-2.883 1.524,-4.611Z" style="fill:#fff;"/></svg>