<?xml version="1.0" encoding="UTF-8" standalone="no"?><!DOCTYPE svg PUBLIC "-//W3C//DTD SVG 1.1//EN" "http://www.w3.org/Graphics/SVG/1.1/DTD/svg11.dtd"><svg width="100%" height="100%" viewBox="0 0 512 512" version="1.1" xmlns="http://www.w3.org/2000/svg" xmlns:xlink="http://www.w3.org/1999/xlink" xml:space="preserve" xmlns:serif="http://www.serif.com/" style="fill-rule:evenodd;clip-rule:evenodd;stroke-linejoin:round;stroke-miterlimit:2;"><g id="Layer-1" serif:id="Layer 1"><path d="M380.493,283.96c-0.071,-0.168 -0.145,-0.338 -0.158,-0.506c-0.032,-0.409 1.333,-20.184 1.454,-21.938c1.218,-17.644 1.086,-26.519 6.982,-34.826c0.555,-0.782 3.878,-5.464 8.68,-8.266c13.586,-7.927 18.462,-4.488 19.576,-8.007c0.528,-1.668 -0.971,-23.214 -7.985,-40.692c-0.648,-1.614 -0.563,-2.368 -2.213,-1.828c-0.288,0.094 -1.258,3.523 -2.559,5.452c-7.551,11.195 -23.629,7.663 -27.874,-0.794c-2.817,-5.613 -5.702,-31.218 -33.009,-51.9c-18.75,-14.201 -46.85,-22.099 -72.931,-24.709c-4.707,-0.471 -30.886,-3.091 -58.96,4.534c-16.854,4.578 -30.869,9.999 -44.603,20.504c-4.425,3.385 -13.223,12.132 -17.911,19.819c-9.667,15.851 -10.08,25.536 -12.788,31.554c-4.509,10.02 -13.898,10.639 -19.686,9.12c-10.286,-2.7 -10.792,-14.479 -10.955,-15.015c-0.279,-0.914 -0.593,-0.576 -0.968,-0.561c-0.22,0.009 -0.483,-0.178 -0.659,-0.046c-0.132,0.099 -1.174,4.293 -1.924,6.484c-0.8,2.336 -4.98,14.541 -6.574,30.151c-0.965,9.446 -0.634,9.479 -0.479,9.722c0.947,1.492 8.581,-0.464 16.744,3.907c19.397,10.384 18.469,33.316 18.74,37.384c1.998,29.964 1.988,29.965 2.017,30.025l0.013,0.025c-2.079,0.502 -2.288,0.571 -4.575,1.67c-9.351,4.494 -11.487,12.899 -11.784,13.829c-3.973,12.452 4.11,23.305 11.772,26.811c3.506,1.604 3.566,1.392 7.331,2.195l0.08,0.015l0.043,0.391c0.362,7.525 1.572,20.28 2.362,36.025c0.781,15.554 -6.913,22.861 -13.318,27.842c-9.456,7.355 -22.106,8.265 -31.701,3.78c-16.546,-7.733 -18.469,-20.689 -18.67,-21.49c-0.491,-1.959 -0.938,-3.741 -2.492,-25.124c-2.539,-34.933 -2.287,-34.93 -2.51,-37.966c-1.42,-19.358 -3.431,-54.758 -4.07,-61.077c-2.609,-25.813 15.432,-31.919 19.672,-34.829c1.857,-1.274 0.728,-7.576 2.928,-21.121c2.029,-12.491 8.282,-45.845 36.298,-78.724c2.578,-3.026 8.608,-9.562 12.652,-13.302c11.824,-10.933 19.398,-15.771 24.804,-19.316c32.724,-21.461 72.32,-29.264 102.214,-27.633c19.338,1.055 28.699,3.467 37.099,5.584c43.046,10.846 93.212,43.355 115.587,101.508c9.68,25.158 10.192,48.68 10.208,48.886c0.287,3.803 2.558,2.495 9.208,7.863c8.592,6.936 12.09,14.392 12.475,25.132c0.006,0.164 -4.496,66.385 -6.239,95.017c-1.12,18.395 -1.21,18.381 -1.293,19.981c-0.302,5.829 -0.04,18.918 -9.374,28.684c-1.382,1.446 -9.219,9.646 -22.653,10.565c-8.628,0.591 -16.591,-3.251 -21.198,-7.024c-13.141,-10.762 -12.476,-22.454 -11.833,-34.228c0.109,-1.998 0.991,-18.169 1.505,-24.964c0.345,-4.563 0.209,-4.565 0.27,-4.957c0.015,-0.096 0.037,-0.19 0.062,-0.283c0.137,-0.022 0.275,-0.044 0.415,-0.068c0.081,-0.014 0.16,-0.034 0.237,-0.06c0.728,-0.25 1.449,-0.518 2.177,-0.768c8.574,-2.941 13.638,-10.665 14.676,-17.706c1.624,-11.02 -4.675,-19.217 -10.448,-22.666c-0.258,-0.154 -2.81,-1.671 -3.247,-1.875c-0.162,-0.075 -0.421,-0.144 -0.64,-0.193Z" style="fill:#fff;"/><path d="M291.476,396.843c-3.411,-0.703 -3.893,-0.472 -9.745,-6.563c-14.418,-15.009 -23.396,-34.476 -25.312,-40.739c-0.058,-0.19 -0.728,-2.378 -1.774,-1.747c-0.834,0.503 -0.571,0.706 -1.262,2.657c-4.283,12.098 -12.093,23.492 -13.391,25.386c-0.906,1.322 -5.922,8.639 -12.555,15.603c-9.529,10.004 -15.973,2.95 -17.045,1.126c-3.872,-6.588 0.25,-11.079 3.105,-14.068c25.492,-26.678 28.124,-54.364 29.07,-64.992c4.309,-48.447 -25.849,-78.218 -29.714,-82.329c-9.07,-9.646 -0.681,-15.967 1.565,-16.869c6.934,-2.784 11.779,3.321 13.334,4.948c19.202,20.09 25.96,41.688 26.177,41.84c0.178,0.125 0.436,-0.013 0.653,-0.001c0.24,0.014 0.491,0.165 0.716,0.081c0.383,-0.143 1.689,-3.086 2.48,-4.522c7.074,-12.85 11.679,-22.047 18.638,-30.223c9.331,-10.963 9.757,-10.62 10.835,-11.33c4.904,-3.23 10.353,-0.731 12.372,2.308c4.636,6.977 -0.905,12.038 -3.9,15.293c-39.548,43.002 -33.248,99.857 -9.926,132.589c10.525,14.771 13.692,15.048 14.996,20.134c0.15,0.585 0.9,3.509 -2.035,7.265c-3.609,4.62 -6.374,4.067 -7.282,4.151Z" style="fill:#fff;"/><path d="M469.518,252.13c5.726,0.655 9.45,1.786 18.218,16.231c6.43,10.593 11.955,41.635 1.13,78.24c-1.524,5.155 -4.442,16.43 -16.332,20.984c-1.157,0.443 -11.831,5.536 -20.427,-2.682c-5.922,-5.662 -4.85,-10.596 -4.251,-21.385c0.945,-17.022 1.136,-16.994 1.974,-34.005c2.208,-44.826 2.478,-46.168 5.264,-50.277c4.178,-6.163 10.488,-7.008 14.423,-7.106Z" style="fill:#fff;"/><path d="M43.492,252.14c0.641,0.03 4.753,0.219 7.839,1.717c3.123,1.516 7.447,4.613 8.772,11.711c0.539,2.887 2.007,28.068 2.094,29.948c1.97,42.58 2.961,50.046 3.142,56.987c0.32,12.299 -10.877,20.094 -22.815,15.925c-6.317,-2.206 -10.021,-4.545 -13.776,-10.086c-5.71,-8.427 -14.893,-43.523 -9.346,-72.86c1.665,-8.809 3.314,-13.905 6.8,-19.169c7.795,-11.77 10.619,-13.599 17.29,-14.172Z" style="fill:#fff;"/><path d="M316.426,236.249c1.419,-0.254 4.903,-1.448 8.454,1.832c0.475,0.439 3.492,3.226 3.234,7.408c-0.519,8.407 -8.477,7.739 -19.061,27.784c-8.509,16.114 -15.281,51.552 12.376,81.292c5.791,6.228 8.207,10.502 4.16,16.008c-3.65,4.967 -10.649,3.719 -15.358,-0.79c-12.359,-11.834 -17.135,-22.685 -19.186,-27.076c-8.244,-17.647 -8.522,-39.381 -8.18,-42.167c1.768,-14.416 2.1,-14.918 3.217,-19.149c0.706,-2.675 4.707,-17.827 15.185,-31.071c9.883,-12.492 12.946,-13.251 15.159,-14.071Z" style="fill:#fff;"/><path d="M193.588,236.157c2.948,1.035 4.412,1.235 13.093,11.189c10.405,11.93 15.242,26.546 16.076,29.069c3.636,10.986 4.842,24.199 4.698,28.083c-0.347,9.385 -1.345,39.969 -26.968,64.99c-3.9,3.809 -10.703,6.353 -14.991,2.016c-5.603,-5.666 -1.118,-11.355 -0.043,-13.037c2.385,-3.729 18.878,-16.451 22.649,-44.015c1.472,-10.756 -0.378,-21.127 -0.7,-22.934c-4.255,-23.857 -20.596,-37.271 -21.931,-38.993c-0.902,-1.163 -4.389,-4.623 -2.889,-10.001c1.272,-4.56 5.632,-7.223 9.863,-6.61c0.385,0.056 0.757,0.187 1.143,0.243Z" style="fill:#fff;"/><path d="M168.607,259.275c1.37,0.799 7.86,4.588 14.495,13.523c10.977,14.781 19.377,51.917 -11.313,76.076c-11.306,8.9 -20.818,-3.192 -14.564,-11.568c3.756,-5.03 18.197,-13.275 16.924,-34.779c-0.798,-13.48 -9.529,-22.189 -11.007,-23.664c-2.883,-2.876 -9.879,-6.828 -7.459,-14.298c1.483,-4.578 6.727,-7.614 11.723,-5.794c0.408,0.149 0.792,0.356 1.2,0.504Z" style="fill:#fff;"/><path d="M341.463,259.424c1.796,-0.68 1.744,-0.784 3.022,-1.01c5.653,-1.001 8.917,3.833 9.62,5.281c3.568,7.352 -4.228,12.763 -5.504,13.918c-18.213,16.491 -14.74,38.925 -3.728,51.556c3.265,3.745 3.756,3.238 7.118,6.891c7.457,8.103 -0.348,16.623 -6.465,16.072c-7.762,-0.7 -19.871,-12.965 -25.127,-28.6c-9.328,-27.746 4.034,-46.191 4.703,-47.281c2.633,-4.293 8.806,-12.47 16.362,-16.828Z" style="fill:#fff;"/><path d="M133.745,286.332c2.586,-0.332 12.393,-2.034 19.833,7.87c6.702,8.922 3.975,23.753 -7.641,29.064c-3.902,1.784 -7.092,1.831 -10.257,1.827c-3.293,-0.696 -3.399,-0.512 -6.556,-1.957c-6.621,-3.029 -13.596,-12.412 -10.163,-23.171c0.258,-0.808 2.096,-8.13 10.225,-12.037c2.198,-1.056 2.231,-1.035 4.559,-1.597Z" style="fill:#fff;"/><path d="M379.908,286.892c0.502,0.252 2.705,1.574 2.934,1.711c5.002,2.988 10.425,10.105 9.019,19.653c-0.897,6.085 -5.271,12.764 -12.681,15.305c-0.688,0.236 -1.371,0.489 -2.058,0.727c-7.762,1.284 -11.542,-0.423 -15.813,-3.084c-8.693,-5.416 -13.071,-22.221 -0.148,-31.825c5.773,-4.291 12.341,-3.934 15.03,-3.378c1.541,0.319 2.572,0.608 2.889,0.696l0.008,0.002c0.311,0.1 0.726,0.177 0.821,0.194Z" style="fill:#fff;"/></g></svg>