<?xml version="1.0" encoding="UTF-8" standalone="no"?><!DOCTYPE svg PUBLIC "-//W3C//DTD SVG 1.1//EN" "http://www.w3.org/Graphics/SVG/1.1/DTD/svg11.dtd"><svg width="100%" height="100%" viewBox="0 0 24 25" version="1.1" xmlns="http://www.w3.org/2000/svg" xmlns:xlink="http://www.w3.org/1999/xlink" xml:space="preserve" xmlns:serif="http://www.serif.com/" style="fill-rule:evenodd;clip-rule:evenodd;stroke-linejoin:round;stroke-miterlimit:2;"><path id="Layer" d="M21.918,13.312c0.504,0.765 0.8,1.691 0.8,2.842c-0.035,4.237 -3.545,7.105 -11.104,7.105c-4.723,0 -9.916,-1.439 -10.347,-6.917l0,-0.27l7.082,0l-1.567,4.614l5.165,-3.588l5.167,3.588l-1.341,-3.967c-0.207,-0.404 -0.746,-0.629 -0.746,-0.629c-2.825,-1.565 -13.12,-0.72 -13.12,-7.638c0,-5.208 5.48,-6.728 9.772,-6.728c4.491,0 9.763,1.016 10.232,6.414l0,0.207l-7.972,0l-1.972,-5.801l-1.979,5.801l-6.389,0l3.572,2.455c1.044,-0.414 2.161,-0.592 3.275,-0.72c1.197,-0.126 2.402,-0.152 3.608,-0.072c1.008,0.063 2.017,0.207 3.006,0.44c0.892,0.207 1.799,0.442 2.609,0.882c0.91,0.504 1.701,1.133 2.25,1.98l0,0.002Z" style="fill:#fff;fill-rule:nonzero;"/></svg>