<?xml version="1.0" encoding="UTF-8" standalone="no"?><!DOCTYPE svg PUBLIC "-//W3C//DTD SVG 1.1//EN" "http://www.w3.org/Graphics/SVG/1.1/DTD/svg11.dtd"><svg width="100%" height="100%" viewBox="0 0 144 144" version="1.1" xmlns="http://www.w3.org/2000/svg" xmlns:xlink="http://www.w3.org/1999/xlink" xml:space="preserve" xmlns:serif="http://www.serif.com/" style="fill-rule:evenodd;clip-rule:evenodd;stroke-linejoin:round;stroke-miterlimit:2;"><path d="M130.863,57.739l-0.468,-2.327l-19.788,-3.457l11.498,-15.557l-1.337,-1.462l-16.913,8.11l2.139,-21.54l-1.738,-0.997l-10.295,17.418l-11.566,-25.927l-2.005,0l2.74,25.064l-29.08,-23.269l-2.474,0.732l22.396,28.122l-44.323,-14.76l-2.006,2.261l39.577,22.536l-54.618,4.521l-0.602,3.39l56.757,6.184l-47.33,39.157l2.005,2.726l56.356,-30.648l-11.164,53.983l3.41,0l21.592,-50.792l13.17,39.756l2.34,-1.795l-5.415,-40.42l20.524,23.268l1.337,-2.128l-15.711,-28.853l21.928,8.111l0.201,-2.46l-19.655,-14.493l18.518,-4.454Z" style="fill:#fff;fill-rule:nonzero;"/></svg>