<?xml version="1.0" encoding="UTF-8" standalone="no"?><!DOCTYPE svg PUBLIC "-//W3C//DTD SVG 1.1//EN" "http://www.w3.org/Graphics/SVG/1.1/DTD/svg11.dtd"><svg width="100%" height="100%" viewBox="0 0 24 24" version="1.1" xmlns="http://www.w3.org/2000/svg" xmlns:xlink="http://www.w3.org/1999/xlink" xml:space="preserve" xmlns:serif="http://www.serif.com/" style="fill-rule:evenodd;clip-rule:evenodd;stroke-linejoin:round;stroke-miterlimit:2;"><path d="M12,22c5.523,0 10,-4.477 10,-10c0,-5.523 -4.477,-10 -10,-10c-5.523,0 -10,4.477 -10,10c0,5.523 4.477,10 10,10Zm-1.818,-7.386l4.432,-2.727l-4.432,-2.5l0,5.227Zm-3.409,-2.614c0,-2.886 2.341,-5.227 5.227,-5.227c2.886,0 5.227,2.341 5.227,5.227c0,2.886 -2.341,5.227 -5.227,5.227c-2.886,0 -5.227,-2.341 -5.227,-5.227Zm5.227,-4.773c2.625,0 4.773,2.136 4.773,4.773c0,2.636 -2.136,4.773 -4.773,4.773c-2.636,0 -4.773,-2.136 -4.773,-4.773c0,-2.636 2.148,-4.773 4.773,-4.773Z" style="fill:#fff;"/></svg>